<?xml version="1.0" encoding="iso-8859-1"?>
<!-- Generator: Adobe Illustrator 16.0.3, SVG Export Plug-In . SVG Version: 6.00 Build 0)  -->
<!DOCTYPE svg PUBLIC "-//W3C//DTD SVG 1.1//EN" "http://www.w3.org/Graphics/SVG/1.1/DTD/svg11.dtd">
<svg version="1.1" id="Layer_1" xmlns="http://www.w3.org/2000/svg" xmlns:xlink="http://www.w3.org/1999/xlink" x="0px" y="0px"
	 width="511px" height="511px" viewBox="0 0 511 511" style="enable-background:new 0 0 511 511;" xml:space="preserve">
<path style="fill:#01C26E;" d="M511,431.001C511,475.184,475.183,511,431,511H80c-44.183,0-80-35.816-80-79.999v-327L104,0h327
	c44.183,0,80,35.819,80,80.001V431.001z"/>
<path style="fill:#01FF91;" d="M0,104h69.333C88.4,104,104,88.667,104,69.601v-69.6L0,104z"/>
<polygon style="opacity:0.2;fill:#5D5D5D;" points="0,159.735 0,104 55.467,104 "/>
<path style="fill:#2D3E50;" d="M410.751,297.438c0-51.195-24.787-96.596-63.009-124.874c10.107-10.107,20.215-20.215,30.322-30.322
	c7.785-7.786-4.278-19.848-12.063-12.064c-10.94,10.941-21.881,21.882-32.821,32.822c-22.845-13.226-49.371-20.801-77.667-20.801
	c-28.303,0-54.834,7.578-77.683,20.81c-10.944-10.943-21.887-21.887-32.831-32.831c-7.785-7.784-19.848,4.278-12.063,12.064
	c8.164,8.164,21.269,21.269,30.332,30.332c-38.214,28.278-62.995,73.674-62.995,124.863c0,59.733,33.742,111.576,83.201,137.535
	L165.952,474h11.941l22.093-31.561c17.243,6.607,35.959,10.238,55.527,10.238c19.567,0,38.284-3.631,55.526-10.238L333.132,474
	h11.941l-17.522-39.027C377.009,409.014,410.751,357.171,410.751,297.438z"/>
<path style="fill:#FFFFFF;" d="M253,24c0,19,0,38,0,57c0,6,10,6,10,0c0-19,0-38,0-57C263,18,253,18,253,24z"/>
<path style="fill:#FFFFFF;" d="M336.385,49.545c-12.947,12.947-25.894,25.894-38.841,38.841c-4.563,4.563,2.507,11.635,7.071,7.071
	c12.947-12.947,25.894-25.895,38.841-38.841C348.02,52.053,340.949,44.981,336.385,49.545z"/>
<path style="fill:#FFFFFF;" d="M218.456,88.386c-14.614-12.947-29.228-25.894-43.841-38.841c-4.808-4.26-11.907,2.787-7.071,7.071
	c14.614,12.946,29.228,25.894,43.841,38.841C216.193,99.717,223.292,92.671,218.456,88.386z"/>
<path style="fill:#F3C40F;" d="M393.746,198.333c22.817-22.818,22.817-59.812,0-82.628c-22.817-22.818-59.812-22.818-82.629,0
	c-0.101,0.1-0.194,0.207-0.294,0.309l82.614,82.613C393.538,198.527,393.645,198.435,393.746,198.333z"/>
<path style="fill:#FFD224;" d="M398.571,132.591c5.05,5.051,8.978,10.799,11.793,16.931c-1.592-12.365-7.121-24.32-16.619-33.817
	c-22.817-22.818-59.812-22.818-82.629,0c-0.101,0.1-0.194,0.207-0.294,0.309l11.253,11.252
	C344.97,109.953,377.698,111.72,398.571,132.591z"/>
<path style="fill:#F3C40F;" d="M117.254,198.333c-22.817-22.818-22.817-59.812,0-82.628c22.818-22.818,59.812-22.818,82.629,0
	c0.101,0.1,0.194,0.207,0.294,0.309l-82.614,82.613C117.462,198.527,117.355,198.435,117.254,198.333z"/>
<path style="fill:#FFD224;" d="M134.314,115.705c9.233-9.234,20.788-14.728,32.785-16.489c-17.651-2.59-36.26,2.904-49.844,16.489
	c-22.817,22.816-22.817,59.811,0,82.628c0.101,0.101,0.208,0.194,0.309,0.294l9.344-9.344
	C111.847,166.594,114.314,135.704,134.314,115.705z"/>
<path style="fill:#496582;" d="M108.803,305.968c0-85.736,69.502-155.239,155.239-155.239c40.699,0,77.731,15.669,105.416,41.293
	C341.102,161.386,300.55,142.2,255.513,142.2c-85.736,0-155.239,69.502-155.239,155.238c0,45.039,19.187,85.589,49.823,113.946
	C124.472,383.699,108.803,346.666,108.803,305.968z"/>
<path style="fill:#FFFFFF;" d="M255.513,422.861c-69.158,0-125.423-56.265-125.423-125.423s56.265-125.422,125.423-125.422
	c69.158,0,125.422,56.264,125.422,125.422S324.67,422.861,255.513,422.861z"/>
<path style="fill:#FFFFFF;" d="M255.513,422.861c-69.158,0-125.423-56.265-125.423-125.423s56.265-125.422,125.423-125.422
	c69.158,0,125.422,56.264,125.422,125.422S324.67,422.861,255.513,422.861z"/>
<path style="opacity:0.2;fill:#5D5D5D;" d="M355.327,373.291l-34.563-79.264l-17.778,7.148L301.999,298H263l-10-81l0,0l1,94.878
	l-5.105-8.47L201,336.674v6.7l-21.576,8.75l38.662,64.992c11.861,3.729,24.413,5.745,37.49,5.745
	C296.25,422.861,332.396,403.393,355.327,373.291z"/>
<path style="fill:#E24C3F;" d="M253.148,294.551c-24.005,18.338-48.011,36.677-72.016,55.017c-3.877,2.961-0.061,9.634,3.875,6.627
	c24.005-18.338,48.011-36.677,72.017-55.016C260.9,298.217,257.084,291.543,253.148,294.551L253.148,294.551z"/>
<path style="fill:#E8E8E8;" d="M133.501,307.674c0-69.158,56.265-125.423,125.423-125.423c53.474,0,99.23,33.642,117.238,80.869
	c-14.963-52.529-63.386-91.104-120.65-91.104c-69.158,0-125.423,56.264-125.423,125.422c0,15.686,2.902,30.702,8.184,44.554
	C135.167,331.081,133.501,319.568,133.501,307.674z"/>
<path style="fill:#2D3E50;" d="M314,290c-13,0-25.417,0-38.488,0c-2.251-6-7.512-9.959-12.512-11.979c0-19.527,0-50.021,0-68.021
	c0-11-17-11-17,0c0,23,0,46.195,0,69.291c-7,3.557-11.134,10.546-11.134,18.592c0,11.649,9.443,21.092,21.092,21.092
	c8.378,0,15.594-4.975,18.998-11.975c12.823,0,29.045,0,39.045,0C325,307,325,290,314,290z"/>
<g>
</g>
<g>
</g>
<g>
</g>
<g>
</g>
<g>
</g>
<g>
</g>
<g>
</g>
<g>
</g>
<g>
</g>
<g>
</g>
<g>
</g>
<g>
</g>
<g>
</g>
<g>
</g>
<g>
</g>
</svg>
