<?xml version="1.0" encoding="iso-8859-1"?>
<!-- Generator: Adobe Illustrator 16.0.3, SVG Export Plug-In . SVG Version: 6.00 Build 0)  -->
<!DOCTYPE svg PUBLIC "-//W3C//DTD SVG 1.1//EN" "http://www.w3.org/Graphics/SVG/1.1/DTD/svg11.dtd">
<svg version="1.1" id="Layer_1" xmlns="http://www.w3.org/2000/svg" xmlns:xlink="http://www.w3.org/1999/xlink" x="0px" y="0px"
	 width="511px" height="511px" viewBox="0 0 511 511" style="enable-background:new 0 0 511 511;" xml:space="preserve">
<path style="fill:#8F44AB;" d="M511,431c0,44.183-35.942,80-80.125,80h-351C35.692,511,0,475.183,0,431V104L103.875,0h327
	C475.058,0,511,35.817,511,80V431z"/>
<path style="fill:#E24C3F;" d="M283,133.833c0-10.401-8.432-18.833-18.833-18.833h-18.334C235.432,115,227,123.432,227,133.833
	v82.334c0,10.401,8.432,18.833,18.833,18.833h18.334c10.401,0,18.833-8.432,18.833-18.833V133.833z"/>
<rect x="227" y="141" style="fill:#FFFFFF;" width="56" height="18"/>
<path style="fill:#FFFFFF;" d="M326,188.949c0-7.704-6.246-13.949-13.95-13.949h-113.1c-7.704,0-13.95,6.245-13.95,13.949v121.102
	c0,7.704,6.246,13.949,13.95,13.949h113.1c7.704,0,13.95-6.245,13.95-13.949V188.949z"/>
<path style="opacity:0.2;fill:#5D5D5D;" d="M253,240.351c-10.346-0.88-18.791-1.771-17.841-2.306l-3.979-42.828l-12.555,5.533
	L206.5,197l4.781,46.518c1.44,0.413,1.961-0.518,3.535-0.518H253V240.351z"/>
<circle style="fill:#E24C3F;" cx="218.59" cy="196.313" r="12.269"/>
<circle style="fill:#4390C4;" cx="218.59" cy="196.313" r="8.427"/>
<path style="opacity:0.2;fill:#5D5D5D;" d="M290,240.351c-10.346-0.88-18.791-1.771-17.841-2.306l-3.979-42.828l-12.555,5.533
	L243.5,197l4.781,46.518c1.44,0.413,1.961-0.518,3.535-0.518H290V240.351z"/>
<circle style="fill:#E24C3F;" cx="255.59" cy="196.313" r="12.269"/>
<circle style="fill:#4390C4;" cx="255.59" cy="196.313" r="8.427"/>
<path style="opacity:0.2;fill:#5D5D5D;" d="M327,240.351c-10.346-0.88-18.791-1.771-17.841-2.306l-3.979-42.828l-12.555,5.533
	L280.5,197l4.781,46.518c1.44,0.413,1.961-0.518,3.535-0.518H327V240.351z"/>
<circle style="fill:#E24C3F;" cx="292.59" cy="196.313" r="12.269"/>
<circle style="fill:#4390C4;" cx="292.59" cy="196.313" r="8.427"/>
<path style="fill:#FFFFFF;" d="M326,227c0-5.523-4.477-10-10-10H195c-5.523,0-10,4.477-10,10v87c0,5.523,4.477,10,10,10h121
	c5.523,0,10-4.477,10-10V227z"/>
<path style="fill:#FFFFFF;" d="M356,229.746c0-7.842-6.771-13.746-14.612-13.746H169.612c-7.841,0-14.612,5.904-14.612,13.746
	v123.508c0,7.842,6.771,13.746,14.612,13.746h171.775c7.841,0,14.612-5.904,14.612-13.746V229.746z"/>
<path style="opacity:0.2;fill:#5D5D5D;" d="M216,281.351c-10.346-0.88-18.791-1.771-17.841-2.306l-3.979-42.828l-12.555,5.533
	L169.5,238l4.781,46.518c1.44,0.413,1.961-0.518,3.535-0.518H216V281.351z"/>
<circle style="fill:#E24C3F;" cx="181.59" cy="237.313" r="12.269"/>
<circle style="fill:#4390C4;" cx="181.59" cy="237.313" r="8.427"/>
<path style="opacity:0.2;fill:#5D5D5D;" d="M253,281.351c-10.346-0.88-18.791-1.771-17.841-2.306l-3.979-42.828l-12.555,5.533
	L206.5,238l4.781,46.518c1.44,0.413,1.961-0.518,3.535-0.518H253V281.351z"/>
<circle style="fill:#E24C3F;" cx="218.59" cy="237.313" r="12.269"/>
<circle style="fill:#4390C4;" cx="218.59" cy="237.313" r="8.427"/>
<path style="opacity:0.2;fill:#5D5D5D;" d="M290,281.351c-10.346-0.88-18.791-1.771-17.841-2.306l-3.979-42.828l-12.555,5.533
	L243.5,238l4.781,46.518c1.44,0.413,1.961-0.518,3.535-0.518H290V281.351z"/>
<circle style="fill:#E24C3F;" cx="255.59" cy="237.313" r="12.269"/>
<circle style="fill:#4390C4;" cx="255.59" cy="237.313" r="8.427"/>
<path style="opacity:0.2;fill:#5D5D5D;" d="M327,281.351c-10.346-0.88-18.791-1.771-17.841-2.306l-3.979-42.828l-12.555,5.533
	L280.5,238l4.781,46.518c1.44,0.413,1.961-0.518,3.535-0.518H327V281.351z"/>
<circle style="fill:#E24C3F;" cx="292.59" cy="237.313" r="12.269"/>
<circle style="fill:#4390C4;" cx="292.59" cy="237.313" r="8.427"/>
<path style="opacity:0.2;fill:#5D5D5D;" d="M335.476,292.786c-10.346-0.88,11.138,2.282,12.087,1.747l-5.383-58.316l-12.555,5.533
	L317.5,238l4.781,46.518c1.44,0.413,1.961-0.518,3.535-0.518l5.746,3.337L335.476,292.786z"/>
<circle style="fill:#E24C3F;" cx="329.59" cy="237.313" r="12.269"/>
<circle style="fill:#4390C4;" cx="329.59" cy="237.313" r="8.427"/>
<path style="fill:#BABABA;" d="M326.835,64.011c-9.798,0-18.34,5.362-22.867,13.309c-1.907-0.731-3.969-1.149-6.133-1.149
	c-5.521,0-10.419,2.621-13.556,6.674c-0.147-0.01-0.295-0.022-0.444-0.022c-2.64,0-4.907,1.578-5.924,3.839
	c-1.818-0.949-3.882-1.494-6.076-1.494c-7.263,0-13.151,5.889-13.151,13.151c0,0.059,0.008,0.114,0.008,0.173
	c-0.863-0.424-1.83-0.669-2.856-0.669c-3.587,0-6.496,2.909-6.496,6.496s2.909,6.496,6.496,6.496c2.694,0,5.006-1.642,5.989-3.979
	c2.413,2.833,5.999,4.635,10.011,4.635c4.354,0,8.202-2.125,10.597-5.386c1.158,1.071,2.702,1.73,4.403,1.73
	c0.535,0,1.053-0.072,1.55-0.194c2.711,1.795,5.957,2.846,9.45,2.846c1.083,0,2.139-0.112,3.166-0.305
	c1.056,2.161,3.268,3.653,5.834,3.653c1.876,0,3.561-0.8,4.746-2.071c4.304,3.07,9.565,4.882,15.254,4.882
	c14.526,0,26.307-11.779,26.307-26.307S341.361,64.011,326.835,64.011z"/>
<path style="fill:#B154D4;" d="M0,104h69.334C88.4,104,104,88.666,104,69.6l-0.125-69.568L0,104z"/>
<polygon style="opacity:0.2;fill:#5D5D5D;" points="1,159.733 1,104 56.467,104 "/>
<path style="fill:#3BB2F4;" d="M384.479,443.251c-11.642,0-22.92-2.752-30.969-7.465c-7.926,4.615-18.977,7.218-30.961,7.218
	c-11.99,0-23.043-2.602-30.965-7.214c-7.93,4.62-18.983,7.226-30.967,7.226c-11.996,0-23.047-2.597-30.963-7.202
	c-7.944,4.635-18.999,7.249-30.967,7.249c-12.027,0-23.078-2.581-30.965-7.158c-7.973,4.638-19.246,7.346-30.967,7.346
	c-2.761,0-5-2.238-5-5s2.239-5,5-5c11.211,0,21.689-2.745,28.03-7.345c1.751-1.27,4.12-1.271,5.872,0.001
	c6.178,4.48,16.655,7.156,28.029,7.156c11.292,0,21.771-2.71,28.029-7.25c1.75-1.271,4.121-1.271,5.871,0
	c6.219,4.51,16.697,7.203,28.029,7.203c11.313,0,21.791-2.701,28.029-7.227c1.752-1.271,4.121-1.271,5.872-0.001
	c6.229,4.519,16.708,7.216,28.03,7.216c11.317,0,21.795-2.699,28.029-7.221c1.75-1.271,4.12-1.271,5.871-0.001
	c6.352,4.607,17.092,7.469,28.029,7.469c2.762,0,5,2.238,5,5S387.24,443.251,384.479,443.251z"/>
<path style="fill:#D3D3D3;" d="M255,245v187.785c1.839,0.148,3.715,0.23,5.617,0.23c11.313,0,21.791-2.701,28.029-7.227
	c1.752-1.271,4.121-1.271,5.872-0.001c6.229,4.519,16.708,7.216,28.03,7.216c1.567,0,3.116-0.057,4.643-0.158
	c6.878-17.69,32.66-77.271,82.859-120.868L255,245z"/>
<path style="fill:#FFFFFF;" d="M198.688,433.063c11.292,0,21.771-2.71,28.029-7.25c1.75-1.271,4.121-1.271,5.871,0
	c5.174,3.752,13.301,6.24,22.412,6.973V245L99.896,311.978c48.541,42.156,74.218,99.258,82.068,118.979
	C186.962,432.313,192.696,433.063,198.688,433.063z"/>
<path style="fill:#E24C3F;" d="M181.965,430.956c4.997,1.357,10.731,2.106,16.723,2.106c11.292,0,21.771-2.71,28.029-7.25
	c1.75-1.271,4.121-1.271,5.871,0c5.174,3.752,13.301,6.24,22.412,6.973V383l-84.525,22.575
	C175.888,416.33,179.685,425.227,181.965,430.956z"/>
<path style="fill:#B7342E;" d="M288.646,425.789c1.752-1.271,4.121-1.271,5.872-0.001c6.229,4.519,16.708,7.216,28.03,7.216
	c1.567,0,3.116-0.057,4.643-0.158c2.161-5.559,6.19-15.256,12.256-27.291L255,383v49.785c1.839,0.148,3.715,0.23,5.617,0.23
	C271.93,433.016,282.408,430.314,288.646,425.789z"/>
<path style="fill:#E24C3F;" d="M167.924,400.605L255,377v-14l-93.756,25.416C163.672,392.646,165.893,396.721,167.924,400.605z"/>
<path style="fill:#B7342E;" d="M348.688,388.397L255,363v14l87.002,23.585C344.035,396.703,346.261,392.624,348.688,388.397z"/>
<g>
</g>
<g>
</g>
<g>
</g>
<g>
</g>
<g>
</g>
<g>
</g>
<g>
</g>
<g>
</g>
<g>
</g>
<g>
</g>
<g>
</g>
<g>
</g>
<g>
</g>
<g>
</g>
<g>
</g>
</svg>
