<?xml version="1.0" encoding="iso-8859-1"?>
<!-- Generator: Adobe Illustrator 16.0.3, SVG Export Plug-In . SVG Version: 6.00 Build 0)  -->
<!DOCTYPE svg PUBLIC "-//W3C//DTD SVG 1.1//EN" "http://www.w3.org/Graphics/SVG/1.1/DTD/svg11.dtd">
<svg version="1.1" id="Layer_1" xmlns="http://www.w3.org/2000/svg" xmlns:xlink="http://www.w3.org/1999/xlink" x="0px" y="0px"
	 width="511px" height="510.857px" viewBox="0 0 511 510.857" style="enable-background:new 0 0 511 510.857;" xml:space="preserve"
	>
<path style="fill:#B86D38;" d="M431,334.858H80c-23.901,0-45.341,44.505-60,27.887v68.113c0,44.183,35.817,80,80,80h311
	c44.183,0,80-35.817,80-80v-68.113C476.341,379.363,454.901,334.858,431,334.858z"/>
<rect x="469" y="372.857" style="fill:#94582D;" width="4" height="9"/>
<rect x="469" y="385.857" style="fill:#94582D;" width="4" height="9"/>
<rect x="469" y="403.857" style="fill:#94582D;" width="4" height="9"/>
<rect x="469" y="417.857" style="fill:#94582D;" width="4" height="9"/>
<path style="fill:#94582D;" d="M467.292,443.702c0,0,0.12-0.526,0.3-1.316c0.141-0.797,0.327-1.859,0.515-2.923
	c0.13-1.071,0.284-2.141,0.363-2.946c0.061-0.809,0.102-1.346,0.102-1.346l4.488,0.332c0,0-0.045,0.58-0.111,1.451
	c-0.085,0.868-0.249,2.021-0.392,3.176c-0.202,1.146-0.403,2.293-0.555,3.153c-0.193,0.852-0.322,1.419-0.322,1.419L467.292,443.702
	z"/>
<path style="fill:#94582D;" d="M463.03,455.904c0,0,0.223-0.491,0.558-1.229c0.345-0.733,0.779-1.722,1.158-2.733
	c0.416-0.996,0.762-2.02,1.016-2.787c0.26-0.768,0.427-1.28,0.427-1.28l4.3,1.328c0,0-0.18,0.554-0.46,1.381
	c-0.274,0.829-0.647,1.933-1.095,3.008c-0.217,0.54-0.432,1.081-0.635,1.588c-0.225,0.497-0.435,0.961-0.614,1.358
	c-0.362,0.795-0.603,1.324-0.603,1.324L463.03,455.904z"/>
<path style="fill:#94582D;" d="M453.306,470.11c0,0,0.385-0.38,0.906-1c0.521-0.621,1.263-1.409,1.911-2.274
	c0.672-0.845,1.338-1.695,1.792-2.367c0.47-0.659,0.783-1.1,0.783-1.1l3.715,2.54c0,0-0.338,0.475-0.844,1.186
	c-0.49,0.723-1.206,1.641-1.931,2.551c-0.701,0.93-1.497,1.781-2.06,2.448c-0.562,0.668-0.976,1.078-0.976,1.078L453.306,470.11z"/>
<path style="fill:#94582D;" d="M443.511,478.557c0,0,0.44-0.313,1.1-0.782c0.672-0.455,1.522-1.121,2.367-1.793
	c0.865-0.648,1.653-1.391,2.273-1.911c0.621-0.521,1.001-0.905,1.001-0.905l3.062,3.297c0,0-0.41,0.414-1.078,0.977
	c-0.667,0.563-1.519,1.357-2.448,2.059c-0.911,0.725-1.828,1.44-2.551,1.932c-0.711,0.506-1.186,0.842-1.186,0.842L443.511,478.557z
	"/>
<path style="fill:#94582D;" d="M428.017,486.047c0,0,0.513-0.167,1.279-0.427c0.77-0.254,1.792-0.6,2.789-1.016
	c1.012-0.379,1.999-0.813,2.732-1.158c0.737-0.334,1.229-0.558,1.229-0.558l1.959,4.052c0,0-0.53,0.24-1.325,0.602
	c-0.397,0.181-0.861,0.391-1.358,0.615c-0.507,0.203-1.048,0.418-1.588,0.635c-1.075,0.447-2.179,0.82-3.008,1.095
	c-0.827,0.28-1.381,0.46-1.381,0.46L428.017,486.047z"/>
<path style="fill:#94582D;" d="M415.312,488.43c0,0,0.539-0.04,1.347-0.103c0.806-0.078,1.875-0.232,2.946-0.363
	c1.063-0.187,2.126-0.373,2.924-0.514c0.789-0.18,1.315-0.299,1.315-0.299l1,4.387c0,0-0.567,0.129-1.419,0.322
	c-0.859,0.15-2.006,0.353-3.153,0.555c-1.154,0.143-2.308,0.307-3.176,0.392c-0.871,0.066-1.451,0.11-1.451,0.11L415.312,488.43z"/>
<rect x="398" y="488.857" style="fill:#94582D;" width="9" height="4"/>
<rect x="384" y="488.857" style="fill:#94582D;" width="9" height="4"/>
<rect x="366" y="488.857" style="fill:#94582D;" width="9" height="4"/>
<rect x="353" y="488.857" style="fill:#94582D;" width="9" height="4"/>
<rect x="335" y="488.857" style="fill:#94582D;" width="9" height="4"/>
<rect x="321" y="488.857" style="fill:#94582D;" width="9" height="4"/>
<rect x="303" y="488.857" style="fill:#94582D;" width="9" height="4"/>
<rect x="290" y="488.857" style="fill:#94582D;" width="9" height="4"/>
<rect x="272" y="488.857" style="fill:#94582D;" width="9" height="4"/>
<rect x="258" y="488.857" style="fill:#94582D;" width="9" height="4"/>
<rect x="240" y="488.857" style="fill:#94582D;" width="9" height="4"/>
<rect x="227" y="488.857" style="fill:#94582D;" width="9" height="4"/>
<rect x="209" y="488.857" style="fill:#94582D;" width="9" height="4"/>
<rect x="196" y="488.857" style="fill:#94582D;" width="9" height="4"/>
<rect x="178" y="488.857" style="fill:#94582D;" width="9" height="4"/>
<rect x="164" y="488.857" style="fill:#94582D;" width="9" height="4"/>
<rect x="146" y="488.857" style="fill:#94582D;" width="9" height="4"/>
<rect x="133" y="488.857" style="fill:#94582D;" width="9" height="4"/>
<rect x="115" y="488.857" style="fill:#94582D;" width="9" height="4"/>
<rect x="101" y="488.857" style="fill:#94582D;" width="9" height="4"/>
<path style="fill:#94582D;" d="M84.239,486.403c0,0,0.519,0.148,1.298,0.371c0.788,0.182,1.84,0.425,2.892,0.668
	c1.063,0.188,2.126,0.376,2.923,0.517c0.804,0.103,1.34,0.17,1.34,0.17l-0.567,4.464c0,0-0.577-0.073-1.443-0.184
	c-0.859-0.152-2.006-0.355-3.152-0.558c-1.134-0.263-2.269-0.524-3.119-0.722c-0.84-0.238-1.399-0.396-1.399-0.396L84.239,486.403z"
	/>
<path style="fill:#94582D;" d="M72.279,481.503c0,0,0.472,0.261,1.195,0.626c0.719,0.372,1.676,0.874,2.668,1.3
	c0.492,0.223,0.984,0.443,1.445,0.652c0.471,0.186,0.91,0.359,1.287,0.508c0.752,0.297,1.254,0.496,1.254,0.496l-1.553,4.223
	c0,0-0.541-0.213-1.354-0.533c-0.406-0.16-0.88-0.348-1.387-0.549c-0.498-0.225-1.028-0.463-1.559-0.703
	c-1.07-0.46-2.103-1-2.878-1.4c-0.779-0.395-1.288-0.676-1.288-0.676L72.279,481.503z"/>
<path style="fill:#94582D;" d="M58.596,471.056c0,0,0.093,0.098,0.256,0.269c0.161,0.173,0.395,0.417,0.692,0.692
	c0.597,0.547,1.345,1.329,2.172,2.025c0.819,0.703,1.621,1.428,2.272,1.912c0.637,0.5,1.061,0.834,1.061,0.834l-2.729,3.578
	c0,0-0.457-0.359-1.144-0.898c-0.699-0.523-1.565-1.302-2.447-2.061c-0.889-0.752-1.698-1.59-2.34-2.182
	c-0.32-0.297-0.571-0.56-0.745-0.746c-0.176-0.184-0.276-0.289-0.276-0.289L58.596,471.056z"/>
<path style="fill:#94582D;" d="M50.662,460.841c0,0,0.292,0.455,0.729,1.137c0.219,0.34,0.474,0.738,0.747,1.164
	c0.294,0.412,0.607,0.852,0.921,1.291c0.608,0.895,1.292,1.73,1.791,2.369c0.25,0.318,0.458,0.584,0.604,0.77
	c0.154,0.179,0.243,0.28,0.243,0.28l-3.451,2.888c0,0-0.096-0.11-0.262-0.303c-0.158-0.2-0.383-0.486-0.652-0.828
	c-0.539-0.688-1.273-1.591-1.931-2.553c-0.337-0.474-0.674-0.947-0.99-1.393c-0.295-0.459-0.57-0.887-0.807-1.254
	c-0.471-0.734-0.785-1.225-0.785-1.225L50.662,460.841z"/>
<path style="fill:#94582D;" d="M44.002,444.974c0,0,0.031,0.131,0.086,0.361c0.065,0.227,0.158,0.551,0.269,0.941
	c0.224,0.777,0.499,1.821,0.868,2.837c0.173,0.511,0.346,1.022,0.508,1.501c0.186,0.472,0.357,0.912,0.506,1.288
	c0.297,0.753,0.495,1.255,0.495,1.255l-4.149,1.744c0,0-0.214-0.541-0.535-1.354c-0.158-0.406-0.344-0.881-0.543-1.389
	c-0.176-0.518-0.362-1.068-0.55-1.62c-0.396-1.095-0.695-2.222-0.936-3.062c-0.119-0.42-0.219-0.77-0.288-1.014
	c-0.06-0.248-0.094-0.39-0.094-0.39L44.002,444.974z"/>
<path style="fill:#94582D;" d="M42.283,432.161c0,0,0.014,0.539,0.034,1.35c0.029,0.809,0.136,1.885,0.21,2.962
	c0.108,1.073,0.266,2.143,0.361,2.946c0.12,0.801,0.227,1.33,0.227,1.33l-4.434,0.77c0,0-0.114-0.572-0.244-1.436
	c-0.104-0.866-0.273-2.019-0.389-3.176c-0.082-1.162-0.194-2.32-0.227-3.193c-0.022-0.871-0.037-1.453-0.037-1.453L42.283,432.161z"
	/>
<rect x="38" y="413.857" style="fill:#94582D;" width="4" height="9"/>
<rect x="38" y="400.857" style="fill:#94582D;" width="4" height="9"/>
<rect x="38" y="382.857" style="fill:#94582D;" width="4" height="9"/>
<path style="fill:#D07C40;" d="M511,309.858c0,44.183-35.817,80-80,80H80c-44.183,0-80-35.817-80-80v-137l104-104h327
	c44.183,0,80,35.817,80,80V309.858z"/>
<path style="opacity:0.2;fill:#5D5D5D;" d="M294,341.857c0,2.762-2.239,5-5,5h-67c-2.761,0-5-2.238-5-5v-16c0-2.762,2.239-5,5-5h67
	c2.761,0,5,2.238,5,5V341.857z"/>
<rect x="22.562" y="171.736" transform="matrix(0.7071 -0.7071 0.7071 0.7071 -115.0727 70.1616)" style="fill:#B86D38;" width="9.188" height="4.5"/>
<rect x="32.309" y="161.99" transform="matrix(0.7072 -0.7071 0.7071 0.7072 -105.3195 74.1886)" style="fill:#B86D38;" width="9.189" height="4.5"/>
<rect x="45.304" y="148.995" transform="matrix(0.7072 -0.7071 0.7071 0.7072 -92.3258 79.5714)" style="fill:#B86D38;" width="9.189" height="4.5"/>
<rect x="55.05" y="139.248" transform="matrix(0.7072 -0.7071 0.7071 0.7072 -82.5804 83.6082)" style="fill:#B86D38;" width="9.189" height="4.5"/>
<rect x="68.045" y="126.253" transform="matrix(0.7071 -0.7071 0.7071 0.7071 -69.5896 89.0016)" style="fill:#B86D38;" width="9.19" height="4.5"/>
<rect x="77.791" y="116.507" transform="matrix(0.7071 -0.7072 0.7072 0.7071 -59.8455 93.0493)" style="fill:#B86D38;" width="9.189" height="4.5"/>
<rect x="90.787" y="103.511" transform="matrix(0.7071 -0.7071 0.7071 0.7071 -46.8481 98.4212)" style="fill:#B86D38;" width="9.188" height="4.5"/>
<rect x="100.533" y="93.765" transform="matrix(0.7072 -0.7071 0.7071 0.7072 -37.1022 102.4482)" style="fill:#B86D38;" width="9.189" height="4.5"/>
<rect x="118" y="86.857" style="fill:#B86D38;" width="9" height="4"/>
<rect x="131" y="86.857" style="fill:#B86D38;" width="9" height="4"/>
<rect x="150" y="86.857" style="fill:#B86D38;" width="9" height="4"/>
<rect x="163" y="86.857" style="fill:#B86D38;" width="9" height="4"/>
<rect x="181" y="86.857" style="fill:#B86D38;" width="9" height="4"/>
<rect x="195" y="86.857" style="fill:#B86D38;" width="9" height="4"/>
<rect x="213" y="86.857" style="fill:#B86D38;" width="9" height="4"/>
<rect x="227" y="86.857" style="fill:#B86D38;" width="9" height="4"/>
<rect x="245" y="86.857" style="fill:#B86D38;" width="9" height="4"/>
<rect x="259" y="86.857" style="fill:#B86D38;" width="9" height="4"/>
<rect x="277" y="86.857" style="fill:#B86D38;" width="9" height="4"/>
<rect x="290" y="86.857" style="fill:#B86D38;" width="9" height="4"/>
<rect x="309" y="86.857" style="fill:#B86D38;" width="9" height="4"/>
<rect x="322" y="86.857" style="fill:#B86D38;" width="9" height="4"/>
<rect x="340" y="86.857" style="fill:#B86D38;" width="9" height="4"/>
<rect x="354" y="86.857" style="fill:#B86D38;" width="9" height="4"/>
<rect x="372" y="86.857" style="fill:#B86D38;" width="9" height="4"/>
<rect x="386" y="86.857" style="fill:#B86D38;" width="9" height="4"/>
<rect x="404" y="86.857" style="fill:#B86D38;" width="9" height="4"/>
<rect x="418" y="86.857" style="fill:#B86D38;" width="9" height="4"/>
<path style="fill:#B86D38;" d="M444.219,92.653c0,0-0.532-0.123-1.33-0.309c-0.802-0.171-1.882-0.344-2.956-0.543
	c-1.084-0.141-2.168-0.281-2.98-0.388c-0.817-0.063-1.362-0.106-1.362-0.106l0.354-4.485c0,0,0.587,0.046,1.468,0.115
	c0.877,0.114,2.045,0.267,3.214,0.418c1.159,0.213,2.323,0.401,3.188,0.585c0.861,0.199,1.436,0.332,1.436,0.332L444.219,92.653z"/>
<path style="fill:#B86D38;" d="M456.531,97.077c0,0-0.479-0.262-1.231-0.588c-0.751-0.328-1.73-0.818-2.757-1.196
	c-1.014-0.409-2.032-0.806-2.815-1.05c-0.776-0.264-1.293-0.439-1.293-0.439l1.361-4.289c0,0,0.558,0.189,1.396,0.473
	c0.844,0.266,1.942,0.692,3.036,1.133c1.105,0.41,2.163,0.935,2.973,1.289c0.811,0.354,1.328,0.637,1.328,0.637L456.531,97.077z"/>
<path style="fill:#B86D38;" d="M470.802,107.077c0,0-0.396-0.377-0.988-0.943c-0.622-0.535-1.451-1.248-2.28-1.961
	c-0.865-0.668-1.705-1.37-2.377-1.842c-0.668-0.475-1.113-0.792-1.113-0.792l2.582-3.686c0,0,0.479,0.342,1.199,0.854
	c0.723,0.509,1.629,1.263,2.561,1.984c0.905,0.752,1.786,1.536,2.456,2.111c0.64,0.609,1.065,1.016,1.065,1.016L470.802,107.077z"/>
<path style="fill:#B86D38;" d="M479.207,117.114c0,0-0.281-0.469-0.768-1.129c-0.484-0.662-1.085-1.578-1.781-2.423
	c-0.668-0.865-1.351-1.72-1.902-2.327c-0.537-0.62-0.895-1.033-0.895-1.033l3.34-3.016c0,0,0.386,0.445,0.965,1.112
	c0.593,0.655,1.329,1.575,2.05,2.507c0.748,0.912,1.397,1.896,1.919,2.61c0.522,0.713,0.827,1.218,0.827,1.218L479.207,117.114z"/>
<path style="fill:#B86D38;" d="M486.498,132.933c0,0-0.15-0.524-0.377-1.313c-0.27-0.773-0.603-1.814-0.978-2.842
	c-0.412-1.012-0.782-2.041-1.125-2.786c-0.338-0.747-0.563-1.244-0.563-1.244l4.086-1.886c0,0,0.243,0.537,0.607,1.342
	c0.368,0.804,0.771,1.913,1.213,3.006c0.405,1.105,0.765,2.229,1.054,3.064c0.245,0.85,0.408,1.416,0.408,1.416L486.498,132.933z"/>
<path style="fill:#B86D38;" d="M488.671,145.839c0,0-0.042-0.546-0.104-1.363c-0.031-0.408-0.067-0.886-0.106-1.396
	c-0.063-0.509-0.13-1.051-0.197-1.594c-0.117-1.088-0.306-2.164-0.459-2.969c-0.146-0.807-0.243-1.345-0.243-1.345l4.407-0.909
	c0,0,0.105,0.58,0.264,1.449c0.165,0.869,0.366,2.03,0.495,3.202c0.071,0.585,0.144,1.169,0.211,1.718
	c0.043,0.551,0.082,1.064,0.116,1.506c0.066,0.881,0.111,1.468,0.111,1.468L488.671,145.839z"/>
<rect x="489" y="154.857" style="fill:#B86D38;" width="4" height="9"/>
<rect x="489" y="168.857" style="fill:#B86D38;" width="4" height="9"/>
<rect x="489" y="186.857" style="fill:#B86D38;" width="4" height="9"/>
<rect x="489" y="199.857" style="fill:#B86D38;" width="4" height="9"/>
<rect x="489" y="218.857" style="fill:#B86D38;" width="4" height="9"/>
<rect x="489" y="231.857" style="fill:#B86D38;" width="4" height="9"/>
<rect x="489" y="249.857" style="fill:#B86D38;" width="4" height="9"/>
<rect x="489" y="263.857" style="fill:#B86D38;" width="4" height="9"/>
<rect x="489" y="281.857" style="fill:#B86D38;" width="4" height="9"/>
<rect x="489" y="295.857" style="fill:#B86D38;" width="4" height="9"/>
<path style="fill:#B86D38;" d="M487.383,322.312c0,0,0.03-0.133,0.085-0.366c0.058-0.232,0.132-0.565,0.197-0.97
	c0.13-0.81,0.37-1.878,0.498-2.964c0.321-2.164,0.447-4.349,0.447-4.349l4.49,0.294c0,0-0.137,2.354-0.481,4.687
	c-0.141,1.171-0.396,2.324-0.538,3.196c-0.071,0.437-0.151,0.796-0.213,1.046c-0.059,0.252-0.091,0.395-0.091,0.395L487.383,322.312
	z"/>
<path style="fill:#B86D38;" d="M483.131,334.687c0,0,0.226-0.498,0.563-1.246c0.355-0.738,0.769-1.75,1.16-2.771
	c0.425-1.008,0.742-2.055,1.014-2.828c0.274-0.771,0.415-1.301,0.415-1.301l4.308,1.303c0,0-0.153,0.569-0.448,1.403
	c-0.291,0.835-0.637,1.963-1.093,3.05c-0.423,1.102-0.869,2.191-1.251,2.99c-0.365,0.805-0.608,1.342-0.608,1.342L483.131,334.687z"
	/>
<path style="fill:#B86D38;" d="M473.324,349.091c0,0,0.389-0.387,0.916-1.014c0.529-0.627,1.275-1.429,1.932-2.305
	c0.685-0.853,1.351-1.72,1.812-2.398c0.476-0.668,0.792-1.113,0.792-1.113l3.721,2.531c0,0-0.341,0.48-0.854,1.2
	c-0.497,0.731-1.214,1.665-1.951,2.585c-0.709,0.941-1.51,1.809-2.081,2.481c-0.569,0.677-0.987,1.093-0.987,1.093L473.324,349.091z
	"/>
<path style="fill:#B86D38;" d="M463.402,357.634c0,0,0.445-0.316,1.113-0.793c0.679-0.46,1.546-1.126,2.398-1.811
	c0.876-0.656,1.678-1.402,2.304-1.932c0.629-0.527,1.015-0.916,1.015-0.916l3.061,3.299c0,0-0.417,0.418-1.093,0.987
	c-0.674,0.571-1.54,1.372-2.481,2.081c-0.919,0.737-1.854,1.454-2.585,1.951c-0.72,0.512-1.2,0.854-1.2,0.854L463.402,357.634z"/>
<path style="fill:#B86D38;" d="M447.682,365.142c0,0,0.528-0.141,1.301-0.416c0.773-0.27,1.82-0.588,2.828-1.014
	c1.021-0.391,2.033-0.804,2.772-1.159c0.747-0.338,1.244-0.563,1.244-0.563l1.942,4.06c0,0-0.537,0.243-1.343,0.608
	c-0.798,0.383-1.888,0.828-2.988,1.251c-1.088,0.456-2.216,0.802-3.051,1.093c-0.834,0.295-1.403,0.448-1.403,0.448L447.682,365.142
	z"/>
<path style="fill:#B86D38;" d="M434.805,367.469c0,0,2.185-0.126,4.349-0.447c1.086-0.128,2.154-0.368,2.964-0.497
	c0.404-0.066,0.737-0.141,0.97-0.199c0.232-0.053,0.366-0.084,0.366-0.084l0.97,4.395c0,0-0.144,0.033-0.396,0.091
	c-0.25,0.062-0.609,0.142-1.046,0.214c-0.872,0.141-2.025,0.396-3.195,0.537c-2.334,0.345-4.688,0.481-4.688,0.481L434.805,367.469z
	"/>
<rect x="417" y="367.857" style="fill:#B86D38;" width="9" height="4"/>
<rect x="403" y="367.857" style="fill:#B86D38;" width="9" height="4"/>
<rect x="385" y="367.857" style="fill:#B86D38;" width="9" height="4"/>
<rect x="371" y="367.857" style="fill:#B86D38;" width="9" height="4"/>
<rect x="353" y="367.857" style="fill:#B86D38;" width="9" height="4"/>
<rect x="340" y="367.857" style="fill:#B86D38;" width="9" height="4"/>
<rect x="321" y="367.857" style="fill:#B86D38;" width="9" height="4"/>
<rect x="308" y="367.857" style="fill:#B86D38;" width="9" height="4"/>
<rect x="290" y="367.857" style="fill:#B86D38;" width="9" height="4"/>
<rect x="276" y="367.857" style="fill:#B86D38;" width="9" height="4"/>
<rect x="258" y="367.857" style="fill:#B86D38;" width="9" height="4"/>
<rect x="244" y="367.857" style="fill:#B86D38;" width="9" height="4"/>
<rect x="226" y="367.857" style="fill:#B86D38;" width="9" height="4"/>
<rect x="212" y="367.857" style="fill:#B86D38;" width="9" height="4"/>
<rect x="194" y="367.857" style="fill:#B86D38;" width="9" height="4"/>
<rect x="181" y="367.857" style="fill:#B86D38;" width="9" height="4"/>
<rect x="162" y="367.857" style="fill:#B86D38;" width="9" height="4"/>
<rect x="149" y="367.857" style="fill:#B86D38;" width="9" height="4"/>
<rect x="131" y="367.857" style="fill:#B86D38;" width="9" height="4"/>
<rect x="117" y="367.857" style="fill:#B86D38;" width="9" height="4"/>
<rect x="99" y="367.857" style="fill:#B86D38;" width="9" height="4"/>
<rect x="85" y="367.857" style="fill:#B86D38;" width="9" height="4"/>
<path style="fill:#B86D38;" d="M67.557,366.243c0,0,0.133,0.031,0.365,0.084c0.232,0.059,0.565,0.133,0.971,0.199
	c0.809,0.128,1.877,0.369,2.963,0.496c2.164,0.321,4.349,0.447,4.349,0.447l-0.293,4.49c0,0-2.354-0.137-4.688-0.482
	c-1.17-0.139-2.323-0.395-3.195-0.535c-0.437-0.072-0.796-0.152-1.047-0.214c-0.251-0.058-0.395-0.091-0.395-0.091L67.557,366.243z"
	/>
<path style="fill:#B86D38;" d="M55.181,361.993c0,0,0.498,0.225,1.245,0.563c0.739,0.356,1.751,0.769,2.771,1.16
	c1.008,0.426,2.055,0.742,2.828,1.014c0.773,0.274,1.302,0.414,1.301,0.415l-1.301,4.308c0,0-0.57-0.152-1.403-0.447
	c-0.835-0.291-1.964-0.637-3.051-1.094c-1.101-0.422-2.192-0.867-2.989-1.25c-0.806-0.365-1.342-0.607-1.342-0.607L55.181,361.993z"
	/>
<path style="fill:#B86D38;" d="M40.774,352.188c0,0,0.386,0.389,1.015,0.916c0.625,0.529,1.428,1.275,2.304,1.932
	c0.853,0.686,1.72,1.35,2.399,1.811c0.668,0.476,1.113,0.793,1.113,0.793l-2.531,3.721c0,0-0.479-0.342-1.2-0.854
	c-0.73-0.498-1.666-1.213-2.585-1.951c-0.941-0.709-1.809-1.509-2.481-2.08c-0.676-0.57-1.093-0.986-1.093-0.986L40.774,352.188z"/>
<path style="fill:#B86D38;" d="M32.229,342.268c0,0,0.317,0.445,0.793,1.113c0.46,0.68,1.127,1.546,1.812,2.399
	c0.656,0.875,1.402,1.677,1.932,2.303c0.527,0.629,0.916,1.014,0.916,1.014l-3.299,3.062c0,0-0.417-0.417-0.986-1.093
	c-0.571-0.674-1.373-1.539-2.082-2.48c-0.737-0.92-1.454-1.854-1.951-2.585c-0.513-0.72-0.854-1.2-0.854-1.2L32.229,342.268z"/>
<path style="fill:#B86D38;" d="M24.719,326.55c0,0,0.142,0.527,0.416,1.3c0.271,0.774,0.59,1.82,1.015,2.828
	c0.391,1.021,0.805,2.032,1.16,2.771c0.338,0.747,0.563,1.245,0.563,1.245l-4.06,1.941c0,0-0.243-0.536-0.608-1.342
	c-0.382-0.797-0.829-1.887-1.251-2.988c-0.456-1.088-0.804-2.216-1.094-3.051c-0.295-0.834-0.448-1.402-0.448-1.402L24.719,326.55z"
	/>
<path style="fill:#B86D38;" d="M22.391,313.673c0,0,0.127,2.184,0.447,4.348c0.129,1.086,0.369,2.154,0.498,2.963
	c0.065,0.405,0.142,0.738,0.199,0.971c0.054,0.232,0.084,0.365,0.084,0.365l-4.394,0.971c0,0-0.033-0.143-0.091-0.395
	c-0.062-0.25-0.143-0.609-0.215-1.046c-0.142-0.872-0.396-2.025-0.537-3.196c-0.346-2.333-0.482-4.687-0.482-4.687L22.391,313.673z"
	/>
<rect x="18" y="295.857" style="fill:#B86D38;" width="4" height="9"/>
<rect x="18" y="281.857" style="fill:#B86D38;" width="4" height="9"/>
<rect x="18" y="263.857" style="fill:#B86D38;" width="4" height="9"/>
<rect x="18" y="249.857" style="fill:#B86D38;" width="4" height="9"/>
<rect x="18" y="231.857" style="fill:#B86D38;" width="4" height="9"/>
<rect x="18" y="218.857" style="fill:#B86D38;" width="4" height="9"/>
<rect x="18" y="199.857" style="fill:#B86D38;" width="4" height="9"/>
<rect x="18" y="186.857" style="fill:#B86D38;" width="4" height="9"/>
<polygon style="opacity:0.2;fill:#5D5D5D;" points="0,229.592 0,173.857 55.467,173.857 "/>
<path style="fill:#E88A47;" d="M0,173.858h69.334c19.066,0,34.666-15.334,34.666-34.4v-69.6L0,173.858z"/>
<path style="fill:#2D3E50;" d="M185.85,32.045c0.002-0.049,0.004-0.964,0.005-1.01c0.212-1.05,1.877-0.178,2.318-0.178
	c1.113,0,110.397,0,134.345,0c0.438,0,0.876,0,1.314,0c0.168,0,1.281-0.847,1.299-0.603c0.021,0.299-0.131-0.154-0.131,0.145
	c0,1.223,0,2.445,0,3.666c0,10.432,0,24.792,0,35.792h30.576c0.087-13,0.054-28.328-0.345-37.813
	c-0.389-9.242-3.468-15.91-9.224-23.107c-6.574-8.225-17.291-8.08-27.022-8.08c-16.495,0-97.992,0-122.246,0
	c-8.755,0-17.244-2.785-25.191,1.684c-8.339,4.691-14.127,13.177-15.394,22.46C154.771,35.14,155,44.243,155,54.454
	c0,3.619,0,11.403,0,15.403h30.54C185.401,57.857,185.355,43.797,185.85,32.045z"/>
<path style="opacity:0.2;fill:#5D5D5D;" d="M212.824,191.894c-1.944-1.943-1.944-5.127,0-7.07l39.141-39.141
	c1.944-1.943,5.126-1.943,7.07,0l39.141,39.141c1.944,1.943,1.944,5.127,0,7.07l-39.141,39.141c-1.944,1.943-5.126,1.943-7.07,0
	L212.824,191.894z"/>
<path style="fill:#F3C40F;" d="M259.035,216.892c-1.944,1.943-5.126,1.943-7.07,0l-24.998-24.998c-1.944-1.943-1.944-5.127,0-7.07
	l24.998-24.998c1.944-1.943,5.126-1.943,7.07,0l24.998,24.998c1.944,1.943,1.944,5.127,0,7.07L259.035,216.892z"/>
<rect x="237.824" y="170.683" transform="matrix(-0.7071 0.7071 -0.7071 -0.7071 569.3553 140.8821)" style="fill:#C7A00C;" width="35.351" height="35.351"/>
<polygon style="fill:#2D3E50;" points="284,450.858 255.5,429.358 227,450.858 227,327.857 284,327.857 "/>
<path style="fill:#F3C40F;" d="M295,408.857c0,2.762-2.239,5-5,5h-69c-2.761,0-5-2.238-5-5v-38c0-2.762,2.239-5,5-5h69
	c2.761,0,5,2.238,5,5V408.857z"/>
<path style="fill:#FFCB00;" d="M290.316,413.857c2.75,0,4.684-2.249,4.684-4.999v-38c0-2.75-1.934-5.001-4.684-5.001h-62.633l48,48
	H290.316z"/>
<g>
</g>
<g>
</g>
<g>
</g>
<g>
</g>
<g>
</g>
<g>
</g>
<g>
</g>
<g>
</g>
<g>
</g>
<g>
</g>
<g>
</g>
<g>
</g>
<g>
</g>
<g>
</g>
<g>
</g>
</svg>
