<?xml version="1.0" encoding="iso-8859-1"?>
<!-- Generator: Adobe Illustrator 16.0.3, SVG Export Plug-In . SVG Version: 6.00 Build 0)  -->
<!DOCTYPE svg PUBLIC "-//W3C//DTD SVG 1.1//EN" "http://www.w3.org/Graphics/SVG/1.1/DTD/svg11.dtd">
<svg version="1.1" id="Layer_1" xmlns="http://www.w3.org/2000/svg" xmlns:xlink="http://www.w3.org/1999/xlink" x="0px" y="0px"
	 width="511px" height="511px" viewBox="0 0 511 511" style="enable-background:new 0 0 511 511;" xml:space="preserve">
<path style="fill:#F3C40F;" d="M511,431.001C511,475.184,475.183,511,431,511H80c-44.183,0-80-35.816-80-79.999v-327L104,0h327
	c44.183,0,80,35.818,80,80.001V431.001z"/>
<rect x="176" y="104" style="fill:#EBEBEB;" width="16" height="34"/>
<path style="fill:#B5B5B5;" d="M244,103.206c0,4.305-3.489,7.794-7.794,7.794H131.794c-4.305,0-7.794-3.489-7.794-7.794V65.794
	c0-4.305,3.489-7.794,7.794-7.794h104.412c4.305,0,7.794,3.489,7.794,7.794V103.206z"/>
<path style="fill:#212D3B;" d="M136.178,103c-2.144,0-4.178-1.546-4.178-3.69V69.692c0-2.143,2.034-3.692,4.178-3.692h96.645
	c2.144,0,3.178,1.55,3.178,3.692V99.31c0,2.145-1.034,3.69-3.178,3.69H136.178z"/>
<path style="fill:#2D3E50;" d="M232.822,103c2.144,0,3.178-1.546,3.178-3.69V69.692c0-2.143-1.034-3.692-3.178-3.692H180.5
	l11.942,37H232.822z"/>
<polygon style="opacity:0.2;fill:#5D5D5D;" points="192,138 187,138 176.5,111 192,111 "/>
<path style="fill:#FFD636;" d="M0,104h69.334C88.4,104,104,88.667,104,69.601v-69.6L0,104z"/>
<polygon style="opacity:0.2;fill:#5D5D5D;" points="0,159.734 0,104 55.467,104 "/>
<rect x="112" y="138" style="fill:#EBEBEB;" width="292" height="99"/>
<polygon style="opacity:0.2;fill:#5D5D5D;" points="400.273,188 379.5,188 395.143,219 311.5,219 317.5,237 404.226,237 404,237 
	404,196.376 "/>
<polygon style="opacity:0.2;fill:#5D5D5D;" points="294.5,237 140.5,237 131.5,209 285.5,209 "/>
<polygon style="fill:#DEDEDE;" points="449.5,353 62.5,353 112.5,237 404.5,237 "/>
<path style="fill:#707070;" d="M455.5,353h-20h-360h-20C50,353,45,357.501,45,363.001v20v30v10C45,439.501,59,453,75.5,453h360
	c16.5,0,29.5-13.499,29.5-29.999v-10v-30v-20C465,357.501,461,353,455.5,353z"/>
<polygon style="fill:#F2F2F2;" points="273,334 104.5,334 134.5,248 273,248 "/>
<polygon style="fill:#F2F2F2;" points="416.5,334 289,334 289,248 386.5,248 "/>
<polygon style="fill:#CFCFCF;" points="273,334 104.5,334 134.5,248 273,248 "/>
<polygon style="fill:#CFCFCF;" points="416.5,334 289,334 289,248 386.5,248 "/>
<path style="fill:#212D3B;" d="M285,209c0,5.522-4.477,10-10,10H141c-5.523,0-10-4.478-10-10v-48c0-5.522,4.477-10,10-10h134
	c5.523,0,10,4.478,10,10V209z"/>
<path style="fill:#2D3E50;" d="M275,204c0,2.762-2.239,5-5,5H146c-2.761,0-5-2.238-5-5v-38c0-2.762,2.239-5,5-5h124
	c2.761,0,5,2.238,5,5V204z"/>
<path style="fill:#394F66;" d="M270.5,209c2.75,0,4.5-2.249,4.5-4.999v-38c0-2.75-1.75-5.001-4.5-5.001h-94l15.506,48H270.5z"/>
<rect x="313" y="151" style="fill:#2D3E50;" width="81" height="68"/>
<polygon style="fill:#FFFFFF;" points="400.5,182 306.5,182 311.5,151 395.5,151 "/>
<polygon style="fill:#E6E6E6;" points="395.5,219 311.5,219 306.5,188 400.5,188 "/>
<rect x="104" y="334" style="fill:#B0B0B0;" width="169" height="10"/>
<rect x="289" y="334" style="fill:#B0B0B0;" width="127" height="10"/>
<rect x="112" y="133" style="fill:#CFCFCF;" width="292" height="13"/>
<polygon style="opacity:0.2;fill:#5D5D5D;" points="276.5,353 107.5,353 104.5,344 273.5,344 "/>
<polygon style="opacity:0.2;fill:#5D5D5D;" points="419.5,353 292.5,353 289.5,344 416.5,344 "/>
<path style="opacity:0.2;fill:#5D5D5D;" d="M435.5,453c16.5,0,29.5-13.499,29.5-29.999v-10v-30v-20c0-5.5-4-10.001-9.5-10.001h-20
	h-281l30.238,100H435.5z"/>
<g>
</g>
<g>
</g>
<g>
</g>
<g>
</g>
<g>
</g>
<g>
</g>
<g>
</g>
<g>
</g>
<g>
</g>
<g>
</g>
<g>
</g>
<g>
</g>
<g>
</g>
<g>
</g>
<g>
</g>
</svg>
