<?xml version="1.0" encoding="iso-8859-1"?>
<!-- Generator: Adobe Illustrator 16.0.3, SVG Export Plug-In . SVG Version: 6.00 Build 0)  -->
<!DOCTYPE svg PUBLIC "-//W3C//DTD SVG 1.1//EN" "http://www.w3.org/Graphics/SVG/1.1/DTD/svg11.dtd">
<svg version="1.1" id="Layer_1" xmlns="http://www.w3.org/2000/svg" xmlns:xlink="http://www.w3.org/1999/xlink" x="0px" y="0px"
	 width="511px" height="511px" viewBox="0 0 511 511" style="enable-background:new 0 0 511 511;" xml:space="preserve">
<path style="fill:#01C26E;" d="M511,431c0,44.183-35.942,80-80.125,80h-351C35.692,511,0,475.183,0,431V104L103.875,0h327
	C475.058,0,511,35.817,511,80V431z"/>
<path style="fill:#01FF91;" d="M0,104h69.334C88.4,104,104,88.666,104,69.6l-0.125-69.568L0,104z"/>
<polygon style="opacity:0.2;fill:#5D5D5D;" points="0,159.733 0,104 55.467,104 "/>
<path style="fill:#FFFFFF;" d="M168.035,239.567c0.035-0.294,0.072-0.587,0.111-0.88C168.107,238.98,168.07,239.273,168.035,239.567
	z"/>
<path style="fill:#FFFFFF;" d="M107.275,275.699c0.382-0.537,0.772-1.066,1.168-1.593
	C108.048,274.633,107.657,275.162,107.275,275.699z"/>
<path style="fill:#FFFFFF;" d="M108.887,273.525c0.732-0.957,1.485-1.897,2.262-2.818
	C110.373,271.628,109.619,272.568,108.887,273.525z"/>
<path style="fill:#FFFFFF;" d="M111.455,270.341c1.391-1.632,2.846-3.205,4.365-4.716
	C114.301,267.137,112.845,268.709,111.455,270.341z"/>
<path style="fill:#FFFFFF;" d="M168.676,235.189c0.008-0.039,0.016-0.078,0.023-0.118
	C168.691,235.111,168.684,235.15,168.676,235.189z"/>
<path style="fill:#FFFFFF;" d="M172.816,220.117c0.066-0.174,0.139-0.344,0.205-0.517
	C172.955,219.773,172.883,219.943,172.816,220.117z"/>
<path style="fill:#FFFFFF;" d="M174.094,216.969c0.146-0.345,0.295-0.689,0.446-1.031
	C174.389,216.279,174.24,216.624,174.094,216.969z"/>
<path style="fill:#FFFFFF;" d="M169.369,231.734c0.064-0.298,0.131-0.595,0.199-0.891C169.5,231.14,169.434,231.437,169.369,231.734
	z"/>
<path style="fill:#FFFFFF;" d="M171.402,224.19c0.102-0.315,0.203-0.632,0.309-0.946
	C171.605,223.559,171.504,223.875,171.402,224.19z"/>
<path style="fill:#FFFFFF;" d="M170.405,227.506c0.028-0.1,0.06-0.198,0.087-0.297C170.465,227.308,170.434,227.406,170.405,227.506
	z"/>
<path style="fill:#FFFFFF;" d="M97.296,294.977c0.123-0.352,0.249-0.703,0.377-1.053C97.545,294.273,97.419,294.625,97.296,294.977z
	"/>
<path style="fill:#FFFFFF;" d="M93.05,317.047c0.01-0.229,0.019-0.459,0.03-0.687C93.068,316.588,93.06,316.818,93.05,317.047z"/>
<path style="fill:#FFFFFF;" d="M94.394,305.707c0.053-0.273,0.106-0.547,0.162-0.818C94.5,305.16,94.446,305.434,94.394,305.707z"/>
<path style="fill:#FFFFFF;" d="M96.15,298.529c0.074-0.253,0.145-0.509,0.223-0.762C96.295,298.021,96.225,298.275,96.15,298.529z"
	/>
<path style="fill:#FFFFFF;" d="M93.328,313.038c0.021-0.22,0.047-0.439,0.07-0.659C93.375,312.599,93.35,312.818,93.328,313.038z"/>
<path style="fill:#FFFFFF;" d="M93.785,309.266c0.017-0.116,0.03-0.234,0.048-0.35C93.815,309.031,93.802,309.149,93.785,309.266z"
	/>
<path style="fill:#FFFFFF;" d="M99.941,288.41c0.179-0.391,0.354-0.783,0.539-1.172C100.296,287.627,100.12,288.02,99.941,288.41z"
	/>
<path style="fill:#FFFFFF;" d="M103.137,282.186c0.409-0.717,0.83-1.428,1.262-2.129
	C103.967,280.759,103.546,281.468,103.137,282.186z"/>
<path style="fill:#FFFFFF;" d="M101.625,284.948c0.234-0.451,0.474-0.898,0.716-1.345
	C102.099,284.05,101.859,284.497,101.625,284.948z"/>
<path style="fill:#FFFFFF;" d="M98.688,291.288c0.144-0.349,0.295-0.693,0.443-1.04C98.983,290.595,98.83,290.938,98.688,291.288z"
	/>
<path style="fill:#FFFFFF;" d="M105.064,278.988c0.681-1.067,1.384-2.119,2.114-3.15
	C106.449,276.869,105.745,277.92,105.064,278.988z"/>
<path style="fill:#FFFFFF;" d="M95.244,301.841c0.063-0.259,0.135-0.515,0.201-0.772C95.379,301.326,95.308,301.582,95.244,301.841z
	"/>
<path style="fill:#FFFFFF;" d="M419,325.174c0-40.18-32.402-73.174-72.583-73.174H338v-2.088C338,203.718,301.426,166,255.23,166
	h-4.183c-14.798,0-28.688,3.871-40.747,10.633c-23.738,16.723-33.134,40.368-34.051,58.367c45.295,9.347,54.974,37.514,55.697,39.83
	c-14.08-19.101-36.729-31.498-62.278-31.498c-2.495,0-3.912-0.039-3.716-0.096c-19.471,1.086-37.011,9.386-50.019,22.275
	c2.599-2.572,5.376-4.965,8.315-7.152c-9.596,12.904-15.287,28.885-15.287,46.184c0,42.72,34.631,77.457,77.351,77.457h50.606
	h112.098h13.399c15.954,0,30.67-5.155,42.631-13.869C413.818,356.092,419,341.259,419,325.209V325.174z M345.334,263.001
	c-40.5,0-73.333,27.908-73.333,62.333c0-40.5,32.833-73.333,73.333-73.333c40.501,0,73.333,32.833,73.333,73.333
	C418.667,290.909,385.835,263.001,345.334,263.001z"/>
<path style="fill:#FFFFFF;" d="M177.401,210.099c0.204-0.38,0.41-0.759,0.62-1.134C177.812,209.34,177.605,209.719,177.401,210.099z
	"/>
<path style="fill:#FFFFFF;" d="M179.372,206.635c0.257-0.427,0.521-0.848,0.786-1.27
	C179.894,205.787,179.629,206.208,179.372,206.635z"/>
<path style="fill:#FFFFFF;" d="M175.833,213.141c0.138-0.283,0.283-0.561,0.424-0.842
	C176.116,212.58,175.971,212.857,175.833,213.141z"/>
<path style="fill:#E2E2E2;" d="M92.963,320.543c0-1.172,0.035-2.336,0.087-3.496C92.998,318.207,92.963,319.371,92.963,320.543z"/>
<path style="fill:#E2E2E2;" d="M111.148,270.707c0.102-0.123,0.203-0.245,0.307-0.366
	C111.352,270.462,111.25,270.584,111.148,270.707z"/>
<path style="fill:#E2E2E2;" d="M104.398,280.057c0.219-0.358,0.441-0.715,0.666-1.068
	C104.839,279.342,104.618,279.699,104.398,280.057z"/>
<path style="fill:#E2E2E2;" d="M102.341,283.604c0.259-0.477,0.526-0.947,0.796-1.418
	C102.867,282.655,102.601,283.127,102.341,283.604z"/>
<path style="fill:#E2E2E2;" d="M100.48,287.238c0.368-0.771,0.752-1.533,1.145-2.29C101.232,285.705,100.85,286.468,100.48,287.238z
	"/>
<path style="fill:#E2E2E2;" d="M107.179,275.838c0.032-0.046,0.063-0.093,0.097-0.139
	C107.242,275.745,107.211,275.792,107.179,275.838z"/>
<path style="fill:#E2E2E2;" d="M115.82,265.625c0.038-0.037,0.076-0.075,0.114-0.113C115.896,265.55,115.858,265.588,115.82,265.625
	z"/>
<path style="fill:#E2E2E2;" d="M99.131,290.248c0.262-0.617,0.533-1.229,0.811-1.838C99.664,289.019,99.394,289.631,99.131,290.248z
	"/>
<path style="fill:#E2E2E2;" d="M108.443,274.106c0.146-0.194,0.295-0.388,0.443-0.581
	C108.738,273.719,108.59,273.912,108.443,274.106z"/>
<path style="fill:#E2E2E2;" d="M93.398,312.379c0.109-1.044,0.236-2.082,0.387-3.113C93.635,310.297,93.508,311.335,93.398,312.379z
	"/>
<path style="fill:#E2E2E2;" d="M93.833,308.916c0.162-1.078,0.354-2.146,0.561-3.209C94.188,306.77,93.995,307.838,93.833,308.916z"
	/>
<path style="fill:#E2E2E2;" d="M94.556,304.889c0.21-1.023,0.438-2.04,0.688-3.048C94.993,302.849,94.766,303.865,94.556,304.889z"
	/>
<path style="fill:#E2E2E2;" d="M93.08,316.36c0.06-1.114,0.142-2.222,0.248-3.322C93.222,314.139,93.141,315.246,93.08,316.36z"/>
<path style="fill:#E2E2E2;" d="M97.673,293.924c0.324-0.885,0.66-1.766,1.015-2.636C98.332,292.158,97.998,293.039,97.673,293.924z"
	/>
<path style="fill:#E2E2E2;" d="M96.373,297.768c0.289-0.938,0.6-1.867,0.923-2.791C96.973,295.9,96.662,296.829,96.373,297.768z"/>
<path style="fill:#E2E2E2;" d="M95.445,301.068c0.221-0.852,0.456-1.698,0.705-2.539C95.9,299.37,95.666,300.217,95.445,301.068z"/>
<path style="fill:#E2E2E2;" d="M349.018,382H236.92h-50.606c-42.72,0-77.351-34.737-77.351-77.457
	c0-17.299,5.691-33.279,15.287-46.184c-2.939,2.188-5.717,4.58-8.315,7.152c-0.038,0.038-0.076,0.076-0.114,0.113
	c-1.52,1.511-2.975,3.084-4.365,4.716c-0.104,0.121-0.205,0.243-0.307,0.366c-0.776,0.921-1.529,1.861-2.262,2.818
	c-0.148,0.193-0.298,0.387-0.443,0.581c-0.396,0.526-0.786,1.056-1.168,1.593c-0.033,0.046-0.064,0.093-0.097,0.139
	c-0.73,1.031-1.434,2.083-2.114,3.15c-0.225,0.354-0.447,0.71-0.666,1.068c-0.432,0.701-0.853,1.412-1.262,2.129
	c-0.27,0.471-0.537,0.941-0.796,1.418c-0.242,0.446-0.481,0.894-0.716,1.345c-0.393,0.757-0.776,1.519-1.145,2.29
	c-0.185,0.389-0.36,0.781-0.539,1.172c-0.277,0.609-0.549,1.221-0.811,1.838c-0.148,0.347-0.3,0.691-0.443,1.04
	c-0.354,0.87-0.69,1.751-1.015,2.636c-0.128,0.35-0.254,0.701-0.377,1.053c-0.323,0.924-0.634,1.853-0.923,2.791
	c-0.078,0.253-0.148,0.509-0.223,0.762c-0.249,0.841-0.484,1.688-0.705,2.539c-0.066,0.258-0.138,0.514-0.201,0.772
	c-0.25,1.008-0.479,2.024-0.688,3.048c-0.056,0.271-0.109,0.545-0.162,0.818c-0.206,1.063-0.398,2.131-0.561,3.209
	c-0.018,0.115-0.031,0.233-0.048,0.35c-0.15,1.031-0.277,2.069-0.387,3.113c-0.023,0.22-0.049,0.439-0.07,0.659
	c-0.106,1.101-0.188,2.208-0.248,3.322c-0.012,0.228-0.021,0.458-0.03,0.687c-0.052,1.16-0.087,2.324-0.087,3.496
	c0,42.72,34.631,77.457,77.351,77.457h50.606h112.098h13.399c1.13,0,2.252-0.034,3.369-0.086c0.208-0.009,0.417-0.017,0.626-0.027
	c1.069-0.059,2.133-0.14,3.189-0.244c0.213-0.021,0.424-0.045,0.636-0.067c1.064-0.114,2.124-0.245,3.175-0.404
	c0.045-0.007,0.091-0.013,0.136-0.021c1.046-0.16,2.082-0.352,3.112-0.557c0.231-0.046,0.462-0.09,0.691-0.139
	c0.99-0.207,1.974-0.435,2.949-0.682c0.244-0.063,0.486-0.128,0.73-0.192c0.919-0.243,1.832-0.501,2.735-0.778
	c0.171-0.053,0.341-0.105,0.511-0.159c0.887-0.28,1.764-0.581,2.637-0.894c0.279-0.102,0.561-0.201,0.84-0.305
	c0.876-0.327,1.744-0.67,2.604-1.029c0.302-0.127,0.6-0.258,0.898-0.387c0.723-0.314,1.438-0.639,2.148-0.975
	c0.347-0.164,0.691-0.331,1.035-0.5c0.677-0.334,1.347-0.68,2.012-1.033c0.343-0.184,0.686-0.365,1.025-0.554
	c0.74-0.41,1.473-0.833,2.196-1.267c0.364-0.219,0.724-0.445,1.085-0.67c0.509-0.318,1.013-0.644,1.514-0.974
	c0.524-0.347,1.043-0.698,1.559-1.058c0.458-0.32,0.913-0.645,1.364-0.975c0.392-0.287,0.782-0.574,1.169-0.869
	c0.605-0.463,1.205-0.936,1.796-1.417c0.402-0.328,0.798-0.663,1.193-1c0.333-0.283,0.661-0.571,0.989-0.86
	c0.629-0.556,1.248-1.121,1.857-1.697c0.291-0.275,0.581-0.551,0.867-0.83c0.403-0.395,0.804-0.79,1.197-1.193
	c0.309-0.315,0.609-0.639,0.912-0.96c0.58-0.616,1.15-1.239,1.709-1.875c0.223-0.253,0.441-0.51,0.661-0.767
	c0.621-0.727,1.228-1.467,1.821-2.219c0.2-0.254,0.401-0.508,0.599-0.766c0.362-0.473,0.722-0.947,1.073-1.43
	c0,0,0.006-0.008,0.009-0.012C393.087,376.845,378.371,382,362.417,382H349.018z"/>
<path style="fill:#E2E2E2;" d="M345.334,252.001c-40.5,0-73.333,32.833-73.333,73.333c0-34.425,32.833-62.333,73.333-62.333
	c40.501,0,73.333,27.908,73.333,62.333C418.667,284.834,385.835,252.001,345.334,252.001z"/>
<path style="fill:#E2E2E2;" d="M168.699,235.071c0.198-1.121,0.426-2.231,0.67-3.337C169.125,232.84,168.897,233.95,168.699,235.071
	z"/>
<path style="fill:#E2E2E2;" d="M168.146,238.688c0.155-1.173,0.326-2.341,0.529-3.498
	C168.473,236.347,168.302,237.515,168.146,238.688z"/>
<path style="fill:#E2E2E2;" d="M169.568,230.844c0.26-1.121,0.533-2.235,0.837-3.338
	C170.102,228.608,169.828,229.723,169.568,230.844z"/>
<path style="fill:#E2E2E2;" d="M165.953,243.236c0.572-0.032,1.14-0.081,1.715-0.101
	C166.594,243.172,166.056,243.207,165.953,243.236z"/>
<path style="fill:#E2E2E2;" d="M170.492,227.209c0.283-1.016,0.59-2.02,0.91-3.019C171.082,225.189,170.775,226.193,170.492,227.209
	z"/>
<path style="fill:#E2E2E2;" d="M167.668,243.136c0.094-1.197,0.223-2.386,0.367-3.568
	C167.891,240.75,167.762,241.938,167.668,243.136z"/>
<path style="fill:#E2E2E2;" d="M171.711,223.244c0.351-1.051,0.715-2.095,1.105-3.127
	C172.426,221.149,172.063,222.193,171.711,223.244z"/>
<path style="fill:#E2E2E2;" d="M176.257,212.299c0.371-0.74,0.753-1.473,1.145-2.2C177.009,210.826,176.628,211.56,176.257,212.299z
	"/>
<path style="fill:#E2E2E2;" d="M178.021,208.965c0.438-0.785,0.889-1.562,1.351-2.33C178.909,207.403,178.46,208.18,178.021,208.965
	z"/>
<path style="fill:#E2E2E2;" d="M174.54,215.938c0.416-0.941,0.845-1.875,1.293-2.797
	C175.384,214.063,174.956,214.996,174.54,215.938z"/>
<path style="fill:#E2E2E2;" d="M173.021,219.601c0.342-0.886,0.701-1.762,1.072-2.632
	C173.723,217.839,173.364,218.716,173.021,219.601z"/>
<path style="fill:#E2E2E2;" d="M169.669,243.332c25.55,0,48.198,12.397,62.278,31.498c-0.724-2.316-10.402-30.483-55.697-39.83
	c0.917-17.999,10.313-41.645,34.051-58.367c0,0-0.002,0.001-0.002,0.002c-0.645,0.36-1.28,0.733-1.914,1.111
	c-0.24,0.143-0.479,0.289-0.718,0.435c-1.251,0.763-2.483,1.556-3.69,2.382c-0.062,0.041-0.124,0.081-0.185,0.123
	c-0.598,0.411-1.187,0.833-1.773,1.259c-0.242,0.177-0.482,0.355-0.724,0.534c-1.063,0.79-2.106,1.605-3.13,2.443
	c-0.163,0.134-0.329,0.264-0.491,0.398c-0.529,0.441-1.051,0.891-1.569,1.344c-0.27,0.235-0.535,0.475-0.802,0.713
	c-0.847,0.76-1.677,1.537-2.492,2.33c-0.273,0.266-0.549,0.528-0.818,0.797c-0.449,0.449-0.89,0.904-1.328,1.362
	c-0.312,0.326-0.619,0.656-0.925,0.987c-0.626,0.676-1.241,1.362-1.845,2.059c-0.371,0.428-0.742,0.855-1.104,1.291
	s-0.718,0.876-1.071,1.318c-0.355,0.445-0.704,0.895-1.051,1.347c-0.426,0.556-0.846,1.116-1.259,1.683
	c-0.437,0.602-0.869,1.207-1.29,1.82c-0.281,0.409-0.559,0.822-0.832,1.238c-0.385,0.58-0.76,1.165-1.129,1.756
	c-0.265,0.422-0.529,0.843-0.786,1.27c-0.462,0.769-0.912,1.545-1.351,2.33c-0.21,0.375-0.416,0.754-0.62,1.134
	c-0.392,0.728-0.773,1.46-1.145,2.2c-0.141,0.281-0.286,0.559-0.424,0.842c-0.448,0.922-0.877,1.855-1.293,2.797
	c-0.151,0.342-0.3,0.687-0.446,1.031c-0.371,0.87-0.73,1.746-1.072,2.632c-0.066,0.173-0.139,0.343-0.205,0.517
	c-0.391,1.032-0.755,2.076-1.105,3.127c-0.105,0.314-0.207,0.631-0.309,0.946c-0.32,0.999-0.627,2.003-0.91,3.019
	c-0.027,0.099-0.059,0.197-0.087,0.297c-0.304,1.103-0.577,2.217-0.837,3.338c-0.068,0.296-0.135,0.593-0.199,0.891
	c-0.244,1.105-0.472,2.216-0.67,3.337c-0.008,0.04-0.016,0.079-0.023,0.118c-0.203,1.157-0.374,2.325-0.529,3.498
	c-0.039,0.293-0.076,0.586-0.111,0.88c-0.145,1.183-0.273,2.371-0.367,3.568c-0.575,0.02-1.143,0.068-1.715,0.101
	C165.757,243.293,167.174,243.332,169.669,243.332z"/>
<g>
</g>
<g>
</g>
<g>
</g>
<g>
</g>
<g>
</g>
<g>
</g>
<g>
</g>
<g>
</g>
<g>
</g>
<g>
</g>
<g>
</g>
<g>
</g>
<g>
</g>
<g>
</g>
<g>
</g>
</svg>
