<?xml version="1.0" encoding="iso-8859-1"?>
<!-- Generator: Adobe Illustrator 16.0.3, SVG Export Plug-In . SVG Version: 6.00 Build 0)  -->
<!DOCTYPE svg PUBLIC "-//W3C//DTD SVG 1.1//EN" "http://www.w3.org/Graphics/SVG/1.1/DTD/svg11.dtd">
<svg version="1.1" id="Layer_1" xmlns="http://www.w3.org/2000/svg" xmlns:xlink="http://www.w3.org/1999/xlink" x="0px" y="0px"
	 width="511.193px" height="511px" viewBox="0 0 511.193 511" style="enable-background:new 0 0 511.193 511;" xml:space="preserve"
	>
<path style="fill:#8F44AB;" d="M511.193,431.001C511.193,475.184,475.183,511,431,511H80c-44.183,0-79.807-35.816-79.807-79.999
	v-327L104,0h327c44.183,0,80.193,35.818,80.193,80.001V431.001z"/>
<path style="opacity:0.2;fill:#5D5D5D;" d="M431,511c31.764,0,59.204-18.512,72.12-45.338L450,247.419l-131.946,10.268
	l-26.517-3.112L221.485,66.481l-9.191,200.645L182,282.797l-15.686-44.785L104,211.319l-42.786,51.476L127.882,511H431z"/>
<path style="fill:#CCCCCC;" d="M351.131,381.646c-4.697-29.652-32.543-49.884-62.197-45.187c-8.661,1.371-16.509,4.729-23.176,9.519
	L221.49,66.481l-17.46,2.765l-32.658,60.888l28.521,180.073l40.683,20.588l6.258,39.512c-3.428,8.716-4.658,18.429-3.087,28.348
	c4.697,29.652,32.543,49.885,62.196,45.189C335.596,439.146,355.828,411.301,351.131,381.646z M303.178,426.383
	c-20.012,3.171-38.803-10.481-41.973-30.493c-3.17-20.011,10.483-38.802,30.494-41.971c20.012-3.17,38.803,10.482,41.973,30.493
	C336.841,404.424,323.188,423.215,303.178,426.383z"/>
<path style="fill:#B154D4;" d="M0,104h69.334c19.066,0,34.859-15.333,34.859-34.399v-69.6L0,104z"/>
<polygon style="fill:#F2F2F2;" points="221.49,66.481 204.03,69.246 238.839,289.02 252.266,260.794 "/>
<path style="fill:#E6E6E6;" d="M446.949,229.96l-279.496,44.268c2.496-7.822,3.264-16.324,1.893-24.985
	c-4.696-29.652-32.542-49.884-62.195-45.188c-29.654,4.697-49.885,32.543-45.188,62.197c4.696,29.652,32.543,49.884,62.196,45.188
	c9.919-1.57,18.774-5.742,26.004-11.694l39.516-6.26l32.149,32.329l180.074-28.519l47.814-49.876L446.949,229.96z M121.393,293.979
	c-20.012,3.171-38.803-10.482-41.972-30.494c-3.169-20.011,10.483-38.802,30.495-41.972c20.01-3.169,38.801,10.483,41.971,30.494
	C155.057,272.02,141.403,290.811,121.393,293.979z"/>
<polygon style="fill:#D6D6D6;" points="236.871,323.432 245.737,301.445 217.786,281.138 206.133,310.033 221.827,325.813 "/>
<circle style="fill:#FFFFFF;" cx="231.286" cy="291.309" r="18.99"/>
<path style="fill:#F2F2F2;" d="M223.582,285.738c-1.105-2.176-0.237-4.837,1.938-5.941l0,0c2.177-1.105,4.837-0.238,5.942,1.938
	l8.008,15.76c1.104,2.176,0.237,4.836-1.938,5.943l0,0c-2.177,1.104-4.836,0.234-5.941-1.94L223.582,285.738z"/>
<path style="fill:#FFFFFF;" d="M92.65,221.776c9.543-5.422,21.729-8.113,32.425-5.231c11.785,3.176,23.442,12.731,29.204,23.495
	c2.445,4.568,9.383,0.51,6.938-4.057c-6.94-12.965-20.231-22.703-34.006-27.187c-12.326-4.013-27.612-0.21-38.615,6.042
	C84.092,217.397,88.139,224.34,92.65,221.776L92.65,221.776z"/>
<polygon style="fill:#FFFFFF;" points="410.146,288.693 291.537,254.574 235.305,263.48 370.266,302.304 401.901,297.295 "/>
<polygon style="fill:#FFFFFF;" points="422.597,275.707 328.684,248.691 308.406,251.902 415.801,282.797 "/>
<g>
</g>
<g>
</g>
<g>
</g>
<g>
</g>
<g>
</g>
<g>
</g>
<g>
</g>
<g>
</g>
<g>
</g>
<g>
</g>
<g>
</g>
<g>
</g>
<g>
</g>
<g>
</g>
<g>
</g>
</svg>
