<?xml version="1.0" encoding="iso-8859-1"?>
<!-- Generator: Adobe Illustrator 16.0.3, SVG Export Plug-In . SVG Version: 6.00 Build 0)  -->
<!DOCTYPE svg PUBLIC "-//W3C//DTD SVG 1.1//EN" "http://www.w3.org/Graphics/SVG/1.1/DTD/svg11.dtd">
<svg version="1.1" id="Layer_1" xmlns="http://www.w3.org/2000/svg" xmlns:xlink="http://www.w3.org/1999/xlink" x="0px" y="0px"
	 width="511px" height="511px" viewBox="0 0 511 511" style="enable-background:new 0 0 511 511;" xml:space="preserve">
<path style="fill:#F3C40F;" d="M511,431.001C511,475.184,475.183,511,431,511H80c-44.183,0-80-35.816-80-79.999v-327L104,0h327
	c44.183,0,80,35.818,80,80.001V431.001z"/>
<path style="fill:#FFD636;" d="M0,104h69.334C88.4,104,104,88.667,104,69.601v-69.6L0,104z"/>
<polygon style="opacity:0.2;fill:#5D5D5D;" points="0,159.734 0,104 55.467,104 "/>
<polygon style="fill:#FFDC52;" points="162.05,376.25 255.796,282.001 363.04,376.25 511,264.093 511,93.554 345.041,233.001 
	255.5,156.001 149.189,256.501 73.555,185.501 0,234.793 0,282.349 60.32,248.001 "/>
<path style="fill:#DBB10E;" d="M363.04,375.25l-107.244-94.249L162.05,375.25L60.32,247.001l-60.32,46v138
	C0,475.184,35.817,511,80,511h351c44.183,0,80-35.816,80-79.999V263.093L363.04,375.25z"/>
<path style="opacity:0.2;fill:#5D5D5D;" d="M511,286.55v-24.918c-9,6.452-17.025,12.904-25.537,19.357
	c-40.64,30.807-81.279,61.611-121.918,92.418c-33.062-29.055-66.123-58.109-99.185-87.165c-0.498-0.438-0.995-0.875-1.493-1.313
	c-4.082-3.587-10.115-4.137-14.143-0.089c-28.611,28.766-57.223,57.797-85.834,86.289c-28.72-36.317-57.439-72.307-86.158-108.513
	c-3.113-3.926-6.228-7.806-9.341-11.731c-2.575-3.246-8.803-3.917-12.118-1.542C36.849,262.538,18,275.734,0,288.931v24.515
	c19-13.947,38.953-27.895,58.43-41.842c29.069,36.647,58.139,73.294,87.208,109.941c3.114,3.925,6.228,7.851,9.341,11.776
	c3.387,4.27,10.629,3.496,14.143-0.035c29.037-29.193,58.075-58.769,87.113-87.684c32.746,28.799,65.494,57.592,98.241,86.371
	c0.498,0.438,0.995,0.893,1.493,1.33c3.09,2.715,8.431,4.368,12.118,1.572c34.007-25.777,68.013-51.551,102.019-77.328
	C483.737,307.215,497,296.882,511,286.55z"/>
<path style="fill:#FFFFFF;" d="M511,276.55v-24.918c-9,6.452-17.025,12.904-25.537,19.357
	c-40.64,30.807-81.279,61.611-121.918,92.418c-33.062-29.055-66.123-58.109-99.185-87.165c-0.498-0.438-0.995-0.875-1.493-1.313
	c-4.082-3.587-10.115-4.137-14.143-0.089c-28.611,28.766-57.223,57.797-85.834,86.289c-28.72-36.317-57.439-72.307-86.158-108.513
	c-3.113-3.926-6.228-7.806-9.341-11.731c-2.575-3.246-8.803-3.917-12.118-1.542C36.849,252.538,18,265.734,0,278.931v24.515
	c19-13.947,38.953-27.895,58.43-41.842c29.069,36.647,58.139,73.294,87.208,109.941c3.114,3.925,6.228,7.851,9.341,11.776
	c3.387,4.27,10.629,3.496,14.143-0.035c29.037-29.193,58.075-58.769,87.113-87.684c32.746,28.799,65.494,57.592,98.241,86.371
	c0.498,0.438,0.995,0.893,1.493,1.33c3.09,2.715,8.431,4.368,12.118,1.572c34.007-25.777,68.013-51.551,102.019-77.328
	C483.737,297.215,497,286.882,511,276.55z"/>
<g>
</g>
<g>
</g>
<g>
</g>
<g>
</g>
<g>
</g>
<g>
</g>
<g>
</g>
<g>
</g>
<g>
</g>
<g>
</g>
<g>
</g>
<g>
</g>
<g>
</g>
<g>
</g>
<g>
</g>
</svg>
