<?xml version="1.0" encoding="iso-8859-1"?>
<!-- Generator: Adobe Illustrator 16.0.3, SVG Export Plug-In . SVG Version: 6.00 Build 0)  -->
<!DOCTYPE svg PUBLIC "-//W3C//DTD SVG 1.1//EN" "http://www.w3.org/Graphics/SVG/1.1/DTD/svg11.dtd">
<svg version="1.1" id="Layer_1" xmlns="http://www.w3.org/2000/svg" xmlns:xlink="http://www.w3.org/1999/xlink" x="0px" y="0px"
	 width="511.193px" height="511px" viewBox="0 0 511.193 511" style="enable-background:new 0 0 511.193 511;" xml:space="preserve"
	>
<path style="fill:#E24C3F;" d="M511.193,431.001C511.193,475.184,475.183,511,431,511H80c-44.183,0-79.807-35.816-79.807-79.999
	v-327L104,0h327c44.183,0,80.193,35.818,80.193,80.001V431.001z"/>
<path style="fill:#B33C32;" d="M402.556,279.896c-53.582,17.194-115.284,28.126-183.294,32.492
	c-22.801,1.463-46.118,2.19-69.854,2.19c-48.94,0-99.215-3.1-149.215-9.193v125.616C0.193,475.184,35.817,511,80,511h351
	c44.183,0,80.193-35.816,80.193-79.999V229.724C479.193,250.022,443.311,266.816,402.556,279.896z"/>
<path style="opacity:0.2;fill:#5D5D5D;" d="M334.098,188.606c1.731-0.975,3.752-2.11,5.916-3.328c2.139-1.263,4.42-2.61,6.7-3.956
	c2.281-1.349,4.563-2.696,6.701-3.96c2.141-1.259,4.086-2.523,5.78-3.562c3.374-2.101,5.623-3.502,5.623-3.502l-9.582-15.237
	c0,0-2.194,1.367-5.486,3.417c-1.654,1.013-3.551,2.247-5.641,3.477c-2.088,1.232-4.314,2.548-6.541,3.862
	c-2.227,1.315-4.453,2.631-6.541,3.864c-2.113,1.189-4.086,2.298-5.776,3.249c-3.385,1.897-5.642,3.162-5.642,3.162l8.712,15.751
	C328.321,191.844,330.632,190.549,334.098,188.606z"/>
<path style="opacity:0.2;fill:#5D5D5D;" d="M384.137,157.773c0.954-0.659,2.318-1.6,3.954-2.729
	c3.263-2.273,7.643-5.262,11.971-8.324c4.281-3.129,8.563-6.259,11.773-8.605c1.614-1.16,2.934-2.165,3.845-2.882
	c0.919-0.709,1.444-1.114,1.444-1.114l-10.893-14.331c0,0-0.512,0.396-1.406,1.086c-0.888,0.699-2.173,1.678-3.747,2.809
	c-3.129,2.287-7.301,5.337-11.473,8.388c-4.22,2.983-8.49,5.896-11.67,8.113c-1.596,1.101-2.925,2.02-3.855,2.661
	c-0.945,0.621-1.486,0.975-1.486,0.975l10.02,14.954C382.613,158.773,383.167,158.41,384.137,157.773z"/>
<path style="opacity:0.2;fill:#5D5D5D;" d="M442.027,114.306c2.053-1.681,4.03-3.45,5.547-4.738
	c1.507-1.299,2.512-2.165,2.512-2.165s2.009-1.732,5.021-4.332c0.752-0.651,1.565-1.358,2.426-2.105
	c0.843-0.769,1.73-1.579,2.649-2.417c1.838-1.677,3.798-3.465,5.758-5.254c1.889-1.73,3.774-3.457,5.553-5.087
	c2.776,1.154,5.819,1.794,9.013,1.794c12.979,0,23.5-10.521,23.5-23.5c0-3.238-0.655-6.324-1.841-9.13
	c0.407-0.444,0.825-0.899,1.256-1.368c-2.673-5.684-5.999-10.996-9.875-15.854c-1.491,1.623-2.913,3.169-4.205,4.575
	c-2.729-1.108-5.709-1.724-8.835-1.724c-12.979,0-23.5,10.521-23.5,23.5c0,3.169,0.631,6.189,1.769,8.949
	c-1.618,1.48-3.309,3.029-5.012,4.589c-1.907,1.74-3.814,3.482-5.603,5.112c-0.895,0.816-1.758,1.605-2.578,2.354
	c-0.838,0.727-1.63,1.415-2.361,2.049c-2.934,2.53-4.89,4.217-4.89,4.217s-0.978,0.844-2.444,2.108
	c-1.477,1.253-3.4,2.978-5.399,4.613c-4.004,3.265-8.007,6.529-8.007,6.529l11.325,13.99
	C433.806,121.012,437.917,117.659,442.027,114.306z"/>
<path style="opacity:0.2;fill:#5D5D5D;" d="M308.71,200.672l-6.282-13.577C183.924,242.771,56.193,266.923,0.193,275.526v15.2
	c19-2.853,46.754-7.535,79.615-14.698C138.196,263.301,225.225,239.895,308.71,200.672z"/>
<path style="opacity:0.2;fill:#5D5D5D;" d="M322.378,294.519c-3.943-7.444-11.813-12.518-20.823-12.518
	c-11.615,0-21.183,8.429-23.082,19.502c-110.278,14.389-218.279,6.094-278.279-1.252v15.134c50,6.094,100.25,9.193,149.19,9.193
	c23.735,0,47.077-0.728,69.878-2.19c21.127-1.356,41.614-3.349,61.463-5.963c3.934,7.476,11.76,12.576,20.793,12.576
	c11.654,0,21.313-8.484,23.168-19.611c27.476-5.194,53.561-11.692,77.873-19.494c40.755-13.079,76.635-29.873,108.635-50.172
	v-17.971C456.193,259.327,389.883,281.761,322.378,294.519z"/>
<path style="fill:#FF7063;" d="M0,104h69.334c19.066,0,34.859-15.333,34.859-34.399v-69.6L0,104z"/>
<polygon style="opacity:0.2;fill:#5D5D5D;" points="0.193,159.734 0.193,104 55.467,104 "/>
<path style="fill:#E6E6E6;" d="M364.818,160.299c0,0-2.249,1.401-5.623,3.502c-1.694,1.038-3.64,2.303-5.78,3.562
	c-2.139,1.264-4.42,2.611-6.701,3.96c-2.28,1.346-4.562,2.693-6.7,3.956c-2.164,1.218-4.185,2.354-5.916,3.328
	c-3.466,1.942-5.776,3.237-5.776,3.237l-8.712-15.751c0,0,2.257-1.265,5.642-3.162c1.69-0.951,3.663-2.06,5.776-3.249
	c2.088-1.233,4.314-2.549,6.541-3.864c2.227-1.314,4.453-2.63,6.541-3.862c2.09-1.229,3.986-2.464,5.641-3.477
	c3.292-2.05,5.486-3.417,5.486-3.417L364.818,160.299z"/>
<path style="fill:#E6E6E6;" d="M417.124,124.119c0,0-0.525,0.405-1.444,1.114c-0.911,0.717-2.23,1.722-3.845,2.882
	c-3.211,2.347-7.492,5.477-11.773,8.605c-4.328,3.063-8.708,6.051-11.971,8.324c-1.636,1.129-3,2.069-3.954,2.729
	c-0.97,0.637-1.523,1-1.523,1l-10.02-14.954c0,0,0.541-0.354,1.486-0.975c0.931-0.642,2.26-1.561,3.855-2.661
	c3.18-2.217,7.45-5.13,11.67-8.113c4.172-3.051,8.344-6.101,11.473-8.388c1.574-1.131,2.859-2.109,3.747-2.809
	c0.895-0.69,1.406-1.086,1.406-1.086L417.124,124.119z"/>
<path style="fill:#E6E6E6;" d="M493.546,30.149c-2.142,2.33-4.156,4.522-5.817,6.33c-1.303,1.434-2.404,2.611-3.205,3.408
	c-0.789,0.809-1.239,1.271-1.239,1.271l12.999,12.45c0,0,0.464-0.475,1.274-1.307c0.823-0.819,1.956-2.031,3.295-3.504
	c0.785-0.854,1.653-1.799,2.568-2.795C500.748,40.319,497.422,35.007,493.546,30.149z"/>
<path style="fill:#E6E6E6;" d="M468.753,55.832c0,0-1.855,1.794-4.641,4.485c-1.392,1.347-3.016,2.917-4.756,4.6
	c-1.785,1.635-3.689,3.378-5.594,5.122c-1.907,1.74-3.814,3.482-5.603,5.112c-0.895,0.816-1.758,1.605-2.578,2.354
	c-0.838,0.727-1.63,1.415-2.361,2.049c-2.934,2.53-4.89,4.217-4.89,4.217s-0.978,0.844-2.444,2.108
	c-1.477,1.253-3.4,2.978-5.399,4.613c-4.004,3.265-8.007,6.529-8.007,6.529l11.325,13.99c0,0,4.111-3.353,8.222-6.706
	c2.053-1.681,4.03-3.45,5.547-4.738c1.507-1.299,2.512-2.165,2.512-2.165s2.009-1.732,5.021-4.332
	c0.752-0.651,1.565-1.358,2.426-2.105c0.843-0.769,1.73-1.579,2.649-2.417c1.838-1.677,3.798-3.465,5.758-5.254
	c1.956-1.792,3.913-3.584,5.747-5.265c1.789-1.729,3.458-3.342,4.89-4.726c2.861-2.765,4.77-4.61,4.77-4.61L468.753,55.832z"/>
<path style="fill:#E6E6E6;" d="M308.71,190.672l-6.282-13.577C183.924,232.771,56.193,256.923,0.193,265.526v15.2
	c19-2.853,46.754-7.535,79.615-14.698C138.196,253.301,225.225,229.895,308.71,190.672z"/>
<path style="fill:#A1A1A1;" d="M219.213,312.388c68.011-4.366,129.761-15.298,183.343-32.492
	c40.755-13.079,76.638-29.873,108.638-50.172v-17.971c-157,107.061-406,91.318-511,78.498v15.134
	c50,6.094,100.25,9.193,149.19,9.193C173.119,314.578,196.413,313.851,219.213,312.388z"/>
<circle style="fill:#F3C40F;" cx="480.506" cy="56.501" r="23.5"/>
<circle style="fill:#F3C40F;" cx="301.506" cy="295.501" r="23.5"/>
<g>
</g>
<g>
</g>
<g>
</g>
<g>
</g>
<g>
</g>
<g>
</g>
<g>
</g>
<g>
</g>
<g>
</g>
<g>
</g>
<g>
</g>
<g>
</g>
<g>
</g>
<g>
</g>
<g>
</g>
</svg>
