<?xml version="1.0" encoding="iso-8859-1"?>
<!-- Generator: Adobe Illustrator 16.0.3, SVG Export Plug-In . SVG Version: 6.00 Build 0)  -->
<!DOCTYPE svg PUBLIC "-//W3C//DTD SVG 1.1//EN" "http://www.w3.org/Graphics/SVG/1.1/DTD/svg11.dtd">
<svg version="1.1" id="Layer_1" xmlns="http://www.w3.org/2000/svg" xmlns:xlink="http://www.w3.org/1999/xlink" x="0px" y="0px"
	 width="511.193px" height="511.051px" viewBox="0 0 511.193 511.051" style="enable-background:new 0 0 511.193 511.051;"
	 xml:space="preserve">
<path style="fill:#2D3E50;" d="M511.193,431c0,44.183-36.011,80.051-80.193,80.051H80c-44.183,0-79.807-35.868-79.807-80.051V104
	L104,0.051h327c44.183,0,80.193,35.767,80.193,79.949V431z"/>
<path style="fill:#496582;" d="M0,104.051h69.334c19.066,0,34.859-15.385,34.859-34.451V0L0,104.051z"/>
<polygon style="opacity:0.2;fill:#5D5D5D;" points="0.193,159.733 0.193,104.051 55.467,104.051 "/>
<polygon style="fill:#F2F2F2;" points="400.193,468.051 100.193,468.051 100.193,451 250.193,432.667 400.193,451 "/>
<path style="fill:#F2F2F2;" d="M259.536,440.465c-29.835-37.886-59.671-75.771-89.506-113.656
	c-15.054-19.115-30.107-38.23-45.161-57.346c0.261,2.021,0.521,4.04,0.782,6.06c23.125-42.274,46.249-84.549,69.374-126.823
	c0.764-1.396,1.528-2.793,2.292-4.189c3.096-5.659-5.54-10.705-8.635-5.047c-23.125,42.274-46.249,84.549-69.374,126.822
	c-0.764,1.396-1.528,2.794-2.292,4.19c-1.182,2.161-0.663,4.224,0.782,6.06c29.835,37.885,59.671,75.77,89.506,113.655
	c15.054,19.114,30.107,38.229,45.161,57.345C256.453,452.6,263.479,445.471,259.536,440.465L259.536,440.465z"/>
<rect x="100.193" y="451.051" style="fill:#F3C40F;" width="300" height="17"/>
<circle style="fill:#F2F2F2;" cx="284.638" cy="152.663" r="35.037"/>
<path style="opacity:0.4;fill:#F2F2F2;" d="M305.481,117.577l-39.269,71.42l244.088,253.39c0.53-3.721,0.893-7.52,0.893-11.387
	V175.82L305.481,117.577z"/>
<polygon style="opacity:0.4;fill:#F2F2F2;" points="511.193,234.479 294.645,137.312 277.146,169.262 511.193,351.884 "/>
<g>
	<path style="fill:#F2F2F2;" d="M183.602,122.134c-0.982,1.788-3.248,2.447-5.035,1.466l-40.947-22.487
		c-1.787-0.981-2.447-3.247-1.465-5.034l21.059-38.347c0.981-1.787,3.246-2.447,5.034-1.466l40.948,22.487
		c1.787,0.981,2.447,3.247,1.465,5.034L183.602,122.134z"/>
</g>
<path style="fill:#F3C40F;" d="M298.012,160.079c0.045,0.023,0.887-1.417,1.871-3.204l43.764-79.457
	c0.983-1.784,0.214-2.696-1.711-2.024L272.35,99.697c-1.925,0.672-4.963,0.42-6.75-0.562l-83.845-46.044
	c-1.787-0.982-4.053-0.322-5.034,1.465l-32.837,59.796c-0.981,1.788-0.322,4.053,1.465,5.034l83.845,46.044
	c1.787,0.981,3.277,1.737,3.309,1.677c0.033-0.061,0.438,1.516,0.9,3.502l16.704,71.82c0.461,1.986,1.639,2.148,2.617,0.358
	l43.43-79.501C297.131,161.497,297.967,160.055,298.012,160.079z"/>
<path style="fill:#FFD221;" d="M318.662,122.917c0.983-1.787,0.213-2.698-1.712-2.026c0,0-62.056,1.975-63.843,0.992l-83.845-46.042
	c-1.787-0.982-4.053-0.323-5.034,1.465l-4.283,7.8c-0.981,1.787-0.322,4.053,1.465,5.033l83.845,46.044
	c1.788,0.981,35.189,51.001,35.189,51.001c0.463,1.986,1.641,2.146,2.618,0.357L318.662,122.917z"/>
<path style="fill:#C29C0C;" d="M266.991,99.684l-36.493,66.453c1.153,0.61,1.979,1.014,2.004,0.971l36.824-67.055
	C268.524,100.016,267.722,99.894,266.991,99.684z"/>
<circle style="fill:#F2F2F2;" cx="124.471" cy="274.971" r="19.471"/>
<path style="fill:#F3C40F;" d="M124.471,289.441c-7.979,0-14.471-6.491-14.471-14.471s6.491-14.471,14.471-14.471
	s14.471,6.491,14.471,14.471S132.45,289.441,124.471,289.441z"/>
<path style="fill:#FFD221;" d="M124.471,284.441c-5.222,0-9.471-4.249-9.471-9.471s4.249-9.471,9.471-9.471s9.471,4.249,9.471,9.471
	S129.692,284.441,124.471,284.441z"/>
<g>
</g>
<g>
</g>
<g>
</g>
<g>
</g>
<g>
</g>
<g>
</g>
<g>
</g>
<g>
</g>
<g>
</g>
<g>
</g>
<g>
</g>
<g>
</g>
<g>
</g>
<g>
</g>
<g>
</g>
</svg>
