<?xml version="1.0" encoding="iso-8859-1"?>
<!-- Generator: Adobe Illustrator 16.0.3, SVG Export Plug-In . SVG Version: 6.00 Build 0)  -->
<!DOCTYPE svg PUBLIC "-//W3C//DTD SVG 1.1//EN" "http://www.w3.org/Graphics/SVG/1.1/DTD/svg11.dtd">
<svg version="1.1" id="Layer_1" xmlns="http://www.w3.org/2000/svg" xmlns:xlink="http://www.w3.org/1999/xlink" x="0px" y="0px"
	 width="511px" height="511.05px" viewBox="0 0 511 511.05" style="enable-background:new 0 0 511 511.05;" xml:space="preserve">
<polygon style="fill:#B5920B;" points="258,346.675 511,229 258,179.969 258,179 255.5,179.484 253,179 253,179.969 0,229 
	253,346.675 253,349 255.5,347.837 258,349 "/>
<path style="fill:#F0F0F0;" d="M466,370c0,44.183-36.011,80.05-80.193,80.05h-261C80.624,450.05,45,475.183,45,431V104L148.807,0.05
	h237C429.989,0.05,466,35.818,466,80V370z"/>
<rect x="139" y="52.05" style="fill:#2D3E50;" width="274" height="20"/>
<rect x="98" y="116.05" style="fill:#F3C40F;" width="121" height="131"/>
<rect x="238" y="116.05" style="opacity:0.2;fill:#5D5D5D;" width="175" height="44"/>
<rect x="238" y="179.05" style="fill:#B5920B;" width="175" height="16"/>
<rect x="238" y="179.05" style="fill:#2D3E50;" width="175" height="16"/>
<rect x="238" y="205.05" style="opacity:0.2;fill:#5D5D5D;" width="175" height="16"/>
<rect x="238" y="231.05" style="opacity:0.2;fill:#5D5D5D;" width="175" height="16"/>
<rect x="98" y="264.05" style="opacity:0.2;fill:#5D5D5D;" width="315" height="45"/>
<polygon style="fill:#D1A90D;" points="255.808,323.098 511,416.75 511,229.443 "/>
<path style="fill:#F3C40F;" d="M0,229.217v187.761V431c0,44.183,35.624,80.05,79.807,80.05h351C474.989,511.05,511,475.183,511,431
	v-14.25L0,229.217z"/>
<polygon style="opacity:0.2;fill:#5D5D5D;" points="255.192,323.098 511,416.978 511,400 "/>
<path style="fill:#F7F7F7;" d="M44.807,104.05h69.334C133.207,104.05,149,88.666,149,69.6V0L44.807,104.05z"/>
<polygon style="opacity:0.2;fill:#5D5D5D;" points="45,159.734 45,104.05 100.273,104.05 "/>
<g>
</g>
<g>
</g>
<g>
</g>
<g>
</g>
<g>
</g>
<g>
</g>
<g>
</g>
<g>
</g>
<g>
</g>
<g>
</g>
<g>
</g>
<g>
</g>
<g>
</g>
<g>
</g>
<g>
</g>
</svg>
