<?xml version="1.0" encoding="iso-8859-1"?>
<!-- Generator: Adobe Illustrator 16.0.3, SVG Export Plug-In . SVG Version: 6.00 Build 0)  -->
<!DOCTYPE svg PUBLIC "-//W3C//DTD SVG 1.1//EN" "http://www.w3.org/Graphics/SVG/1.1/DTD/svg11.dtd">
<svg version="1.1" id="Layer_1" xmlns="http://www.w3.org/2000/svg" xmlns:xlink="http://www.w3.org/1999/xlink" x="0px" y="0px"
	 width="511.193px" height="511px" viewBox="0 0 511.193 511" style="enable-background:new 0 0 511.193 511;" xml:space="preserve"
	>
<path style="fill:#E6E6E6;" d="M511.193,431.001C511.193,475.184,475.183,511,431,511H80c-44.183,0-79.807-35.816-79.807-79.999
	v-327L104,0h327c44.183,0,80.193,35.818,80.193,80.001V431.001z"/>
<path style="opacity:0.2;fill:#5D5D5D;" d="M469.117,501.353L440.197,347H71.045l30.217,164H427h4
	C444.801,511,457.785,507.505,469.117,501.353z"/>
<path style="fill:#F7F7F7;" d="M0,104h69.334c19.066,0,34.859-15.333,34.859-34.399v-69.6L0,104z"/>
<polygon style="opacity:0.2;fill:#5D5D5D;" points="0.193,159.734 0.193,104 55.467,104 "/>
<polygon style="fill:#E3AA0E;" points="256.193,456.291 71.142,347.377 71.756,167.335 256.193,167.211 "/>
<polygon style="fill:#F7B90F;" points="256.193,456.291 440.294,347.377 440.154,167.335 256.193,167.211 "/>
<polygon style="fill:#FFC833;" points="255.832,276.331 71.409,167.335 255.082,54.711 439.809,167.335 "/>
<polygon style="fill:#FFEFC2;" points="124.108,135.019 309.456,244.561 393.322,194.875 206.531,84.479 "/>
<polygon style="fill:#FFE291;" points="392.871,252.583 309.865,302.453 309.456,244.561 393.322,194.875 "/>
<polygon style="fill:#E3AA0E;" points="164.113,110.491 348.328,221.532 354.215,218.043 169.898,106.942 "/>
<polygon style="fill:#FFEFC2;" points="387.007,135.019 201.66,244.561 117.793,194.875 304.584,84.479 "/>
<polygon style="fill:#E6CB83;" points="118.244,252.583 201.25,302.453 201.66,244.561 117.793,194.875 "/>
<polygon style="fill:#E3AA0E;" points="347.003,110.491 162.787,221.532 156.901,218.043 341.217,106.942 "/>
<g>
</g>
<g>
</g>
<g>
</g>
<g>
</g>
<g>
</g>
<g>
</g>
<g>
</g>
<g>
</g>
<g>
</g>
<g>
</g>
<g>
</g>
<g>
</g>
<g>
</g>
<g>
</g>
<g>
</g>
</svg>
