<?xml version="1.0" encoding="iso-8859-1"?>
<!-- Generator: Adobe Illustrator 16.0.3, SVG Export Plug-In . SVG Version: 6.00 Build 0)  -->
<!DOCTYPE svg PUBLIC "-//W3C//DTD SVG 1.1//EN" "http://www.w3.org/Graphics/SVG/1.1/DTD/svg11.dtd">
<svg version="1.1" id="Layer_1" xmlns="http://www.w3.org/2000/svg" xmlns:xlink="http://www.w3.org/1999/xlink" x="0px" y="0px"
	 width="511px" height="511px" viewBox="0 0 511 511" style="enable-background:new 0 0 511 511;" xml:space="preserve">
<path style="fill:#2D3E50;" d="M511,431c0,44.183-35.818,80-80,80H80c-44.183,0-80-35.817-80-80V104L104,0h327
	c44.182,0,80,35.817,80,80V431z"/>
<path style="fill:#496582;" d="M0,104h69.334C88.4,104,104,88.666,104,69.6V0L0,104z"/>
<polygon style="opacity:0.2;fill:#5D5D5D;" points="0,159.733 0,104 55.467,104 "/>
<path style="fill:#E24C3F;" d="M245.27,425.4c-30.832,37.922-86.568,43.67-124.49,12.838l-0.008-0.006
	c-37.922-30.832-43.67-86.569-12.838-124.491L287.73,92.6c30.831-37.922,86.568-43.67,124.49-12.839l0.008,0.007
	c37.922,30.832,43.669,86.568,12.838,124.49L245.27,425.4z"/>
<path style="fill:#E8E8E8;" d="M412.229,79.768l-0.008-0.007C374.299,48.93,318.562,54.678,287.73,92.6l-89.268,109.795
	l137.336,111.658l89.268-109.795C455.897,166.336,450.15,110.6,412.229,79.768z"/>
<path style="fill:#ED7F7A;" d="M204.619,213.844l-64.549,79.392c-7.9,9.718-6.428,24.003,3.291,31.905l0.497,0.403
	c9.719,7.901,24.003,6.429,31.905-3.29l64.547-79.391L204.619,213.844z"/>
<g>
</g>
<g>
</g>
<g>
</g>
<g>
</g>
<g>
</g>
<g>
</g>
<g>
</g>
<g>
</g>
<g>
</g>
<g>
</g>
<g>
</g>
<g>
</g>
<g>
</g>
<g>
</g>
<g>
</g>
</svg>
