<?xml version="1.0" encoding="iso-8859-1"?>
<!-- Generator: Adobe Illustrator 16.0.3, SVG Export Plug-In . SVG Version: 6.00 Build 0)  -->
<!DOCTYPE svg PUBLIC "-//W3C//DTD SVG 1.1//EN" "http://www.w3.org/Graphics/SVG/1.1/DTD/svg11.dtd">
<svg version="1.1" id="Layer_1" xmlns="http://www.w3.org/2000/svg" xmlns:xlink="http://www.w3.org/1999/xlink" x="0px" y="0px"
	 width="511.193px" height="511px" viewBox="0 0 511.193 511" style="enable-background:new 0 0 511.193 511;" xml:space="preserve"
	>
<path style="fill:#2D3E50;" d="M511.193,431.001C511.193,475.184,475.183,511,431,511H80c-44.183,0-79.807-35.816-79.807-79.999
	v-327L104,0h327c44.183,0,80.193,35.818,80.193,80.001V431.001z"/>
<path style="fill:#496582;" d="M0,104h69.334c19.066,0,34.859-15.333,34.859-34.399v-69.6L0,104z"/>
<polygon style="opacity:0.2;fill:#5D5D5D;" points="0.193,159.734 0.193,104 55.467,104 "/>
<path style="opacity:0.2;fill:#5D5D5D;" d="M254.683,453.409c-10.728,0-21.528-1.048-32.104-3.113
	c-32.12-6.275-62.815-23.202-86.43-47.664c-23.811-24.664-39.445-56.038-44.024-88.341c-2.857-20.155-2.562-38.95,0.905-57.459
	c3.242-17.32,9.632-34.655,18.478-50.133c17.746-31.053,45.079-55.721,76.964-69.46l0.196-0.084
	c3.199-1.736,6.784-2.652,10.387-2.652c0.792,0,1.605,0.047,2.42,0.14c1.092,0.106,2.275,0.328,3.442,0.649
	c5.483,1.508,10.286,5.199,13.173,10.127c0.551,0.94,1.035,1.964,1.439,3.043c1.045,2.597,1.574,5.317,1.574,8.09
	c0,1.83-0.233,3.656-0.694,5.431c-1.429,6.49-5.35,11.546-10.771,13.882l-0.233,0.104c-0.94,0.508-1.929,0.951-2.945,1.319
	c-4.57,2.09-8.671,4.218-12.529,6.503c-3.746,2.218-7.034,4.347-10.053,6.507c-0.37,0.266-1.246,0.929-2.028,1.521
	c-0.557,0.421-1.015,0.767-1.416,1.049v0.001c-0.854,0.688-1.702,1.383-2.536,2.096c-6.041,5.164-11.488,10.621-16.189,16.22
	c-0.789,0.938-1.573,1.877-2.335,2.835l-0.108,0.139c-0.736,0.984-1.763,2.369-2.733,3.771c-2.305,3.327-4.254,6.373-5.961,9.313
	c-2.197,3.787-4.034,7.266-5.614,10.636c-0.19,0.406-0.616,1.38-1.006,2.269c-0.253,0.577-0.503,1.147-0.778,1.683l0.017,0.007
	c-0.415,1.036-0.821,2.077-1.205,3.126c-2.806,7.68-4.904,15.33-6.238,22.74c-0.226,1.257-0.449,2.515-0.641,3.777l-0.068,0.49
	c-0.152,1.293-0.335,2.916-0.47,4.569c-0.344,4.261-0.506,8.108-0.494,11.762c0.015,4.352,0.18,8.254,0.506,11.93
	c0.104,1.167,0.222,2.337,0.352,3.507l0.067,0.473c0.152,1.063,0.365,2.558,0.466,3.139c1.324,7.556,3.172,14.77,5.491,21.437
	c0.787,2.263,1.462,4.089,2.123,5.748l0.423,1.041l0.233,0.527c1.56,3.455,3.067,6.511,4.604,9.328
	c3.177,5.82,6.662,11.303,10.359,16.295c0.234,0.286,0.664,0.822,1.141,1.417c0.702,0.877,1.517,1.896,1.857,2.297
	c1.349,1.586,2.397,2.781,3.401,3.875c2.553,2.782,4.915,5.189,7.223,7.359c2.959,2.78,5.713,5.184,8.419,7.347l0.393,0.308
	l0.244,0.184c0.23,0.174,0.46,0.349,0.693,0.519c1.688,1.233,2.99,2.154,4.218,2.982c6.221,4.194,12.536,7.796,18.771,10.705
	c0.98,0.457,1.966,0.912,2.958,1.349c1.707,0.688,3.017,1.193,4.238,1.637c3.614,1.31,6.898,2.371,10.04,3.243
	c4.062,1.125,7.737,1.992,11.234,2.65c2.044,0.388,3.699,0.673,5.205,0.897l0.187,0.022c0.55,0.066,1.1,0.134,1.651,0.19
	c5.033,0.514,10.022,0.773,14.828,0.773c2.728,0,5.453-0.084,8.103-0.249c2.495-0.156,4.515-0.322,6.356-0.521
	c0.619-0.067,1.238-0.141,1.857-0.214c3.824-0.596,7.231-1.25,10.413-2.001c7.196-1.699,14.061-3.874,20.403-6.463l0.467-0.211
	c0.796-0.359,1.589-0.717,2.373-1.089c1.897-0.9,3.339-1.611,4.675-2.308c3.367-1.757,6.322-3.43,9.032-5.113
	c3.452-2.145,6.492-4.194,9.292-6.266l1.076-0.806l0.263-0.211c1.087-0.879,2.531-2.061,3.946-3.296
	c5.609-4.894,10.686-10.031,15.089-15.271c0.325-0.387,1.078-1.335,1.753-2.186c0.455-0.571,0.854-1.075,1.233-1.509l-0.003-0.003
	c0.583-0.785,1.161-1.576,1.724-2.378c2.173-3.096,4.022-5.933,5.655-8.672c2.09-3.508,3.854-6.739,5.391-9.878
	c0.899-1.832,1.604-3.331,2.223-4.722c0.096-0.214,0.216-0.495,0.335-0.774l0.319-0.785c2.776-7.096,4.938-14.18,6.418-21.045
	c0.52-2.416,0.9-4.366,1.198-6.135c0.09-0.536,0.272-1.851,0.416-2.883c0.076-0.551,0.144-1.028,0.183-1.301
	c0.324-3.021,0.537-5.771,0.649-8.401c0.33-7.746,0.07-15.309-0.771-22.478c-0.099-0.689-0.209-1.46-0.272-1.84
	c-0.159-0.959-0.317-1.905-0.495-2.851c-0.292-1.549-0.688-3.589-1.159-5.621c-0.938-4.052-1.915-7.644-2.987-10.983
	c-0.787-2.452-1.469-4.433-2.143-6.233c-0.149-0.396-0.525-1.324-0.879-2.2c-0.276-0.684-0.525-1.3-0.723-1.874l-0.012,0.005
	c-1.321-2.966-2.598-5.6-3.899-8.053c-3.462-6.522-7.317-12.64-11.461-18.181c-0.408-0.52-0.923-1.174-1.175-1.479
	c-0.59-0.717-1.177-1.43-1.777-2.131c-1.455-1.698-2.587-2.976-3.668-4.141c-2.752-2.965-5.308-5.525-7.813-7.828
	c-1.862-1.71-3.401-3.068-4.842-4.273c-0.333-0.279-1.145-0.924-1.893-1.519c-0.517-0.41-1.007-0.8-1.448-1.195l-0.01,0.014
	c-2.608-1.931-4.996-3.587-7.301-5.063c-5.527-3.544-11.36-6.74-17.343-9.502c-1.019-0.37-2.009-0.813-2.948-1.321l-0.21-0.094
	c-5.44-2.353-9.359-7.406-10.789-13.886c-0.461-1.779-0.694-3.606-0.694-5.435c0-2.77,0.528-5.489,1.57-8.083
	c0.411-1.09,0.896-2.115,1.442-3.048c2.888-4.928,7.69-8.619,13.176-10.129c1.17-0.321,2.347-0.542,3.502-0.657
	c0.751-0.085,1.566-0.132,2.357-0.132c3.601,0,7.185,0.916,10.385,2.651l0.205,0.088c18.717,8.094,36.251,20.179,50.706,34.947
	c26.069,26.631,42.166,60.594,46.552,98.217c4.01,34.406-3.409,69.987-20.891,100.188c-16.925,29.24-42.386,52.875-71.691,66.55
	C303.817,447.962,279.538,453.409,254.683,453.409L254.683,453.409z"/>
<path style="fill:#E6E6E6;" d="M414.453,271.061c-4.193-35.978-19.759-69.352-45.158-95.299
	c-13.923-14.225-30.851-25.956-49.117-33.855c-0.138-0.06-0.272-0.116-0.408-0.173c-2.444-1.368-5.242-2.155-8.197-2.155
	c-0.628,0-1.248,0.038-1.861,0.107c-0.862,0.086-1.749,0.249-2.671,0.502c-4.261,1.173-7.955,4.024-10.188,7.835
	c-0.428,0.73-0.791,1.516-1.097,2.334c-0.79,1.949-1.23,4.065-1.23,6.271c0,1.47,0.195,2.899,0.558,4.268
	c0.974,4.515,3.575,8.589,7.886,10.453c0.158,0.067,0.313,0.141,0.471,0.209c0.834,0.462,1.711,0.854,2.62,1.173
	c6.273,2.885,12.328,6.193,18.148,9.925c2.589,1.659,5.106,3.426,7.577,5.255c-0.03,0.011,2.856,2.274,3.586,2.885
	c1.71,1.432,3.372,2.918,5.015,4.426c2.813,2.585,5.497,5.309,8.096,8.108c1.3,1.4,2.558,2.839,3.801,4.29
	c0.622,0.727,1.229,1.464,1.837,2.202c0.275,0.334,0.847,1.06,1.285,1.617c4.464,5.964,8.419,12.302,11.91,18.88
	c1.452,2.736,2.789,5.533,4.051,8.361c-0.06-0.063,1.384,3.438,1.727,4.351c0.799,2.132,1.525,4.291,2.222,6.459
	c1.202,3.745,2.21,7.55,3.098,11.382c0.448,1.933,0.835,3.878,1.202,5.826c0.185,0.98,0.349,1.963,0.512,2.946
	c0.071,0.424,0.197,1.306,0.3,2.022c0.913,7.738,1.141,15.555,0.809,23.338c-0.126,2.947-0.367,5.889-0.684,8.823
	c-0.094,0.614-0.48,3.495-0.629,4.378c-0.358,2.13-0.787,4.248-1.241,6.359c-1.605,7.443-3.88,14.734-6.653,21.821
	c-0.119,0.303-0.246,0.603-0.368,0.904c-0.133,0.313-0.269,0.63-0.369,0.854c-0.731,1.646-1.508,3.273-2.302,4.891
	c-1.71,3.492-3.596,6.898-5.586,10.238c-1.831,3.073-3.804,6.059-5.857,8.984c-0.588,0.838-1.191,1.664-1.801,2.485
	c0.273-0.405-2.451,3.078-3.171,3.935c-4.774,5.682-10.038,10.944-15.629,15.822c-1.343,1.172-2.717,2.305-4.102,3.426
	c-0.095,0.076-0.21,0.168-0.333,0.267c-0.389,0.29-0.775,0.584-1.165,0.872c-3.113,2.303-6.339,4.45-9.627,6.493
	c-3.047,1.893-6.182,3.642-9.361,5.301c-1.596,0.831-3.214,1.618-4.84,2.39c-0.814,0.387-1.637,0.758-2.458,1.128
	c-0.214,0.097-0.392,0.178-0.551,0.249c-6.88,2.814-13.998,5.027-21.23,6.735c-3.597,0.849-7.232,1.522-10.883,2.089
	c-0.666,0.079-1.331,0.158-1.997,0.23c-2.189,0.237-4.386,0.403-6.584,0.541c-7.914,0.494-15.866,0.264-23.751-0.541
	c-0.668-0.068-1.332-0.15-1.997-0.23c-1.827-0.271-3.647-0.596-5.462-0.939c-3.922-0.738-7.802-1.682-11.646-2.747
	c-3.515-0.976-6.98-2.118-10.407-3.36c-1.503-0.545-2.991-1.13-4.474-1.728c-1.051-0.461-2.094-0.942-3.133-1.427
	c-6.773-3.16-13.26-6.915-19.454-11.092c-1.48-0.999-2.933-2.039-4.374-3.092c-0.35-0.256-0.694-0.52-1.041-0.78
	c-0.172-0.133-0.331-0.259-0.457-0.358c-3.015-2.409-5.91-4.967-8.723-7.61c-2.595-2.439-5.075-4.998-7.482-7.622
	c-1.204-1.313-2.371-2.658-3.525-4.016c-0.616-0.725-2.702-3.361-3.129-3.871c-4.003-5.394-7.593-11.089-10.81-16.982
	c-1.724-3.16-3.298-6.399-4.778-9.68c-0.075-0.168-0.172-0.386-0.272-0.616c-0.154-0.381-0.313-0.761-0.464-1.143
	c-0.785-1.968-1.507-3.959-2.202-5.958c-2.516-7.232-4.373-14.684-5.694-22.223c-0.125-0.719-0.415-2.771-0.568-3.837
	c-0.137-1.231-0.261-2.463-0.371-3.696c-0.364-4.107-0.512-8.232-0.525-12.355c-0.013-4.066,0.184-8.13,0.511-12.182
	c0.131-1.612,0.308-3.222,0.497-4.828c0.029-0.219,0.059-0.421,0.081-0.576c0.198-1.309,0.429-2.611,0.663-3.914
	c1.445-8.029,3.664-15.909,6.463-23.569c0.4-1.097,0.825-2.185,1.259-3.269c-0.085,0.274,1.459-3.32,1.883-4.224
	c1.765-3.763,3.731-7.429,5.817-11.023c1.918-3.304,4-6.51,6.175-9.649c0.935-1.35,1.907-2.672,2.891-3.985
	c0.054-0.069,0.104-0.134,0.148-0.189c0.79-0.993,1.603-1.967,2.419-2.938c5.097-6.069,10.75-11.659,16.771-16.807
	c0.869-0.742,1.754-1.467,2.644-2.185c-0.104,0.113,2.885-2.18,3.674-2.744c3.364-2.408,6.855-4.636,10.415-6.743
	c4.266-2.526,8.686-4.783,13.195-6.838c0.902-0.316,1.772-0.705,2.602-1.164c0.161-0.07,0.32-0.146,0.48-0.215
	c4.315-1.859,6.916-5.939,7.887-10.457c0.363-1.367,0.558-2.796,0.558-4.264c0-2.209-0.442-4.328-1.235-6.279
	c-0.303-0.816-0.666-1.598-1.093-2.326c-2.232-3.811-5.927-6.662-10.188-7.834c-0.924-0.255-1.813-0.417-2.677-0.502
	c-0.61-0.069-1.229-0.107-1.855-0.107c-2.956,0-5.755,0.787-8.199,2.156c-0.135,0.058-0.27,0.113-0.405,0.172
	c-31.284,13.48-57.733,37.833-74.602,67.35c-8.561,14.979-14.729,31.615-17.904,48.571c-3.5,18.689-3.529,37.072-0.869,55.837
	c9.209,64.965,62.427,119.29,126.463,131.8c34.433,6.726,69.466,2.102,101.187-12.7c28.981-13.523,53.509-36.934,69.479-64.523
	C410.999,339.146,418.335,304.368,414.453,271.061z M155.036,211.45C153.412,213.602,154.313,212.389,155.036,211.45L155.036,211.45
	z M129.928,272.448C129.818,273.325,129.852,273.044,129.928,272.448L129.928,272.448z M238.299,413.483
	C242.088,413.947,239.533,413.656,238.299,413.483L238.299,413.483z M271.781,413.538
	C270.549,413.71,268.861,413.916,271.781,413.538L271.781,413.538z"/>
<path style="opacity:0.2;fill:#5D5D5D;" d="M255.193,253.763c-12.131,0-22-9.891-22-22.048V79.642c0-12.158,9.869-22.049,22-22.049
	s22,9.891,22,22.049v152.073C277.193,243.872,267.324,253.763,255.193,253.763z"/>
<path style="fill:#E6E6E6;" d="M255.193,248.763c9.293,0,17-7.755,17-17.048c0-31.469,0-62.938,0-94.405c0-24.223,0-33.445,0-57.668
	c0-9.294-7.707-17.049-17-17.049s-17,7.755-17,17.049c0,31.469,0,47.937,0,79.404c0,24.224,0,48.446,0,72.669
	C238.193,241.008,245.9,248.763,255.193,248.763z"/>
<g>
</g>
<g>
</g>
<g>
</g>
<g>
</g>
<g>
</g>
<g>
</g>
<g>
</g>
<g>
</g>
<g>
</g>
<g>
</g>
<g>
</g>
<g>
</g>
<g>
</g>
<g>
</g>
<g>
</g>
</svg>
