<?xml version="1.0" encoding="iso-8859-1"?>
<!-- Generator: Adobe Illustrator 16.0.3, SVG Export Plug-In . SVG Version: 6.00 Build 0)  -->
<!DOCTYPE svg PUBLIC "-//W3C//DTD SVG 1.1//EN" "http://www.w3.org/Graphics/SVG/1.1/DTD/svg11.dtd">
<svg version="1.1" id="Layer_1" xmlns="http://www.w3.org/2000/svg" xmlns:xlink="http://www.w3.org/1999/xlink" x="0px" y="0px"
	 width="511.097px" height="511px" viewBox="0 0 511.097 511" style="enable-background:new 0 0 511.097 511;" xml:space="preserve"
	>
<path style="fill:#E24C3F;" d="M511.097,431.001C511.097,475.185,475.183,511,431,511H80c-44.183,0-79.903-35.815-79.903-79.999
	v-327L104,0h327c44.183,0,80.097,35.818,80.097,80.001V431.001z"/>
<rect x="226.097" y="410" style="fill:#202B38;" width="58" height="101"/>
<polygon style="fill:#172229;" points="127.721,326.164 127.475,309 171.004,309 "/>
<polygon style="fill:#06080A;" points="384.139,326.164 384.381,309 340.852,309 "/>
<path style="fill:#2D3E50;" d="M157.097,281v33.346c0,58.303,44.588,106.008,98,106.008s98-47.705,98-106.008V281H157.097z"/>
<path style="fill:#FF7063;" d="M0,104h69.334c19.066,0,34.763-15.333,34.763-34.399v-69.6L0,104z"/>
<polygon style="opacity:0.2;fill:#5D5D5D;" points="0.097,159.734 0.097,104 55.467,104 "/>
<rect x="157.097" y="281" style="fill:#172229;" width="196" height="25"/>
<path style="fill:#D8DBDB;" d="M255.097,59.744c-95.461,0-98,63.771-98,63.771V242.08V282h196v-39.92V123.515
	C353.097,123.515,350.556,59.744,255.097,59.744z"/>
<path style="fill:#3E556E;" d="M171.309,340.603c2.35,10.407,7.695,20.656,13.725,29.351c13.867,20.006,34.822,33.384,58.809,37.639
	c4.578,0.813,9.18-1.168,10.498-5.961c1.148-4.165-1.373-9.686-5.959-10.5c-11.445-2.03-21.795-5.93-31.387-12.498
	c-3.35-2.289-6.852-5.396-10.178-8.818c-3.498-3.595-5.174-5.775-7.484-9.112c-2.162-3.12-4.084-6.403-5.838-9.769
	c-0.756-1.449-1.457-2.928-2.129-4.414c-0.227-0.492-1.26-2.947-0.23-0.485c-0.26-0.619-0.504-1.243-0.748-1.865
	c-1.027-2.63-1.994-5.343-2.619-8.102C185.346,325.331,168.891,329.884,171.309,340.603L171.309,340.603z"/>
<path style="fill:#9EA1A1;" d="M196.097,138c-13,0-26,0-39,0v27c13,0,26,0,39,0C213.097,165,213.097,138,196.097,138z"/>
<path style="fill:#9EA1A1;" d="M196.097,187c-13,0-26,0-39,0v26c13,0,26,0,39,0C213.097,213,213.097,187,196.097,187z"/>
<path style="fill:#9EA1A1;" d="M196.097,235c-13,0-26,0-39,0v7.08V262c13,0,26,0,39,0C213.097,262,213.097,235,196.097,235z"/>
<path style="fill:#9EA1A1;" d="M314.097,262c13,0,26,0,39,0v-27c-13,0-26,0-39,0C296.097,235,296.097,262,314.097,262z"/>
<path style="fill:#9EA1A1;" d="M314.097,213c13,0,26,0,39,0v-26c-13,0-26,0-39,0C296.097,187,296.097,213,314.097,213z"/>
<path style="fill:#9EA1A1;" d="M314.097,165c13,0,26,0,39,0v-6.625V138c-13,0-26,0-39,0C296.097,138,296.097,165,314.097,165z"/>
<path style="fill:#3E556E;" d="M118.939,309c0,0,1.002,33.045,5.734,48.99c5.578,18.781,15.441,36.18,28.207,50.978
	c25.764,29.864,64.547,46.857,103.822,46.676c38.957-0.183,76.758-17.939,102.146-47.371c12.549-14.545,21.848-31.954,27.479-50.308
	c4.867-15.871,5.732-30.965,5.732-48.965c0-10-17.07-10-17.07,0c0,18-0.969,31.373-5.805,46.635
	c-5.457,17.232-15.197,33.187-27.67,46.205c-26.211,27.374-63.98,40.153-101.426,35.815c-31.043-3.596-60.574-21.072-79.441-45.83
	c-9.656-12.678-16.645-27.44-20.762-42.817c-3.5-13.082-3.877-26.008-3.877-40.008C136.01,299,118.939,299,118.939,309
	C118.939,309,118.939,299,118.939,309z"/>
<path style="opacity:0.2;fill:#5D5D5D;" d="M374.99,309c0,18-0.969,31.373-5.805,46.635c-5.457,17.232-15.197,33.187-27.67,46.205
	c-6.547,6.837-13.814,12.764-21.619,17.741l7.121,15.719c11.873-7.306,22.665-16.4,31.832-27.027
	c12.549-14.545,21.848-31.954,27.479-50.308c4.867-15.871,5.732-30.965,5.732-48.965C392.061,299,374.99,299,374.99,309z"/>
<g>
</g>
<g>
</g>
<g>
</g>
<g>
</g>
<g>
</g>
<g>
</g>
<g>
</g>
<g>
</g>
<g>
</g>
<g>
</g>
<g>
</g>
<g>
</g>
<g>
</g>
<g>
</g>
<g>
</g>
</svg>
