<?xml version="1.0" encoding="iso-8859-1"?>
<!-- Generator: Adobe Illustrator 16.0.3, SVG Export Plug-In . SVG Version: 6.00 Build 0)  -->
<!DOCTYPE svg PUBLIC "-//W3C//DTD SVG 1.1//EN" "http://www.w3.org/Graphics/SVG/1.1/DTD/svg11.dtd">
<svg version="1.1" id="Layer_1" xmlns="http://www.w3.org/2000/svg" xmlns:xlink="http://www.w3.org/1999/xlink" x="0px" y="0px"
	 width="1177.467px" height="511px" viewBox="0 0 1177.467 511" style="enable-background:new 0 0 1177.467 511;"
	 xml:space="preserve">
<path style="fill:#E24C3F;" d="M511.193,431.001C511.193,475.184,475.183,511,431,511H80c-44.183,0-79.807-35.816-79.807-79.999
	v-327L104,0h327c44.183,0,80.193,35.819,80.193,80.001V431.001z"/>
<path style="fill:#FF7063;" d="M0,104h69.334c19.066,0,34.859-15.333,34.859-34.399v-69.6L0,104z"/>
<polygon style="opacity:0.2;fill:#5D5D5D;" points="0.193,159.735 0.193,104 55.467,104 "/>
<path style="fill:#3B5169;" d="M376.104,114h-16.91v120h-206V114h-46.088c-9.818,0-16.912,7.953-16.912,17.772v296.375
	c0,9.819,7.094,17.853,16.912,17.853H403.48c9.82,0,18.713-8.033,18.713-17.853V159.149L376.104,114z"/>
<path style="fill:#2D3E50;" d="M359.193,446V302.277c0-4.909-5.258-9.277-10.168-9.277H161.561c-4.91,0-8.367,4.368-8.367,9.277V446
	H359.193z"/>
<path style="fill:#2D3E50;" d="M353.49,125H156.873l-3.68-11.081v10.713v71.415v25.888v19.64c0,4.91,3.457,9.426,8.367,9.426
	h187.465c4.91,0,10.168-4.516,10.168-9.426v-19.64v-25.888v-71.415v-10.713L353.49,125z"/>
<path style="fill:#C7C7C7;" d="M211.193,120v68.013v8.927v35.708c0,4.911,2.59,9.353,7.5,9.353H340.1
	c4.91,0,10.094-4.442,10.094-9.353v-35.708v-8.927V120H211.193z M341.193,213.709c0,5.132-4.354,9.291-9.484,9.291h-24.418
	c-5.131,0-9.098-4.159-9.098-9.291v-68.416c0-5.132,3.967-9.293,9.098-9.293h24.418c5.131,0,9.484,4.161,9.484,9.293V213.709z"/>
<path style="fill:#212D3B;" d="M341.193,145.292c0-5.132-4.16-9.292-9.291-9.292h-24.418c-5.131,0-9.291,4.16-9.291,9.292v68.416
	c0,5.132,4.16,9.292,9.291,9.292h24.418c5.131,0,9.291-4.16,9.291-9.292V145.292z M336.193,215.172c0,2.667-2.162,4.828-4.828,4.828
	h-24.344c-2.666,0-4.828-2.162-4.828-4.828v-69.344c0-2.667,2.162-4.828,4.828-4.828h24.344c2.666,0,4.828,2.162,4.828,4.828
	V215.172z"/>
<path style="fill:#F3C40F;" d="M350.193,306.741c0-2.455-3.176-4.741-5.631-4.741H166.023c-2.455,0-3.83,2.286-3.83,4.741V347h188
	V306.741z"/>
<path style="fill:#E6E6E6;" d="M162.193,347v85.611c0,2.454,1.375,4.389,3.83,4.389h178.539c2.455,0,5.631-1.935,5.631-4.389V347
	H162.193z"/>
<rect x="183.193" y="380" style="fill:#B0B0B0;" width="146" height="5"/>
<rect x="183.193" y="406" style="fill:#B0B0B0;" width="146" height="6"/>
<path style="fill:#2D3E50;" d="M141.193,413.288c0,5.916-4.796,10.712-10.711,10.712h-16.578c-5.915,0-10.711-4.796-10.711-10.712
	v-16.576c0-5.916,4.796-10.712,10.711-10.712h16.578c5.915,0,10.711,4.796,10.711,10.712V413.288z"/>
<path style="fill:#2D3E50;" d="M409.193,413.288c0,5.916-4.795,10.712-10.711,10.712h-16.578c-5.916,0-10.711-4.796-10.711-10.712
	v-16.576c0-5.916,4.795-10.712,10.711-10.712h16.578c5.916,0,10.711,4.796,10.711,10.712V413.288z"/>
<path style="opacity:0.2;fill:#5D5D5D;" d="M350.193,232.647v-35.708v-8.927V120H209.766l130.917,121.491
	C345.593,241.491,350.193,237.558,350.193,232.647z"/>
<path style="opacity:0.2;fill:#5D5D5D;" d="M376.104,114h-16.91v10.632v71.415v25.888v12.498v7.142c0,4.91-5.258,9.426-10.168,9.426
	H217.721l201.292,186.855c1.73-2.75,3.181-6.237,3.181-9.708V159.149L376.104,114z"/>
<path style="opacity:0.2;fill:#5D5D5D;" d="M153.193,114h-46.088c-9.516,0-17.052,7.51-17.528,16.915l63.616,58.957v-65.24V114z"/>
<polygon style="opacity:0.2;fill:#5D5D5D;" points="1122.193,159.734 1122.193,104 1177.467,104 "/>
<g>
</g>
<g>
</g>
<g>
</g>
<g>
</g>
<g>
</g>
<g>
</g>
<g>
</g>
<g>
</g>
<g>
</g>
<g>
</g>
<g>
</g>
<g>
</g>
<g>
</g>
<g>
</g>
<g>
</g>
</svg>
