<?xml version="1.0" encoding="iso-8859-1"?>
<!-- Generator: Adobe Illustrator 16.0.3, SVG Export Plug-In . SVG Version: 6.00 Build 0)  -->
<!DOCTYPE svg PUBLIC "-//W3C//DTD SVG 1.1//EN" "http://www.w3.org/Graphics/SVG/1.1/DTD/svg11.dtd">
<svg version="1.1" id="Layer_1" xmlns="http://www.w3.org/2000/svg" xmlns:xlink="http://www.w3.org/1999/xlink" x="0px" y="0px"
	 width="511.193px" height="512px" viewBox="0 0 511.193 512" style="enable-background:new 0 0 511.193 512;" xml:space="preserve"
	>
<path style="fill:#8F44AB;" d="M511.193,430.948C511.193,475.131,475.183,511,431,511H80c-44.183,0-79.807-35.869-79.807-80.052
	v-327L104,0h327c44.183,0,80.193,35.766,80.193,79.948V430.948z"/>
<polygon style="opacity:0.2;fill:#5D5D5D;" points="339,390 324.847,390 252.193,39.948 252.193,387.948 173.097,399.329 
	199.752,512 366.939,512 "/>
<path style="fill:#B154D4;" d="M0,105h69.334c19.066,0,34.859-15.386,34.859-34.452v-69.6L0,105z"/>
<polygon style="opacity:0.2;fill:#5D5D5D;" points="0.193,160.682 0.193,105 55.467,105 "/>
<path style="fill:#F2F2F2;" d="M255.5,473.156c-45.618,0-82.884-37.112-82.884-82.73c0-29.42,15.577-55.887,39.577-70.702V79.74
	c0-22.056,18.251-39.74,40.307-39.74h6c22.056,0,39.693,17.685,39.693,39.74v239.983c25,14.815,39.884,41.282,39.884,70.702
	C338.077,436.044,301.118,473.156,255.5,473.156z"/>
<path style="opacity:0.2;fill:#5D5D5D;" d="M255.5,457.156c-36.795,0-66.73-29.936-66.73-66.73
	c0-23.585,11.812-44.896,31.854-57.009l7.57-4.668V79.74c0-13.233,11.073-23.74,24.307-23.74h6c13.233,0,23.693,10.507,23.693,23.74
	v249.009l7.877,4.668c20.042,12.112,32.084,33.424,32.084,57.009C322.154,427.221,292.295,457.156,255.5,457.156z"/>
<path style="fill:#E24C3F;" d="M278.193,79.74c0-11-8.693-19.74-19.693-19.74h-6c-11,0-20.307,8.74-20.307,19.74V194h46V79.74z"/>
<path style="fill:#F05143;" d="M242.193,184V79.74c0-5.514,4.793-9.74,10.307-9.74h6c5.514,0,9.693,4.227,9.693,9.74V184H242.193z"
	/>
<path style="fill:#2D3E50;" d="M278.193,332.066V194h-46v138.066c-23,9.176-39.577,31.837-39.577,58.359
	c0,34.645,28.163,62.73,62.808,62.73s62.615-28.086,62.615-62.73C318.039,363.903,302.193,341.242,278.193,332.066z"/>
<path style="fill:#3A4F66;" d="M255.5,443.156c-29.075,0-52.73-23.655-52.73-52.73c0-21.798,12.957-41.054,33.246-49.057
	l6.178-2.497V199h26v139.872l6.484,2.497c20.289,8.003,33.477,27.259,33.477,49.057C308.154,419.501,284.575,443.156,255.5,443.156z
	"/>
<rect x="232.193" y="194" style="fill:#496582;" width="46" height="9"/>
<path style="fill:#FFFFFF;" d="M242.193,111c0,0,17,0,26,0c4,0,4-6,0-6c-9,0-18,0-26,0C238.193,105,238.193,111,242.193,111
	C242.193,111,238.193,111,242.193,111z"/>
<path style="fill:#FFFFFF;" d="M242.193,172c0,0,17,0,26,0c4,0,4-6,0-6c-9,0-18,0-26,0C238.193,166,238.193,172,242.193,172
	C242.193,172,238.193,172,242.193,172z"/>
<path style="fill:#FFFFFF;" d="M242.193,233c0,0,17,0,26,0c4,0,4-6,0-6c-9,0-18,0-26,0C238.193,227,238.193,233,242.193,233
	C242.193,233,238.193,233,242.193,233z"/>
<path style="fill:#FFFFFF;" d="M242.193,294c0,0,17,0,26,0c4,0,4-6,0-6c-9,0-18,0-26,0C238.193,288,238.193,294,242.193,294
	C242.193,294,238.193,294,242.193,294z"/>
<g>
</g>
<g>
</g>
<g>
</g>
<g>
</g>
<g>
</g>
<g>
</g>
<g>
</g>
<g>
</g>
<g>
</g>
<g>
</g>
<g>
</g>
<g>
</g>
<g>
</g>
<g>
</g>
<g>
</g>
</svg>
