<?xml version="1.0" encoding="iso-8859-1"?>
<!-- Generator: Adobe Illustrator 16.0.3, SVG Export Plug-In . SVG Version: 6.00 Build 0)  -->
<!DOCTYPE svg PUBLIC "-//W3C//DTD SVG 1.1//EN" "http://www.w3.org/Graphics/SVG/1.1/DTD/svg11.dtd">
<svg version="1.1" id="Layer_1" xmlns="http://www.w3.org/2000/svg" xmlns:xlink="http://www.w3.org/1999/xlink" x="0px" y="0px"
	 width="511px" height="511px" viewBox="0 0 511 511" style="enable-background:new 0 0 511 511;" xml:space="preserve">
<path style="fill:#8F44AB;" d="M511,431c0,44.183-35.942,80-80.125,80h-351C35.692,511,0,475.183,0,431V104L103.875,0h327
	C475.058,0,511,35.817,511,80V431z"/>
<path style="fill:#E2E2E2;" d="M361,231.5c-10,0-19-8.93-19-19.5v-48c0-10.094,8.785-18,20-18h17v18h-17c-0.88,0-1.62,0.276-2,0.507
	V212c0,0.547,1,1.5,1,1.5V231.5z"/>
<rect x="333" y="187" style="fill:#1D2933;" width="35" height="96"/>
<rect x="351" y="187" style="fill:#2D3E50;" width="17" height="96"/>
<circle style="fill:#BABABA;" cx="394.001" cy="156" r="8.667"/>
<circle style="fill:#BABABA;" cx="424.001" cy="140" r="16.001"/>
<circle style="fill:#BABABA;" cx="442.001" cy="98" r="24.001"/>
<path style="fill:#F3C40F;" d="M434.237,244H296v-92.845c0-5.007-3.596-9.155-8.604-9.155h-97.893c-5.007,0-9.064,4.104-9.064,9.109
	l-9.469,99.923c40.084,11.588,69.396,48.763,69.396,92.579c0,9.076-1.259,17.389-3.608,26.389h197.479
	c10.012,0,17.763-8.514,17.763-18.526v-89.735C452,251.727,444.249,244,434.237,244z"/>
<path style="fill:#AA850E;" d="M233.955,309c4.137,10.752,6.411,22.424,6.411,34.611c0,9.076-1.259,17.389-3.608,26.389h197.479
	c10.012,0,17.763-8.514,17.763-18.526V309H233.955z"/>
<path style="fill:#E2E2E2;" d="M457,340.064c0-5.006-4.059-9.064-9.064-9.064h-58.871c-5.006,0-9.064,4.059-9.064,9.064v28.871
	c0,5.006,4.059,9.064,9.064,9.064h58.871c5.006,0,9.064-4.059,9.064-9.064V340.064z"/>
<circle style="fill:#235B8E;" cx="144.223" cy="343.424" r="91.007"/>
<circle style="fill:#1D2933;" cx="144.223" cy="343.424" r="81.384"/>
<circle style="fill:#235B8E;" cx="350.893" cy="363.358" r="71.072"/>
<circle style="fill:#1D2933;" cx="350.893" cy="363.358" r="42.305"/>
<circle style="fill:#F3C40F;" cx="350.893" cy="363.358" r="37.109"/>
<path style="fill:#2D3E50;" d="M447.375,279c0,1.154-0.936,2-2.088,2h-48.232c-1.154,0-2.089-0.846-2.089-2l0,0
	c0-1.152,0.935-2,2.089-2h48.232C446.439,277,447.375,277.848,447.375,279L447.375,279z"/>
<path style="fill:#2D3E50;" d="M447.375,272c0,1.154-0.936,2-2.088,2h-48.232c-1.154,0-2.089-0.846-2.089-2l0,0
	c0-1.152,0.935-2,2.089-2h48.232C446.439,270,447.375,270.848,447.375,272L447.375,272z"/>
<path style="fill:#2D3E50;" d="M447.375,265c0,1.154-0.936,2-2.088,2h-48.232c-1.154,0-2.089-0.846-2.089-2l0,0
	c0-1.152,0.935-2,2.089-2h48.232C446.439,263,447.375,263.848,447.375,265L447.375,265z"/>
<path style="fill:#2D3E50;" d="M447.375,258c0,1.154-0.936,2-2.088,2h-48.232c-1.154,0-2.089-0.846-2.089-2l0,0
	c0-1.152,0.935-2,2.089-2h48.232C446.439,256,447.375,256.848,447.375,258L447.375,258z"/>
<path style="fill:#E8E8E8;" d="M273,172h-69c-5.523,0-10,4.477-10,10v72.948c18.241,10.284,32.981,26.044,41.992,45.052H273
	c5.523,0,10-4.477,10-10V182C283,176.477,278.523,172,273,172z"/>
<path style="fill:#BABABA;" d="M273,172h-69c-5.523,0-10,4.477-10,10v72.948c8.583,4.839,16.377,10.903,23.178,17.935
	l58.672-100.465C274.946,172.149,273.991,172,273,172z"/>
<path style="fill:#AA850E;" d="M296,177v-25.845c0-5.007-3.596-9.155-8.604-9.155h-97.893c-5.007,0-9.064,4.104-9.064,9.109
	L177.986,177H296z"/>
<path style="fill:#F3C40F;" d="M308,158.936c0,5.006-4.059,9.064-9.064,9.064H179.064c-5.006,0-9.064-4.059-9.064-9.064v-7.871
	c0-5.006,4.059-9.064,9.064-9.064h119.871c5.006,0,9.064,4.059,9.064,9.064V158.936z"/>
<path style="fill:#1D2933;" d="M172,215c0,1.104-0.896,2-2,2l0,0c-1.104,0-2-0.896-2-2v-27c0-1.104,0.896-2,2-2l0,0
	c1.104,0,2,0.896,2,2V215z"/>
<path style="fill:#E2E2E2;" d="M279,363.052c0,1.076-0.873,1.948-1.949,1.948h-34.102c-1.076,0-1.949-0.872-1.949-1.948v-0.104
	c0-1.076,0.873-1.948,1.949-1.948h34.102c1.076,0,1.949,0.872,1.949,1.948V363.052z"/>
<path style="fill:#E2E2E2;" d="M279,346.052c0,1.076-0.873,1.948-1.949,1.948h-34.102c-1.076,0-1.949-0.872-1.949-1.948v-0.104
	c0-1.076,0.873-1.948,1.949-1.948h34.102c1.076,0,1.949,0.872,1.949,1.948V346.052z"/>
<path style="fill:#E2E2E2;" d="M279,329.052c0,1.076-0.873,1.948-1.949,1.948h-34.102c-1.076,0-1.949-0.872-1.949-1.948v-0.104
	c0-1.076,0.873-1.948,1.949-1.948h34.102c1.076,0,1.949,0.872,1.949,1.948V329.052z"/>
<path style="fill:#F3C40F;" d="M237,314H57c-5.522,0-10,4.477-10,10v36c0,5.523,4.478,10,10,10h180c5.523,0,10-4.477,10-10v-36
	C247,318.477,242.523,314,237,314z M171,347.01c0,3.86-3.13,6.99-6.99,6.99h-33.02c-3.86,0-6.99-3.13-6.99-6.99v-8.02
	c0-3.86,3.13-6.99,6.99-6.99h33.02c3.86,0,6.99,3.13,6.99,6.99V347.01z"/>
<path style="fill:#B154D4;" d="M0,104h69.334C88.4,104,104,88.666,104,69.6l-0.125-69.568L0,104z"/>
<polygon style="opacity:0.2;fill:#5D5D5D;" points="0,159.733 0,104 55.467,104 "/>
<g>
</g>
<g>
</g>
<g>
</g>
<g>
</g>
<g>
</g>
<g>
</g>
<g>
</g>
<g>
</g>
<g>
</g>
<g>
</g>
<g>
</g>
<g>
</g>
<g>
</g>
<g>
</g>
<g>
</g>
</svg>
