<?xml version="1.0" encoding="iso-8859-1"?>
<!-- Generator: Adobe Illustrator 16.0.3, SVG Export Plug-In . SVG Version: 6.00 Build 0)  -->
<!DOCTYPE svg PUBLIC "-//W3C//DTD SVG 1.1//EN" "http://www.w3.org/Graphics/SVG/1.1/DTD/svg11.dtd">
<svg version="1.1" id="Layer_1" xmlns="http://www.w3.org/2000/svg" xmlns:xlink="http://www.w3.org/1999/xlink" x="0px" y="0px"
	 width="511px" height="511px" viewBox="0 0 511 511" style="enable-background:new 0 0 511 511;" xml:space="preserve">
<path style="fill:#E24C3F;" d="M511,431c0,44.183-35.817,80-80,80H80c-44.183,0-80-35.817-80-80V104L104,0h327
	c44.183,0,80,35.817,80,80V431z"/>
<path style="fill:#47100E;" d="M435.514,413c35.328-41,56.675-94.741,56.675-153.35c0-130.506-105.797-236.217-236.306-236.217
	c-130.507,0-236.305,105.668-236.305,236.174C19.578,318.216,40.924,372,76.252,413H435.514z"/>
<path style="fill:#FF7063;" d="M0,104h69.334C88.4,104,104,88.666,104,69.6V0L0,104z"/>
<polygon style="opacity:0.2;fill:#5D5D5D;" points="0,159.733 0,104 55.467,104 "/>
<path style="fill:#EAEDEE;" d="M396,373c0,22.092-17.908,40-40,40H161c-22.092,0-40-17.908-40-40V127c0-22.092,17.908-40,40-40h195
	c22.092,0,40,17.908,40,40V373z"/>
<path style="fill:#FFFFFF;" d="M377,281c0,5.522-4.477,10-10,10H146c-5.523,0-10-4.478-10-10V130c0-5.522,4.477-10,10-10h221
	c5.523,0,10,4.478,10,10V281z"/>
<path style="fill:#E8E8E8;" d="M307.243,120H146c-5.523,0-10,4.478-10,10v151c0,5.522,4.477,10,10,10h103.743L307.243,120z"/>
<path style="fill:#E4E4E4;" d="M377,130c0-5.522-4.477-10-10-10H146c-5.523,0-10,4.478-10,10v47h32v114h29V177h114v114h29V177h37
	V130z"/>
<path style="fill:#D2D5D6;" d="M288.153,177l19.09-57H146c-5.523,0-10,4.478-10,10v47h32v114h29V177H288.153z"/>
<path style="fill:#2D3E50;" d="M367,120H146c-5.523,0-10,4.478-10,10v151c0,5.522,4.477,10,10,10h221c5.523,0,10-4.478,10-10V130
	C377,124.478,372.523,120,367,120z M369,276.713c0,5.129-4.157,9.287-9.286,9.287H154.286c-5.129,0-9.286-4.158-9.286-9.287V134.287
	c0-5.129,4.157-9.287,9.286-9.287h205.428c5.129,0,9.286,4.158,9.286,9.287V276.713z"/>
<rect x="121" y="337" style="fill:#2D3E50;" width="275" height="33"/>
<rect x="139" y="253" style="fill:#2D3E50;" width="233" height="35"/>
<path style="fill:#2D3E50;" d="M345,385H168c-5.523,0-10,4.478-10,10v17.876c0.992,0.074,1.99,0.124,3,0.124h194v-18
	C355,389.478,350.523,385,345,385z"/>
<polygon style="fill:#E8E8E8;" points="361.781,511 345.267,385 167.733,385 151.219,511 "/>
<polygon style="fill:#B5B5B5;" points="347.789,511 333.47,385 179.53,385 165.211,511 "/>
<path style="fill:#F3C40F;" d="M188,353c0,5.522-4.477,10-10,10h-27c-5.523,0-10-4.478-10-10v-1c0-5.522,4.477-10,10-10h27
	c5.523,0,10,4.478,10,10V353z"/>
<path style="fill:#F3C40F;" d="M369,353c0,5.522-4.477,10-10,10h-27c-5.523,0-10-4.478-10-10v-1c0-5.522,4.477-10,10-10h27
	c5.523,0,10,4.478,10,10V353z"/>
<g>
</g>
<g>
</g>
<g>
</g>
<g>
</g>
<g>
</g>
<g>
</g>
<g>
</g>
<g>
</g>
<g>
</g>
<g>
</g>
<g>
</g>
<g>
</g>
<g>
</g>
<g>
</g>
<g>
</g>
</svg>
