<?xml version="1.0" encoding="iso-8859-1"?>
<!-- Generator: Adobe Illustrator 16.0.3, SVG Export Plug-In . SVG Version: 6.00 Build 0)  -->
<!DOCTYPE svg PUBLIC "-//W3C//DTD SVG 1.1//EN" "http://www.w3.org/Graphics/SVG/1.1/DTD/svg11.dtd">
<svg version="1.1" id="Layer_1" xmlns="http://www.w3.org/2000/svg" xmlns:xlink="http://www.w3.org/1999/xlink" x="0px" y="0px"
	 width="511px" height="511px" viewBox="0 0 511 511" style="enable-background:new 0 0 511 511;" xml:space="preserve">
<path style="fill:#E8E8E8;" d="M511,431c0,44.183-35.942,80-80.125,80h-351C35.692,511,0,475.183,0,431V104L103.875,0h327
	C475.058,0,511,35.817,511,80V431z"/>
<path style="fill:#F4F4F4;" d="M0,104h69.334C88.4,104,104,88.666,104,69.6V0L0,104z"/>
<polygon style="opacity:0.2;fill:#5D5D5D;" points="0,159.733 0,104 55.467,104 "/>
<path style="fill:#F3C40F;" d="M282,470.067c-18.196,0-33-14.685-33-32.733V65c0-3.313,2.687-6,6-6s6,2.687,6,6v372.334
	c0,11.433,9.421,20.733,21,20.733s21-9.241,21-20.601c0-3.313,2.687-6,6-6s6,2.687,6,6C315,455.442,300.196,470.067,282,470.067z"/>
<path style="fill:#992F2C;" d="M437.775,265.334c-0.039-99.439-79.401-180.299-178.235-182.773h0.001c0.005,0,0.01,0,0.014,0
	c18.15,5.746,33.949,34.685,43.944,76.588c7.019,29.404,11.181,65.188,11.286,103.838c-0.004-0.019-0.012-0.037-0.016-0.055
	c0,0.021,0,0.044,0,0.066c0.099,0.441,0.167,0.887,0.167,1.336c0-10.493,27.326-19,61.032-19c33.707,0,61.032,8.507,61.032,19
	c0,0.336-0.03,0.669-0.085,1H437.775z"/>
<path style="fill:#E24C3F;" d="M202.319,158.949c9.896-41.41,25.473-70.111,43.384-76.219c0.004,0,0.008,0,0.012,0l0.004-0.002
	c1.037-0.052,2.08-0.082,3.123-0.116c0.188-0.007,0.375-0.016,0.563-0.021c-97.461,2.862-175.78,81.948-177.396,179.735
	c3.224-9.549,29.163-16.992,60.69-16.992c27.489,0,50.717,5.66,58.354,13.439c0,0-0.012-0.015-0.019-0.021
	c0.379-36.863,4.448-70.974,11.149-99.227c0.042-0.174,0.082-0.351,0.123-0.524C202.311,158.984,202.314,158.967,202.319,158.949z"
	/>
<path style="fill:#BC3C35;" d="M259.541,82.561c-1.552-0.039-3.107-0.06-4.668-0.06C256.434,82.501,257.989,82.521,259.541,82.561
	c-0.001-0.001-0.002-0.001-0.002-0.001c-1.557-0.039-3.117-0.06-4.682-0.06c-1.537,0-3.069,0.021-4.599,0.059
	c-0.285,0.008-0.569,0.023-0.854,0.032c0.291-0.009,0.58-0.024,0.871-0.032c-0.479,0.012-0.955,0.038-1.434,0.054
	c-1.044,0.034-2.088,0.065-3.127,0.118c-17.912,6.107-33.492,34.809-43.396,76.219c-0.005,0.018-0.009,0.035-0.013,0.052
	c-0.041,0.174-0.081,0.351-0.123,0.524c-6.697,28.256-10.762,62.371-11.134,99.237c0.006,0.007,0.013,0.014,0.018,0.021
	c0.526,0.533,0.979,1.078,1.354,1.63c0.004,0.008,0.008,0.016,0.008,0.016c0.188,0.279,0.355,0.554,0.501,0.829
	c0.15,0.286,0.28,0.574,0.389,0.862c3.534-9.445,29.308-16.781,60.599-16.787c1.031,0,2.058,0.008,3.076,0.024
	c0.347,0.005,0.686,0.016,1.029,0.022c0.669,0.015,1.339,0.026,2.002,0.047c0.413,0.013,0.823,0.032,1.235,0.047
	c0.587,0.022,1.175,0.042,1.756,0.068c0.436,0.021,0.864,0.046,1.296,0.068c0.551,0.03,1.104,0.059,1.647,0.092
	c0.449,0.028,0.891,0.062,1.335,0.092c0.52,0.036,1.04,0.072,1.555,0.111c0.459,0.036,0.913,0.076,1.368,0.116
	c0.489,0.041,0.978,0.083,1.461,0.128c0.469,0.045,0.931,0.093,1.396,0.141c0.458,0.047,0.92,0.094,1.374,0.145
	c0.472,0.053,0.938,0.108,1.403,0.164c0.439,0.053,0.875,0.105,1.307,0.16c0.475,0.061,0.943,0.125,1.411,0.188
	c0.41,0.057,0.821,0.113,1.226,0.172c0.48,0.071,0.953,0.144,1.425,0.217c0.382,0.06,0.763,0.12,1.139,0.182
	c0.485,0.08,0.965,0.161,1.441,0.245c0.351,0.061,0.697,0.124,1.042,0.187c0.492,0.09,0.977,0.183,1.459,0.275
	c0.318,0.063,0.635,0.126,0.951,0.19c0.492,0.1,0.98,0.202,1.464,0.307c0.288,0.063,0.572,0.125,0.856,0.189
	c0.499,0.111,0.995,0.227,1.481,0.342c0.251,0.061,0.497,0.121,0.745,0.182c0.508,0.127,1.009,0.252,1.505,0.382
	c0.21,0.057,0.418,0.113,0.628,0.17c0.518,0.14,1.03,0.28,1.531,0.427c0.167,0.047,0.329,0.098,0.493,0.146
	c0.532,0.157,1.057,0.316,1.571,0.479c0.116,0.037,0.229,0.076,0.345,0.113c0.551,0.178,1.094,0.357,1.622,0.542
	c0.055,0.02,0.107,0.038,0.162,0.059c8.587,3.022,14.117,6.904,15.113,11.179c-0.104-38.629-4.26-74.394-11.271-103.783
	C293.498,117.244,277.693,88.307,259.541,82.561z"/>
<g>
</g>
<g>
</g>
<g>
</g>
<g>
</g>
<g>
</g>
<g>
</g>
<g>
</g>
<g>
</g>
<g>
</g>
<g>
</g>
<g>
</g>
<g>
</g>
<g>
</g>
<g>
</g>
<g>
</g>
</svg>
