<?xml version="1.0" encoding="iso-8859-1"?>
<!-- Generator: Adobe Illustrator 16.0.3, SVG Export Plug-In . SVG Version: 6.00 Build 0)  -->
<!DOCTYPE svg PUBLIC "-//W3C//DTD SVG 1.1//EN" "http://www.w3.org/Graphics/SVG/1.1/DTD/svg11.dtd">
<svg version="1.1" id="Layer_1" xmlns="http://www.w3.org/2000/svg" xmlns:xlink="http://www.w3.org/1999/xlink" x="0px" y="0px"
	 width="511px" height="511px" viewBox="0 0 511 511" style="enable-background:new 0 0 511 511;" xml:space="preserve">
<path style="fill:#E8E8E8;" d="M511,431c0,44.183-35.818,80-80,80H80c-44.183,0-80-35.817-80-80V104L104,0h327
	c44.182,0,80,35.817,80,80V431z"/>
<path style="fill:#F4F4F4;" d="M0,104h69.334C88.4,104,104,88.666,104,69.6V0L0,104z"/>
<polygon style="opacity:0.2;fill:#5D5D5D;" points="0,159.733 0,104 55.467,104 "/>
<rect x="244.333" y="67.668" style="fill:#8C5A18;" width="30" height="443.332"/>
<rect x="244.333" y="158.482" style="fill:#684011;" width="30" height="115.258"/>
<polygon style="fill:#F2D188;" points="125.528,199.075 119.528,208.356 132.641,211.992 131.686,201.21 "/>
<path style="fill:#F2D188;" d="M419.918,220.744l-24.605-40.084c-2.965-4.831-9.99-8.761-15.658-8.761H130.028
	c-0.391,0-0.774,0.025-1.155,0.067l-1.152-3.637l-5.942,7.582l0.005,0.008c-1.408,1.787-2.255,4.033-2.255,6.479v13.312
	l41.858,3.707l-41.858,8.938v28.247l32.526,5.032l-32.526,7.728v27.294c0,5.79,4.71,10.5,10.5,10.5h249.626
	c4.945,0,10.921-2.991,14.334-6.962h0.002l0.008-0.01c0.281-0.328,0.541-0.663,0.785-1.003l5.297-6.761l-1.072-0.047l20.91-34.063
	C422.891,233.469,422.891,225.588,419.918,220.744z"/>
<path style="fill:#F2D188;" d="M125.528,240.938l-6,8.426c0,0,6.121,3.971,7.056,4.204c0.934,0.233,10.228-5.417,10.228-5.417
	L125.528,240.938z"/>
<path style="fill:#CC8A3B;" d="M425.918,213.077l-24.605-40.084c-2.965-4.831-9.99-8.761-15.658-8.761H136.028
	c-5.79,0-10.5,4.71-10.5,10.5v13.51l35.858,3.176l-35.858,7.657v31.456l26.526,4.104l-26.526,6.302v28.053
	c0,5.79,4.71,10.5,10.5,10.5h249.626c5.668,0,12.693-3.93,15.658-8.761l24.605-40.084
	C428.891,225.802,428.891,217.921,425.918,213.077z"/>
<path style="fill:#F2D188;" d="M389,263.312c0,1.585-1.285,2.87-2.87,2.87H253.37c-1.585,0-2.87-1.285-2.87-2.87l0,0
	c0-1.585,1.285-2.87,2.87-2.87h132.76C387.715,260.441,389,261.727,389,263.312L389,263.312z"/>
<path style="fill:#F2D188;" d="M302.6,227.516c0,1.629-1.32,2.948-2.949,2.948H162.284c-1.628,0-2.948-1.319-2.948-2.948l0,0
	c0-1.629,1.32-2.948,2.948-2.948H299.65C301.279,224.567,302.6,225.887,302.6,227.516L302.6,227.516z"/>
<path style="fill:#F2D188;" d="M359.488,184.328c0,1.533-1.242,2.775-2.775,2.775H225.591c-1.532,0-2.774-1.242-2.774-2.775l0,0
	c0-1.532,1.242-2.774,2.774-2.774h131.122C358.246,181.554,359.488,182.796,359.488,184.328L359.488,184.328z"/>
<rect x="244.333" y="302.132" style="fill:#684011;" width="30" height="87.056"/>
<polygon style="fill:#F2D188;" points="351.181,332.793 355.713,339.803 345.809,342.549 346.53,334.404 "/>
<path style="fill:#F2D188;" d="M128.823,349.159l18.585-30.276c2.239-3.648,7.545-6.617,11.826-6.617h188.547
	c0.295,0,0.586,0.02,0.873,0.051l0.871-2.746l4.488,5.727l-0.004,0.006c1.063,1.35,1.703,3.046,1.703,4.895v10.055l-31.617,2.799
	l31.617,6.752v21.335l-24.568,3.802l24.568,5.836v20.615c0,4.374-3.559,7.932-7.932,7.932H159.234c-3.734,0-8.248-2.26-10.826-5.259
	h-0.002l-0.006-0.007c-0.212-0.248-0.408-0.502-0.593-0.758l-4.001-5.106l0.81-0.036l-15.793-25.728
	C126.578,358.77,126.578,352.817,128.823,349.159z"/>
<path style="fill:#F2D188;" d="M351.181,364.412l4.532,6.363c0,0-4.623,3-5.329,3.176s-7.726-4.092-7.726-4.092L351.181,364.412z"/>
<path style="fill:#CC8A3B;" d="M124.291,343.368l18.584-30.276c2.24-3.648,7.547-6.617,11.827-6.617H343.25
	c4.373,0,7.931,3.558,7.931,7.932v10.203l-27.085,2.398l27.085,5.785v23.758l-20.036,3.102l20.036,4.76V385.6
	c0,4.374-3.558,7.932-7.931,7.932H154.702c-4.28,0-9.587-2.969-11.827-6.617l-18.584-30.276
	C122.045,352.979,122.045,347.026,124.291,343.368z"/>
<path style="fill:#F2D188;" d="M152.176,381.311c0,1.197,0.971,2.168,2.168,2.168h100.275c1.197,0,2.168-0.971,2.168-2.168l0,0
	c0-1.197-0.971-2.168-2.168-2.168H154.344C153.146,379.143,152.176,380.113,152.176,381.311L152.176,381.311z"/>
<path style="fill:#F2D188;" d="M217.436,354.273c0,1.23,0.997,2.227,2.227,2.227h103.756c1.23,0,2.227-0.996,2.227-2.227l0,0
	c0-1.23-0.996-2.227-2.227-2.227H219.662C218.433,352.047,217.436,353.043,217.436,354.273L217.436,354.273z"/>
<path style="fill:#F2D188;" d="M174.467,321.653c0,1.158,0.938,2.097,2.096,2.097h99.039c1.158,0,2.096-0.938,2.096-2.097l0,0
	c0-1.157-0.938-2.096-2.096-2.096h-99.039C175.404,319.558,174.467,320.496,174.467,321.653L174.467,321.653z"/>
<g>
</g>
<g>
</g>
<g>
</g>
<g>
</g>
<g>
</g>
<g>
</g>
<g>
</g>
<g>
</g>
<g>
</g>
<g>
</g>
<g>
</g>
<g>
</g>
<g>
</g>
<g>
</g>
<g>
</g>
</svg>
