<?xml version="1.0" encoding="utf-8"?>
<!-- Generator: Adobe Illustrator 16.0.0, SVG Export Plug-In . SVG Version: 6.00 Build 0)  -->
<!DOCTYPE svg PUBLIC "-//W3C//DTD SVG 1.1//EN" "http://www.w3.org/Graphics/SVG/1.1/DTD/svg11.dtd">
<svg version="1.1" xmlns="http://www.w3.org/2000/svg" xmlns:xlink="http://www.w3.org/1999/xlink" x="0px" y="0px" width="512px"
	 height="512px" viewBox="0 0 512 512" enable-background="new 0 0 512 512" xml:space="preserve">
<g id="Palette" display="none">
	<rect x="-3845" y="-3851" display="inline" fill="#FFFFFF" width="9201" height="7668"/>
</g>
<g id="Others">
	<g id="files">
	</g>
	<g id="pencil_rocket">
	</g>
	<g id="magic_hat__x26__rabbit">
	</g>
	<g id="phone__x26__target">
	</g>
	<g id="toast">
	</g>
	<g id="coffee">
	</g>
	<g id="suit">
	</g>
	<g id="DNA_tube">
	</g>
	<g id="clapper">
	</g>
	<g id="stopwatch">
	</g>
	<g id="map__x26__locator">
	</g>
	<g id="envelope">
	</g>
	<g id="phone__x26__megaphone">
	</g>
	<g id="speech_bubble">
	</g>
	<g id="medal">
	</g>
</g>
<g id="Design">
	<g id="blueprint">
	</g>
	<g id="computer__x26__pencil__x26__ruker">
	</g>
	<g id="pencil__x26__ruler__x26__eraser">
	</g>
	<g id="paint_brush">
	</g>
	<g id="eraser">
	</g>
	<g id="round_brush">
	</g>
	<g id="scissor">
	</g>
	<g id="wacom">
	</g>
	<g id="vector">
	</g>
	<g id="lightbulb">
	</g>
	<g id="lamp">
	</g>
	<g id="pencil__x26__brush">
	</g>
	<g id="laptop__x26__brush">
	</g>
	<g id="paint">
	</g>
	<g id="magic_wand">
	</g>
</g>
<g id="SEO_x2F__Web">
	<g id="W_key">
	</g>
	<g id="link_plus">
	</g>
	<g id="website__x26__lock">
	</g>
	<g id="video">
	</g>
	<g id="maginifier__x26__target">
	</g>
	<g id="website__x26__setting_1_">
	</g>
	<g id="website__x26__code">
	</g>
	<g id="SEO_tag">
	</g>
	<g id="website__x26__wrench">
	</g>
	<g id="crown">
	</g>
	<g id="eye">
	</g>
	<g id="website__x26__clock">
	</g>
	<g id="spider">
	</g>
	<g id="website__x26__medal">
	</g>
	<g id="graph">
	</g>
</g>
<g id="Finance__x2F__Money">
	<g id="diamond">
	</g>
	<g id="calculating">
	</g>
	<g id="calculator">
	</g>
	<g id="auction_hammer">
		<radialGradient id="SVGID_1_" cx="256" cy="256" r="256" gradientUnits="userSpaceOnUse">
			<stop  offset="0" style="stop-color:#04BE9E"/>
			<stop  offset="1" style="stop-color:#00A185"/>
		</radialGradient>
		<circle fill="url(#SVGID_1_)" cx="256" cy="256" r="256"/>
		<path fill="#EC7C2D" d="M123.829,275.715c-2.141,4.051-0.579,9.115,3.472,11.254l83.945,44.365
			c4.05,2.139,9.115,0.576,11.255-3.475l4.28-8.1l-98.672-52.145L123.829,275.715z"/>
		<path fill="#D9521E" d="M306.945,168.07c2.141-4.051,0.578-9.113-3.472-11.256l-83.944-44.361
			c-4.051-2.141-9.115-0.578-11.255,3.473l-4.28,8.098l98.672,52.148L306.945,168.07z"/>
		<path fill="#32485D" d="M172.496,215.711L156.54,245.9c-2.14,4.051-7.638,7.443-12.218,7.539l-0.492,0.01
			c-4.581,0.096-10.078,3.488-12.219,7.539l-3.502,6.627l98.672,52.145l3.502-6.627c2.141-4.049,1.846-10.504-0.654-14.34
			l-0.27-0.414c-2.501-3.838-2.796-10.291-0.655-14.34l15.955-30.191l0.31-0.586l160.648,100.742
			c7.762,4.867,17.614,2.221,21.896-5.877l5.643-10.678L251.274,241.33l-16.911-8.938l-55.252-29.201L172.496,215.711z"/>
		<path fill="#32485D" d="M200.49,130.652c-2.141,4.051-1.845,10.504,0.656,14.342l0.27,0.412c2.5,3.838,2.795,10.291,0.655,14.342
			l-15.956,30.189l-7.004,13.254l55.252,29.201l16.911,8.938l181.881,96.119l6.032-11.414c4.279-8.1,0.914-17.73-7.48-21.4
			L257.969,228.66l0.311-0.584l15.954-30.191c2.142-4.051,7.64-7.443,12.218-7.539l0.494-0.01
			c4.579-0.096,10.078-3.488,12.218-7.537l3.503-6.627l-98.672-52.148L200.49,130.652z"/>
		<path fill="#2A3E4E" d="M200.49,130.652c-2.141,4.051-1.845,10.504,0.656,14.342l0.27,0.412c2.5,3.838,2.795,10.291,0.655,14.342
			l-15.956,30.189l-7.004,13.254l55.252,29.201l16.911,8.938l181.881,96.119l6.032-11.414c4.279-8.1,0.914-17.73-7.48-21.4
			L257.969,228.66l0.311-0.584l15.954-30.191c2.142-4.051,7.64-7.443,12.218-7.539l0.494-0.01
			c4.579-0.096,10.078-3.488,12.218-7.537l3.503-6.627l-98.672-52.148L200.49,130.652z"/>
		<polygon fill="#F4C342" points="211.906,169.654 190.893,209.418 169.879,249.182 218.479,274.867 239.493,235.104 
			260.506,195.34 		"/>
		
			<rect x="203.212" y="174.894" transform="matrix(-0.4672 0.8841 -0.8841 -0.4672 510.0835 97.3887)" fill="#F79B35" width="44.975" height="54.97"/>
		<path fill="#EC7C2D" d="M243.373,357H178h-66.484c-5.002,0-8.516,3.404-8.516,8.406v4.547c0,5.002,3.514,10.047,8.516,10.047H178
			h65.373c5.002,0,9.627-5.045,9.627-10.047v-4.547C253,360.404,248.375,357,243.373,357z"/>
		<path fill="#32485D" d="M283.297,393.546l-7.098-15.282c-3.05-3.965-9.637-7.264-14.639-7.264H178H94.238
			c-5.002,0-11.59,3.175-14.639,7.14l-7.098,15.442c-3.05,3.963-1.453,7.418,3.549,7.418H178h101.748
			C284.749,401,286.346,397.511,283.297,393.546z"/>
		<path fill="#D9521E" d="M243.373,357H178v23h65.373c5.002,0,9.627-5.045,9.627-10.047v-4.547C253,360.404,248.375,357,243.373,357
			z"/>
		<path fill="#2A3E4E" d="M283.297,393.546l-7.098-15.282c-3.05-3.965-9.637-7.264-14.639-7.264H178v30h101.748
			C284.749,401,286.346,397.511,283.297,393.546z"/>
	</g>
	<g id="bag_of_money">
	</g>
	<g id="piggy_bank">
	</g>
	<g id="bank">
	</g>
	<g id="umbrella__x26__coins">
	</g>
	<g id="safe">
	</g>
	<g id="treasure">
	</g>
	<g id="cash__x26__card">
	</g>
	<g id="coins__x26__cash">
	</g>
	<g id="coins__x26__card">
	</g>
	<g id="briefcase">
	</g>
	<g id="cash">
	</g>
</g>
<g id="E-Commerce__x2F__Shopping">
	<g id="New_Symbol">
	</g>
	<g id="mobile__x26__finger">
	</g>
	<g id="price_tag">
	</g>
	<g id="website__x26__magnifier">
	</g>
	<g id="hand_to_ahnd_delivery">
	</g>
	<g id="hand__x26__credit_card">
	</g>
	<g id="hand__x26__iPad">
	</g>
	<g id="empty_basket">
	</g>
	<g id="full_basket">
	</g>
	<g id="trolley">
	</g>
	<g id="wallet">
	</g>
	<g id="truck">
	</g>
	<g id="delivery">
	</g>
	<g id="gift">
	</g>
	<g id="hand__x26__shopping_bag">
	</g>
	<g id="iMac_with_products">
	</g>
	<g id="laptop_store">
	</g>
	<g id="shopping_bag_with_mouse">
	</g>
	<g id="mobile_store">
	</g>
	<g id="store">
	</g>
	<g id="laptop_with_money">
	</g>
</g>
<g id="Strategy">
	<g id="money_palnt">
	</g>
	<g id="contract">
	</g>
	<g id="trophy">
	</g>
	<g id="graph_paper">
	</g>
	<g id="competition">
	</g>
	<g id="checklist">
	</g>
	<g id="megaphone">
	</g>
	<g id="paper_airplane">
	</g>
	<g id="mission_1">
	</g>
	<g id="graph_board">
	</g>
	<g id="mission_2">
	</g>
	<g id="strategy">
	</g>
	<g id="target">
	</g>
	<g id="partnership">
	</g>
	<g id="chess">
	</g>
</g>
</svg>
