<?xml version="1.0" encoding="utf-8"?>
<!-- Generator: Adobe Illustrator 16.0.0, SVG Export Plug-In . SVG Version: 6.00 Build 0)  -->
<!DOCTYPE svg PUBLIC "-//W3C//DTD SVG 1.1//EN" "http://www.w3.org/Graphics/SVG/1.1/DTD/svg11.dtd">
<svg version="1.1" xmlns="http://www.w3.org/2000/svg" xmlns:xlink="http://www.w3.org/1999/xlink" x="0px" y="0px" width="512px"
	 height="512px" viewBox="0 0 512 512" enable-background="new 0 0 512 512" xml:space="preserve">
<g id="Palette" display="none">
	<rect x="-3149" y="-4493" display="inline" fill="#FFFFFF" width="9201" height="7668"/>
</g>
<g id="Others">
	<g id="files">
	</g>
	<g id="pencil_rocket">
	</g>
	<g id="magic_hat__x26__rabbit">
	</g>
	<g id="phone__x26__target">
	</g>
	<g id="toast">
	</g>
	<g id="coffee">
	</g>
	<g id="suit">
	</g>
	<g id="DNA_tube">
	</g>
	<g id="clapper">
	</g>
	<g id="stopwatch">
	</g>
	<g id="map__x26__locator">
	</g>
	<g id="envelope">
	</g>
	<g id="phone__x26__megaphone">
	</g>
	<g id="speech_bubble">
	</g>
	<g id="medal">
	</g>
</g>
<g id="Design">
	<g id="blueprint">
	</g>
	<g id="computer__x26__pencil__x26__ruker">
	</g>
	<g id="pencil__x26__ruler__x26__eraser">
	</g>
	<g id="paint_brush">
	</g>
	<g id="eraser">
	</g>
	<g id="round_brush">
	</g>
	<g id="scissor">
	</g>
	<g id="wacom">
	</g>
	<g id="vector">
	</g>
	<g id="lightbulb">
	</g>
	<g id="lamp">
	</g>
	<g id="pencil__x26__brush">
	</g>
	<g id="laptop__x26__brush">
	</g>
	<g id="paint">
	</g>
	<g id="magic_wand">
	</g>
</g>
<g id="SEO_x2F__Web">
	<g id="W_key">
	</g>
	<g id="link_plus">
	</g>
	<g id="website__x26__lock">
	</g>
	<g id="video">
	</g>
	<g id="maginifier__x26__target">
	</g>
	<g id="website__x26__setting_1_">
	</g>
	<g id="website__x26__code">
	</g>
	<g id="SEO_tag">
	</g>
	<g id="website__x26__wrench">
	</g>
	<g id="crown">
	</g>
	<g id="eye">
	</g>
	<g id="website__x26__clock">
	</g>
	<g id="spider">
	</g>
	<g id="website__x26__medal">
	</g>
	<g id="graph">
	</g>
</g>
<g id="Finance__x2F__Money">
	<g id="diamond">
	</g>
	<g id="calculating">
	</g>
	<g id="calculator">
		<radialGradient id="SVGID_1_" cx="256" cy="256" r="256" gradientUnits="userSpaceOnUse">
			<stop  offset="0.0051" style="stop-color:#95A5A6"/>
			<stop  offset="1" style="stop-color:#7F8C8D"/>
		</radialGradient>
		<circle fill="url(#SVGID_1_)" cx="256" cy="256" r="256"/>
		<path fill="#32485D" d="M377,110c0-5.522-3.477-9-9-9H133c-5.523,0-11,3.478-11,9v127h255V110z"/>
		<path fill="#2A3E4E" d="M377,124c0-5.522-3.477-9-9-9H133c-5.523,0-11,3.478-11,9v127h255V124z"/>
		<path fill="#32485D" d="M122,219v182c0,5.522,5.477,11,11,11h235c5.523,0,9-5.478,9-11V219H122z"/>
		<path fill="#EE483C" d="M362,375c0,5.523-4.477,10-10,10h-42c-5.523,0-10-4.477-10-10V256c0-5.523,4.477-10,10-10h42
			c5.523,0,10,4.477,10,10V375z"/>
		<path fill="#ECF0F1" d="M210,298c0,5.523-4.477,10-10,10h-42c-5.523,0-10-4.477-10-10v-42c0-5.523,4.477-10,10-10h42
			c5.523,0,10,4.477,10,10V298z"/>
		<path fill="#ECF0F1" d="M210,375c0,5.523-4.477,10-10,10h-42c-5.523,0-10-4.477-10-10v-42c0-5.523,4.477-10,10-10h42
			c5.523,0,10,4.477,10,10V375z"/>
		<path fill="#ECF0F1" d="M286,298c0,5.523-4.477,10-10,10h-42c-5.523,0-10-4.477-10-10v-42c0-5.523,4.477-10,10-10h42
			c5.523,0,10,4.477,10,10V298z"/>
		<path fill="#ECF0F1" d="M286,375c0,5.523-4.477,10-10,10h-42c-5.523,0-10-4.477-10-10v-42c0-5.523,4.477-10,10-10h42
			c5.523,0,10,4.477,10,10V375z"/>
		<path fill="#2CBD9F" d="M359,193c0,5.523-4.477,10-10,10H150c-5.523,0-10-4.477-10-10v-52c0-5.523,4.477-10,10-10h199
			c5.523,0,10,4.477,10,10V193z"/>
		<path fill="#BDC3C7" d="M201,246h-22v62h22c5.523,0,9-5.478,9-11v-42C210,249.478,206.523,246,201,246z"/>
		<path fill="#BDC3C7" d="M201,385c5.523,0,9-5.478,9-11v-42c0-5.522-3.477-9-9-9h-22v62H201z"/>
		<path fill="#BDC3C7" d="M286,297v-42c0-5.522-3.477-9-9-9h-22v62h22C282.523,308,286,302.522,286,297z"/>
		<path fill="#BDC3C7" d="M277,385c5.523,0,9-5.478,9-11v-42c0-5.522-3.477-9-9-9h-22v62H277z"/>
		<path fill="#C6352B" d="M353,246h-22v139h22c5.523,0,9-5.478,9-11V255C362,249.478,358.523,246,353,246z"/>
		<path fill="#24A187" d="M350,131H249v72h101c5.5,0,9-5.5,9-11v-52C359,134.5,355.5,131,350,131z"/>
		<path fill="#32485D" d="M195,271h-10v-10c0-3.59-2.91-6.5-6.5-6.5s-6.5,2.91-6.5,6.5v10h-7c-3.59,0-6.5,2.91-6.5,6.5
			s2.91,6.5,6.5,6.5h7v7c0,3.59,2.91,6.5,6.5,6.5s6.5-2.91,6.5-6.5v-7h10c3.59,0,6.5-2.91,6.5-6.5S198.59,271,195,271z"/>
		<path fill="#32485D" d="M194.85,361.364L188.485,355l6.364-6.363c2.538-2.539,2.538-6.654,0-9.193
			c-2.539-2.538-6.654-2.538-9.193,0l-6.363,6.364l-5.656-5.657c-2.539-2.538-6.654-2.538-9.193,0c-2.538,2.539-2.538,6.654,0,9.193
			l5.657,5.656l-5.657,5.657c-2.538,2.538-2.538,6.653,0,9.192c2.539,2.538,6.654,2.538,9.192,0l5.657-5.657l6.363,6.364
			c2.539,2.538,6.654,2.538,9.193,0C197.388,368.018,197.388,363.902,194.85,361.364z"/>
		<path fill="#32485D" d="M234.5,278.5c0-3.59,2.91-6.5,6.5-6.5h30c3.59,0,6.5,2.91,6.5,6.5s-2.91,6.5-6.5,6.5h-30
			C237.41,285,234.5,282.09,234.5,278.5z"/>
		<path fill="#ECF0F1" d="M310.5,323.5c0-3.59,2.91-6.5,6.5-6.5h30c3.59,0,6.5,2.91,6.5,6.5s-2.91,6.5-6.5,6.5h-30
			C313.41,330,310.5,327.09,310.5,323.5z"/>
		<path fill="#ECF0F1" d="M310.5,307.5c0-3.59,2.91-6.5,6.5-6.5h30c3.59,0,6.5,2.91,6.5,6.5s-2.91,6.5-6.5,6.5h-30
			C313.41,314,310.5,311.09,310.5,307.5z"/>
		<path fill="#32485D" d="M234.5,354.5c0-3.59,2.91-6.5,6.5-6.5h30c3.59,0,6.5,2.91,6.5,6.5s-2.91,6.5-6.5,6.5h-30
			C237.41,361,234.5,358.09,234.5,354.5z"/>
		<circle fill="#32485D" cx="256.167" cy="336" r="6.167"/>
		<circle fill="#32485D" cx="256.167" cy="371" r="6.167"/>
	</g>
	<g id="auction_hammer">
	</g>
	<g id="bag_of_money">
	</g>
	<g id="piggy_bank">
	</g>
	<g id="bank">
	</g>
	<g id="umbrella__x26__coins">
	</g>
	<g id="safe">
	</g>
	<g id="treasure">
	</g>
	<g id="cash__x26__card">
	</g>
	<g id="coins__x26__cash">
	</g>
	<g id="coins__x26__card">
	</g>
	<g id="briefcase">
	</g>
	<g id="cash">
	</g>
</g>
<g id="E-Commerce__x2F__Shopping">
	<g id="New_Symbol">
	</g>
	<g id="mobile__x26__finger">
	</g>
	<g id="price_tag">
	</g>
	<g id="website__x26__magnifier">
	</g>
	<g id="hand_to_ahnd_delivery">
	</g>
	<g id="hand__x26__credit_card">
	</g>
	<g id="hand__x26__iPad">
	</g>
	<g id="empty_basket">
	</g>
	<g id="full_basket">
	</g>
	<g id="trolley">
	</g>
	<g id="wallet">
	</g>
	<g id="truck">
	</g>
	<g id="delivery">
	</g>
	<g id="gift">
	</g>
	<g id="hand__x26__shopping_bag">
	</g>
	<g id="iMac_with_products">
	</g>
	<g id="laptop_store">
	</g>
	<g id="shopping_bag_with_mouse">
	</g>
	<g id="mobile_store">
	</g>
	<g id="store">
	</g>
	<g id="laptop_with_money">
	</g>
</g>
<g id="Strategy">
	<g id="money_palnt">
	</g>
	<g id="contract">
	</g>
	<g id="trophy">
	</g>
	<g id="graph_paper">
	</g>
	<g id="competition">
	</g>
	<g id="checklist">
	</g>
	<g id="megaphone">
	</g>
	<g id="paper_airplane">
	</g>
	<g id="mission_1">
	</g>
	<g id="graph_board">
	</g>
	<g id="mission_2">
	</g>
	<g id="strategy">
	</g>
	<g id="target">
	</g>
	<g id="partnership">
	</g>
	<g id="chess">
	</g>
</g>
</svg>
