<?xml version="1.0" encoding="utf-8"?>
<!-- Generator: Adobe Illustrator 16.0.0, SVG Export Plug-In . SVG Version: 6.00 Build 0)  -->
<!DOCTYPE svg PUBLIC "-//W3C//DTD SVG 1.1//EN" "http://www.w3.org/Graphics/SVG/1.1/DTD/svg11.dtd">
<svg version="1.1" xmlns="http://www.w3.org/2000/svg" xmlns:xlink="http://www.w3.org/1999/xlink" x="0px" y="0px" width="512px"
	 height="512px" viewBox="0 0 512 512" enable-background="new 0 0 512 512" xml:space="preserve">
<g id="Palette" display="none">
	<rect x="-3149" y="-360" display="inline" fill="#FFFFFF" width="9201" height="7668"/>
</g>
<g id="Others">
	<g id="files">
	</g>
	<g id="pencil_rocket">
	</g>
	<g id="magic_hat__x26__rabbit">
	</g>
	<g id="phone__x26__target">
	</g>
	<g id="toast">
	</g>
	<g id="coffee">
	</g>
	<g id="suit">
	</g>
	<g id="DNA_tube">
	</g>
	<g id="clapper">
	</g>
	<g id="stopwatch">
	</g>
	<g id="map__x26__locator">
	</g>
	<g id="envelope">
	</g>
	<g id="phone__x26__megaphone">
	</g>
	<g id="speech_bubble">
	</g>
	<g id="medal">
	</g>
</g>
<g id="Design">
	<g id="blueprint">
	</g>
	<g id="computer__x26__pencil__x26__ruker">
	</g>
	<g id="pencil__x26__ruler__x26__eraser">
	</g>
	<g id="paint_brush">
	</g>
	<g id="eraser">
	</g>
	<g id="round_brush">
	</g>
	<g id="scissor">
	</g>
	<g id="wacom">
	</g>
	<g id="vector">
	</g>
	<g id="lightbulb">
	</g>
	<g id="lamp">
	</g>
	<g id="pencil__x26__brush">
	</g>
	<g id="laptop__x26__brush">
	</g>
	<g id="paint">
	</g>
	<g id="magic_wand">
	</g>
</g>
<g id="SEO_x2F__Web">
	<g id="W_key">
	</g>
	<g id="link_plus">
	</g>
	<g id="website__x26__lock">
	</g>
	<g id="video">
	</g>
	<g id="maginifier__x26__target">
	</g>
	<g id="website__x26__setting_1_">
	</g>
	<g id="website__x26__code">
	</g>
	<g id="SEO_tag">
	</g>
	<g id="website__x26__wrench">
	</g>
	<g id="crown">
	</g>
	<g id="eye">
	</g>
	<g id="website__x26__clock">
	</g>
	<g id="spider">
	</g>
	<g id="website__x26__medal">
	</g>
	<g id="graph">
	</g>
</g>
<g id="Finance__x2F__Money">
	<g id="diamond">
	</g>
	<g id="calculating">
	</g>
	<g id="calculator">
	</g>
	<g id="auction_hammer">
	</g>
	<g id="bag_of_money">
	</g>
	<g id="piggy_bank">
	</g>
	<g id="bank">
	</g>
	<g id="umbrella__x26__coins">
	</g>
	<g id="safe">
	</g>
	<g id="treasure">
	</g>
	<g id="cash__x26__card">
	</g>
	<g id="coins__x26__cash">
	</g>
	<g id="coins__x26__card">
	</g>
	<g id="briefcase">
	</g>
	<g id="cash">
		<radialGradient id="SVGID_1_" cx="256" cy="256" r="256" gradientUnits="userSpaceOnUse">
			<stop  offset="0.0051" style="stop-color:#33495F"/>
			<stop  offset="1" style="stop-color:#2B3E51"/>
		</radialGradient>
		<circle fill="url(#SVGID_1_)" cx="256" cy="256" r="256"/>
		<path fill="#1ECA6B" d="M143.169,343.672c-0.551,0.55-0.55,1.451,0.001,2l108.643,108.44c0.551,0.55,1.451,0.549,2.001-0.001
			l207.884-208.274c0.551-0.55,0.551-1.45-0.002-2L353.054,135.397c-0.55-0.549-1.45-0.549-2,0.001L143.169,343.672z"/>
		<path fill="#1AAF5D" d="M252.534,435.013l-90.45-90.62L352.334,154.5l90.448,90.618L252.534,435.013z M352.343,144.496
			L152.079,344.384l100.445,100.631l200.263-199.889L352.343,144.496z"/>
		<circle fill="#1AAF5D" cx="302.434" cy="294.755" r="44.496"/>
		<path fill="#1ECA6B" d="M317.252,298.46c0.111,1.814-1.17,4.399-1.844,5.722l-10.382-10.181c1.512-0.498,4.126-1.892,5.706-2.004
			c1.578-0.109,3.054,0.512,4.431,1.86C316.443,295.113,317.141,296.646,317.252,298.46z M315.511,283.996
			c-1.728-0.656-3.506-0.92-5.336-0.793c-1.736,0.096-3.533,0.649-5.114,1.376c-1.58,0.726-3.678,1.889-6.197,3.381l-9.86-9.668
			c2.628-1.385,5.281-1.467,7.767-0.052c2.125,1.186,4.017,0.932,5.535-0.615c0.805-0.821,1.236-1.84,1.225-2.983
			c-0.01-1.14-0.395-2.118-1.186-2.893c-0.709-0.696-1.674-1.277-2.908-1.729c-1.233-0.448-2.595-0.716-4.098-0.796
			c-1.941-0.135-3.9,0.281-5.608,0.98c-1.707,0.697-4.278,2.625-5.442,3.467l-2.56-2.512c-1.297-1.271-1.706-2.148-2.7-1.137
			c-0.975,0.996-0.066,1.398,1.26,2.698l2.514,2.465c-1.697,2.297-4.959,7.648-4.915,11.08c0.041,3.437,1.122,6.79,3.839,9.455
			c2.086,2.045,4.08,3.43,6.273,3.845c2.195,0.416,4.87-0.266,6.984-0.985c2.114-0.718,5.115-2.474,7.682-3.921l11.021,10.807
			c-1.292,0.715-3.203,1.794-4.398,1.878c-1.195,0.081-2.59,0.249-3.587-0.111c-0.996-0.359-2.501-0.808-4.218-1.65
			c-0.783-0.4-1.658-0.439-2.471-0.275c-0.811,0.163-1.604,0.639-2.301,1.349c-0.867,0.885-1.307,1.944-1.279,3.131
			c0.027,1.188,0.412,2.164,1.17,2.908c1.027,1.007,2.285,1.819,3.785,2.42c1.5,0.604,3.195,0.93,5.092,0.972
			c1.895,0.044,4.443-0.904,6.463-1.636c2.02-0.731,4.462-2.357,6.65-4.175l6.399,6.274c0.728,0.713,0.78,1.732,1.354,1.845
			c0.573,0.11,0.839,0.187,1.397-0.382c0.604-0.615,0.494-0.932,0.248-1.535c-0.249-0.599-1.127-1.064-2.058-1.977l-5.901-5.787
			c1.791-2.206,3.482-5.121,4.097-7.738c0.618-2.62,0.622-5.193-0.121-7.581c-0.744-2.386-1.981-4.497-3.782-6.263
			C318.786,285.721,317.238,284.651,315.511,283.996z M296.499,288.614c-1.511,0.5-4.128,2.009-5.45,2.075
			c-1.32,0.07-2.904-0.207-4.152-1.43c-1.311-1.286-1.48-3.071-1.401-4.45c0.081-1.378,1.331-3.697,1.927-5.095L296.499,288.614z"/>
		<circle fill="#1AAF5D" cx="350.884" cy="182.02" r="11.141"/>
		<circle fill="#1AAF5D" cx="253.983" cy="407.492" r="11.141"/>
		<path opacity="0.4" fill="#2B3E51" d="M339.953,356.79l-0.197-210.071L183.572,303.193l0.065,68.769
			c0,0.778,0.637,1.414,1.415,1.414l138.475-0.129L339.953,356.79z"/>
		<path fill="#1ECA6B" d="M173.638,373.962c0,0.778,0.637,1.414,1.415,1.414l153.501-0.143c0.777-0.001,1.414-0.638,1.413-1.416
			L329.69,79.548c0.001-0.778-0.635-1.415-1.416-1.414l-153.498,0.144c-0.777,0-1.414,0.637-1.414,1.415L173.638,373.962z"/>
		<path fill="#1AAF5D" d="M315.558,361.216l-128.035-0.12l0.252-268.802l128.032,0.12L315.558,361.216z M180.706,85.214
			l-0.265,282.951l142.183,0.131l0.265-282.95L180.706,85.214z"/>
		<path fill="#1AAF5D" d="M251.226,182.261c24.574-0.242,44.691,19.484,44.934,44.059c0.242,24.573-19.48,44.688-44.055,44.93
			c-24.573,0.243-44.691-19.479-44.933-44.052C206.931,202.623,226.653,182.503,251.226,182.261z"/>
		<path fill="#1ECA6B" d="M264.763,218.896c1.361,1.204,2.283,3.938,2.742,5.35l-14.54,0.142c0.717-1.421,1.58-4.255,2.618-5.452
			c1.039-1.193,2.521-1.797,4.447-1.818C261.824,217.102,263.401,217.693,264.763,218.896z M253.304,209.9
			c-1.686,0.757-3.13,1.828-4.334,3.212c-1.16,1.296-2.039,2.957-2.644,4.589c-0.604,1.631-1.265,3.937-1.991,6.773l-13.809,0.136
			c0.879-2.838,2.697-4.771,5.455-5.529c2.341-0.665,3.499-2.181,3.479-4.349c-0.012-1.149-0.427-2.175-1.243-2.976
			c-0.813-0.799-1.776-1.218-2.884-1.207c-0.994,0.009-2.087,0.281-3.279,0.834c-1.189,0.555-2.342,1.328-3.461,2.334
			c-1.469,1.277-2.559,2.957-3.272,4.659c-0.714,1.7-1.169,4.882-1.397,6.3l-3.586,0.034c-1.815,0.019-2.726-0.312-2.713,1.105
			c0.015,1.394,0.941,1.036,2.799,1.017l3.521-0.034c0.424,2.825,1.901,8.915,4.358,11.31c2.46,2.401,5.596,4.008,9.4,3.971
			c2.921-0.029,5.311-0.46,7.154-1.717c1.847-1.259,3.256-3.632,4.243-5.635c0.987-2.002,1.867-5.367,2.659-8.205l15.435-0.151
			c-0.408,1.419-0.996,3.533-1.782,4.438c-0.788,0.902-1.655,2.008-2.615,2.458c-0.958,0.45-2.34,1.197-4.149,1.815
			c-0.837,0.271-1.483,0.861-1.941,1.552c-0.458,0.688-0.683,1.585-0.673,2.581c0.013,1.239,0.45,2.299,1.31,3.119
			c0.859,0.821,1.821,1.239,2.883,1.229c1.438-0.014,2.902-0.33,4.388-0.965c1.488-0.634,2.917-1.602,4.288-2.913
			c1.371-1.309,2.503-3.781,3.413-5.727c0.911-1.945,1.488-4.822,1.75-7.655l8.962-0.088c1.019-0.01,1.776,0.673,2.262,0.347
			c0.483-0.327,0.726-0.461,0.718-1.258c-0.008-0.862-0.31-1.008-0.91-1.26c-0.6-0.248-1.549,0.044-2.853,0.057l-8.265,0.081
			c-0.293-2.827-1.158-6.083-2.574-8.368c-1.415-2.29-3.232-4.112-5.446-5.275c-2.213-1.161-4.581-1.779-7.103-1.754
			C256.84,208.804,254.988,209.142,253.304,209.9z M243.126,226.609c-0.715,1.421-1.498,4.339-2.387,5.32
			c-0.884,0.983-2.199,1.908-3.947,1.925c-1.836,0.018-3.219-1.125-4.138-2.156c-0.917-1.032-1.673-3.556-2.24-4.965
			L243.126,226.609z"/>
		<circle fill="#1AAF5D" cx="206.208" cy="112.779" r="11.141"/>
		<circle fill="#1AAF5D" cx="297.122" cy="340.731" r="11.141"/>
		<path opacity="0.4" fill="#2B3E51" d="M261.293,225.328l-87.875-86.523l0.163,174.398l0.044,46.685l156.336,7.914
			c0,0,5.008-0.903,12.212-2.216l30.517-30.574L261.293,225.328z"/>
		<path fill="#1ECA6B" d="M251.906,454.02c0.551,0.551,1.45,0.55,2-0.001l108.44-108.642c0.55-0.551,0.548-1.452-0.001-2.001
			L154.07,135.49c-0.55-0.55-1.449-0.55-2,0.001L43.631,244.134c-0.549,0.55-0.549,1.451,0.002,2.001L251.906,454.02z"/>
		<path fill="#1AAF5D" d="M343.246,344.654l-90.619,90.451L62.733,244.854l90.617-90.449L343.246,344.654z M52.729,244.845
			l199.889,200.263L353.25,344.664L153.36,144.4L52.729,244.845z"/>
		<circle fill="#1AAF5D" cx="202.989" cy="294.755" r="44.496"/>
		<path fill="#1ECA6B" d="M206.693,279.936c1.814-0.11,4.4,1.17,5.722,1.844l-10.181,10.382c-0.498-1.513-1.892-4.127-2.004-5.707
			c-0.108-1.579,0.512-3.054,1.861-4.43C203.347,280.745,204.88,280.048,206.693,279.936z M192.23,281.678
			c-0.658,1.728-0.921,3.505-0.795,5.336c0.097,1.735,0.649,3.532,1.376,5.112c0.727,1.581,1.89,3.678,3.381,6.198l-9.667,9.861
			c-1.386-2.629-1.468-5.282-0.053-7.768c1.186-2.125,0.932-4.016-0.614-5.534c-0.823-0.805-1.841-1.237-2.983-1.225
			c-1.141,0.009-2.118,0.395-2.893,1.186c-0.697,0.709-1.278,1.673-1.73,2.907c-0.448,1.235-0.716,2.596-0.797,4.1
			c-0.135,1.941,0.281,3.9,0.98,5.608c0.697,1.707,2.626,4.279,3.467,5.442l-2.512,2.561c-1.271,1.296-2.148,1.707-1.137,2.699
			c0.996,0.975,1.398,0.066,2.697-1.26l2.465-2.514c2.298,1.698,7.648,4.96,11.081,4.916c3.437-0.041,6.79-1.122,9.454-3.84
			c2.046-2.085,3.431-4.079,3.845-6.273c0.417-2.195-0.265-4.871-0.983-6.984c-0.719-2.115-2.475-5.116-3.922-7.681l10.807-11.021
			c0.715,1.291,1.795,3.202,1.878,4.397c0.081,1.196,0.249,2.59-0.111,3.587c-0.359,0.996-0.808,2.501-1.651,4.217
			c-0.398,0.784-0.438,1.66-0.274,2.472s0.64,1.604,1.349,2.301c0.887,0.868,1.944,1.305,3.132,1.28
			c1.188-0.028,2.165-0.412,2.907-1.171c1.008-1.028,1.819-2.285,2.42-3.785c0.604-1.501,0.932-3.195,0.974-5.091
			c0.044-1.895-0.905-4.444-1.637-6.464c-0.731-2.018-2.357-4.461-4.175-6.649l6.274-6.399c0.713-0.727,1.731-0.78,1.844-1.354
			c0.111-0.573,0.188-0.838-0.382-1.398c-0.615-0.603-0.932-0.495-1.534-0.247c-0.601,0.249-1.064,1.127-1.978,2.057l-5.787,5.902
			c-2.205-1.792-5.12-3.482-7.736-4.097c-2.621-0.618-5.193-0.621-7.581,0.121c-2.386,0.744-4.497,1.98-6.263,3.782
			C193.955,278.401,192.885,279.949,192.23,281.678z M196.848,300.688c0.5,1.511,2.01,4.129,2.075,5.451
			c0.069,1.319-0.207,2.904-1.431,4.152c-1.286,1.311-3.071,1.48-4.45,1.401c-1.379-0.081-3.697-1.331-5.095-1.926L196.848,300.688z
			"/>
		<circle fill="#1AAF5D" cx="90.253" cy="246.304" r="11.141"/>
		<circle fill="#1AAF5D" cx="315.726" cy="343.205" r="11.14"/>
	</g>
</g>
<g id="E-Commerce__x2F__Shopping">
	<g id="New_Symbol">
	</g>
	<g id="mobile__x26__finger">
	</g>
	<g id="price_tag">
	</g>
	<g id="website__x26__magnifier">
	</g>
	<g id="hand_to_ahnd_delivery">
	</g>
	<g id="hand__x26__credit_card">
	</g>
	<g id="hand__x26__iPad">
	</g>
	<g id="empty_basket">
	</g>
	<g id="full_basket">
	</g>
	<g id="trolley">
	</g>
	<g id="wallet">
	</g>
	<g id="truck">
	</g>
	<g id="delivery">
	</g>
	<g id="gift">
	</g>
	<g id="hand__x26__shopping_bag">
	</g>
	<g id="iMac_with_products">
	</g>
	<g id="laptop_store">
	</g>
	<g id="shopping_bag_with_mouse">
	</g>
	<g id="mobile_store">
	</g>
	<g id="store">
	</g>
	<g id="laptop_with_money">
	</g>
</g>
<g id="Strategy">
	<g id="money_palnt">
	</g>
	<g id="contract">
	</g>
	<g id="trophy">
	</g>
	<g id="graph_paper">
	</g>
	<g id="competition">
	</g>
	<g id="checklist">
	</g>
	<g id="megaphone">
	</g>
	<g id="paper_airplane">
	</g>
	<g id="mission_1">
	</g>
	<g id="graph_board">
	</g>
	<g id="mission_2">
	</g>
	<g id="strategy">
	</g>
	<g id="target">
	</g>
	<g id="partnership">
	</g>
	<g id="chess">
	</g>
</g>
</svg>
