<?xml version="1.0" encoding="utf-8"?>
<!-- Generator: Adobe Illustrator 16.0.0, SVG Export Plug-In . SVG Version: 6.00 Build 0)  -->
<!DOCTYPE svg PUBLIC "-//W3C//DTD SVG 1.1//EN" "http://www.w3.org/Graphics/SVG/1.1/DTD/svg11.dtd">
<svg version="1.1" xmlns="http://www.w3.org/2000/svg" xmlns:xlink="http://www.w3.org/1999/xlink" x="0px" y="0px" width="512px"
	 height="512px" viewBox="0 0 512 512" enable-background="new 0 0 512 512" xml:space="preserve">
<g id="Palette" display="none">
	<rect x="-7437" y="-2417" display="inline" fill="#FFFFFF" width="9201" height="7668"/>
</g>
<g id="Others">
	<g id="files">
	</g>
	<g id="pencil_rocket">
	</g>
	<g id="magic_hat__x26__rabbit">
	</g>
	<g id="phone__x26__target">
	</g>
	<g id="toast">
	</g>
	<g id="coffee">
	</g>
	<g id="suit">
	</g>
	<g id="DNA_tube">
	</g>
	<g id="clapper">
		<radialGradient id="SVGID_1_" cx="256" cy="256" r="256" gradientUnits="userSpaceOnUse">
			<stop  offset="0.0051" style="stop-color:#E87E04"/>
			<stop  offset="1" style="stop-color:#D55400"/>
		</radialGradient>
		<circle fill="url(#SVGID_1_)" cx="256" cy="256" r="256"/>
		<rect x="66" y="173" fill="#BDC3C7" width="380" height="55"/>
		<path fill="#33495F" d="M66,371.907C66,384.059,75.941,394,88.093,394h335.813c12.152,0,22.094-9.941,22.094-22.093V228H66
			V371.907z"/>
		<path fill="#ECF0F1" d="M446,139.93c0-12.15-9.941-21.93-22.094-21.93H88.093C75.941,118,66,127.779,66,139.93V173h380V139.93z"/>
		<g>
			<polygon fill="#2B3E51" points="383.035,228 416.174,228 446,173 412.861,173 			"/>
			<polygon fill="#2B3E51" points="303.775,228 336.916,228 366.74,173 333.602,173 			"/>
			<polygon fill="#2B3E51" points="224.518,228 257.656,228 287.482,173 254.342,173 			"/>
			<polygon fill="#2B3E51" points="145.259,228 178.398,228 208.224,173 175.084,173 			"/>
			<polygon fill="#2B3E51" points="66,228 99.14,228 128.965,173 95.826,173 			"/>
		</g>
		<path fill="#33495F" d="M88.093,118c-7.081,0-13.394,3.273-17.443,8.494L95.826,173h33.139L99.14,118H88.093z"/>
		<polygon fill="#33495F" points="145.259,118 175.084,173 208.224,173 178.398,118 		"/>
		<polygon fill="#33495F" points="224.518,118 254.342,173 287.482,173 257.656,118 		"/>
		<polygon fill="#33495F" points="303.775,118 333.602,173 366.74,173 336.916,118 		"/>
		<polygon fill="#33495F" points="383.035,118 412.861,173 446,173 416.174,118 		"/>
		<g>
			<path fill="#ECF0F1" d="M412.68,292H255v-35h157.68c1.4,0,2.535-1.1,2.535-2.5s-1.135-2.5-2.535-2.5H99.32
				c-1.4,0-2.535,1.1-2.535,2.5s1.135,2.5,2.535,2.5H189v35H99.32c-1.4,0-2.535,1.1-2.535,2.5s1.135,2.5,2.535,2.5H412.68
				c1.4,0,2.535-1.1,2.535-2.5S414.08,292,412.68,292z M194,257h56v35h-56V257z"/>
			<path fill="#ECF0F1" d="M412.68,332H309.023H303.5h-55.232h-5.523H99.32c-1.4,0-2.535,1.6-2.535,3s1.135,3,2.535,3H243v37h5v-37
				h55v37h6v-37h103.68c1.4,0,2.535-1.6,2.535-3S414.08,332,412.68,332z"/>
		</g>
	</g>
	<g id="stopwatch">
	</g>
	<g id="map__x26__locator">
	</g>
	<g id="envelope">
	</g>
	<g id="phone__x26__megaphone">
	</g>
	<g id="speech_bubble">
	</g>
	<g id="medal">
	</g>
</g>
<g id="Design">
	<g id="blueprint">
	</g>
	<g id="computer__x26__pencil__x26__ruker">
	</g>
	<g id="pencil__x26__ruler__x26__eraser">
	</g>
	<g id="paint_brush">
	</g>
	<g id="eraser">
	</g>
	<g id="round_brush">
	</g>
	<g id="scissor">
	</g>
	<g id="wacom">
	</g>
	<g id="vector">
	</g>
	<g id="lightbulb">
	</g>
	<g id="lamp">
	</g>
	<g id="pencil__x26__brush">
	</g>
	<g id="laptop__x26__brush">
	</g>
	<g id="paint">
	</g>
	<g id="magic_wand">
	</g>
</g>
<g id="SEO_x2F__Web">
	<g id="W_key">
	</g>
	<g id="link_plus">
	</g>
	<g id="website__x26__lock">
	</g>
	<g id="video">
	</g>
	<g id="maginifier__x26__target">
	</g>
	<g id="website__x26__setting_1_">
	</g>
	<g id="website__x26__code">
	</g>
	<g id="SEO_tag">
	</g>
	<g id="website__x26__wrench">
	</g>
	<g id="crown">
	</g>
	<g id="eye">
	</g>
	<g id="website__x26__clock">
	</g>
	<g id="spider">
	</g>
	<g id="website__x26__medal">
	</g>
	<g id="graph">
	</g>
</g>
<g id="Finance__x2F__Money">
	<g id="diamond">
	</g>
	<g id="calculating">
	</g>
	<g id="calculator">
	</g>
	<g id="auction_hammer">
	</g>
	<g id="bag_of_money">
	</g>
	<g id="piggy_bank">
	</g>
	<g id="bank">
	</g>
	<g id="umbrella__x26__coins">
	</g>
	<g id="safe">
	</g>
	<g id="treasure">
	</g>
	<g id="cash__x26__card">
	</g>
	<g id="coins__x26__cash">
	</g>
	<g id="coins__x26__card">
	</g>
	<g id="briefcase">
	</g>
	<g id="cash">
	</g>
</g>
<g id="E-Commerce__x2F__Shopping">
	<g id="New_Symbol">
	</g>
	<g id="mobile__x26__finger">
	</g>
	<g id="price_tag">
	</g>
	<g id="website__x26__magnifier">
	</g>
	<g id="hand_to_ahnd_delivery">
	</g>
	<g id="hand__x26__credit_card">
	</g>
	<g id="hand__x26__iPad">
	</g>
	<g id="empty_basket">
	</g>
	<g id="full_basket">
	</g>
	<g id="trolley">
	</g>
	<g id="wallet">
	</g>
	<g id="truck">
	</g>
	<g id="delivery">
	</g>
	<g id="gift">
	</g>
	<g id="hand__x26__shopping_bag">
	</g>
	<g id="iMac_with_products">
	</g>
	<g id="laptop_store">
	</g>
	<g id="shopping_bag_with_mouse">
	</g>
	<g id="mobile_store">
	</g>
	<g id="store">
	</g>
	<g id="laptop_with_money">
	</g>
</g>
<g id="Strategy">
	<g id="money_palnt">
	</g>
	<g id="contract">
	</g>
	<g id="trophy">
	</g>
	<g id="graph_paper">
	</g>
	<g id="competition">
	</g>
	<g id="checklist">
	</g>
	<g id="megaphone">
	</g>
	<g id="paper_airplane">
	</g>
	<g id="mission_1">
	</g>
	<g id="graph_board">
	</g>
	<g id="mission_2">
	</g>
	<g id="strategy">
	</g>
	<g id="target">
	</g>
	<g id="partnership">
	</g>
	<g id="chess">
	</g>
</g>
</svg>
