<?xml version="1.0" encoding="utf-8"?>
<!-- Generator: Adobe Illustrator 16.0.0, SVG Export Plug-In . SVG Version: 6.00 Build 0)  -->
<!DOCTYPE svg PUBLIC "-//W3C//DTD SVG 1.1//EN" "http://www.w3.org/Graphics/SVG/1.1/DTD/svg11.dtd">
<svg version="1.1" id="Layer_1" xmlns="http://www.w3.org/2000/svg" xmlns:xlink="http://www.w3.org/1999/xlink" x="0px" y="0px"
	 width="512px" height="512px" viewBox="0 0 512 512" enable-background="new 0 0 512 512" xml:space="preserve">
<radialGradient id="SVGID_1_" cx="256" cy="256" r="256" gradientUnits="userSpaceOnUse">
	<stop  offset="0" style="stop-color:#2A93D8"/>
	<stop  offset="1" style="stop-color:#227FBB"/>
</radialGradient>
<circle fill="url(#SVGID_1_)" cx="256" cy="256" r="256"/>
<path fill="#FFD000" d="M407.318,326.203l-48.254-144.454c-1.49-4.464-6.65-7.085-11.113-5.594l-74.201,24.786l-76.746,25.637
	c-4.463,1.49-6.363,6.47-4.872,10.934l48.254,144.454c1.49,4.464,6.016,7.345,10.479,5.854l76.746-25.636l74.2-24.787
	C406.275,335.906,408.81,330.668,407.318,326.203z"/>
<path fill="#F2C500" d="M197.004,226.578l76.746-25.637l53.861,161.242l-76.746,25.636c-4.464,1.491-8.989-1.39-10.479-5.854
	l-48.254-144.454C190.641,233.048,192.541,228.068,197.004,226.578z"/>
<path fill="#E87E04" d="M328.867,214.441c-1.797-5.378-7.613-8.282-12.992-6.486l-73.474,24.544
	c-5.378,1.796-8.282,7.614-6.485,12.991l0.464,1.39c1.796,5.378,7.613,8.282,12.992,6.485l73.474-24.543
	c5.378-1.797,8.282-7.613,6.485-12.992L328.867,214.441z"/>
<path fill="#D55400" d="M242.295,232.535l37.792-12.625l6.97,20.867l-37.792,12.624c-5.378,1.796-11.026-0.956-12.822-6.335
	l-0.542-1.623C234.104,240.064,236.916,234.331,242.295,232.535z"/>
<path fill="#E94B35" d="M434.26,373.156c-2.604,0.869-5.49,0.922-8.207-0.252l-25.363-10.883l-161.608,53.983
	c-6.051,2.021-13.067-1.312-15.089-7.364l-85.573-256.178l-60.411-18.026c-6.117-1.812-9.505-8.272-7.692-14.391
	c1.812-6.116,8.29-9.623,14.407-7.81l66.631,19.585c3.614,1.069,6.729,3.755,7.923,7.331l83.92,251.229l154.396-51.574
	c2.698-0.901,5.584-0.925,8.194,0.205l29.427,12.66c5.855,2.532,8.537,9.295,6.005,15.148
	C439.86,369.959,437.266,372.152,434.26,373.156z"/>
<path fill="#C23824" d="M275.151,379.707l-14.359,4.796l-17.596,5.878l-2.79-8.354l-6.906-20.676
	c-8.095-2.139-16.583-2.299-25.248,0.167l13.019,38.973l2.722,8.149c2.021,6.053,9.038,9.385,15.089,7.364l21.394-7.146
	l36.898-12.325C291.695,387.887,283.844,382.075,275.151,379.707z"/>
<circle fill="#33495F" cx="237.705" cy="411.896" r="44.334"/>
<circle fill="#2B3E51" cx="237.705" cy="411.896" r="28.323"/>
<circle fill="#ECF0F1" cx="237.705" cy="411.896" r="20.051"/>
<rect x="295.18" y="305.733" transform="matrix(-0.9485 0.3169 -0.3169 -0.9485 684.8418 544.0962)" fill="#D55400" width="6.001" height="43.999"/>
<rect x="285.695" y="308.901" transform="matrix(-0.9485 0.3169 -0.3169 -0.9485 667.3762 553.2557)" fill="#D55400" width="6" height="44"/>
<rect x="277.159" y="311.753" transform="matrix(-0.9484 0.3171 -0.3171 -0.9484 651.6829 561.4597)" fill="#D55400" width="6" height="43.999"/>
<rect x="268.623" y="314.604" transform="matrix(-0.9485 0.3169 -0.3169 -0.9485 635.9189 569.7775)" fill="#D55400" width="6" height="43.999"/>
<rect x="259.137" y="317.772" transform="matrix(-0.9485 0.3169 -0.3169 -0.9485 618.429 578.9754)" fill="#D55400" width="6.001" height="44"/>
<rect x="250.602" y="320.624" transform="matrix(-0.9485 0.3169 -0.3169 -0.9485 602.7126 587.2184)" fill="#D55400" width="6" height="44"/>
<rect x="241.116" y="323.792" transform="matrix(-0.9485 0.3169 -0.3169 -0.9485 585.2229 596.4145)" fill="#D55400" width="6.001" height="44"/>
<polygon fill="#E87E04" points="361.089,295.121 371.544,326.422 345.936,334.976 325.342,273.324 318.702,275.543 339.298,337.198 
	341.514,343.833 348.189,341.604 374.158,332.929 381.35,330.526 379.134,323.892 368.677,292.587 "/>
</svg>
