<?xml version="1.0" encoding="utf-8"?>
<!-- Generator: Adobe Illustrator 16.0.0, SVG Export Plug-In . SVG Version: 6.00 Build 0)  -->
<!DOCTYPE svg PUBLIC "-//W3C//DTD SVG 1.1//EN" "http://www.w3.org/Graphics/SVG/1.1/DTD/svg11.dtd">
<svg version="1.1" xmlns="http://www.w3.org/2000/svg" xmlns:xlink="http://www.w3.org/1999/xlink" x="0px" y="0px" width="512px"
	 height="512px" viewBox="0 0 512 512" enable-background="new 0 0 512 512" xml:space="preserve">
<g id="Palette" display="none">
	<rect x="-860" y="-3851" display="inline" fill="#FFFFFF" width="9201" height="7668"/>
</g>
<g id="Others">
	<g id="files">
	</g>
	<g id="pencil_rocket">
	</g>
	<g id="magic_hat__x26__rabbit">
	</g>
	<g id="phone__x26__target">
	</g>
	<g id="toast">
	</g>
	<g id="coffee">
	</g>
	<g id="suit">
	</g>
	<g id="DNA_tube">
	</g>
	<g id="clapper">
	</g>
	<g id="stopwatch">
	</g>
	<g id="map__x26__locator">
	</g>
	<g id="envelope">
	</g>
	<g id="phone__x26__megaphone">
	</g>
	<g id="speech_bubble">
	</g>
	<g id="medal">
	</g>
</g>
<g id="Design">
	<g id="blueprint">
	</g>
	<g id="computer__x26__pencil__x26__ruker">
	</g>
	<g id="pencil__x26__ruler__x26__eraser">
	</g>
	<g id="paint_brush">
	</g>
	<g id="eraser">
	</g>
	<g id="round_brush">
	</g>
	<g id="scissor">
	</g>
	<g id="wacom">
	</g>
	<g id="vector">
	</g>
	<g id="lightbulb">
	</g>
	<g id="lamp">
	</g>
	<g id="pencil__x26__brush">
	</g>
	<g id="laptop__x26__brush">
	</g>
	<g id="paint">
	</g>
	<g id="magic_wand">
	</g>
</g>
<g id="SEO_x2F__Web">
	<g id="W_key">
	</g>
	<g id="link_plus">
	</g>
	<g id="website__x26__lock">
	</g>
	<g id="video">
	</g>
	<g id="maginifier__x26__target">
	</g>
	<g id="website__x26__setting_1_">
	</g>
	<g id="website__x26__code">
	</g>
	<g id="SEO_tag">
	</g>
	<g id="website__x26__wrench">
	</g>
	<g id="crown">
	</g>
	<g id="eye">
	</g>
	<g id="website__x26__clock">
	</g>
	<g id="spider">
	</g>
	<g id="website__x26__medal">
	</g>
	<g id="graph">
	</g>
</g>
<g id="Finance__x2F__Money">
	<g id="diamond">
	</g>
	<g id="calculating">
	</g>
	<g id="calculator">
	</g>
	<g id="auction_hammer">
	</g>
	<g id="bag_of_money">
	</g>
	<g id="piggy_bank">
	</g>
	<g id="bank">
	</g>
	<g id="umbrella__x26__coins">
	</g>
	<g id="safe">
	</g>
	<g id="treasure">
	</g>
	<g id="cash__x26__card">
	</g>
	<g id="coins__x26__cash">
	</g>
	<g id="coins__x26__card">
	</g>
	<g id="briefcase">
	</g>
	<g id="cash">
	</g>
</g>
<g id="E-Commerce__x2F__Shopping">
	<g id="New_Symbol">
	</g>
	<g id="mobile__x26__finger">
	</g>
	<g id="price_tag">
	</g>
	<g id="website__x26__magnifier">
	</g>
	<g id="hand_to_ahnd_delivery">
	</g>
	<g id="hand__x26__credit_card">
	</g>
	<g id="hand__x26__iPad">
	</g>
	<g id="empty_basket">
	</g>
	<g id="full_basket">
	</g>
	<g id="trolley">
	</g>
	<g id="wallet">
	</g>
	<g id="truck">
	</g>
	<g id="delivery">
	</g>
	<g id="gift">
	</g>
	<g id="hand__x26__shopping_bag">
	</g>
	<g id="iMac_with_products">
	</g>
	<g id="laptop_store">
	</g>
	<g id="shopping_bag_with_mouse">
	</g>
	<g id="mobile_store">
	</g>
	<g id="store">
	</g>
	<g id="laptop_with_money">
	</g>
</g>
<g id="Strategy">
	<g id="money_palnt">
	</g>
	<g id="contract">
	</g>
	<g id="trophy">
	</g>
	<g id="graph_paper">
		<radialGradient id="SVGID_1_" cx="256" cy="256" r="256" gradientUnits="userSpaceOnUse">
			<stop  offset="0.5044" style="stop-color:#FCBE41"/>
			<stop  offset="0.9949" style="stop-color:#FCB23F"/>
		</radialGradient>
		<circle fill="url(#SVGID_1_)" cx="256" cy="256" r="256"/>
		<path fill="#ECF0F1" d="M344,130V73.963c-2.668-1.199-5.594-1.963-8-1.963H140c-4.4,0-8,3.6-8,8v338c0,4.4,3.6,8,8,8h254
			c4.4,0,8-3.6,8-8V138c0-2.406-0.764-5.332-1.963-8H344z"/>
		<path fill="#BDC3C7" d="M400.037,130c-0.993-2.211-2.284-4.246-3.694-5.656L373,101l-23.351-23.351
			c-1.41-1.407-3.441-2.695-5.649-3.687V130H400.037z"/>
		<rect x="176" y="163" fill="#E94B35" width="38" height="86"/>
		<rect x="224" y="181" fill="#F4CC20" width="38" height="68"/>
		<rect x="272" y="198" fill="#2B3E51" width="38" height="51"/>
		<rect x="320" y="135" fill="#00BD9C" width="38" height="114"/>
		<rect x="176" y="262" fill="#BDC3C7" width="182" height="12"/>
		<g>
			<path fill="#F4CC20" d="M261.374,310.727C252.318,302.809,240.474,298,227.5,298c-0.167,0-0.333,0.011-0.5,0.013v53.883
				L261.374,310.727z"/>
			<path fill="#00BD9C" d="M227,298.013c-28.211,0.27-51,23.213-51,51.487c0,16.296,7.578,30.814,19.392,40.252L227,351.896V298.013
				z"/>
			<path fill="#E94B35" d="M261.374,310.727L227,351.896v49.092c0.167,0.002,0.333,0.013,0.5,0.013c28.443,0,51.5-23.058,51.5-51.5
				C279,334.031,272.171,320.166,261.374,310.727z"/>
			<path fill="#2B3E51" d="M195.392,389.752c8.684,6.936,19.656,11.121,31.608,11.235v-49.092L195.392,389.752z"/>
		</g>
		<g>
			<circle fill="#F4CC20" cx="308" cy="319.5" r="8"/>
			<circle fill="#00BD9C" cx="308" cy="339.5" r="8"/>
			<circle fill="#2B3E51" cx="308" cy="359.5" r="8"/>
			<circle fill="#E94B35" cx="308" cy="379.5" r="8"/>
		</g>
		<g>
			<path fill="#BDC3C7" d="M372,321h-45c-1.381,0-2.5-1.119-2.5-2.5s1.119-2.5,2.5-2.5h45c1.381,0,2.5,1.119,2.5,2.5
				S373.381,321,372,321z"/>
		</g>
		<g>
			<path fill="#BDC3C7" d="M364,341h-37c-1.381,0-2.5-1.119-2.5-2.5s1.119-2.5,2.5-2.5h37c1.381,0,2.5,1.119,2.5,2.5
				S365.381,341,364,341z"/>
		</g>
		<g>
			<path fill="#BDC3C7" d="M364,361h-37c-1.381,0-2.5-1.119-2.5-2.5s1.119-2.5,2.5-2.5h37c1.381,0,2.5,1.119,2.5,2.5
				S365.381,361,364,361z"/>
		</g>
		<g>
			<path fill="#BDC3C7" d="M369,381h-44c-1.381,0-2.5-1.119-2.5-2.5s1.119-2.5,2.5-2.5h44c1.381,0,2.5,1.119,2.5,2.5
				S370.381,381,369,381z"/>
		</g>
		<rect x="148" y="85" fill="#BDC3C7" width="69" height="17"/>
		<g>
			<path fill="#BDC3C7" d="M308,87h-81c-1.381,0-2.5-1.119-2.5-2.5s1.119-2.5,2.5-2.5h81c1.381,0,2.5,1.119,2.5,2.5
				S309.381,87,308,87z"/>
		</g>
		<g>
			<path fill="#BDC3C7" d="M291,96h-64c-1.381,0-2.5-1.119-2.5-2.5s1.119-2.5,2.5-2.5h64c1.381,0,2.5,1.119,2.5,2.5
				S292.381,96,291,96z"/>
		</g>
		<g>
			<path fill="#BDC3C7" d="M316,104h-89c-1.381,0-2.5-1.119-2.5-2.5s1.119-2.5,2.5-2.5h89c1.381,0,2.5,1.119,2.5,2.5
				S317.381,104,316,104z"/>
		</g>
		<rect x="148" y="116" fill="#2B3E51" width="172" height="12"/>
	</g>
	<g id="competition">
	</g>
	<g id="checklist">
	</g>
	<g id="megaphone">
	</g>
	<g id="paper_airplane">
	</g>
	<g id="mission_1">
	</g>
	<g id="graph_board">
	</g>
	<g id="mission_2">
	</g>
	<g id="strategy">
	</g>
	<g id="target">
	</g>
	<g id="partnership">
	</g>
	<g id="chess">
	</g>
</g>
</svg>
