<?xml version="1.0" encoding="utf-8"?>
<!-- Generator: Adobe Illustrator 16.0.0, SVG Export Plug-In . SVG Version: 6.00 Build 0)  -->
<!DOCTYPE svg PUBLIC "-//W3C//DTD SVG 1.1//EN" "http://www.w3.org/Graphics/SVG/1.1/DTD/svg11.dtd">
<svg version="1.1" xmlns="http://www.w3.org/2000/svg" xmlns:xlink="http://www.w3.org/1999/xlink" x="0px" y="0px" width="512px"
	 height="512px" viewBox="0 0 512 512" enable-background="new 0 0 512 512" xml:space="preserve">
<g id="Palette" display="none">
	<rect x="-1591" y="-2414" display="inline" fill="#FFFFFF" width="9201" height="7668"/>
</g>
<g id="Others">
	<g id="files">
	</g>
	<g id="pencil_rocket">
	</g>
	<g id="magic_hat__x26__rabbit">
	</g>
	<g id="phone__x26__target">
	</g>
	<g id="toast">
	</g>
	<g id="coffee">
	</g>
	<g id="suit">
	</g>
	<g id="DNA_tube">
	</g>
	<g id="clapper">
	</g>
	<g id="stopwatch">
	</g>
	<g id="map__x26__locator">
	</g>
	<g id="envelope">
	</g>
	<g id="phone__x26__megaphone">
	</g>
	<g id="speech_bubble">
	</g>
	<g id="medal">
	</g>
</g>
<g id="Design">
	<g id="blueprint">
	</g>
	<g id="computer__x26__pencil__x26__ruker">
	</g>
	<g id="pencil__x26__ruler__x26__eraser">
	</g>
	<g id="paint_brush">
	</g>
	<g id="eraser">
	</g>
	<g id="round_brush">
	</g>
	<g id="scissor">
	</g>
	<g id="wacom">
	</g>
	<g id="vector">
	</g>
	<g id="lightbulb">
	</g>
	<g id="lamp">
	</g>
	<g id="pencil__x26__brush">
	</g>
	<g id="laptop__x26__brush">
	</g>
	<g id="paint">
	</g>
	<g id="magic_wand">
	</g>
</g>
<g id="SEO_x2F__Web">
	<g id="W_key">
	</g>
	<g id="link_plus">
	</g>
	<g id="website__x26__lock">
	</g>
	<g id="video">
	</g>
	<g id="maginifier__x26__target">
	</g>
	<g id="website__x26__setting_1_">
	</g>
	<g id="website__x26__code">
	</g>
	<g id="SEO_tag">
	</g>
	<g id="website__x26__wrench">
	</g>
	<g id="crown">
	</g>
	<g id="eye">
	</g>
	<g id="website__x26__clock">
	</g>
	<g id="spider">
	</g>
	<g id="website__x26__medal">
	</g>
	<g id="graph">
	</g>
</g>
<g id="Finance__x2F__Money">
	<g id="diamond">
	</g>
	<g id="calculating">
	</g>
	<g id="calculator">
	</g>
	<g id="auction_hammer">
	</g>
	<g id="bag_of_money">
	</g>
	<g id="piggy_bank">
	</g>
	<g id="bank">
	</g>
	<g id="umbrella__x26__coins">
	</g>
	<g id="safe">
	</g>
	<g id="treasure">
	</g>
	<g id="cash__x26__card">
	</g>
	<g id="coins__x26__cash">
	</g>
	<g id="coins__x26__card">
	</g>
	<g id="briefcase">
	</g>
	<g id="cash">
	</g>
</g>
<g id="E-Commerce__x2F__Shopping">
	<g id="New_Symbol">
	</g>
	<g id="mobile__x26__finger">
	</g>
	<g id="price_tag">
	</g>
	<g id="website__x26__magnifier">
	</g>
	<g id="hand_to_ahnd_delivery">
	</g>
	<g id="hand__x26__credit_card">
	</g>
	<g id="hand__x26__iPad">
	</g>
	<g id="empty_basket">
	</g>
	<g id="full_basket">
	</g>
	<g id="trolley">
	</g>
	<g id="wallet">
	</g>
	<g id="truck">
	</g>
	<g id="delivery">
	</g>
	<g id="gift">
	</g>
	<g id="hand__x26__shopping_bag">
		<radialGradient id="SVGID_1_" cx="256" cy="258.7207" r="254.6433" gradientUnits="userSpaceOnUse">
			<stop  offset="0" style="stop-color:#04BE9E"/>
			<stop  offset="1" style="stop-color:#00A185"/>
		</radialGradient>
		<path fill="url(#SVGID_1_)" d="M512,256c0,141.385-114.615,256-256,256S0,397.385,0,256C0,133.498,86.045,31.093,200.993,5.924
			C218.712,2.045,237.117,39,256,39c18.527,0,36.595-37.032,54.006-33.294C425.456,30.499,512,133.143,512,256z"/>
		<path fill="#2B3E51" d="M248.051,153.988l16.049,0.025c31.464,0.051,56.934,25.69,56.883,57.154l-0.045,27.639
			c-0.003,1.971-1.537,3.564-3.506,3.561c-1.97-0.003-3.497-1.602-3.494-3.572l0.045-27.639
			c0.045-27.529-22.363-50.098-49.895-50.143l-16.049-0.025c-27.531-0.045-50.012,22.449-50.057,49.98l-0.045,27.639
			c-0.003,1.971-1.535,3.563-3.506,3.561c-1.969-0.004-3.497-1.602-3.494-3.572l0.045-27.639
			C191.033,179.492,216.587,153.937,248.051,153.988z"/>
		<rect x="151" y="190" fill="#E87E04" width="209" height="31"/>
		<path fill="#FFD000" d="M256,216H146v233.961c0,3.924,3.544,7.039,7.467,7.039H256h102.533c3.923,0,6.467-3.115,6.467-7.039V216
			H256z"/>
		<path fill="#F2C500" d="M256,216v241h102.533c3.923,0,6.467-3.115,6.467-7.039V216H256z"/>
		<polygon fill="#F59D00" points="164,200.314 164,216 146.334,216 		"/>
		<polygon fill="#F2C500" points="151,213 151,189.615 164,200.314 164,213 		"/>
		<polygon fill="#F59D00" points="164,200.314 164,216 146.334,216 		"/>
		<polygon fill="#F2C500" points="360,213 360,189.615 347,200.314 347,213 		"/>
		<polygon fill="#F59D00" points="347,200.314 347,216 365.666,216 		"/>
		<circle fill="#F59D00" cx="317.966" cy="254.256" r="8.47"/>
		<circle fill="#F59D00" cx="194.034" cy="254.256" r="8.47"/>
		<path fill="#33495F" d="M247.976,170h16.049C295.488,170,321,195.598,321,227.062v27.639c0,1.971-1.531,3.566-3.5,3.566
			c-1.97,0-3.5-1.596-3.5-3.566v-27.639C314,199.531,291.556,177,264.024,177h-16.049C220.444,177,198,199.531,198,227.062v27.639
			c0,1.971-1.53,3.566-3.5,3.566s-3.5-1.596-3.5-3.566v-27.639C191,195.598,216.512,170,247.976,170z"/>
		<path fill="#E5BF88" d="M294,108.999V75h-77v34h-0.229L206,127.029v77.443c0,4.402,3.986,7.527,8.389,7.527h1.809
			c4.402,0,7.803-3.125,7.803-7.527V195h1v14.484c0,5.695,4.805,10.355,10.5,10.355s10.5-4.66,10.5-10.355V195h1v16.704
			c0,6.915,5.584,12.573,12.5,12.573s12.5-5.658,12.5-12.573V195h2v7.828c0,5.289,4.791,9.172,10.08,9.172h2.219
			c5.288,0,8.701-3.883,8.701-9.172V150h2.394L301,161.053v14.054c0,19.97,16,16.272,16,16.272s0-54.364,0-66.568
			C317,109.625,296.711,109.014,294,108.999z"/>
		<path fill="#ECF0F1" d="M317,186.975c0-3.314,0-8.253,0-13.949c-0.167-0.012-0.334-0.025-0.504-0.025c-3.866,0-7,3.134-7,7
			s3.134,7,7,7C316.666,187,316.833,186.986,317,186.975z"/>
		<path fill="#2B3E51" d="M255,0.013L255,0.013C255.334,0.012,255.666,0,256,0C255.666,0,255.334,0.012,255,0.013z"/>
		<path fill="#33495F" d="M256,0c-0.334,0-0.666,0.012-1,0.014c-18.531,0.071-36.595,2.117-54,5.93V66h54h55V5.725
			C292.59,1.986,274.527,0,256,0z"/>
		<path fill="#2B3E51" d="M256,0c-0.334,0-0.666,0.012-1,0.014V66h55V5.725C292.59,1.986,274.527,0,256,0z"/>
		<rect x="206" y="66" fill="#ECF0F1" width="99" height="18"/>
		<rect x="255" y="66" fill="#BDC3C7" width="50" height="18"/>
	</g>
	<g id="iMac_with_products">
	</g>
	<g id="laptop_store">
	</g>
	<g id="shopping_bag_with_mouse">
	</g>
	<g id="mobile_store">
	</g>
	<g id="store">
	</g>
	<g id="laptop_with_money">
	</g>
</g>
<g id="Strategy">
	<g id="money_palnt">
	</g>
	<g id="contract">
	</g>
	<g id="trophy">
	</g>
	<g id="graph_paper">
	</g>
	<g id="competition">
	</g>
	<g id="checklist">
	</g>
	<g id="megaphone">
	</g>
	<g id="paper_airplane">
	</g>
	<g id="mission_1">
	</g>
	<g id="graph_board">
	</g>
	<g id="mission_2">
	</g>
	<g id="strategy">
	</g>
	<g id="target">
	</g>
	<g id="partnership">
	</g>
	<g id="chess">
	</g>
</g>
</svg>
