<?xml version="1.0" encoding="utf-8"?>
<!-- Generator: Adobe Illustrator 16.0.0, SVG Export Plug-In . SVG Version: 6.00 Build 0)  -->
<!DOCTYPE svg PUBLIC "-//W3C//DTD SVG 1.1//EN" "http://www.w3.org/Graphics/SVG/1.1/DTD/svg11.dtd">
<svg version="1.1" xmlns="http://www.w3.org/2000/svg" xmlns:xlink="http://www.w3.org/1999/xlink" x="0px" y="0px" width="512px"
	 height="512px" viewBox="0 0 512 512" enable-background="new 0 0 512 512" xml:space="preserve">
<g id="Palette" display="none">
	<rect x="-6749" y="-1691" display="inline" fill="#FFFFFF" width="9201" height="7668"/>
</g>
<g id="Others">
	<g id="files">
	</g>
	<g id="pencil_rocket">
	</g>
	<g id="magic_hat__x26__rabbit">
	</g>
	<g id="phone__x26__target">
	</g>
	<g id="toast">
	</g>
	<g id="coffee">
	</g>
	<g id="suit">
	</g>
	<g id="DNA_tube">
	</g>
	<g id="clapper">
	</g>
	<g id="stopwatch">
	</g>
	<g id="map__x26__locator">
	</g>
	<g id="envelope">
	</g>
	<g id="phone__x26__megaphone">
	</g>
	<g id="speech_bubble">
	</g>
	<g id="medal">
	</g>
</g>
<g id="Design">
	<g id="blueprint">
	</g>
	<g id="computer__x26__pencil__x26__ruker">
	</g>
	<g id="pencil__x26__ruler__x26__eraser">
	</g>
	<g id="paint_brush">
	</g>
	<g id="eraser">
	</g>
	<g id="round_brush">
	</g>
	<g id="scissor">
	</g>
	<g id="wacom">
	</g>
	<g id="vector">
	</g>
	<g id="lightbulb">
		<radialGradient id="SVGID_1_" cx="256" cy="256" r="256" gradientUnits="userSpaceOnUse">
			<stop  offset="0.0051" style="stop-color:#33495F"/>
			<stop  offset="1" style="stop-color:#2B3E51"/>
		</radialGradient>
		<circle fill="url(#SVGID_1_)" cx="256" cy="256" r="256"/>
		<g>
			<path fill="#F4C342" d="M348.754,221.396c0-51.227-40.754-92.752-92.754-92.752c-51,0-92.752,41.525-92.752,92.752
				c0,1.664,0.045,3.32,0.132,4.963l-0.133,0.033c0,25.686,21.405,63.732,29.967,78.002C201.776,318.662,208.911,356,208.911,356
				h25.89h18.345H256h47.801c0,0,6.423-37.338,14.984-51.605c8.562-14.27,29.967-52.2,29.967-77.886l-0.134-0.091
				C348.706,224.773,348.754,223.061,348.754,221.396z"/>
			<path fill="#F89B36" d="M348.754,221.396c0-51.227-40.754-92.752-92.754-92.752V356h47.801c0,0,6.423-37.338,14.984-51.605
				c8.562-14.27,29.967-52.2,29.967-77.886l-0.134-0.091C348.706,224.773,348.754,223.061,348.754,221.396z"/>
			<g>
				<path fill="#EC7C2D" d="M285.002,360.168c-2.168,0-4.002-1.758-4.002-3.924v-47.803c0-2.529,0.75-5.475,1.82-7.768L291.793,282
					h-10.728c-0.563,0-1.682-0.049-1.965,0.438l-7.596,12.733c-1.227,2.119-3.164,3.108-5.279,3.005
					c-2.125-0.096-3.936-1.511-4.967-3.733l-5.284-11.431l-5.229,11.351c-1.026,2.227-2.833,3.551-4.962,3.65
					c-2.137,0.094-4.049-1.062-5.281-3.181l-7.594-12.39c-0.281-0.488-1.401-0.442-1.965-0.442h-10.763l8.94,18.684
					c1.057,2.295,1.879,5.234,1.879,7.758v47.803c0,2.166-1.332,3.924-3.5,3.924c-2.166,0-3.5-1.758-3.5-3.924v-47.803
					c0-1.393-1.002-3.904-1.586-5.17l-10.205-21.701c-0.962-2.088-0.979-4.176,0.143-5.93c1.125-1.75,2.976-2.641,5.275-2.641
					h13.316c3.378,0,7.059,2.004,8.753,4.924l5.587,9.563l5.517-12.021c1.85-4.021,2.543-5.54,5.16-5.54
					c2.61,0,3.306,1.493,5.167,5.503l5.582,12.028l5.605-9.535c1.693-2.918,5.374-4.923,8.751-4.923h13.318
					c2.304,0,4.267,0.891,5.386,2.648c1.122,1.76,1.204,3.903,0.23,5.991l-9.992,21.687c-0.588,1.256-1.008,3.729-1.008,5.115
					v47.803C289,358.41,287.168,360.168,285.002,360.168z"/>
			</g>
			<path fill="#D9521E" d="M294.384,273h-13.318c-3.377,0-7.058,2.004-8.751,4.922l-5.605,9.591l-5.582-12.063
				c-1.85-3.986-2.127-5.52-5.127-5.535v13.105l5.26,11.336c1.031,2.223,2.838,3.551,4.966,3.648
				c2.113,0.104,4.052-1.061,5.28-3.178l7.595-12.389c0.283-0.486,1.401-0.438,1.965-0.438h10.728l-8.973,18.674
				c-1.07,2.293-1.82,5.238-1.82,7.768V356h8v-47.559c0-1.387,0.42-3.887,1.008-5.143l10.038-21.717
				c0.972-2.088,0.866-4.174-0.253-5.934C298.674,273.891,296.688,273,294.384,273z"/>
			<g>
				<path fill="#BDC3C7" d="M213.19,352c-7.848,0-14.19,4.957-14.19,12.805v49.945c0,31.393,26,57.078,57,57.078V352H213.19z"/>
				<path fill="#94A5A6" d="M298.808,352H256v119.828c32,0,57-25.686,57-57.078v-49.945C313,356.957,306.657,352,298.808,352z"/>
			</g>
			<path fill="#BDC3C7" d="M321,381.217v-10.705c0-1.961-2.393-3.512-4.354-3.512H256v18h60.646
				C318.607,385,321,383.178,321,381.217z"/>
			<path fill="#ECF0F1" d="M195.354,367c-1.96,0-3.354,1.551-3.354,3.512v10.705c0,1.961,1.394,3.783,3.354,3.783H256v-18H195.354z"
				/>
			<path fill="#BDC3C7" d="M316.646,418c1.962,0,4.354-2.002,4.354-3.965v-10.703c0-1.961-2.393-3.332-4.354-3.332H256v18H316.646z"
				/>
			<path fill="#ECF0F1" d="M192,403.332v10.703c0,1.963,1.394,3.965,3.354,3.965H256v-18h-60.646
				C193.394,400,192,401.371,192,403.332z"/>
			<g>
				<path fill="#F4C342" d="M256.5,92.971c-5.911,0-10.5-4.791-10.5-10.703V50.875c0-5.91,4.589-10.703,10.5-10.703
					c5.909,0,10.5,4.793,10.5,10.703v31.393C267,88.18,262.409,92.971,256.5,92.971z"/>
			</g>
			<g>
				<g>
					<path fill="#F4C342" d="M256.5,92.971c-5.911,0-10.5-4.791-10.5-10.703V50.875c0-5.91,4.589-10.703,10.5-10.703
						c5.909,0,10.5,4.793,10.5,10.703v31.393C267,88.18,262.409,92.971,256.5,92.971z"/>
				</g>
			</g>
			<g>
				<path fill="#F89B36" d="M423.668,230h-31.395c-5.909,0-10.703-4.59-10.703-10.5c0-5.912,4.794-10.5,10.703-10.5h31.395
					c5.91,0,10.701,4.588,10.701,10.5C434.369,225.41,429.578,230,423.668,230z"/>
			</g>
			<g>
				<g>
					<path fill="#F89B36" d="M423.668,230h-31.395c-5.909,0-10.703-4.59-10.703-10.5c0-5.912,4.794-10.5,10.703-10.5h31.395
						c5.91,0,10.701,4.588,10.701,10.5C434.369,225.41,429.578,230,423.668,230z"/>
				</g>
			</g>
			<g>
				<g>
					<path fill="#F4C342" d="M119.725,230H88.332c-5.909,0-10.702-4.59-10.702-10.5c0-5.912,4.793-10.5,10.702-10.5h31.393
						c5.91,0,10.704,4.588,10.704,10.5C130.429,225.41,125.635,230,119.725,230z"/>
				</g>
			</g>
			<g>
				<g>
					<path fill="#F4C342" d="M159.64,132.885c-2.741,0-5.479-1.045-7.568-3.135l-22.199-22.197c-4.18-4.18-4.18-10.957,0-15.137
						s10.957-4.18,15.135,0l22.199,22.199c4.179,4.178,4.179,10.955,0,15.135C165.117,131.84,162.378,132.885,159.64,132.885z"/>
				</g>
			</g>
			<g>
				<path fill="#F89B36" d="M352.358,132.885c-2.737,0-5.475-1.043-7.565-3.133c-4.181-4.18-4.181-10.955,0-15.135l22.196-22.201
					c4.179-4.178,10.955-4.18,15.136,0c4.178,4.18,4.178,10.957,0,15.137l-22.198,22.199
					C357.839,131.842,355.098,132.885,352.358,132.885z"/>
			</g>
			<g>
				<g>
					<path fill="#F89B36" d="M352.358,132.885c-2.737,0-5.475-1.043-7.565-3.133c-4.181-4.18-4.181-10.955,0-15.135l22.196-22.201
						c4.179-4.178,10.955-4.18,15.136,0c4.178,4.18,4.178,10.957,0,15.137l-22.198,22.199
						C357.839,131.842,355.098,132.885,352.358,132.885z"/>
				</g>
			</g>
		</g>
	</g>
	<g id="lamp">
	</g>
	<g id="pencil__x26__brush">
	</g>
	<g id="laptop__x26__brush">
	</g>
	<g id="paint">
	</g>
	<g id="magic_wand">
	</g>
</g>
<g id="SEO_x2F__Web">
	<g id="W_key">
	</g>
	<g id="link_plus">
	</g>
	<g id="website__x26__lock">
	</g>
	<g id="video">
	</g>
	<g id="maginifier__x26__target">
	</g>
	<g id="website__x26__setting_1_">
	</g>
	<g id="website__x26__code">
	</g>
	<g id="SEO_tag">
	</g>
	<g id="website__x26__wrench">
	</g>
	<g id="crown">
	</g>
	<g id="eye">
	</g>
	<g id="website__x26__clock">
	</g>
	<g id="spider">
	</g>
	<g id="website__x26__medal">
	</g>
	<g id="graph">
	</g>
</g>
<g id="Finance__x2F__Money">
	<g id="diamond">
	</g>
	<g id="calculating">
	</g>
	<g id="calculator">
	</g>
	<g id="auction_hammer">
	</g>
	<g id="bag_of_money">
	</g>
	<g id="piggy_bank">
	</g>
	<g id="bank">
	</g>
	<g id="umbrella__x26__coins">
	</g>
	<g id="safe">
	</g>
	<g id="treasure">
	</g>
	<g id="cash__x26__card">
	</g>
	<g id="coins__x26__cash">
	</g>
	<g id="coins__x26__card">
	</g>
	<g id="briefcase">
	</g>
	<g id="cash">
	</g>
</g>
<g id="E-Commerce__x2F__Shopping">
	<g id="New_Symbol">
	</g>
	<g id="mobile__x26__finger">
	</g>
	<g id="price_tag">
	</g>
	<g id="website__x26__magnifier">
	</g>
	<g id="hand_to_ahnd_delivery">
	</g>
	<g id="hand__x26__credit_card">
	</g>
	<g id="hand__x26__iPad">
	</g>
	<g id="empty_basket">
	</g>
	<g id="full_basket">
	</g>
	<g id="trolley">
	</g>
	<g id="wallet">
	</g>
	<g id="truck">
	</g>
	<g id="delivery">
	</g>
	<g id="gift">
	</g>
	<g id="hand__x26__shopping_bag">
	</g>
	<g id="iMac_with_products">
	</g>
	<g id="laptop_store">
	</g>
	<g id="shopping_bag_with_mouse">
	</g>
	<g id="mobile_store">
	</g>
	<g id="store">
	</g>
	<g id="laptop_with_money">
	</g>
</g>
<g id="Strategy">
	<g id="money_palnt">
	</g>
	<g id="contract">
	</g>
	<g id="trophy">
	</g>
	<g id="graph_paper">
	</g>
	<g id="competition">
	</g>
	<g id="checklist">
	</g>
	<g id="megaphone">
	</g>
	<g id="paper_airplane">
	</g>
	<g id="mission_1">
	</g>
	<g id="graph_board">
	</g>
	<g id="mission_2">
	</g>
	<g id="strategy">
	</g>
	<g id="target">
	</g>
	<g id="partnership">
	</g>
	<g id="chess">
	</g>
</g>
</svg>
