<?xml version="1.0" encoding="utf-8"?>
<!-- Generator: Adobe Illustrator 16.0.0, SVG Export Plug-In . SVG Version: 6.00 Build 0)  -->
<!DOCTYPE svg PUBLIC "-//W3C//DTD SVG 1.1//EN" "http://www.w3.org/Graphics/SVG/1.1/DTD/svg11.dtd">
<svg version="1.1" xmlns="http://www.w3.org/2000/svg" xmlns:xlink="http://www.w3.org/1999/xlink" x="0px" y="0px" width="512px"
	 height="512px" viewBox="0 0 512 512" enable-background="new 0 0 512 512" xml:space="preserve">
<g id="Palette" display="none">
	<rect x="-5245" y="-4493" display="inline" fill="#FFFFFF" width="9201" height="7668"/>
</g>
<g id="Others">
	<g id="files">
	</g>
	<g id="pencil_rocket">
	</g>
	<g id="magic_hat__x26__rabbit">
	</g>
	<g id="phone__x26__target">
	</g>
	<g id="toast">
	</g>
	<g id="coffee">
	</g>
	<g id="suit">
	</g>
	<g id="DNA_tube">
	</g>
	<g id="clapper">
	</g>
	<g id="stopwatch">
	</g>
	<g id="map__x26__locator">
	</g>
	<g id="envelope">
	</g>
	<g id="phone__x26__megaphone">
	</g>
	<g id="speech_bubble">
	</g>
	<g id="medal">
	</g>
</g>
<g id="Design">
	<g id="blueprint">
	</g>
	<g id="computer__x26__pencil__x26__ruker">
	</g>
	<g id="pencil__x26__ruler__x26__eraser">
	</g>
	<g id="paint_brush">
	</g>
	<g id="eraser">
	</g>
	<g id="round_brush">
	</g>
	<g id="scissor">
	</g>
	<g id="wacom">
	</g>
	<g id="vector">
	</g>
	<g id="lightbulb">
	</g>
	<g id="lamp">
	</g>
	<g id="pencil__x26__brush">
	</g>
	<g id="laptop__x26__brush">
	</g>
	<g id="paint">
	</g>
	<g id="magic_wand">
	</g>
</g>
<g id="SEO_x2F__Web">
	<g id="W_key">
	</g>
	<g id="link_plus">
		<radialGradient id="SVGID_1_" cx="256" cy="256" r="256" gradientUnits="userSpaceOnUse">
			<stop  offset="0.0051" style="stop-color:#95A5A6"/>
			<stop  offset="1" style="stop-color:#7F8C8D"/>
		</radialGradient>
		<circle fill="url(#SVGID_1_)" cx="256" cy="256" r="256"/>
		<path fill="#32495D" d="M242.792,307.547c-2.618,5.373-6.143,10.414-10.601,14.873l-57.051,57.049
			c-21.607,21.608-56.765,21.607-78.372,0.002c-21.606-21.608-21.606-56.767,0-78.373l57.05-57.051
			c4.459-4.457,9.499-7.981,14.873-10.6c2.499-1.218,5.068-2.236,7.688-3.057c10.935-3.42,22.721-3.377,33.634,0.124
			c3.715,1.19,7.326,2.776,10.769,4.769c4.079,2.361,7.922,5.277,11.409,8.765c3.486,3.485,6.402,7.329,8.764,11.407
			c11.316,5.866,24.521,6.846,36.477,2.955c-4.006-13.707-11.4-26.624-22.189-37.414c-10.789-10.788-23.708-18.185-37.414-22.189
			c-2.62-0.766-5.27-1.409-7.938-1.927c-11.07-2.147-22.477-2.16-33.552-0.041c-2.9,0.556-5.778,1.257-8.622,2.105
			c-13.533,4.035-26.28,11.384-36.948,22.052l-57.052,57.051c-34.316,34.317-34.316,90.155,0,124.474
			c34.318,34.317,90.157,34.317,124.475-0.001l57.05-57.049c10.668-10.668,18.018-23.416,22.053-36.95
			C265.846,310.26,254.144,309.936,242.792,307.547z"/>
		<path fill="#2A3E4F" d="M198.191,402.52l57.05-57.049c10.668-10.668,18.018-23.416,22.053-36.95
			c-11.448,1.739-23.15,1.415-34.502-0.974c-2.618,5.373-6.143,10.414-10.601,14.873l-57.051,57.049
			c-21.607,21.608-56.765,21.607-78.372,0.002l-23.052,23.05C108.035,436.838,163.874,436.838,198.191,402.52z"/>
		<path fill="#2A3E4F" d="M240.955,255.455c11.316,5.866,24.521,6.846,36.477,2.955c-4.006-13.707-11.4-26.624-22.189-37.414
			l-23.051,23.052C235.678,247.533,238.594,251.377,240.955,255.455z"/>
		<path fill="#2A3E4F" d="M240.955,255.455c11.316,5.866,24.521,6.846,36.477,2.955c-4.006-13.707-11.4-26.624-22.189-37.414
			l-23.051,23.052C235.678,247.533,238.594,251.377,240.955,255.455z"/>
		<path fill="#32495D" d="M382.021,94.218c-34.319-34.317-90.156-34.317-124.474,0l-57.051,57.051
			c-10.668,10.668-18.017,23.415-22.052,36.949c11.448-1.739,23.15-1.415,34.503,0.974c2.618-5.374,6.143-10.414,10.6-14.872
			l57.051-57.051c21.606-21.606,56.765-21.606,78.373,0c21.605,21.607,21.606,56.765-0.002,78.372l-57.049,57.051
			c-4.459,4.458-9.5,7.982-14.873,10.601c-2.5,1.218-5.068,2.236-7.689,3.056c-10.934,3.42-22.719,3.378-33.634-0.124
			c-3.714-1.191-7.325-2.776-10.767-4.769c-4.08-2.361-7.924-5.277-11.409-8.764l-23.052,23.051
			c10.789,10.789,23.707,18.184,37.414,22.189c2.619,0.765,5.27,1.409,7.938,1.926c11.07,2.147,22.477,2.161,33.553,0.043
			c2.898-0.557,5.777-1.258,8.62-2.106c13.534-4.035,26.282-11.385,36.95-22.053l57.049-57.05
			C416.338,184.374,416.338,128.535,382.021,94.218z"/>
		<path fill="#2A3E4F" d="M382.021,94.218l-23.05,23.051c21.605,21.607,21.606,56.765-0.002,78.372l-57.049,57.051
			c-4.459,4.458-9.5,7.982-14.873,10.601c-2.5,1.218-5.068,2.236-7.689,3.056c-10.934,3.42-22.719,3.378-33.634-0.124
			c-3.714-1.191-7.325-2.776-10.767-4.769c-4.08-2.361-7.924-5.277-11.409-8.764c-3.487-3.487-6.403-7.33-8.765-11.409
			c-11.318-5.865-24.522-6.845-36.477-2.954c4.005,13.706,11.401,26.625,22.189,37.414c10.789,10.789,23.707,18.184,37.414,22.189
			c2.619,0.765,5.27,1.409,7.938,1.926c11.07,2.147,22.477,2.161,33.553,0.043c2.898-0.557,5.777-1.258,8.62-2.106
			c13.534-4.035,26.282-11.385,36.95-22.053l57.049-57.05C416.338,184.374,416.338,128.535,382.021,94.218z"/>
		<g>
			<path fill="#EE483C" d="M305,353.5c0,38.66,31.34,70,70,70v-140C336.34,283.5,305,314.84,305,353.5z"/>
			<path fill="#C6362B" d="M375,283.5v140c38.66,0,70-31.34,70-70S413.66,283.5,375,283.5z"/>
		</g>
		<g>
			<path fill="#FFFFFF" d="M361,317.545V342h-20.814c-7.877,0-14.262,6.624-14.262,14.5c0,7.878,6.385,14.5,14.262,14.5H361v19.217
				c0,7.749,6.308,14.039,14,14.242V303.302C367.308,303.506,361,309.797,361,317.545z"/>
			<path fill="#BDC3C7" d="M389,390.217V371h22.336c7.876,0,14.262-6.622,14.262-14.5c0-7.876-6.386-14.5-14.262-14.5H389v-24.455
				c0-7.877-5.972-14.262-13.848-14.262c-0.129,0-0.024,0.016-0.152,0.019v101.157c0.128,0.003,0.023,0.02,0.152,0.02
				C383.028,404.479,389,398.094,389,390.217z"/>
		</g>
	</g>
	<g id="website__x26__lock">
	</g>
	<g id="video">
	</g>
	<g id="maginifier__x26__target">
	</g>
	<g id="website__x26__setting_1_">
	</g>
	<g id="website__x26__code">
	</g>
	<g id="SEO_tag">
	</g>
	<g id="website__x26__wrench">
	</g>
	<g id="crown">
	</g>
	<g id="eye">
	</g>
	<g id="website__x26__clock">
	</g>
	<g id="spider">
	</g>
	<g id="website__x26__medal">
	</g>
	<g id="graph">
	</g>
</g>
<g id="Finance__x2F__Money">
	<g id="diamond">
	</g>
	<g id="calculating">
	</g>
	<g id="calculator">
	</g>
	<g id="auction_hammer">
	</g>
	<g id="bag_of_money">
	</g>
	<g id="piggy_bank">
	</g>
	<g id="bank">
	</g>
	<g id="umbrella__x26__coins">
	</g>
	<g id="safe">
	</g>
	<g id="treasure">
	</g>
	<g id="cash__x26__card">
	</g>
	<g id="coins__x26__cash">
	</g>
	<g id="coins__x26__card">
	</g>
	<g id="briefcase">
	</g>
	<g id="cash">
	</g>
</g>
<g id="E-Commerce__x2F__Shopping">
	<g id="New_Symbol">
	</g>
	<g id="mobile__x26__finger">
	</g>
	<g id="price_tag">
	</g>
	<g id="website__x26__magnifier">
	</g>
	<g id="hand_to_ahnd_delivery">
	</g>
	<g id="hand__x26__credit_card">
	</g>
	<g id="hand__x26__iPad">
	</g>
	<g id="empty_basket">
	</g>
	<g id="full_basket">
	</g>
	<g id="trolley">
	</g>
	<g id="wallet">
	</g>
	<g id="truck">
	</g>
	<g id="delivery">
	</g>
	<g id="gift">
	</g>
	<g id="hand__x26__shopping_bag">
	</g>
	<g id="iMac_with_products">
	</g>
	<g id="laptop_store">
	</g>
	<g id="shopping_bag_with_mouse">
	</g>
	<g id="mobile_store">
	</g>
	<g id="store">
	</g>
	<g id="laptop_with_money">
	</g>
</g>
<g id="Strategy">
	<g id="money_palnt">
	</g>
	<g id="contract">
	</g>
	<g id="trophy">
	</g>
	<g id="graph_paper">
	</g>
	<g id="competition">
	</g>
	<g id="checklist">
	</g>
	<g id="megaphone">
	</g>
	<g id="paper_airplane">
	</g>
	<g id="mission_1">
	</g>
	<g id="graph_board">
	</g>
	<g id="mission_2">
	</g>
	<g id="strategy">
	</g>
	<g id="target">
	</g>
	<g id="partnership">
	</g>
	<g id="chess">
	</g>
</g>
</svg>
