<?xml version="1.0" encoding="utf-8"?>
<!-- Generator: Adobe Illustrator 16.0.0, SVG Export Plug-In . SVG Version: 6.00 Build 0)  -->
<!DOCTYPE svg PUBLIC "-//W3C//DTD SVG 1.1//EN" "http://www.w3.org/Graphics/SVG/1.1/DTD/svg11.dtd">
<svg version="1.1" xmlns="http://www.w3.org/2000/svg" xmlns:xlink="http://www.w3.org/1999/xlink" x="0px" y="0px" width="512px"
	 height="512px" viewBox="0 0 512 512" enable-background="new 0 0 512 512" xml:space="preserve">
<g id="Palette" display="none">
	<rect x="-4549" y="-3851" display="inline" fill="#FFFFFF" width="9201" height="7668"/>
</g>
<g id="Others">
	<g id="files">
	</g>
	<g id="pencil_rocket">
	</g>
	<g id="magic_hat__x26__rabbit">
	</g>
	<g id="phone__x26__target">
	</g>
	<g id="toast">
	</g>
	<g id="coffee">
	</g>
	<g id="suit">
	</g>
	<g id="DNA_tube">
	</g>
	<g id="clapper">
	</g>
	<g id="stopwatch">
	</g>
	<g id="map__x26__locator">
	</g>
	<g id="envelope">
	</g>
	<g id="phone__x26__megaphone">
	</g>
	<g id="speech_bubble">
	</g>
	<g id="medal">
	</g>
</g>
<g id="Design">
	<g id="blueprint">
	</g>
	<g id="computer__x26__pencil__x26__ruker">
	</g>
	<g id="pencil__x26__ruler__x26__eraser">
	</g>
	<g id="paint_brush">
	</g>
	<g id="eraser">
	</g>
	<g id="round_brush">
	</g>
	<g id="scissor">
	</g>
	<g id="wacom">
	</g>
	<g id="vector">
	</g>
	<g id="lightbulb">
	</g>
	<g id="lamp">
	</g>
	<g id="pencil__x26__brush">
	</g>
	<g id="laptop__x26__brush">
	</g>
	<g id="paint">
	</g>
	<g id="magic_wand">
	</g>
</g>
<g id="SEO_x2F__Web">
	<g id="W_key">
	</g>
	<g id="link_plus">
	</g>
	<g id="website__x26__lock">
	</g>
	<g id="video">
	</g>
	<g id="maginifier__x26__target">
		<radialGradient id="SVGID_1_" cx="256" cy="256" r="256" gradientUnits="userSpaceOnUse">
			<stop  offset="0.5044" style="stop-color:#FCBE41"/>
			<stop  offset="0.9949" style="stop-color:#FCB23F"/>
		</radialGradient>
		<circle fill="url(#SVGID_1_)" cx="256" cy="256" r="256"/>
		<path fill="#7F8C8D" d="M375.338,339.993c41.022-58.657,35.273-140.237-17.18-192.403
			c-58.689-58.364-153.927-58.104-212.289,0.594c-58.373,58.689-58.107,153.923,0.588,212.295
			c52.452,52.156,134.068,57.449,192.494,16.107l29.877,29.708L387.02,388l18.195-18.295L375.338,339.993z M172.918,333.865
			c-44.02-43.776-44.219-115.203-0.443-159.219c43.779-44.021,115.202-44.221,159.22-0.443
			c44.021,43.771,44.222,115.197,0.444,159.221C288.361,377.443,216.939,377.639,172.918,333.865z"/>
		<path fill="#95A5A6" d="M172.918,333.865c-44.02-43.776-44.219-115.203-0.443-159.219l-26.605-26.463
			c-58.373,58.689-58.107,153.923,0.588,212.295c52.452,52.156,134.068,57.449,192.494,16.107l29.877,29.708L387.02,388
			l-54.881-54.576C288.361,377.443,216.939,377.639,172.918,333.865z"/>
		<path fill="#33495F" d="M415.165,369.678c-9.184-9.136-24.034-9.093-33.169,0.093l-6.617,6.655l-6.614,6.652
			c-9.135,9.184-9.095,24.032,0.091,33.168l43.042,42.804c8.713-6.699,16.989-13.937,24.765-21.682
			c7.771-7.74,15.039-15.982,21.77-24.664L415.165,369.678z"/>
		<path fill="#2B3E51" d="M381.996,369.771l-6.617,6.655l61.283,60.942c7.771-7.74,15.039-15.982,21.77-24.664l-43.267-43.026
			C405.981,360.542,391.131,360.585,381.996,369.771z"/>
		<path fill="#ECF0F1" d="M282.631,179.647c-2.38,2.393-5.867,3.609-9.438,2.939c-33.079-6.206-61.736,14.339-62.021,14.551
			c-4.71,3.433-11.312,2.396-14.749-2.312c-3.434-4.712-2.363-11.332,2.31-14.75c1.468-1.067,36.411-26.109,78.355-18.241
			c5.728,1.073,9.502,6.59,8.424,12.321C285.109,176.317,284.07,178.201,282.631,179.647z"/>
		<g>
			<path fill="#ECF0F1" d="M326.072,204.855c-1.953,1.961-4.671,3.1-7.456,3.109c-2.789,0.004-5.51-1.118-7.47-3.066
				c-1.964-1.953-3.099-4.668-3.107-7.458c-0.008-2.787,1.111-5.507,3.063-7.472c1.954-1.96,4.669-3.095,7.454-3.105
				c2.789-0.004,5.513,1.11,7.474,3.065c1.961,1.953,3.1,4.671,3.105,7.456C329.144,200.168,328.023,202.896,326.072,204.855z"/>
		</g>
		<path fill="#EE483C" d="M298.867,208.67l-14.819,14.819c-15.724-12.479-38.14-12.512-53.899-0.1l-14.72-14.72
			c-1.952-1.953-5.118-1.953-7.071,0c-1.952,1.953-1.952,5.118,0,7.071l14.691,14.69c-12.616,15.772-12.647,38.349-0.101,54.158
			l-15.298,15.297c-1.953,1.953-1.952,5.118,0,7.071c1.953,1.952,5.119,1.953,7.071,0l15.298-15.298
			c15.809,12.547,38.385,12.516,54.158-0.1l15.396,15.397c1.953,1.952,5.119,1.952,7.071,0c1.953-1.953,1.953-5.118,0-7.071
			l-15.427-15.427c12.412-15.759,12.38-38.176-0.1-53.899l14.819-14.819c1.953-1.953,1.953-5.118,0-7.071
			C303.986,206.717,300.82,206.717,298.867,208.67z M276.921,230.616l-19.772,19.772l-19.871-19.87
			C249.042,221.918,265.189,221.951,276.921,230.616z M230.175,237.558l19.902,19.902l-20.002,20.002
			C221.345,265.644,221.38,249.344,230.175,237.558z M237.146,284.533l20.002-20.002l19.902,19.902
			C265.265,293.229,248.965,293.264,237.146,284.533z M284.09,277.331l-19.87-19.87l19.772-19.773
			C292.658,249.419,292.69,265.566,284.09,277.331z"/>
	</g>
	<g id="website__x26__setting_1_">
	</g>
	<g id="website__x26__code">
	</g>
	<g id="SEO_tag">
	</g>
	<g id="website__x26__wrench">
	</g>
	<g id="crown">
	</g>
	<g id="eye">
	</g>
	<g id="website__x26__clock">
	</g>
	<g id="spider">
	</g>
	<g id="website__x26__medal">
	</g>
	<g id="graph">
	</g>
</g>
<g id="Finance__x2F__Money">
	<g id="diamond">
	</g>
	<g id="calculating">
	</g>
	<g id="calculator">
	</g>
	<g id="auction_hammer">
	</g>
	<g id="bag_of_money">
	</g>
	<g id="piggy_bank">
	</g>
	<g id="bank">
	</g>
	<g id="umbrella__x26__coins">
	</g>
	<g id="safe">
	</g>
	<g id="treasure">
	</g>
	<g id="cash__x26__card">
	</g>
	<g id="coins__x26__cash">
	</g>
	<g id="coins__x26__card">
	</g>
	<g id="briefcase">
	</g>
	<g id="cash">
	</g>
</g>
<g id="E-Commerce__x2F__Shopping">
	<g id="New_Symbol">
	</g>
	<g id="mobile__x26__finger">
	</g>
	<g id="price_tag">
	</g>
	<g id="website__x26__magnifier">
	</g>
	<g id="hand_to_ahnd_delivery">
	</g>
	<g id="hand__x26__credit_card">
	</g>
	<g id="hand__x26__iPad">
	</g>
	<g id="empty_basket">
	</g>
	<g id="full_basket">
	</g>
	<g id="trolley">
	</g>
	<g id="wallet">
	</g>
	<g id="truck">
	</g>
	<g id="delivery">
	</g>
	<g id="gift">
	</g>
	<g id="hand__x26__shopping_bag">
	</g>
	<g id="iMac_with_products">
	</g>
	<g id="laptop_store">
	</g>
	<g id="shopping_bag_with_mouse">
	</g>
	<g id="mobile_store">
	</g>
	<g id="store">
	</g>
	<g id="laptop_with_money">
	</g>
</g>
<g id="Strategy">
	<g id="money_palnt">
	</g>
	<g id="contract">
	</g>
	<g id="trophy">
	</g>
	<g id="graph_paper">
	</g>
	<g id="competition">
	</g>
	<g id="checklist">
	</g>
	<g id="megaphone">
	</g>
	<g id="paper_airplane">
	</g>
	<g id="mission_1">
	</g>
	<g id="graph_board">
	</g>
	<g id="mission_2">
	</g>
	<g id="strategy">
	</g>
	<g id="target">
	</g>
	<g id="partnership">
	</g>
	<g id="chess">
	</g>
</g>
</svg>
