<?xml version="1.0" encoding="utf-8"?>
<!-- Generator: Adobe Illustrator 16.0.0, SVG Export Plug-In . SVG Version: 6.00 Build 0)  -->
<!DOCTYPE svg PUBLIC "-//W3C//DTD SVG 1.1//EN" "http://www.w3.org/Graphics/SVG/1.1/DTD/svg11.dtd">
<svg version="1.1" xmlns="http://www.w3.org/2000/svg" xmlns:xlink="http://www.w3.org/1999/xlink" x="0px" y="0px" width="512px"
	 height="512px" viewBox="0 0 512 512" enable-background="new 0 0 512 512" xml:space="preserve">
<g id="Palette" display="none">
	<rect x="-860" y="-2414" display="inline" fill="#FFFFFF" width="9201" height="7668"/>
</g>
<g id="Others">
	<g id="files">
	</g>
	<g id="pencil_rocket">
	</g>
	<g id="magic_hat__x26__rabbit">
	</g>
	<g id="phone__x26__target">
	</g>
	<g id="toast">
	</g>
	<g id="coffee">
	</g>
	<g id="suit">
	</g>
	<g id="DNA_tube">
	</g>
	<g id="clapper">
	</g>
	<g id="stopwatch">
	</g>
	<g id="map__x26__locator">
	</g>
	<g id="envelope">
	</g>
	<g id="phone__x26__megaphone">
	</g>
	<g id="speech_bubble">
	</g>
	<g id="medal">
	</g>
</g>
<g id="Design">
	<g id="blueprint">
	</g>
	<g id="computer__x26__pencil__x26__ruker">
	</g>
	<g id="pencil__x26__ruler__x26__eraser">
	</g>
	<g id="paint_brush">
	</g>
	<g id="eraser">
	</g>
	<g id="round_brush">
	</g>
	<g id="scissor">
	</g>
	<g id="wacom">
	</g>
	<g id="vector">
	</g>
	<g id="lightbulb">
	</g>
	<g id="lamp">
	</g>
	<g id="pencil__x26__brush">
	</g>
	<g id="laptop__x26__brush">
	</g>
	<g id="paint">
	</g>
	<g id="magic_wand">
	</g>
</g>
<g id="SEO_x2F__Web">
	<g id="W_key">
	</g>
	<g id="link_plus">
	</g>
	<g id="website__x26__lock">
	</g>
	<g id="video">
	</g>
	<g id="maginifier__x26__target">
	</g>
	<g id="website__x26__setting_1_">
	</g>
	<g id="website__x26__code">
	</g>
	<g id="SEO_tag">
	</g>
	<g id="website__x26__wrench">
	</g>
	<g id="crown">
	</g>
	<g id="eye">
	</g>
	<g id="website__x26__clock">
	</g>
	<g id="spider">
	</g>
	<g id="website__x26__medal">
	</g>
	<g id="graph">
	</g>
</g>
<g id="Finance__x2F__Money">
	<g id="diamond">
	</g>
	<g id="calculating">
	</g>
	<g id="calculator">
	</g>
	<g id="auction_hammer">
	</g>
	<g id="bag_of_money">
	</g>
	<g id="piggy_bank">
	</g>
	<g id="bank">
	</g>
	<g id="umbrella__x26__coins">
	</g>
	<g id="safe">
	</g>
	<g id="treasure">
	</g>
	<g id="cash__x26__card">
	</g>
	<g id="coins__x26__cash">
	</g>
	<g id="coins__x26__card">
	</g>
	<g id="briefcase">
	</g>
	<g id="cash">
	</g>
</g>
<g id="E-Commerce__x2F__Shopping">
	<g id="New_Symbol">
	</g>
	<g id="mobile__x26__finger">
	</g>
	<g id="price_tag">
	</g>
	<g id="website__x26__magnifier">
	</g>
	<g id="hand_to_ahnd_delivery">
	</g>
	<g id="hand__x26__credit_card">
	</g>
	<g id="hand__x26__iPad">
	</g>
	<g id="empty_basket">
	</g>
	<g id="full_basket">
	</g>
	<g id="trolley">
	</g>
	<g id="wallet">
	</g>
	<g id="truck">
	</g>
	<g id="delivery">
	</g>
	<g id="gift">
	</g>
	<g id="hand__x26__shopping_bag">
	</g>
	<g id="iMac_with_products">
	</g>
	<g id="laptop_store">
	</g>
	<g id="shopping_bag_with_mouse">
	</g>
	<g id="mobile_store">
	</g>
	<g id="store">
	</g>
	<g id="laptop_with_money">
	</g>
</g>
<g id="Strategy">
	<g id="money_palnt">
	</g>
	<g id="contract">
	</g>
	<g id="trophy">
	</g>
	<g id="graph_paper">
	</g>
	<g id="competition">
	</g>
	<g id="checklist">
	</g>
	<g id="megaphone">
	</g>
	<g id="paper_airplane">
		<radialGradient id="SVGID_1_" cx="256" cy="241.2949" r="248.7566" gradientUnits="userSpaceOnUse">
			<stop  offset="0" style="stop-color:#2A93D8"/>
			<stop  offset="1" style="stop-color:#227FBB"/>
		</radialGradient>
		<path fill="url(#SVGID_1_)" d="M512,256c0,86.198-42.602,162.445-107.899,208.836C362.295,494.537,306.687,478,251.5,478
			c-61.683,0-113.771,12.185-157.969-24.152C36.423,406.896,0,335.701,0,256C0,114.615,114.615,0,256,0S512,114.615,512,256z"/>
		<path opacity="0.5" fill="#ECF0F1" d="M404.101,464.836c51.616-36.671,89.044-92,102.465-156.15
			c-33.157,4.743-62.635,27.243-74.646,60.991c-2.142,6.016-3.625,12.106-4.493,18.192c-27.744-6.174-56.381,9.146-66.155,36.61
			c-0.736,2.07-1.334,4.156-1.821,6.247c-3.439-2.268-7.197-4.168-11.252-5.611c-27.13-9.656-56.949,4.511-66.604,31.641
			c-2.631,7.394-3.485,14.984-2.797,22.314C324.667,482.2,369.195,489.635,404.101,464.836z"/>
		<path opacity="0.5" fill="#ECF0F1" d="M173.609,399.985c-15.94-21.663-46.101-26.663-68.14-11.624
			c-2.074-5.354-4.868-10.527-8.435-15.374c-18.462-25.091-51.245-33.374-78.782-21.937c16.145,40.346,42.239,75.634,75.278,102.797
			c16.615,13.66,34.345,20.462,53.28,23.633c5.679-1.574,11.174-4.181,16.202-7.881
			C185.163,453.302,189.907,422.135,173.609,399.985z"/>
		<polygon fill="#F2C500" points="70,171.936 430,97 146.742,242.863 		"/>
		<polygon fill="#F59D00" points="147,312.629 147,242.863 430,97 		"/>
		<polygon fill="#F2C500" points="279.296,351 194.989,276.064 430,97 		"/>
		<g>
			<path fill="#ECF0F1" d="M365.059,444.384c-5.633-34.062-35.208-60.042-70.866-60.042c-19.88,0-37.872,8.075-50.88,21.124
				c-14.096-14-33.508-22.655-54.944-22.655c-32.709,0-60.696,20.148-72.272,48.705c-10.821,2.718-19.116,13.744-20.805,24.938
				C139.378,492.42,195.666,512,257,512c55.187,0,106.294-17.464,148.1-47.164C395.261,453.325,381.067,445.652,365.059,444.384z"/>
		</g>
	</g>
	<g id="mission_1">
	</g>
	<g id="graph_board">
	</g>
	<g id="mission_2">
	</g>
	<g id="strategy">
	</g>
	<g id="target">
	</g>
	<g id="partnership">
	</g>
	<g id="chess">
	</g>
</g>
</svg>
