<?xml version="1.0" encoding="utf-8"?>
<!-- Generator: Adobe Illustrator 16.0.0, SVG Export Plug-In . SVG Version: 6.00 Build 0)  -->
<!DOCTYPE svg PUBLIC "-//W3C//DTD SVG 1.1//EN" "http://www.w3.org/Graphics/SVG/1.1/DTD/svg11.dtd">
<svg version="1.1" xmlns="http://www.w3.org/2000/svg" xmlns:xlink="http://www.w3.org/1999/xlink" x="0px" y="0px" width="512px"
	 height="512px" viewBox="0 0 512 512" enable-background="new 0 0 512 512" xml:space="preserve">
<g id="Palette" display="none">
	<rect x="-3143" y="-2414" display="inline" fill="#FFFFFF" width="9201" height="7668"/>
</g>
<g id="Others">
	<g id="files">
	</g>
	<g id="pencil_rocket">
	</g>
	<g id="magic_hat__x26__rabbit">
	</g>
	<g id="phone__x26__target">
	</g>
	<g id="toast">
	</g>
	<g id="coffee">
	</g>
	<g id="suit">
	</g>
	<g id="DNA_tube">
	</g>
	<g id="clapper">
	</g>
	<g id="stopwatch">
	</g>
	<g id="map__x26__locator">
	</g>
	<g id="envelope">
	</g>
	<g id="phone__x26__megaphone">
	</g>
	<g id="speech_bubble">
	</g>
	<g id="medal">
	</g>
</g>
<g id="Design">
	<g id="blueprint">
	</g>
	<g id="computer__x26__pencil__x26__ruker">
	</g>
	<g id="pencil__x26__ruler__x26__eraser">
	</g>
	<g id="paint_brush">
	</g>
	<g id="eraser">
	</g>
	<g id="round_brush">
	</g>
	<g id="scissor">
	</g>
	<g id="wacom">
	</g>
	<g id="vector">
	</g>
	<g id="lightbulb">
	</g>
	<g id="lamp">
	</g>
	<g id="pencil__x26__brush">
	</g>
	<g id="laptop__x26__brush">
	</g>
	<g id="paint">
	</g>
	<g id="magic_wand">
	</g>
</g>
<g id="SEO_x2F__Web">
	<g id="W_key">
	</g>
	<g id="link_plus">
	</g>
	<g id="website__x26__lock">
	</g>
	<g id="video">
	</g>
	<g id="maginifier__x26__target">
	</g>
	<g id="website__x26__setting_1_">
	</g>
	<g id="website__x26__code">
	</g>
	<g id="SEO_tag">
	</g>
	<g id="website__x26__wrench">
	</g>
	<g id="crown">
	</g>
	<g id="eye">
	</g>
	<g id="website__x26__clock">
	</g>
	<g id="spider">
	</g>
	<g id="website__x26__medal">
	</g>
	<g id="graph">
	</g>
</g>
<g id="Finance__x2F__Money">
	<g id="diamond">
	</g>
	<g id="calculating">
	</g>
	<g id="calculator">
	</g>
	<g id="auction_hammer">
	</g>
	<g id="bag_of_money">
	</g>
	<g id="piggy_bank">
	</g>
	<g id="bank">
	</g>
	<g id="umbrella__x26__coins">
	</g>
	<g id="safe">
		<radialGradient id="SVGID_1_" cx="256" cy="256" r="256" gradientUnits="userSpaceOnUse">
			<stop  offset="0.5044" style="stop-color:#FCBE41"/>
			<stop  offset="0.9949" style="stop-color:#FCB23F"/>
		</radialGradient>
		<circle fill="url(#SVGID_1_)" cx="256" cy="256" r="256"/>
		<path fill="#BDC3C7" d="M398,372.438c0,5.833-4.729,10.562-10.562,10.562H131.562c-5.833,0-10.562-4.729-10.562-10.562V116.562
			c0-5.833,4.729-10.562,10.562-10.562h255.877c5.833,0,10.562,4.729,10.562,10.562V372.438z"/>
		<path fill="#94A5A6" d="M142.623,116.062c-5.809,0-10.562,4.753-10.562,10.562v234.463c0,5.809,4.753,10.562,10.562,10.562
			h234.463c5.809,0,10.562-4.753,10.562-10.562V126.623c0-5.809-4.753-10.562-10.562-10.562H142.623z M382.367,355.806
			c0,5.809-4.753,10.562-10.562,10.562H147.903c-5.809,0-10.562-4.753-10.562-10.562V131.903c0-5.809,4.753-10.562,10.562-10.562
			h223.902c5.809,0,10.562,4.753,10.562,10.562V355.806z"/>
		<path fill="#ECF0F1" d="M412,193.439c0,5.832-4.729,10.561-10.562,10.561h-25.877c-5.833,0-10.562-4.729-10.562-10.561v-22.879
			c0-5.832,4.729-10.561,10.562-10.561h25.877c5.833,0,10.562,4.729,10.562,10.561V193.439z"/>
		<path fill="#ECF0F1" d="M412,317.438c0,5.833-4.729,10.562-10.562,10.562h-25.877c-5.833,0-10.562-4.729-10.562-10.562v-22.877
			c0-5.833,4.729-10.562,10.562-10.562h25.877c5.833,0,10.562,4.729,10.562,10.562V317.438z"/>
		<rect x="139" y="383" fill="#32485D" width="52" height="24"/>
		<rect x="139" y="384" fill="#2A3E4E" width="52" height="10"/>
		<rect x="329" y="383" fill="#32485D" width="52" height="24"/>
		<rect x="329" y="384" fill="#2A3E4E" width="52" height="10"/>
		<g>
			<circle fill="#BDC3C7" cx="376.653" cy="171.458" r="5.017"/>
			<circle fill="#BDC3C7" cx="376.653" cy="192.581" r="5.017"/>
			<circle fill="#BDC3C7" cx="400.347" cy="171.458" r="5.017"/>
			<circle fill="#BDC3C7" cx="400.347" cy="192.581" r="5.017"/>
		</g>
		<g>
			<circle fill="#BDC3C7" cx="376.653" cy="295.458" r="5.017"/>
			<circle fill="#BDC3C7" cx="376.653" cy="316.581" r="5.017"/>
			<circle fill="#BDC3C7" cx="400.347" cy="295.458" r="5.017"/>
			<circle fill="#BDC3C7" cx="400.347" cy="316.581" r="5.017"/>
		</g>
		<circle fill="#94A5A6" cx="259.854" cy="248.871" r="66.272"/>
		<circle fill="#BDC3C7" cx="259.854" cy="248.871" r="58.88"/>
		<g>
			<path fill="#ECF0F1" d="M270,206c0,5.523-4.477,10-10,10l0,0c-5.523,0-10-4.477-10-10v-38c0-5.523,4.477-10,10-10l0,0
				c5.523,0,10,4.477,10,10V206z"/>
		</g>
		<g>
			<path fill="#ECF0F1" d="M270,319c0,5.523-4.477,10-10,10l0,0c-5.523,0-10-4.477-10-10v-38c0-5.523,4.477-10,10-10l0,0
				c5.523,0,10,4.477,10,10V319z"/>
		</g>
		<path fill="#ECF0F1" d="M269,205.834c0,5.809-4.482,10.561-10,10.561s-10-4.752-10-10.561v-36.966c0-5.809,4.482-10.562,10-10.562
			s10,4.753,10,10.562V205.834z"/>
		<path fill="#ECF0F1" d="M249,281.875c0-5.809,4.482-10.561,10-10.561s10,4.752,10,10.561v36.965c0,5.81-4.482,10.562-10,10.562
			s-10-4.753-10-10.562V281.875z"/>
		<path fill="#ECF0F1" d="M297.875,255c-5.809,0-10.561-4.482-10.561-10c0-5.519,4.752-10,10.561-10h36.965
			c5.81,0,10.562,4.481,10.562,10c0,5.518-4.753,10-10.562,10H297.875z"/>
		<path fill="#ECF0F1" d="M221.834,235c5.809,0,10.561,4.481,10.561,10c0,5.518-4.752,10-10.561,10h-36.966
			c-5.809,0-10.562-4.482-10.562-10c0-5.519,4.753-10,10.562-10H221.834z"/>
		<path fill="#94A5A6" d="M259,216.395c5.518,0,10-4.752,10-10.561v-12.871c-3-0.554-6.403-0.859-9.735-0.859
			c-3.518,0-7.265,0.338-10.265,0.953v12.777C249,211.643,253.482,216.395,259,216.395z"/>
		<path fill="#94A5A6" d="M259,271.314c-5.518,0-10,4.752-10,10.561v22.811c3,0.615,6.747,0.953,10.265,0.953
			c3.332,0,6.735-0.305,9.735-0.859v-22.904C269,276.066,264.518,271.314,259,271.314z"/>
		<path fill="#94A5A6" d="M314.731,235h-16.856c-5.809,0-10.561,4.481-10.561,10c0,5.518,4.752,10,10.561,10h18.473
			c0.178-2,0.274-3.641,0.274-5.512C316.622,244.47,315.96,239,314.731,235z"/>
		<path fill="#94A5A6" d="M232.395,245c0-5.519-4.752-10-10.561-10h-16.856c-1.229,4-1.891,9.47-1.891,14.488
			c0,1.871,0.097,3.512,0.274,5.512h18.473C227.643,255,232.395,250.518,232.395,245z"/>
		<circle fill="#ECF0F1" cx="259.854" cy="248.871" r="51.487"/>
		<circle fill="#BDC3C7" cx="259.854" cy="248.871" r="43.565"/>
		<path fill="#94A5A6" d="M259.854,280.291c-17.325,0-31.42-14.095-31.42-31.42s14.095-31.42,31.42-31.42s31.42,14.095,31.42,31.42
			S277.18,280.291,259.854,280.291z"/>
		<circle fill="#ECF0F1" cx="259.854" cy="248.871" r="26.14"/>
	</g>
	<g id="treasure">
	</g>
	<g id="cash__x26__card">
	</g>
	<g id="coins__x26__cash">
	</g>
	<g id="coins__x26__card">
	</g>
	<g id="briefcase">
	</g>
	<g id="cash">
	</g>
</g>
<g id="E-Commerce__x2F__Shopping">
	<g id="New_Symbol">
	</g>
	<g id="mobile__x26__finger">
	</g>
	<g id="price_tag">
	</g>
	<g id="website__x26__magnifier">
	</g>
	<g id="hand_to_ahnd_delivery">
	</g>
	<g id="hand__x26__credit_card">
	</g>
	<g id="hand__x26__iPad">
	</g>
	<g id="empty_basket">
	</g>
	<g id="full_basket">
	</g>
	<g id="trolley">
	</g>
	<g id="wallet">
	</g>
	<g id="truck">
	</g>
	<g id="delivery">
	</g>
	<g id="gift">
	</g>
	<g id="hand__x26__shopping_bag">
	</g>
	<g id="iMac_with_products">
	</g>
	<g id="laptop_store">
	</g>
	<g id="shopping_bag_with_mouse">
	</g>
	<g id="mobile_store">
	</g>
	<g id="store">
	</g>
	<g id="laptop_with_money">
	</g>
</g>
<g id="Strategy">
	<g id="money_palnt">
	</g>
	<g id="contract">
	</g>
	<g id="trophy">
	</g>
	<g id="graph_paper">
	</g>
	<g id="competition">
	</g>
	<g id="checklist">
	</g>
	<g id="megaphone">
	</g>
	<g id="paper_airplane">
	</g>
	<g id="mission_1">
	</g>
	<g id="graph_board">
	</g>
	<g id="mission_2">
	</g>
	<g id="strategy">
	</g>
	<g id="target">
	</g>
	<g id="partnership">
	</g>
	<g id="chess">
	</g>
</g>
</svg>
