<?xml version="1.0" encoding="utf-8"?>
<!-- Generator: Adobe Illustrator 16.0.0, SVG Export Plug-In . SVG Version: 6.00 Build 0)  -->
<!DOCTYPE svg PUBLIC "-//W3C//DTD SVG 1.1//EN" "http://www.w3.org/Graphics/SVG/1.1/DTD/svg11.dtd">
<svg version="1.1" xmlns="http://www.w3.org/2000/svg" xmlns:xlink="http://www.w3.org/1999/xlink" x="0px" y="0px"
	 width="512.125px" height="512.125px" viewBox="0 0 512.125 512.125" enable-background="new 0 0 512.125 512.125"
	 xml:space="preserve">
<g id="Palette" display="none">
	<rect x="-5244.941" y="-2413.928" display="inline" fill="#FFFFFF" width="9201" height="7668"/>
</g>
<g id="Others">
	<g id="files">
	</g>
	<g id="pencil_rocket">
	</g>
	<g id="magic_hat__x26__rabbit">
	</g>
	<g id="phone__x26__target">
	</g>
	<g id="toast">
	</g>
	<g id="coffee">
	</g>
	<g id="suit">
	</g>
	<g id="DNA_tube">
	</g>
	<g id="clapper">
	</g>
	<g id="stopwatch">
	</g>
	<g id="map__x26__locator">
	</g>
	<g id="envelope">
	</g>
	<g id="phone__x26__megaphone">
	</g>
	<g id="speech_bubble">
	</g>
	<g id="medal">
	</g>
</g>
<g id="Design">
	<g id="blueprint">
	</g>
	<g id="computer__x26__pencil__x26__ruker">
	</g>
	<g id="pencil__x26__ruler__x26__eraser">
	</g>
	<g id="paint_brush">
	</g>
	<g id="eraser">
	</g>
	<g id="round_brush">
	</g>
	<g id="scissor">
	</g>
	<g id="wacom">
	</g>
	<g id="vector">
	</g>
	<g id="lightbulb">
	</g>
	<g id="lamp">
	</g>
	<g id="pencil__x26__brush">
	</g>
	<g id="laptop__x26__brush">
	</g>
	<g id="paint">
	</g>
	<g id="magic_wand">
	</g>
</g>
<g id="SEO_x2F__Web">
	<g id="W_key">
	</g>
	<g id="link_plus">
	</g>
	<g id="website__x26__lock">
	</g>
	<g id="video">
	</g>
	<g id="maginifier__x26__target">
	</g>
	<g id="website__x26__setting_1_">
	</g>
	<g id="website__x26__code">
	</g>
	<g id="SEO_tag">
		
			<radialGradient id="SVGID_1_" cx="255.7236" cy="256.0664" r="255.9331" gradientTransform="matrix(0.9092 -0.4164 0.4164 0.9092 -83.0679 129.7285)" gradientUnits="userSpaceOnUse">
			<stop  offset="0.0051" style="stop-color:#E94B35"/>
			<stop  offset="1" style="stop-color:#C23824"/>
		</radialGradient>
		<circle fill="url(#SVGID_1_)" cx="256.062" cy="256.063" r="255.937"/>
		<path fill="#2A3E4F" d="M110.331,132.611c4.079,4.086,10.618,4.01,14.7-0.072l0.064-0.064c4.083-4.082,4.176-10.613,0.098-14.699
			L78.752,71.253c-5.076,4.868-9.947,9.902-14.566,15.136L110.331,132.611z"/>
		<path fill="#BDC3C7" d="M203.137,179.768c8.337,8.352,8.324,21.88-0.027,30.213l8.479,8.493
			c13.039-13.019,13.061-34.144,0.041-47.184c-13.02-13.044-34.146-13.062-47.186-0.043l8.479,8.491
			C181.271,171.405,194.801,171.416,203.137,179.768z"/>
		<path fill="#ECF0F1" d="M164.402,218.434c13.02,13.042,34.145,13.061,47.186,0.04l-8.479-8.493
			c-8.35,8.339-21.875,8.328-30.214-0.024c-8.336-8.352-8.325-21.879,0.026-30.218l-8.479-8.491
			C151.404,184.266,151.385,205.393,164.402,218.434z"/>
		<path fill="#1C99D8" d="M164.443,171.247l-34.828-34.884c-1.988,1.985-3.365,4.587-3.648,7.322l-10.057,96.77
			c-0.566,5.47,2.146,13.131,6.032,17.024l204.885,205.237c3.886,3.891,10.252,3.896,14.144,0.012l57.324-57.227L211.527,218.41
			c-13.043,13.021-34.135,13.033-47.154-0.007C151.353,205.361,151.404,184.266,164.443,171.247z"/>
		<path fill="#1380B6" d="M233.734,122.838l-96.787,9.884c-2.734,0.28-5.34,1.653-7.332,3.642l34.828,34.884
			c13.039-13.019,34.166-13.001,47.186,0.043c13.02,13.04,12.998,34.165-0.041,47.184l186.707,187.028l57.324-57.229
			c3.893-3.884,3.897-10.248,0.012-14.141L250.747,128.897C246.861,125.004,239.206,122.275,233.734,122.838z"/>
		<path fill="#32495D" d="M199.787,185.422c4.682,4.689,4.674,12.289-0.016,16.969l-4.248,4.24
			c-4.688,4.681-12.285,4.676-16.969-0.016l-67.117-67.232c-4.683-4.688-4.674-12.289,0.015-16.97l4.246-4.239
			c4.69-4.682,12.289-4.678,16.972,0.015L199.787,185.422z"/>
		<path fill="#2A3E4F" d="M121.597,114.957l-10.386,24.175c0.077,0.081,0.148,0.169,0.227,0.251l8.245,8.256l12.743-29.668
			C129.441,115.133,125.363,114.13,121.597,114.957z"/>
		<polygon fill="#2A3E4F" points="136.4,164.389 149.155,134.701 140.678,126.207 127.923,155.896 		"/>
		<polygon fill="#2A3E4F" points="153.121,181.139 165.875,151.451 157.396,142.957 144.646,172.645 		"/>
		<polygon fill="#2A3E4F" points="169.842,197.887 182.594,168.201 174.116,159.706 161.363,189.394 		"/>
		<path fill="#2A3E4F" d="M178.452,206.718c2.728,2.728,6.485,3.81,10.036,3.366l10.801-25.111l-8.515-8.453l-12.794,29.727
			L178.452,206.718z"/>
		<g>
			<path fill="#BDC3C7" d="M261.512,267.246c-0.42-2.559-1.322-5.279-2.693-8.159c-1.377-2.884-3.064-5.951-5.061-9.208
				c-1.56-2.64-2.651-4.553-3.282-5.744c-0.634-1.191-1.142-2.479-1.539-3.859c-0.397-1.383-0.508-2.666-0.331-3.854
				c0.178-1.186,0.733-2.245,1.67-3.173c1.514-1.498,3.555-2.03,6.12-1.593c2.563,0.439,5.061,1.881,7.486,4.334
				c2.618,2.643,4.021,5.055,4.212,7.229c0.19,2.175-0.176,4.566-1.102,7.171c-0.582,1.886-0.867,3.379-0.85,4.482
				c0.014,1.103,0.563,2.201,1.638,3.286c1.181,1.194,2.62,1.743,4.32,1.646c1.696-0.099,3.111-0.706,4.24-1.827
				c1.235-1.223,2.188-2.797,2.857-4.725c0.667-1.926,0.907-4.17,0.719-6.727c-0.188-2.556-0.966-5.24-2.331-8.051
				c-1.365-2.805-3.471-5.647-6.32-8.526c-3.568-3.604-7.211-6.205-10.924-7.804c-3.717-1.601-7.272-2.113-10.67-1.534
				c-3.398,0.577-6.387,2.142-8.967,4.695c-2.707,2.681-4.312,5.591-4.816,8.727c-0.504,3.137-0.162,6.364,1.033,9.68
				c0.616,1.716,1.418,3.547,2.397,5.486l22.306,22.307C261.773,270.102,261.75,268.684,261.512,267.246z"/>
			<path fill="#FFFFFF" d="M242.528,254.914c1.915,3.084,3.36,5.634,4.337,7.644c0.979,2.01,1.448,3.97,1.418,5.879
				c-0.031,1.909-0.824,3.634-2.381,5.175c-1.963,1.941-4.47,2.683-7.52,2.221c-3.054-0.463-5.973-2.098-8.761-4.912
				c-2.024-2.047-3.337-4.023-3.932-5.924s-0.734-3.697-0.417-5.381c0.312-1.686,0.923-3.564,1.825-5.642
				c0.772-1.734,1.137-3.266,1.091-4.591c-0.048-1.328-0.566-2.491-1.559-3.49c-1.224-1.24-2.644-1.852-4.254-1.836
				c-1.613,0.013-2.998,0.586-4.147,1.727c-1.983,1.961-3.364,4.648-4.146,8.062c-0.78,3.412-0.746,6.807,0.107,10.185
				c1.227,4.736,4.132,9.421,8.712,14.048c3.819,3.858,7.764,6.562,11.829,8.109s7.95,1.934,11.656,1.158
				c3.707-0.777,6.98-2.568,9.813-5.376c2.367-2.344,3.948-4.744,4.747-7.199c0.35-1.078,0.561-2.167,0.676-3.264L239.319,249.2
				C240.232,251.009,241.299,252.912,242.528,254.914z"/>
			<path fill="#BDC3C7" d="M309.355,309.556c-0.055-1.36-0.729-2.836-2.162-4.286l-7.487-7.562l-12.317-12.445l11.455-11.342
				l12.272,12.396l9.21,9.31c1.501,1.514,2.914,2.34,4.314,2.412c1.399,0.067,2.637-0.427,3.746-1.525
				c1.09-1.075,1.648-2.361,1.594-3.761c-0.059-1.401-0.789-2.905-2.287-4.419l-9.242-9.336l-15.58-15.738
				c-1.33-1.345-2.675-2.197-3.924-2.67c-1.251-0.473-2.441-0.363-3.704,0.086c-1.264,0.452-2.512,1.475-3.878,2.825l-18.969,18.778
				l32.455,32.455c1.07-0.141,2.053-0.628,2.918-1.487C308.836,312.188,309.416,310.912,309.355,309.556z"/>
			<path fill="#FFFFFF" d="M256.118,298.391c-2.046,2.024-2.997,3.674-3.019,5.487c-0.019,1.814,1.078,3.488,3.125,5.552
				l15.774,15.938l9.775,9.876c1.477,1.491,2.761,2.449,4.202,2.52c1.443,0.07,2.631-0.355,3.74-1.453
				c1.15-1.139,1.738-2.471,1.682-3.912c-0.053-1.444-0.781-2.953-2.257-4.443l-9.808-9.909l-12.406-12.533l13.093-12.96
				l12.351,12.475l7.456,7.533c1.456,1.471,2.905,2.19,4.274,2.229c0.256,0.007,0.503-0.025,0.75-0.058l-32.455-32.455
				L256.118,298.391z"/>
			<path fill="#FFFFFF" d="M339.552,365.913c-3.729,1.31-7.21,1.546-10.441,0.714c-3.23-0.836-6.05-2.469-8.456-4.896
				c-1.879-1.9-3.253-3.991-4.119-6.275c-0.869-2.286-1.205-4.744-1.001-7.375c0.206-2.629,1.054-5.344,2.542-8.148
				c1.256-2.368,2.959-4.672,5.055-6.92l-9.595-9.595c-2.937,3.115-5.306,6.427-7.108,9.931c-2.044,3.992-3.184,8.021-3.415,12.097
				c-0.235,4.069,0.493,8.142,2.181,12.21c1.686,4.072,4.346,7.943,7.976,11.611c3.649,3.689,7.468,6.391,11.448,8.109
				c3.979,1.715,8.028,2.481,12.143,2.287c4.117-0.188,8.143-1.262,12.078-3.213c3.58-1.779,7.033-4.241,10.357-7.373l-9.586-9.586
				C346.266,362.591,342.912,364.738,339.552,365.913z"/>
			<path fill="#BDC3C7" d="M338.354,310.774c-4.055,0.127-8.096,1.161-12.127,3.104c-4.029,1.938-7.845,4.696-11.449,8.264
				c-0.424,0.421-0.838,0.846-1.241,1.274l9.595,9.595c0.386-0.416,0.76-0.832,1.175-1.242c2.645-2.617,5.36-4.642,8.146-6.07
				c2.789-1.427,5.438-2.235,7.953-2.425c2.517-0.188,4.927,0.17,7.235,1.072c2.308,0.903,4.4,2.302,6.278,4.198
				c2.64,2.668,4.333,5.665,5.08,9.002c0.745,3.336,0.41,6.803-1.01,10.398c-1.418,3.604-3.844,7.101-7.277,10.498
				c-0.367,0.364-0.734,0.707-1.102,1.047l9.586,9.586c0.328-0.311,0.658-0.619,0.982-0.941c4.904-4.854,8.289-9.977,10.15-15.367
				c1.863-5.388,2.056-10.804,0.578-16.242c-1.479-5.437-4.627-10.59-9.439-15.453c-3.546-3.582-7.273-6.226-11.178-7.932
				C346.385,311.434,342.405,310.646,338.354,310.774z"/>
		</g>
	</g>
	<g id="website__x26__wrench">
	</g>
	<g id="crown">
	</g>
	<g id="eye">
	</g>
	<g id="website__x26__clock">
	</g>
	<g id="spider">
	</g>
	<g id="website__x26__medal">
	</g>
	<g id="graph">
	</g>
</g>
<g id="Finance__x2F__Money">
	<g id="diamond">
	</g>
	<g id="calculating">
	</g>
	<g id="calculator">
	</g>
	<g id="auction_hammer">
	</g>
	<g id="bag_of_money">
	</g>
	<g id="piggy_bank">
	</g>
	<g id="bank">
	</g>
	<g id="umbrella__x26__coins">
	</g>
	<g id="safe">
	</g>
	<g id="treasure">
	</g>
	<g id="cash__x26__card">
	</g>
	<g id="coins__x26__cash">
	</g>
	<g id="coins__x26__card">
	</g>
	<g id="briefcase">
	</g>
	<g id="cash">
	</g>
</g>
<g id="E-Commerce__x2F__Shopping">
	<g id="New_Symbol">
	</g>
	<g id="mobile__x26__finger">
	</g>
	<g id="price_tag">
	</g>
	<g id="website__x26__magnifier">
	</g>
	<g id="hand_to_ahnd_delivery">
	</g>
	<g id="hand__x26__credit_card">
	</g>
	<g id="hand__x26__iPad">
	</g>
	<g id="empty_basket">
	</g>
	<g id="full_basket">
	</g>
	<g id="trolley">
	</g>
	<g id="wallet">
	</g>
	<g id="truck">
	</g>
	<g id="delivery">
	</g>
	<g id="gift">
	</g>
	<g id="hand__x26__shopping_bag">
	</g>
	<g id="iMac_with_products">
	</g>
	<g id="laptop_store">
	</g>
	<g id="shopping_bag_with_mouse">
	</g>
	<g id="mobile_store">
	</g>
	<g id="store">
	</g>
	<g id="laptop_with_money">
	</g>
</g>
<g id="Strategy">
	<g id="money_palnt">
	</g>
	<g id="contract">
	</g>
	<g id="trophy">
	</g>
	<g id="graph_paper">
	</g>
	<g id="competition">
	</g>
	<g id="checklist">
	</g>
	<g id="megaphone">
	</g>
	<g id="paper_airplane">
	</g>
	<g id="mission_1">
	</g>
	<g id="graph_board">
	</g>
	<g id="mission_2">
	</g>
	<g id="strategy">
	</g>
	<g id="target">
	</g>
	<g id="partnership">
	</g>
	<g id="chess">
	</g>
</g>
</svg>
