<?xml version="1.0" encoding="utf-8"?>
<!-- Generator: Adobe Illustrator 16.0.0, SVG Export Plug-In . SVG Version: 6.00 Build 0)  -->
<!DOCTYPE svg PUBLIC "-//W3C//DTD SVG 1.1//EN" "http://www.w3.org/Graphics/SVG/1.1/DTD/svg11.dtd">
<svg version="1.1" xmlns="http://www.w3.org/2000/svg" xmlns:xlink="http://www.w3.org/1999/xlink" x="0px" y="0px" width="512px"
	 height="512px" viewBox="0 0 512 512" enable-background="new 0 0 512 512" xml:space="preserve">
<g id="Palette" display="none">
	<rect x="-8133" y="-1699" display="inline" fill="#FFFFFF" width="9201" height="7668"/>
</g>
<g id="Others">
	<g id="files">
	</g>
	<g id="pencil_rocket">
	</g>
	<g id="magic_hat__x26__rabbit">
	</g>
	<g id="phone__x26__target">
	</g>
	<g id="toast">
	</g>
	<g id="coffee">
	</g>
	<g id="suit">
	</g>
	<g id="DNA_tube">
	</g>
	<g id="clapper">
	</g>
	<g id="stopwatch">
		<radialGradient id="SVGID_1_" cx="256" cy="256" r="256" gradientUnits="userSpaceOnUse">
			<stop  offset="0.0051" style="stop-color:#E94B35"/>
			<stop  offset="1" style="stop-color:#C23824"/>
		</radialGradient>
		<path fill="url(#SVGID_1_)" d="M512,256c0,141.385-114.615,256-256,256c-12.695,0-25.172-0.924-37.371-2.708
			c-36.57-5.349-57.125-64.858-86.961-83.958c-30.234-19.354-69.637,1.537-89.416-28.398C15.548,356.514,0,308.072,0,256
			C0,114.615,114.615,0,256,0S512,114.615,512,256z"/>
		<g>
			<path fill="#BFA072" d="M308.352,189.855c-5.873-2.658-10.568-7.809-12.42-14.509c-3.311-11.978,3.717-24.37,15.693-27.682
				l112.92-31.212c11.975-3.31,24.369,3.716,27.681,15.693c3.31,11.977-3.716,24.371-15.692,27.682l-112.92,31.211
				C318.336,192.498,312.977,191.949,308.352,189.855z"/>
		</g>
		<path fill="#E5BF88" d="M114.102,323.107l-18.557,40.996l123.897,56.084l16.495-36.44c0,0,100.047,1.433,116.357-74.608
			L138.51,214.012l-54.326,29.693L114.102,323.107z"/>
		<path fill="#BFA072" d="M152.094,220.055l-4.637-0.346l-12.725,11.751l62.792,38.303l3.412,65.21l51.919-34.675
			c0,0,19.76,48.183,83.207,43.259c7.458-9.207,13.248-20.512,16.232-34.418L152.094,220.055z"/>
		<circle fill="#33495F" cx="263.422" cy="206.616" r="113.244"/>
		<circle fill="#2A3E4F" cx="259.298" cy="215.727" r="113.244"/>
		<path fill="#ECF0F1" d="M219.816,302.951c-48.098-21.771-69.514-78.612-47.742-126.709
			c21.771-48.096,78.611-69.513,126.709-47.741c48.096,21.771,69.512,78.612,47.74,126.709
			C324.752,303.306,267.912,324.723,219.816,302.951z"/>
		<g>
			<path fill="#32ACFC" d="M222.312,297.449c-2.012-0.911-2.904-3.281-1.994-5.294l9.484-20.953
				c0.912-2.013,3.281-2.905,5.294-1.995c2.013,0.912,2.905,3.281,1.995,5.295l-9.485,20.953
				C226.695,297.467,224.326,298.359,222.312,297.449z"/>
		</g>
		<g>
			<path fill="#32ACFC" d="M283.346,162.619c-2.012-0.91-2.906-3.281-1.994-5.293l9.484-20.953c0.91-2.014,3.281-2.906,5.293-1.995
				c2.014,0.911,2.906,3.281,1.996,5.294l-9.486,20.953C287.729,162.637,285.357,163.53,283.346,162.619z"/>
		</g>
		<g>
			<path fill="#32ACFC" d="M316.771,194.23c-0.389-1.034,0.133-2.188,1.166-2.578l19.652-7.403c1.033-0.39,2.186,0.132,2.576,1.166
				c0.389,1.034-0.133,2.187-1.166,2.577l-19.652,7.404C318.314,195.787,317.16,195.264,316.771,194.23z"/>
		</g>
		<g>
			<path fill="#32ACFC" d="M178.275,246.412c-0.389-1.033,0.135-2.188,1.167-2.576l19.651-7.404c1.033-0.39,2.188,0.133,2.576,1.166
				c0.391,1.033-0.133,2.188-1.166,2.578l-19.65,7.402C179.818,247.969,178.666,247.445,178.275,246.412z"/>
		</g>
		<g>
			<path fill="#32ACFC" d="M280.906,273.465c1.033-0.389,2.188,0.134,2.578,1.168l7.402,19.65c0.389,1.034-0.133,2.188-1.166,2.576
				c-1.035,0.391-2.188-0.132-2.576-1.166l-7.404-19.651C279.35,275.01,279.871,273.855,280.906,273.465z"/>
		</g>
		<g>
			<path fill="#32ACFC" d="M228.725,134.971c1.031-0.389,2.187,0.134,2.576,1.166l7.404,19.651c0.389,1.033-0.135,2.188-1.166,2.577
				c-1.033,0.389-2.188-0.134-2.578-1.166l-7.403-19.65C227.168,136.515,227.691,135.359,228.725,134.971z"/>
		</g>
		<g>
			<path fill="#32ACFC" d="M312.31,240.494c0.911-2.014,3.28-2.906,5.294-1.996l20.953,9.486c2.012,0.91,2.904,3.28,1.994,5.293
				c-0.911,2.012-3.281,2.905-5.294,1.994l-20.953-9.484C312.291,244.876,311.398,242.506,312.31,240.494z"/>
		</g>
		<g>
			<path fill="#32ACFC" d="M177.48,179.461c0.91-2.013,3.28-2.906,5.293-1.994l20.953,9.484c2.012,0.91,2.905,3.281,1.994,5.293
				c-0.91,2.013-3.281,2.906-5.293,1.995l-20.953-9.485C177.461,183.844,176.568,181.473,177.48,179.461z"/>
		</g>
		<path fill="#E5BF88" d="M139.855,120.719L84.184,243.705l63.273-23.996C147.457,219.709,200.207,148.037,139.855,120.719z"/>
		<path fill="#ECF0F1" d="M119.895,164.812c1.67,1.875,3.74,3.447,6.175,4.549c9.308,4.213,20.271,0.083,24.483-9.225
			s0.082-20.27-9.225-24.482c-2.435-1.102-4.982-1.621-7.492-1.638L119.895,164.812z"/>
		<g>
			<path fill="#E5BF88" d="M327.01,238.367c-6.734-3.049-12.059-9.042-13.973-16.777c-3.316-13.402,4.859-26.957,18.264-30.273
				l64.279-15.907c13.398-3.317,26.957,4.858,30.273,18.263c3.317,13.402-4.859,26.957-18.262,30.273l-64.281,15.907
				C337.643,241.256,331.947,240.603,327.01,238.367z"/>
		</g>
		<g>
			<path fill="#E5BF88" d="M326.795,284.922c-6.256-2.832-11.141-8.48-12.719-15.705c-2.652-12.141,5.039-24.132,17.181-26.783
				l57.251-12.504c12.137-2.65,24.131,5.041,26.782,17.182s-5.04,24.131-17.181,26.782l-57.251,12.503
				C335.943,287.471,331.051,286.848,326.795,284.922z"/>
		</g>
		<g>
			<path fill="#E5BF88" d="M337.488,324.339c-5.492-2.486-9.803-7.415-11.256-13.745c-2.477-10.765,4.244-21.498,15.008-23.973
				l25.729-5.916c10.766-2.477,21.5,4.244,23.975,15.008c2.475,10.766-4.244,21.5-15.01,23.974l-25.729,5.917
				C345.77,326.623,341.338,326.082,337.488,324.339z"/>
		</g>
		<circle fill="#ECF0F1" cx="340.365" cy="213.676" r="14"/>
		<circle fill="#ECF0F1" cx="339.04" cy="266.314" r="11.5"/>
		<circle fill="#ECF0F1" cx="346.385" cy="305.862" r="9.499"/>
		
			<rect x="56.413" y="389.322" transform="matrix(0.911 0.4124 -0.4124 0.911 180.1019 -24.9721)" fill="#ECF0F1" width="182.999" height="31.001"/>
		
			<rect x="144.32" y="408.292" transform="matrix(0.911 0.4124 -0.4124 0.911 191.649 -40.5655)" fill="#BDC3C7" width="91" height="31.001"/>
		<path fill="#33495F" d="M42.27,396.926c39.293,59.474,102.734,101.581,176.361,112.351l20.824-46.002L50.877,377.912
			L42.27,396.926z"/>
		<path fill="#2B3E51" d="M118.162,471.759c29.836,19.101,63.898,32.169,100.469,37.518l20.824-46.002l-97.479-44.124
			L118.162,471.759z"/>
		<path fill="#2A3E4F" d="M319.604,111.621c-1.233,2.723-4.439,3.932-7.162,2.699l-12.916-5.848
			c-2.723-1.232-3.932-4.438-2.697-7.162l14.506-32.045c1.232-2.723,4.439-3.932,7.16-2.699l12.916,5.848
			c2.723,1.231,3.932,4.438,2.699,7.161L319.604,111.621z"/>
		<path fill="#33495F" d="M332.648,69.68l-12.916-5.846c-2.723-1.232-5.93-0.024-7.162,2.699l-11.557,25.529
			c3.025,2.109,6.766,4.23,10.949,6.125c4.184,1.893,8.246,3.303,11.826,4.186l11.557-25.531
			C336.578,74.119,335.371,70.912,332.648,69.68z"/>
		<path fill="#2A3E4F" d="M349.688,72.062c0.01-0.02,0.023-0.037,0.032-0.059c0.01-0.021,0.015-0.046,0.024-0.068
			c0.01-0.021,0.025-0.041,0.035-0.062s0.014-0.043,0.021-0.063c0.012-0.023,0.027-0.044,0.039-0.068
			c0.012-0.026,0.018-0.054,0.027-0.079c0.01-0.018,0.021-0.033,0.03-0.053s-0.09,0.186-0.081,0.166
			c0.012-0.024-0.064,0.158-0.064,0.158c1.648-3.645-9.213-5.268-21.088-10.643c-11.873-5.375-20.262-12.465-21.912-8.821
			c0,0,0.09-0.182,0.079-0.159c-0.011,0.021,0.026-0.072,0.017-0.051s0.012-0.011,0.001,0.012c-0.009,0.021-0.013,0.012-0.022,0.033
			c-0.01,0.023-0.008,0.032-0.018,0.055c-0.01,0.021-0.021,0.033-0.031,0.057c-0.01,0.021-0.014,0.042-0.023,0.064
			c-0.01,0.021-0.023,0.039-0.034,0.062c-0.011,0.024-0.017,0.048-0.025,0.073c-0.011,0.02-0.022,0.037-0.032,0.059
			c-0.01,0.021-0.016,0.044-0.023,0.066c-0.012,0.021-0.027,0.041-0.037,0.063c-0.008,0.021-0.014,0.042-0.021,0.063
			c-0.012,0.023-0.027,0.044-0.037,0.068c-0.012,0.021-0.016,0.045-0.025,0.066c-0.01,0.023-0.025,0.041-0.035,0.064
			c-0.01,0.02-0.014,0.041-0.021,0.062c-0.012,0.022-0.027,0.043-0.038,0.067s-0.017,0.05-0.026,0.073
			c-0.01,0.021-0.023,0.039-0.033,0.059c-0.01,0.022-0.014,0.047-0.023,0.068c-0.012,0.022-0.025,0.041-0.035,0.063
			c-0.01,0.021-0.014,0.042-0.022,0.063c-0.013,0.023-0.027,0.044-0.038,0.068c-0.011,0.023-0.018,0.049-0.027,0.074
			c-0.01,0.02-0.022,0.037-0.031,0.057c-0.012,0.023-0.016,0.047-0.025,0.068c-0.01,0.023-0.025,0.041-0.035,0.064
			c-0.01,0.021-0.014,0.045-0.023,0.066c-0.01,0.023-0.025,0.041-0.035,0.064c-0.01,0.021-0.015,0.045-0.025,0.068
			c-0.01,0.021-0.024,0.041-0.035,0.062c-0.008,0.021-0.014,0.043-0.021,0.062c-0.012,0.023-0.027,0.045-0.037,0.068
			c-0.012,0.023-0.018,0.049-0.027,0.074c-0.01,0.02-0.023,0.038-0.033,0.059c-0.01,0.021-0.014,0.046-0.023,0.068
			c-0.01,0.021-0.025,0.04-0.035,0.062c-0.01,0.021-0.014,0.046-0.024,0.068c-0.011,0.021-0.024,0.041-0.035,0.062
			c-0.011,0.025-0.017,0.051-0.026,0.074c-0.01,0.021-0.023,0.038-0.032,0.059s-0.015,0.042-0.022,0.062
			c-0.012,0.023-0.027,0.043-0.037,0.068c-0.011,0.021-0.016,0.045-0.025,0.068c-0.01,0.021-0.025,0.041-0.035,0.062
			c-0.01,0.022-0.014,0.047-0.023,0.068c-0.011,0.022-0.025,0.041-0.035,0.063c-0.011,0.022-0.016,0.046-0.025,0.068
			c-0.01,0.021-0.024,0.04-0.035,0.062c-0.01,0.024-0.016,0.05-0.025,0.074c-0.01,0.021-0.023,0.038-0.033,0.058
			c-0.01,0.021-0.014,0.043-0.021,0.062c-0.012,0.024-0.027,0.045-0.039,0.068c-0.01,0.023-0.014,0.047-0.023,0.068
			s-0.025,0.041-0.035,0.062c-0.01,0.023-0.015,0.047-0.024,0.068c-0.011,0.023-0.025,0.043-0.036,0.064
			c-0.01,0.022-0.014,0.047-0.023,0.068s-0.025,0.041-0.035,0.062c-0.01,0.022-0.015,0.047-0.024,0.068
			c-0.011,0.022-0.024,0.041-0.035,0.063s-0.015,0.046-0.024,0.068c-0.01,0.021-0.025,0.04-0.035,0.062
			c-0.01,0.021-0.014,0.042-0.021,0.063c-0.012,0.023-0.027,0.044-0.039,0.068c-0.01,0.023-0.016,0.049-0.025,0.073
			c-0.01,0.021-0.023,0.038-0.033,0.06s-0.016,0.045-0.025,0.068c-0.009,0.021-0.023,0.039-0.033,0.062
			c-0.011,0.021-0.016,0.045-0.025,0.068c-0.01,0.021-0.025,0.041-0.035,0.062c-0.01,0.022-0.014,0.047-0.023,0.068
			c-0.011,0.022-0.025,0.041-0.036,0.063c-0.01,0.022-0.015,0.046-0.024,0.067c-0.01,0.022-0.023,0.041-0.035,0.063
			c-0.01,0.022-0.014,0.046-0.023,0.068c-0.011,0.022-0.025,0.041-0.035,0.063c-0.011,0.021-0.016,0.046-0.025,0.068
			c-0.01,0.021-0.025,0.041-0.035,0.062c-0.01,0.023-0.014,0.047-0.023,0.068s-0.025,0.041-0.035,0.062
			c-0.01,0.023-0.016,0.047-0.024,0.068c-0.011,0.023-0.026,0.041-0.036,0.064c-0.01,0.021-0.014,0.045-0.023,0.068
			c-0.01,0.021-0.025,0.041-0.035,0.062c-0.01,0.022-0.016,0.047-0.023,0.068c-0.011,0.021-0.025,0.041-0.036,0.062
			c-0.01,0.022-0.015,0.047-0.024,0.068c-0.01,0.022-0.025,0.041-0.035,0.063s-0.014,0.046-0.024,0.068s-0.024,0.041-0.036,0.063
			c-0.01,0.021-0.014,0.046-0.023,0.068c-0.01,0.021-0.025,0.041-0.035,0.062c-0.01,0.023-0.014,0.047-0.025,0.068
			c-0.01,0.023-0.023,0.041-0.035,0.064c-0.008,0.02-0.014,0.041-0.021,0.062c-0.012,0.022-0.027,0.043-0.037,0.067
			c-0.012,0.024-0.017,0.05-0.026,0.073c-0.011,0.021-0.022,0.039-0.032,0.059c-0.011,0.022-0.016,0.047-0.025,0.068
			c-0.01,0.022-0.025,0.041-0.035,0.063s-0.014,0.046-0.023,0.067c-0.01,0.022-0.025,0.041-0.035,0.063s-0.016,0.046-0.025,0.068
			s-0.025,0.041-0.035,0.063c-0.01,0.021-0.014,0.046-0.023,0.068c-0.01,0.021-0.025,0.041-0.035,0.062
			c-0.01,0.023-0.016,0.047-0.025,0.068c-0.01,0.023-0.025,0.041-0.035,0.064c-0.01,0.021-0.014,0.045-0.023,0.068
			c-0.01,0.021-0.025,0.039-0.035,0.062c-0.01,0.021-0.014,0.045-0.025,0.068c-0.01,0.021-0.023,0.041-0.035,0.062
			c-0.01,0.022-0.014,0.047-0.023,0.069c-0.01,0.021-0.025,0.041-0.035,0.063c-0.012,0.021-0.016,0.046-0.025,0.068
			c-0.01,0.021-0.023,0.04-0.035,0.062c-0.01,0.021-0.014,0.046-0.023,0.067c-0.01,0.022-0.025,0.041-0.035,0.063
			c-0.01,0.021-0.014,0.046-0.023,0.068c-0.012,0.021-0.025,0.041-0.037,0.062c-0.01,0.023-0.014,0.047-0.023,0.068
			c-0.01,0.023-0.025,0.041-0.035,0.064c-0.01,0.021-0.014,0.045-0.025,0.068c-0.01,0.021-0.023,0.041-0.034,0.062
			c-0.011,0.022-0.015,0.047-0.024,0.068s-0.025,0.041-0.035,0.062c-0.01,0.022-0.014,0.047-0.023,0.068
			c-0.012,0.022-0.025,0.041-0.035,0.063c-0.012,0.022-0.016,0.046-0.025,0.068s-0.025,0.041-0.035,0.063
			c-0.01,0.021-0.014,0.046-0.023,0.068c-0.012,0.021-0.025,0.041-0.035,0.062c-0.012,0.023-0.016,0.047-0.025,0.068
			s-0.024,0.041-0.035,0.062c-0.01,0.023-0.014,0.047-0.023,0.068c-0.01,0.023-0.025,0.041-0.035,0.064
			c-0.012,0.023-0.016,0.049-0.025,0.074c-0.011,0.02-0.023,0.037-0.033,0.057c-0.01,0.021-0.014,0.043-0.022,0.064
			c-0.012,0.023-0.028,0.043-0.038,0.067c-0.01,0.022-0.015,0.046-0.025,0.068c-0.01,0.021-0.023,0.04-0.034,0.062
			c-0.009,0.022-0.015,0.046-0.024,0.068s-0.025,0.041-0.035,0.063c-0.011,0.023-0.016,0.049-0.025,0.074
			c-0.011,0.02-0.023,0.037-0.033,0.058s-0.014,0.042-0.021,0.063c-0.012,0.022-0.027,0.043-0.039,0.066
			c-0.01,0.021-0.014,0.043-0.021,0.063c-0.012,0.023-0.027,0.044-0.038,0.068s-0.017,0.05-0.026,0.073
			c-0.01,0.021-0.023,0.039-0.033,0.059c-0.01,0.022-0.014,0.047-0.023,0.068c-0.012,0.022-0.025,0.041-0.035,0.063
			c-0.012,0.022-0.016,0.046-0.025,0.068s-0.025,0.041-0.035,0.063c-0.008,0.021-0.014,0.042-0.021,0.062
			c-0.012,0.023-0.027,0.044-0.038,0.068c-0.011,0.023-0.017,0.049-0.026,0.074c-0.01,0.02-0.023,0.037-0.033,0.057
			c-0.01,0.023-0.014,0.047-0.023,0.068c-0.01,0.023-0.025,0.041-0.035,0.064c-0.01,0.021-0.015,0.045-0.024,0.066
			c-0.011,0.023-0.024,0.041-0.035,0.064c-0.011,0.021-0.015,0.045-0.024,0.068c-0.01,0.021-0.025,0.041-0.035,0.062
			c-0.01,0.022-0.014,0.047-0.024,0.068c-0.011,0.022-0.024,0.041-0.035,0.063s-0.015,0.046-0.024,0.068s-0.025,0.041-0.035,0.063
			c-0.01,0.021-0.015,0.046-0.024,0.068c-0.011,0.021-0.024,0.041-0.035,0.062c-0.011,0.023-0.015,0.047-0.024,0.068
			s-0.025,0.041-0.035,0.062c-0.01,0.023-0.014,0.047-0.024,0.068c-0.01,0.023-0.024,0.041-0.035,0.064
			c-0.01,0.021-0.015,0.045-0.024,0.068c-0.01,0.021-0.025,0.041-0.035,0.062c-0.01,0.022-0.014,0.047-0.023,0.068
			s-0.025,0.041-0.035,0.062c-0.01,0.022-0.015,0.047-0.025,0.068c-0.01,0.022-0.024,0.041-0.035,0.063
			c-0.01,0.022-0.014,0.046-0.023,0.068c-0.011,0.022-0.025,0.041-0.035,0.063c-0.01,0.021-0.016,0.046-0.025,0.068
			c-0.01,0.021-0.025,0.041-0.035,0.062c-0.01,0.023-0.014,0.047-0.023,0.068c-0.011,0.023-0.025,0.041-0.035,0.064
			c-0.011,0.021-0.016,0.045-0.025,0.068c-0.01,0.021-0.024,0.039-0.034,0.062c-0.011,0.021-0.015,0.045-0.024,0.066
			c-0.01,0.023-0.025,0.041-0.035,0.064c-0.01,0.021-0.015,0.047-0.024,0.068c-0.011,0.022-0.026,0.041-0.036,0.063
			s-0.014,0.046-0.023,0.067c-0.01,0.022-0.025,0.041-0.035,0.063s-0.014,0.046-0.024,0.068s-0.024,0.041-0.035,0.063
			c-0.011,0.021-0.015,0.046-0.024,0.068c-0.01,0.021-0.025,0.041-0.035,0.062c-0.01,0.023-0.014,0.047-0.024,0.068
			c-0.011,0.023-0.024,0.041-0.035,0.064c-0.011,0.021-0.015,0.045-0.024,0.068c-0.01,0.021-0.025,0.039-0.035,0.062
			c-0.01,0.021-0.014,0.045-0.023,0.068c-0.011,0.021-0.025,0.041-0.035,0.062c-0.011,0.022-0.016,0.047-0.025,0.068
			c-0.01,0.022-0.025,0.041-0.035,0.063s-0.014,0.046-0.023,0.067c-0.01,0.022-0.025,0.041-0.035,0.063s-0.016,0.046-0.025,0.068
			s-0.025,0.041-0.035,0.063c-0.01,0.021-0.014,0.046-0.023,0.068c-0.01,0.021-0.025,0.041-0.035,0.062
			c-0.01,0.023-0.016,0.047-0.025,0.068c-0.01,0.023-0.025,0.041-0.035,0.064c-0.01,0.021-0.014,0.045-0.023,0.068
			c-0.01,0.021-0.025,0.041-0.035,0.062c-0.01,0.022-0.016,0.047-0.025,0.068s-0.023,0.041-0.035,0.062
			c-0.01,0.022-0.014,0.047-0.023,0.068c-0.01,0.022-0.025,0.041-0.035,0.063s-0.016,0.046-0.025,0.068s-0.025,0.041-0.035,0.063
			c-0.01,0.021-0.014,0.046-0.023,0.067c-0.01,0.022-0.025,0.041-0.035,0.063c-0.01,0.021-0.014,0.046-0.023,0.068
			c-0.011,0.021-0.025,0.041-0.035,0.062c-0.011,0.023-0.016,0.047-0.025,0.068c-0.01,0.023-0.025,0.041-0.035,0.064
			c-0.01,0.021-0.014,0.045-0.025,0.068c-0.01,0.021-0.023,0.041-0.035,0.062c-0.01,0.022-0.014,0.047-0.023,0.068
			c-0.01,0.022-0.025,0.041-0.035,0.063s-0.014,0.046-0.025,0.068c-0.008,0.021-0.023,0.04-0.033,0.062
			c-0.012,0.022-0.016,0.046-0.025,0.068s-0.025,0.041-0.035,0.063c-0.01,0.021-0.014,0.046-0.023,0.068
			c-0.012,0.021-0.025,0.041-0.035,0.062c-0.01,0.023-0.016,0.047-0.025,0.068c-0.01,0.023-0.025,0.041-0.035,0.064
			c-0.01,0.021-0.014,0.045-0.023,0.066c-0.01,0.023-0.025,0.041-0.035,0.064c-0.01,0.021-0.014,0.045-0.025,0.068
			c-0.01,0.021-0.025,0.041-0.035,0.062c-0.01,0.022-0.014,0.047-0.023,0.068c-0.01,0.022-0.025,0.041-0.035,0.063
			s-0.015,0.046-0.025,0.068c-0.01,0.021-0.023,0.04-0.035,0.062c-0.01,0.022-0.014,0.046-0.023,0.068s-0.025,0.041-0.035,0.063
			c-0.01,0.021-0.014,0.046-0.025,0.068c-0.01,0.021-0.023,0.041-0.035,0.062c-0.01,0.023-0.014,0.047-0.023,0.068
			s-0.025,0.041-0.035,0.062c-0.01,0.023-0.014,0.047-0.023,0.068c-0.01,0.023-0.025,0.041-0.035,0.064
			c-0.012,0.021-0.016,0.045-0.025,0.068c-0.01,0.021-0.025,0.041-0.035,0.062c-0.01,0.022-0.014,0.047-0.023,0.068
			c-0.012,0.022-0.025,0.041-0.035,0.063c-0.012,0.022-0.016,0.046-0.025,0.068s-0.025,0.041-0.035,0.063
			c-0.01,0.021-0.014,0.046-0.023,0.068c-0.01,0.021-0.025,0.04-0.035,0.062c-0.01,0.021-0.015,0.046-0.025,0.068
			c-0.01,0.021-0.024,0.041-0.035,0.062c-0.01,0.023-0.014,0.047-0.023,0.068c-0.01,0.023-0.025,0.041-0.035,0.064
			c-0.01,0.021-0.015,0.045-0.024,0.066c-0.011,0.023-0.024,0.041-0.035,0.064c-0.011,0.021-0.015,0.045-0.024,0.068
			c-0.01,0.021-0.025,0.041-0.035,0.062c-0.01,0.022-0.014,0.047-0.025,0.068c-0.01,0.022-0.023,0.041-0.034,0.063
			s-0.015,0.046-0.024,0.068s-0.025,0.041-0.035,0.063c-0.01,0.021-0.015,0.046-0.024,0.068c-0.011,0.021-0.025,0.041-0.035,0.062
			c-0.011,0.023-0.015,0.047-0.024,0.068s-0.025,0.041-0.035,0.062c-0.01,0.023-0.014,0.047-0.023,0.068
			c-0.012,0.023-0.025,0.041-0.036,0.064c-0.011,0.021-0.015,0.045-0.024,0.068c-0.01,0.021-0.025,0.041-0.035,0.062
			c-0.01,0.022-0.014,0.047-0.023,0.068s-0.025,0.041-0.035,0.062c-0.01,0.022-0.015,0.047-0.025,0.068
			c-0.01,0.022-0.024,0.041-0.035,0.063c-0.01,0.022-0.014,0.046-0.023,0.068c-0.011,0.022-0.025,0.041-0.035,0.063
			c-0.011,0.021-0.015,0.046-0.025,0.068c-0.01,0.021-0.025,0.041-0.035,0.062c-0.01,0.023-0.014,0.047-0.023,0.068
			c-0.011,0.023-0.025,0.042-0.035,0.064c-0.01,0.021-0.016,0.045-0.025,0.068c-0.01,0.021-0.024,0.039-0.034,0.062
			c-0.011,0.021-0.015,0.045-0.024,0.068c-0.01,0.021-0.025,0.041-0.035,0.062c-0.01,0.022-0.015,0.047-0.025,0.068
			c-0.01,0.022-0.024,0.041-0.035,0.063c-0.01,0.022-0.014,0.046-0.023,0.068s-0.025,0.042-0.035,0.063s-0.015,0.046-0.024,0.067
			c-0.01,0.022-0.024,0.041-0.035,0.063c-0.011,0.021-0.015,0.046-0.024,0.068c-0.01,0.021-0.025,0.041-0.035,0.062
			c-0.01,0.023-0.014,0.047-0.024,0.068c-0.01,0.021-0.024,0.041-0.034,0.062c-0.01,0.023-0.016,0.047-0.025,0.068
			c-0.01,0.023-0.025,0.041-0.035,0.064c-0.01,0.021-0.014,0.045-0.023,0.068c-0.01,0.021-0.025,0.041-0.035,0.062
			c-0.011,0.022-0.016,0.047-0.025,0.068c-0.01,0.022-0.025,0.041-0.035,0.063s-0.014,0.046-0.023,0.067
			c-0.01,0.022-0.025,0.041-0.035,0.063s-0.015,0.046-0.025,0.068c-0.01,0.022-0.024,0.041-0.035,0.063
			c-0.01,0.021-0.014,0.046-0.023,0.068c-0.01,0.021-0.025,0.041-0.035,0.062c-0.01,0.023-0.016,0.047-0.025,0.068
			c-0.01,0.023-0.025,0.041-0.035,0.064c-0.01,0.021-0.014,0.045-0.023,0.068c-0.01,0.021-0.025,0.041-0.035,0.062
			c-0.01,0.022-0.016,0.047-0.025,0.068s-0.023,0.041-0.034,0.062c-0.011,0.022-0.015,0.047-0.024,0.068
			c-0.01,0.022-0.025,0.041-0.035,0.063s-0.014,0.046-0.024,0.068s-0.026,0.042-0.036,0.063s-0.014,0.046-0.023,0.067
			c-0.01,0.022-0.025,0.041-0.035,0.063c-0.01,0.021-0.014,0.046-0.023,0.068c-0.011,0.021-0.025,0.041-0.035,0.062
			c-0.011,0.023-0.016,0.047-0.025,0.068c-0.01,0.023-0.025,0.041-0.035,0.064c-0.01,0.021-0.014,0.045-0.025,0.068
			c-0.009,0.021-0.023,0.041-0.035,0.062c-0.009,0.022-0.014,0.047-0.023,0.068c-0.01,0.022-0.025,0.041-0.035,0.064
			c-0.01,0.021-0.014,0.045-0.025,0.067c-0.008,0.021-0.023,0.04-0.033,0.062s-0.016,0.046-0.025,0.068s-0.025,0.041-0.035,0.063
			c-0.01,0.021-0.014,0.046-0.023,0.068c-0.012,0.021-0.025,0.041-0.035,0.062c-0.012,0.023-0.016,0.047-0.025,0.068
			s-0.025,0.041-0.035,0.062c-0.01,0.023-0.014,0.047-0.023,0.068c-0.01,0.023-0.025,0.041-0.035,0.064
			c-0.01,0.021-0.016,0.045-0.025,0.068c-0.01,0.021-0.025,0.041-0.035,0.062c-0.01,0.022-0.014,0.047-0.023,0.068
			c-0.01,0.022-0.025,0.041-0.035,0.064c-0.01,0.021-0.016,0.045-0.025,0.067s-0.024,0.042-0.035,0.063
			c-0.01,0.021-0.014,0.046-0.023,0.068c-0.01,0.021-0.025,0.04-0.035,0.062c-0.01,0.021-0.014,0.046-0.023,0.068
			c-0.012,0.021-0.025,0.041-0.037,0.062c-0.01,0.023-0.014,0.047-0.023,0.068c-0.01,0.023-0.025,0.042-0.035,0.064
			c-0.01,0.021-0.014,0.045-0.025,0.068c-0.01,0.021-0.023,0.041-0.035,0.062c-0.01,0.023-0.014,0.047-0.023,0.068
			s-0.025,0.041-0.035,0.062c-0.01,0.022-0.014,0.047-0.023,0.068c-0.01,0.022-0.025,0.041-0.035,0.063
			c-0.012,0.022-0.016,0.046-0.025,0.068c-0.01,0.021-0.024,0.04-0.035,0.062c-0.01,0.022-0.014,0.046-0.023,0.068
			s-0.025,0.041-0.035,0.063c-0.01,0.021-0.016,0.046-0.025,0.068c-0.01,0.021-0.025,0.041-0.035,0.062
			c-0.01,0.023-0.014,0.047-0.023,0.068c-0.01,0.023-0.025,0.041-0.035,0.064c-0.01,0.021-0.015,0.045-0.025,0.066
			c-0.01,0.023-0.023,0.041-0.035,0.064c-0.01,0.021-0.014,0.045-0.023,0.068c-0.01,0.021-0.025,0.041-0.035,0.062
			c-0.01,0.022-0.014,0.047-0.025,0.068c-0.01,0.022-0.023,0.041-0.035,0.063c-0.01,0.022-0.014,0.046-0.023,0.068
			s-0.025,0.042-0.035,0.063s-0.015,0.046-0.024,0.068c-0.011,0.021-0.024,0.04-0.034,0.062c-0.012,0.021-0.016,0.046-0.025,0.068
			c-0.01,0.021-0.025,0.041-0.035,0.062c-0.01,0.023-0.014,0.047-0.023,0.068c-0.012,0.023-0.025,0.041-0.035,0.064
			c-0.012,0.021-0.016,0.045-0.025,0.068c-0.01,0.021-0.025,0.041-0.035,0.062c-0.01,0.022-0.014,0.047-0.023,0.068
			s-0.025,0.041-0.035,0.062c-0.01,0.022-0.015,0.047-0.025,0.068c-0.01,0.022-0.024,0.041-0.035,0.063
			c-0.01,0.022-0.014,0.046-0.023,0.068c-0.012,0.022-0.025,0.042-0.035,0.063c-1.594,3.521,6.738,10.734,18.611,16.109
			c11.877,5.375,22.793,6.876,24.387,3.355c0.011-0.023,0.015-0.047,0.025-0.068c0.01-0.023,0.025-0.042,0.035-0.064
			c0.01-0.021,0.014-0.045,0.023-0.068c0.011-0.021,0.025-0.041,0.035-0.062c0.011-0.023,0.016-0.047,0.025-0.068
			s0.025-0.041,0.034-0.062c0.011-0.022,0.015-0.047,0.024-0.068c0.01-0.022,0.025-0.041,0.035-0.063s0.016-0.046,0.025-0.068
			s0.024-0.042,0.035-0.063c0.01-0.021,0.014-0.046,0.023-0.068c0.01-0.021,0.025-0.041,0.035-0.063s0.015-0.046,0.024-0.067
			s0.024-0.041,0.036-0.062c0.01-0.023,0.014-0.047,0.023-0.068c0.01-0.023,0.025-0.041,0.035-0.064
			c0.01-0.021,0.014-0.045,0.025-0.068c0.01-0.021,0.023-0.041,0.034-0.062c0.011-0.023,0.015-0.047,0.024-0.068
			c0.01-0.022,0.025-0.041,0.035-0.064c0.01-0.021,0.014-0.045,0.024-0.067c0.01-0.021,0.024-0.04,0.034-0.062
			c0.011-0.022,0.016-0.046,0.025-0.068s0.025-0.042,0.035-0.063s0.014-0.046,0.023-0.068c0.011-0.021,0.025-0.041,0.035-0.063
			c0.011-0.022,0.016-0.046,0.025-0.067c0.01-0.023,0.025-0.042,0.035-0.064c0.01-0.021,0.014-0.045,0.023-0.066
			c0.01-0.023,0.025-0.041,0.035-0.064c0.01-0.021,0.015-0.045,0.025-0.068c0.01-0.021,0.024-0.041,0.035-0.062
			c0.01-0.022,0.014-0.047,0.023-0.068s0.025-0.041,0.035-0.062c0.01-0.022,0.014-0.047,0.024-0.068
			c0.011-0.022,0.024-0.041,0.035-0.063s0.015-0.046,0.024-0.068s0.025-0.042,0.035-0.063s0.014-0.046,0.024-0.068
			c0.011-0.021,0.024-0.041,0.035-0.062c0.011-0.023,0.015-0.047,0.024-0.068s0.025-0.041,0.035-0.062
			c0.01-0.023,0.014-0.047,0.023-0.068c0.011-0.023,0.025-0.041,0.035-0.064c0.011-0.021,0.016-0.045,0.025-0.068
			c0.01-0.021,0.025-0.041,0.035-0.062c0.01-0.022,0.014-0.047,0.024-0.068c0.01-0.022,0.024-0.041,0.036-0.064
			c0.009-0.021,0.014-0.045,0.023-0.067s0.025-0.042,0.035-0.063c0.01-0.022,0.014-0.046,0.023-0.068
			c0.01-0.021,0.025-0.041,0.035-0.062s0.015-0.046,0.025-0.068c0.01-0.021,0.023-0.041,0.035-0.062
			c0.01-0.023,0.014-0.047,0.023-0.068c0.011-0.023,0.025-0.042,0.035-0.064c0.011-0.021,0.016-0.045,0.024-0.066
			c0.011-0.023,0.024-0.041,0.034-0.064c0.012-0.021,0.016-0.045,0.025-0.068c0.01-0.021,0.025-0.041,0.035-0.062
			c0.01-0.022,0.014-0.047,0.024-0.068c0.011-0.022,0.026-0.041,0.036-0.064c0.01-0.021,0.014-0.045,0.023-0.067
			s0.025-0.042,0.035-0.063s0.016-0.046,0.025-0.068c0.01-0.021,0.023-0.041,0.035-0.063c0.01-0.022,0.014-0.046,0.023-0.067
			s0.025-0.041,0.035-0.062c0.01-0.023,0.014-0.047,0.023-0.068c0.012-0.023,0.025-0.042,0.035-0.064
			c0.012-0.021,0.016-0.045,0.025-0.068c0.01-0.021,0.025-0.041,0.035-0.062c0.01-0.023,0.014-0.047,0.023-0.068
			s0.025-0.041,0.035-0.062c0.011-0.022,0.016-0.047,0.025-0.068c0.01-0.022,0.025-0.041,0.035-0.063s0.014-0.046,0.023-0.068
			s0.025-0.042,0.035-0.063s0.016-0.046,0.025-0.068c0.01-0.021,0.025-0.041,0.035-0.063s0.014-0.046,0.023-0.067
			c0.01-0.023,0.025-0.042,0.035-0.064c0.01-0.021,0.016-0.046,0.025-0.068c0.01-0.021,0.023-0.04,0.035-0.062
			c0.01-0.021,0.014-0.045,0.023-0.068c0.01-0.021,0.025-0.041,0.035-0.062c0.01-0.023,0.014-0.047,0.025-0.068
			c0.01-0.022,0.024-0.041,0.035-0.064c0.01-0.021,0.014-0.045,0.023-0.067s0.025-0.042,0.035-0.063
			c0.01-0.022,0.015-0.047,0.023-0.067c0.012-0.022,0.025-0.042,0.035-0.063c0.012-0.021,0.016-0.046,0.025-0.068
			c0.01-0.021,0.025-0.041,0.035-0.063s0.015-0.046,0.023-0.067c0.01-0.021,0.025-0.041,0.035-0.062
			c0.01-0.023,0.016-0.047,0.025-0.068c0.01-0.023,0.025-0.041,0.035-0.064c0.01-0.021,0.014-0.045,0.023-0.068
			c0.01-0.021,0.025-0.041,0.035-0.062c0.01-0.022,0.016-0.047,0.025-0.068c0.01-0.022,0.025-0.041,0.035-0.064
			c0.01-0.021,0.014-0.045,0.023-0.066c0.01-0.022,0.025-0.041,0.035-0.063s0.015-0.046,0.025-0.068
			c0.01-0.022,0.024-0.042,0.035-0.063c0.01-0.021,0.014-0.046,0.023-0.068c0.01-0.021,0.025-0.041,0.035-0.063
			s0.015-0.046,0.025-0.067c0.01-0.023,0.024-0.042,0.035-0.064c0.01-0.021,0.014-0.045,0.023-0.068
			c0.01-0.021,0.025-0.041,0.035-0.062c0.011-0.023,0.016-0.047,0.025-0.068s0.024-0.041,0.034-0.062
			c0.011-0.022,0.015-0.047,0.024-0.068c0.01-0.022,0.025-0.041,0.035-0.064c0.01-0.021,0.015-0.045,0.025-0.067
			c0.01-0.022,0.025-0.042,0.035-0.063c0.01-0.022,0.014-0.047,0.023-0.067c0.01-0.022,0.025-0.042,0.035-0.063
			s0.014-0.046,0.024-0.068c0.009-0.021,0.024-0.041,0.035-0.062c0.009-0.023,0.015-0.047,0.024-0.068
			c0.01-0.023,0.025-0.042,0.035-0.064c0.01-0.021,0.014-0.045,0.024-0.068c0.011-0.021,0.024-0.041,0.035-0.062
			c0.011-0.023,0.015-0.047,0.024-0.068c0.01-0.022,0.025-0.041,0.035-0.064c0.01-0.021,0.014-0.045,0.024-0.068
			c0.01-0.021,0.024-0.039,0.034-0.062c0.012-0.021,0.016-0.045,0.025-0.067s0.025-0.042,0.035-0.063
			c0.01-0.022,0.014-0.046,0.023-0.068c0.011-0.021,0.025-0.041,0.035-0.063c0.011-0.022,0.016-0.046,0.025-0.067
			s0.024-0.041,0.035-0.062c0.01-0.023,0.014-0.047,0.023-0.068c0.01-0.023,0.025-0.042,0.035-0.064
			c0.01-0.021,0.015-0.045,0.025-0.068c0.01-0.021,0.024-0.041,0.035-0.062c0.01-0.023,0.014-0.047,0.023-0.068
			c0.01-0.022,0.025-0.041,0.035-0.064c0.01-0.021,0.015-0.045,0.025-0.068c0.01-0.021,0.024-0.041,0.035-0.062
			c0.01-0.022,0.014-0.047,0.023-0.068s0.025-0.041,0.035-0.062s0.014-0.046,0.024-0.068c0.011-0.021,0.024-0.041,0.035-0.063
			s0.015-0.046,0.024-0.067c0.01-0.023,0.025-0.042,0.035-0.064c0.01-0.021,0.014-0.046,0.023-0.066
			c0.011-0.023,0.025-0.042,0.035-0.064c0.011-0.021,0.016-0.045,0.025-0.068c0.01-0.021,0.025-0.041,0.035-0.062
			c0.01-0.023,0.014-0.047,0.024-0.068c0.01-0.022,0.024-0.041,0.035-0.064c0.01-0.021,0.015-0.045,0.024-0.067
			c0.01-0.021,0.024-0.04,0.035-0.062c0.01-0.022,0.014-0.046,0.023-0.068s0.025-0.042,0.035-0.063s0.015-0.046,0.025-0.068
			c0.01-0.021,0.024-0.041,0.035-0.063c0.01-0.022,0.014-0.046,0.023-0.067c0.011-0.023,0.025-0.042,0.035-0.064
			c0.011-0.021,0.016-0.045,0.024-0.066c0.011-0.023,0.024-0.042,0.035-0.064c0.011-0.021,0.015-0.045,0.024-0.068
			c0.01-0.021,0.025-0.041,0.035-0.062c0.01-0.023,0.014-0.047,0.024-0.068c0.011-0.022,0.024-0.041,0.035-0.064
			c0.011-0.021,0.015-0.045,0.024-0.067s0.025-0.042,0.035-0.063c0.01-0.022,0.014-0.047,0.025-0.068
			c0.01-0.021,0.025-0.041,0.035-0.063s0.014-0.046,0.023-0.068c0.01-0.021,0.025-0.04,0.035-0.062s0.014-0.046,0.024-0.067
			c0.01-0.023,0.024-0.042,0.034-0.064c0.012-0.021,0.016-0.045,0.025-0.068c0.01-0.021,0.025-0.041,0.035-0.062
			c0.01-0.023,0.014-0.047,0.023-0.068c0.011-0.021,0.025-0.041,0.035-0.062c0.011-0.022,0.016-0.047,0.025-0.068
			c0.01-0.022,0.025-0.041,0.035-0.064c0.01-0.021,0.014-0.045,0.023-0.067c0.011-0.022,0.025-0.042,0.035-0.063
			c0.012-0.022,0.016-0.047,0.025-0.068s0.025-0.041,0.035-0.063s0.014-0.046,0.023-0.067c0.012-0.023,0.025-0.042,0.035-0.064
			c0.01-0.021,0.016-0.046,0.025-0.068c0.01-0.021,0.023-0.04,0.035-0.062c0.01-0.021,0.014-0.045,0.023-0.068
			c0.01-0.021,0.025-0.041,0.035-0.062c0.01-0.023,0.014-0.047,0.025-0.068c0.01-0.022,0.023-0.041,0.035-0.064
			c0.01-0.021,0.014-0.045,0.023-0.066c0.01-0.022,0.025-0.041,0.035-0.064c0.01-0.021,0.014-0.045,0.023-0.067
			c0.012-0.022,0.025-0.042,0.035-0.063c0.012-0.022,0.016-0.047,0.025-0.068s0.025-0.041,0.035-0.063s0.014-0.046,0.023-0.067
			c0.012-0.023,0.026-0.042,0.035-0.064c0.012-0.021,0.016-0.046,0.025-0.068c0.01-0.021,0.025-0.04,0.035-0.062
			c0.01-0.021,0.014-0.045,0.023-0.068c0.01-0.021,0.026-0.041,0.035-0.064c0.012-0.021,0.016-0.045,0.025-0.068
			c0.01-0.021,0.025-0.039,0.035-0.062c0.01-0.021,0.014-0.045,0.023-0.066c0.01-0.022,0.025-0.041,0.035-0.064
			c0.01-0.021,0.014-0.045,0.025-0.067c0.01-0.022,0.023-0.042,0.035-0.063c0.01-0.021,0.014-0.046,0.023-0.068
			c0.01-0.021,0.025-0.041,0.035-0.063s0.014-0.046,0.025-0.067c0.01-0.023,0.024-0.042,0.035-0.064
			c0.01-0.021,0.014-0.046,0.023-0.068c0.01-0.021,0.025-0.041,0.035-0.062c0.01-0.023,0.016-0.047,0.025-0.068
			s0.024-0.041,0.033-0.062c0.012-0.023,0.016-0.047,0.025-0.068c0.01-0.022,0.025-0.041,0.035-0.064
			c0.01-0.021,0.015-0.045,0.023-0.067c0.012-0.022,0.026-0.042,0.037-0.063c0.01-0.022,0.014-0.047,0.023-0.067
			c0.01-0.022,0.025-0.042,0.035-0.063s0.014-0.046,0.023-0.068c0.01-0.021,0.025-0.041,0.036-0.063
			c0.009-0.022,0.015-0.046,0.024-0.067c0.01-0.023,0.025-0.042,0.035-0.064c0.01-0.021,0.014-0.046,0.024-0.068
			c0.011-0.021,0.024-0.041,0.035-0.062c0.011-0.023,0.015-0.047,0.024-0.068c0.01-0.023,0.025-0.041,0.035-0.064
			c0.01-0.021,0.014-0.045,0.024-0.068c0.009-0.021,0.024-0.039,0.034-0.062c0.01-0.021,0.016-0.045,0.025-0.067
			s0.025-0.042,0.035-0.063c0.01-0.022,0.014-0.047,0.023-0.068c0.011-0.021,0.025-0.041,0.035-0.063
			c0.012-0.022,0.016-0.046,0.025-0.067s0.024-0.041,0.035-0.063c0.01-0.022,0.014-0.046,0.023-0.067
			c0.01-0.023,0.025-0.042,0.035-0.064c0.01-0.021,0.015-0.045,0.025-0.068c0.01-0.021,0.024-0.041,0.035-0.062
			c0.01-0.023,0.014-0.047,0.023-0.068c0.01-0.022,0.025-0.041,0.035-0.064c0.01-0.021,0.015-0.045,0.025-0.068
			c0.01-0.021,0.024-0.041,0.035-0.062c0.01-0.022,0.014-0.047,0.023-0.068s0.025-0.041,0.035-0.062
			c0.01-0.022,0.014-0.047,0.024-0.068s0.024-0.041,0.035-0.063c0.011-0.024,0.017-0.05,0.026-0.073
			c0.01-0.021,0.023-0.038,0.033-0.059c0.008-0.021,0.012-0.043,0.021-0.062c0.012-0.023,0.027-0.044,0.037-0.068
			c0.01-0.02,0.014-0.041,0.023-0.062c0.012-0.023,0.027-0.045,0.037-0.068c0.012-0.023,0.017-0.049,0.027-0.074
			c0.01-0.02,0.023-0.037,0.031-0.059c0.011-0.021,0.016-0.045,0.025-0.068c0.01-0.021,0.025-0.041,0.035-0.062
			c0.01-0.022,0.014-0.047,0.024-0.068c0.009-0.021,0.024-0.041,0.034-0.062c0.01-0.022,0.015-0.047,0.025-0.068
			c0.01-0.021,0.024-0.041,0.035-0.063c0.01-0.022,0.014-0.046,0.023-0.067c0.011-0.023,0.025-0.042,0.035-0.064
			c0.011-0.021,0.015-0.046,0.025-0.068c0.01-0.021,0.025-0.041,0.035-0.062c0.01-0.023,0.014-0.047,0.023-0.068
			s0.025-0.041,0.035-0.062c0.01-0.023,0.015-0.047,0.024-0.068c0.011-0.022,0.025-0.041,0.035-0.064
			c0.011-0.021,0.015-0.045,0.024-0.068c0.01-0.021,0.025-0.041,0.035-0.062c0.012-0.023,0.016-0.05,0.025-0.074
			c0.01-0.02,0.025-0.037,0.033-0.059c0.01-0.02,0.014-0.041,0.023-0.062c0.01-0.022,0.025-0.043,0.037-0.067
			c0.01-0.021,0.014-0.042,0.021-0.063c0.012-0.021,0.027-0.043,0.039-0.066c0.01-0.024,0.016-0.051,0.025-0.074
			c0.01-0.02,0.023-0.039,0.033-0.059c0.01-0.023,0.014-0.047,0.023-0.068c0.012-0.023,0.025-0.041,0.037-0.064
			c0.01-0.021,0.014-0.045,0.023-0.066c0.01-0.022,0.025-0.041,0.035-0.064c0.01-0.021,0.014-0.045,0.023-0.068
			c0.011-0.021,0.025-0.041,0.035-0.062c0.011-0.022,0.016-0.047,0.025-0.068s0.025-0.041,0.035-0.063s0.014-0.046,0.023-0.068
			c0.011-0.022,0.025-0.041,0.035-0.063c0.012-0.021,0.016-0.046,0.025-0.068c0.01-0.021,0.023-0.04,0.035-0.062
			c0.01-0.021,0.014-0.046,0.023-0.068c0.01-0.021,0.025-0.041,0.035-0.062c0.01-0.023,0.014-0.047,0.025-0.068
			c0.01-0.023,0.023-0.041,0.035-0.064c0.01-0.023,0.016-0.049,0.025-0.072c0.01-0.02,0.023-0.037,0.033-0.059
			c0.009-0.02,0.013-0.041,0.021-0.062c0.012-0.023,0.027-0.045,0.037-0.068c0.012-0.022,0.016-0.047,0.025-0.068
			s0.025-0.041,0.035-0.063s0.014-0.046,0.023-0.068c0.012-0.022,0.025-0.041,0.035-0.063c0.012-0.021,0.016-0.046,0.025-0.068
			c0.01-0.021,0.025-0.041,0.035-0.062c0.01-0.023,0.014-0.047,0.023-0.068c0.012-0.021,0.025-0.041,0.035-0.062
			c0.011-0.023,0.016-0.047,0.025-0.068c0.01-0.023,0.025-0.041,0.035-0.064c0.01-0.021,0.014-0.045,0.023-0.068
			c0.01-0.021,0.025-0.041,0.035-0.062c0.01-0.022,0.016-0.047,0.025-0.067c0.01-0.022,0.023-0.042,0.035-0.063
			c0.01-0.022,0.014-0.047,0.023-0.068s0.025-0.041,0.035-0.063s0.014-0.046,0.025-0.068c0.01-0.022,0.023-0.041,0.035-0.063
			c0.009-0.02,0.014-0.041,0.021-0.062c0.012-0.023,0.027-0.043,0.038-0.067s0.017-0.05,0.026-0.074
			c0.01-0.021,0.023-0.038,0.031-0.058c0.012-0.023,0.016-0.047,0.025-0.068c0.01-0.022,0.025-0.041,0.035-0.064
			c0.01-0.02,0.014-0.041,0.021-0.062c0.012-0.022,0.027-0.043,0.039-0.066c0.012-0.026,0.018-0.055,0.027-0.08
			c0.01-0.02,0.022-0.035,0.031-0.055c0.01-0.02,0.014-0.041,0.021-0.062c0.012-0.023,0.027-0.045,0.039-0.068
			c0.01-0.021,0.014-0.046,0.023-0.066c0.01-0.023,0.025-0.042,0.035-0.064c0.01-0.021,0.014-0.046,0.023-0.068
			c0.01-0.021,0.025-0.041,0.036-0.062c0.009-0.021,0.013-0.043,0.022-0.063c0.011-0.022,0.027-0.044,0.037-0.067
			c0.012-0.023,0.018-0.049,0.026-0.074c0.011-0.02,0.024-0.039,0.034-0.059c0.01-0.022,0.014-0.047,0.023-0.068
			s0.025-0.041,0.035-0.062c0.01-0.022,0.014-0.047,0.023-0.068c0.01-0.022,0.025-0.041,0.035-0.063s0.016-0.046,0.025-0.068
			s0.025-0.041,0.035-0.063c0.01-0.021,0.014-0.046,0.023-0.066c0.01-0.023,0.025-0.042,0.035-0.064
			c0.01-0.021,0.015-0.046,0.025-0.068c0.01-0.021,0.024-0.041,0.035-0.062c0.01-0.023,0.014-0.047,0.023-0.068
			c0.01-0.023,0.025-0.041,0.035-0.064c0.01-0.021,0.015-0.045,0.025-0.068c0.01-0.021,0.023-0.039,0.035-0.062
			c0.01-0.021,0.014-0.045,0.023-0.068c0.01-0.021,0.025-0.041,0.035-0.062c0.01-0.022,0.014-0.047,0.025-0.068
			c0.01-0.021,0.023-0.041,0.034-0.063s0.015-0.046,0.024-0.067s0.025-0.041,0.035-0.063s0.015-0.047,0.023-0.067
			c0.012-0.023,0.026-0.043,0.036-0.064c0.011-0.025,0.017-0.051,0.026-0.074c0.01-0.02,0.023-0.037,0.033-0.057
			c0.008-0.021,0.012-0.043,0.021-0.064c0.012-0.023,0.027-0.043,0.037-0.068c0.011-0.021,0.016-0.045,0.025-0.068
			c0.01-0.021,0.024-0.039,0.035-0.062c0.01-0.021,0.014-0.045,0.023-0.068c0.01-0.021,0.025-0.041,0.035-0.062
			c0.01-0.022,0.015-0.047,0.025-0.068c0.01-0.021,0.024-0.041,0.035-0.063c0.01-0.022,0.014-0.046,0.023-0.068
			s0.025-0.041,0.035-0.063c0.011-0.021,0.015-0.046,0.025-0.068c0.01-0.021,0.024-0.041,0.035-0.062
			c0.01-0.023,0.014-0.047,0.023-0.068c0.011-0.023,0.025-0.041,0.035-0.064c0.011-0.021,0.016-0.045,0.024-0.066
			c0.011-0.023,0.025-0.041,0.035-0.064c0.011-0.021,0.015-0.045,0.024-0.068c0.01-0.021,0.025-0.039,0.035-0.062
			c0.01-0.021,0.014-0.045,0.024-0.067c0.01-0.022,0.024-0.042,0.035-0.063c0.009-0.021,0.014-0.042,0.022-0.062
			c0.012-0.023,0.027-0.045,0.037-0.068C349.672,72.112,349.677,72.086,349.688,72.062z"/>
		<path fill="#33495F" d="M349.957,71.479c1.595-3.521-6.736-10.734-18.612-16.109c-11.874-5.375-22.792-6.877-24.386-3.355
			c-0.604,1.332,0.217,3.193,2.109,5.283l-11.959,26.419c0.645,0.712,1.414,1.45,2.295,2.202l11.959-26.42
			c1.389,1.189,3.056,2.414,4.943,3.629l-11.958,26.42c0.819,0.527,1.683,1.053,2.581,1.572l11.959-26.42
			c1.656,0.959,3.439,1.896,5.322,2.791l-11.959,26.42c0.447,0.213,0.901,0.425,1.359,0.633c0.461,0.207,0.918,0.408,1.374,0.604
			l11.96-26.419c1.916,0.825,3.795,1.545,5.609,2.157l-11.959,26.42c0.982,0.332,1.947,0.634,2.885,0.902l11.959-26.42
			c2.16,0.617,4.178,1.061,5.988,1.321l-11.96,26.419c1.147,0.165,2.21,0.257,3.171,0.271l11.959-26.42
			C347.416,73.422,349.355,72.811,349.957,71.479z"/>
		<g>
			<path fill="#2A3E4F" d="M215.801,106.938c0.525,1.404-0.187,2.971-1.592,3.496l-6.662,2.498c-1.404,0.527-2.971-0.184-3.496-1.59
				l-6.197-16.531c-0.527-1.405,0.185-2.971,1.59-3.497l6.662-2.499c1.404-0.525,2.971,0.186,3.496,1.59L215.801,106.938z"/>
			<path fill="#2A3E4F" d="M212.478,82.215c-0.003-0.012-0.005-0.021-0.009-0.033s-0.012-0.021-0.016-0.032s-0.006-0.023-0.01-0.034
				c-0.004-0.012-0.01-0.021-0.014-0.031c-0.002-0.012-0.006-0.025-0.011-0.038s-0.013-0.024-0.019-0.038
				c-0.003-0.01-0.004-0.018-0.008-0.029c-0.003-0.01,0.033,0.099,0.029,0.088c-0.004-0.013,0.033,0.078,0.033,0.078
				c-0.703-1.879-5.141,1.393-11.266,3.691c-6.127,2.295-11.621,2.746-10.916,4.627c0,0-0.033-0.096-0.029-0.086
				c0.004,0.012-0.016-0.033-0.012-0.023c0.005,0.012,0-0.008,0.004,0.004c0.005,0.011,0.001,0.008,0.005,0.021
				c0.003,0.012,0.009,0.014,0.014,0.024c0.003,0.013,0.004,0.02,0.009,0.031c0.002,0.014,0.01,0.02,0.014,0.031
				c0.005,0.012,0.006,0.021,0.008,0.034c0.006,0.013,0.014,0.024,0.02,0.036c0.002,0.01,0.004,0.021,0.008,0.031
				c0.004,0.012,0.012,0.021,0.016,0.033s0.008,0.023,0.01,0.035c0.004,0.01,0.011,0.02,0.015,0.029
				c0.004,0.013,0.005,0.026,0.011,0.038c0.004,0.012,0.012,0.021,0.016,0.032c0.002,0.012,0.006,0.025,0.01,0.035
				s0.01,0.02,0.014,0.031s0.006,0.023,0.012,0.037c0.005,0.012,0.011,0.021,0.016,0.034c0.004,0.011,0.006,0.022,0.008,0.032
				c0.006,0.014,0.013,0.023,0.016,0.033c0.006,0.012,0.008,0.025,0.012,0.037c0.002,0.01,0.01,0.019,0.014,0.029
				c0.006,0.012,0.007,0.025,0.012,0.037c0.005,0.014,0.012,0.023,0.016,0.036c0.004,0.011,0.006,0.021,0.01,0.032
				s0.012,0.021,0.016,0.032c0.004,0.012,0.006,0.024,0.01,0.034c0.004,0.014,0.012,0.023,0.016,0.033
				c0.004,0.012,0.006,0.023,0.009,0.037c0.005,0.01,0.011,0.02,0.015,0.031c0.006,0.012,0.008,0.023,0.012,0.035
				c0.005,0.012,0.01,0.02,0.016,0.029c0.002,0.014,0.006,0.027,0.008,0.037c0.006,0.014,0.014,0.024,0.018,0.036
				c0.004,0.011,0.006,0.022,0.01,0.034s0.012,0.021,0.016,0.031c0.004,0.012,0.004,0.023,0.01,0.035
				c0.004,0.012,0.012,0.021,0.016,0.033s0.006,0.023,0.01,0.035c0.005,0.012,0.012,0.021,0.018,0.035
				c0.002,0.01,0.004,0.021,0.01,0.033c0.004,0.01,0.008,0.018,0.012,0.029c0.006,0.012,0.006,0.025,0.012,0.037
				c0.004,0.012,0.011,0.021,0.017,0.033c0.003,0.012,0.005,0.023,0.009,0.035s0.012,0.021,0.016,0.033
				c0.004,0.011,0.006,0.021,0.011,0.033c0.003,0.013,0.011,0.023,0.015,0.034s0.007,0.023,0.01,0.034
				c0.004,0.014,0.014,0.023,0.016,0.035c0.004,0.012,0.006,0.022,0.01,0.033s0.01,0.02,0.016,0.029
				c0.005,0.014,0.006,0.027,0.01,0.039c0.006,0.012,0.012,0.021,0.016,0.031c0.004,0.012,0.006,0.023,0.01,0.035
				s0.012,0.023,0.016,0.033c0.004,0.012,0.006,0.025,0.01,0.037c0.006,0.012,0.011,0.02,0.016,0.031
				c0.004,0.012,0.006,0.023,0.01,0.035s0.012,0.021,0.016,0.033s0.006,0.023,0.01,0.034c0.005,0.012,0.012,0.022,0.016,0.032
				c0.004,0.012,0.006,0.025,0.01,0.035s0.011,0.02,0.014,0.031c0.006,0.012,0.006,0.025,0.012,0.037
				c0.006,0.014,0.012,0.023,0.016,0.035c0.006,0.012,0.008,0.023,0.012,0.033c0.002,0.012,0.01,0.021,0.014,0.033
				c0.004,0.011,0.006,0.021,0.011,0.034c0.004,0.011,0.011,0.021,0.015,0.034c0.004,0.01,0.007,0.023,0.01,0.033
				c0.006,0.012,0.012,0.023,0.016,0.033c0.004,0.012,0.007,0.023,0.012,0.035c0.004,0.012,0.009,0.021,0.014,0.033
				c0.004,0.012,0.006,0.023,0.012,0.033c0.004,0.014,0.011,0.023,0.016,0.035c0.002,0.01,0.004,0.021,0.008,0.034
				c0.006,0.013,0.012,0.021,0.016,0.032c0.006,0.012,0.006,0.025,0.012,0.037c0.003,0.01,0.01,0.02,0.016,0.031
				c0.002,0.012,0.004,0.023,0.008,0.035c0.004,0.01,0.012,0.021,0.017,0.031c0.003,0.012,0.005,0.024,0.009,0.036
				c0.006,0.012,0.012,0.022,0.016,0.032c0.006,0.012,0.006,0.025,0.01,0.036c0.004,0.012,0.012,0.021,0.016,0.032
				c0.006,0.012,0.004,0.023,0.01,0.035c0.004,0.012,0.012,0.021,0.016,0.032c0.005,0.013,0.006,0.024,0.012,0.036
				c0.004,0.011,0.01,0.02,0.016,0.031c0.003,0.013,0.004,0.023,0.01,0.036c0.003,0.011,0.01,0.021,0.014,0.031
				c0.004,0.013,0.008,0.026,0.012,0.036c0.004,0.014,0.011,0.021,0.014,0.034c0.004,0.011,0.008,0.022,0.011,0.034
				c0.003,0.011,0.011,0.02,0.015,0.029c0.004,0.014,0.006,0.025,0.012,0.037c0.004,0.014,0.01,0.025,0.016,0.037
				c0.002,0.01,0.004,0.021,0.008,0.032c0.005,0.011,0.012,0.021,0.018,0.032c0.004,0.012,0.005,0.023,0.009,0.035
				c0.005,0.012,0.011,0.021,0.017,0.033c0.004,0.012,0.005,0.021,0.008,0.035c0.004,0.011,0.012,0.021,0.018,0.032
				c0.004,0.011,0.004,0.024,0.01,0.036c0.004,0.011,0.012,0.021,0.015,0.031c0.005,0.012,0.007,0.025,0.009,0.036
				c0.006,0.011,0.01,0.021,0.016,0.032s0.008,0.023,0.01,0.035c0.004,0.012,0.012,0.021,0.016,0.033s0.007,0.022,0.012,0.035
				c0.004,0.011,0.01,0.021,0.014,0.031c0.005,0.014,0.006,0.023,0.012,0.037c0.004,0.01,0.01,0.02,0.016,0.031
				c0.004,0.012,0.006,0.025,0.01,0.035c0.006,0.014,0.012,0.021,0.016,0.033c0.002,0.012,0.006,0.023,0.01,0.035
				c0.002,0.012,0.01,0.021,0.014,0.032c0.006,0.012,0.007,0.022,0.012,0.034s0.01,0.022,0.016,0.033
				c0.002,0.012,0.006,0.023,0.008,0.037c0.006,0.01,0.013,0.02,0.018,0.031c0.004,0.012,0.005,0.023,0.01,0.035
				c0.004,0.012,0.01,0.021,0.014,0.033c0.006,0.012,0.006,0.023,0.012,0.035c0.004,0.011,0.01,0.021,0.016,0.032
				c0.004,0.011,0.006,0.024,0.01,0.036c0.004,0.01,0.012,0.021,0.016,0.031c0.004,0.012,0.006,0.023,0.01,0.036
				c0.004,0.011,0.01,0.021,0.016,0.032c0.004,0.012,0.006,0.023,0.01,0.035c0.002,0.012,0.012,0.021,0.014,0.033
				c0.006,0.01,0.007,0.023,0.012,0.034c0.004,0.012,0.01,0.022,0.014,0.032c0.006,0.012,0.008,0.024,0.01,0.035
				c0.006,0.012,0.013,0.021,0.018,0.033c0.004,0.012,0.006,0.023,0.01,0.035s0.012,0.023,0.017,0.035
				c0.004,0.01,0.005,0.022,0.009,0.031c0.004,0.012,0.01,0.021,0.014,0.032c0.006,0.013,0.008,0.024,0.012,0.036
				s0.012,0.021,0.016,0.033c0.003,0.012,0.006,0.024,0.01,0.035c0.004,0.012,0.012,0.021,0.016,0.033s0.006,0.023,0.01,0.035
				c0.006,0.012,0.012,0.022,0.018,0.035c0.002,0.011,0.004,0.021,0.008,0.031c0.004,0.012,0.01,0.021,0.016,0.031
				c0.004,0.012,0.006,0.025,0.01,0.037s0.01,0.02,0.014,0.03c0.005,0.013,0.006,0.026,0.012,0.038
				c0.004,0.013,0.012,0.023,0.016,0.035s0.006,0.021,0.01,0.033c0.004,0.01,0.012,0.021,0.016,0.031
				c0.004,0.012,0.006,0.023,0.01,0.036c0.005,0.012,0.01,0.022,0.014,0.032c0.007,0.012,0.008,0.024,0.012,0.037
				c0.005,0.01,0.01,0.019,0.016,0.027c0.003,0.014,0.004,0.027,0.008,0.039c0.006,0.013,0.014,0.023,0.02,0.035
				c0.002,0.01,0.004,0.023,0.008,0.032c0.004,0.011,0.011,0.022,0.016,0.032c0.004,0.012,0.006,0.023,0.01,0.035
				s0.012,0.021,0.014,0.033c0.006,0.012,0.008,0.023,0.012,0.035s0.012,0.021,0.016,0.033s0.006,0.023,0.01,0.035
				s0.012,0.021,0.016,0.033c0.004,0.011,0.006,0.021,0.01,0.033s0.012,0.021,0.016,0.035c0.004,0.01,0.006,0.021,0.01,0.033
				s0.01,0.021,0.016,0.033c0.004,0.012,0.006,0.023,0.011,0.035c0.003,0.012,0.01,0.021,0.015,0.033
				c0.004,0.012,0.004,0.022,0.01,0.034c0.004,0.011,0.012,0.022,0.016,0.032c0.004,0.012,0.006,0.023,0.01,0.037
				c0.006,0.011,0.012,0.021,0.016,0.031c0.006,0.012,0.006,0.024,0.01,0.035c0.005,0.012,0.012,0.021,0.016,0.033
				s0.006,0.023,0.01,0.035c0.005,0.011,0.011,0.021,0.016,0.031c0.004,0.012,0.006,0.023,0.011,0.037
				c0.003,0.01,0.011,0.021,0.015,0.031c0.006,0.012,0.006,0.023,0.01,0.035s0.012,0.021,0.014,0.033
				c0.006,0.011,0.008,0.024,0.012,0.035c0.005,0.012,0.012,0.021,0.018,0.033c0.002,0.012,0.004,0.023,0.008,0.035
				c0.006,0.012,0.012,0.021,0.016,0.033c0.004,0.01,0.006,0.021,0.012,0.033c0.002,0.012,0.01,0.021,0.014,0.031
				c0.004,0.014,0.006,0.025,0.01,0.036c0.004,0.013,0.012,0.021,0.016,0.034c0.004,0.012,0.006,0.023,0.01,0.034
				c0.004,0.013,0.01,0.022,0.016,0.033c0.004,0.011,0.006,0.022,0.011,0.034c0.003,0.012,0.011,0.022,0.015,0.033
				c0.004,0.012,0.006,0.023,0.01,0.036c0.004,0.011,0.012,0.021,0.016,0.032c0.006,0.012,0.008,0.023,0.01,0.035
				c0.006,0.012,0.012,0.021,0.016,0.033c0.006,0.012,0.006,0.023,0.01,0.035c0.006,0.012,0.012,0.021,0.016,0.033
				c0.004,0.01,0.006,0.021,0.012,0.035c0.003,0.01,0.01,0.02,0.014,0.031c0.005,0.011,0.006,0.024,0.01,0.035
				c0.006,0.012,0.011,0.021,0.016,0.032c0.004,0.012,0.006,0.024,0.01,0.036c0.006,0.012,0.013,0.021,0.018,0.031
				c0.002,0.014,0.004,0.023,0.009,0.035s0.011,0.022,0.015,0.033c0.004,0.012,0.006,0.024,0.01,0.035
				c0.004,0.012,0.012,0.021,0.016,0.033c0.006,0.012,0.006,0.023,0.01,0.035c0.006,0.012,0.012,0.021,0.016,0.033
				c0.005,0.012,0.006,0.023,0.01,0.035s0.012,0.021,0.018,0.032c0.002,0.011,0.004,0.023,0.01,0.034
				c0.002,0.013,0.012,0.022,0.014,0.035c0.004,0.01,0.006,0.021,0.01,0.034c0.006,0.012,0.01,0.021,0.016,0.032
				s0.006,0.023,0.01,0.035c0.006,0.012,0.013,0.021,0.017,0.033c0.005,0.012,0.005,0.023,0.009,0.033
				c0.006,0.013,0.012,0.023,0.016,0.033c0.004,0.012,0.006,0.024,0.012,0.037c0.004,0.01,0.01,0.02,0.014,0.031
				c0.006,0.012,0.006,0.023,0.012,0.036c0.004,0.011,0.01,0.02,0.014,0.031c0.005,0.012,0.006,0.024,0.012,0.036
				c0.004,0.012,0.012,0.021,0.016,0.033c0.004,0.01,0.004,0.023,0.009,0.033c0.003,0.012,0.012,0.023,0.015,0.033
				c0.006,0.012,0.008,0.024,0.012,0.036c0.004,0.011,0.01,0.021,0.014,0.032c0.006,0.012,0.007,0.023,0.01,0.035
				c0.004,0.011,0.012,0.021,0.018,0.032c0.003,0.013,0.004,0.024,0.01,0.034c0.004,0.014,0.01,0.021,0.016,0.034
				c0.004,0.011,0.004,0.023,0.01,0.034c0.004,0.012,0.011,0.021,0.016,0.033c0.002,0.012,0.006,0.023,0.01,0.035
				s0.012,0.021,0.014,0.033c0.004,0.012,0.008,0.023,0.012,0.034c0.005,0.013,0.012,0.021,0.015,0.032
				c0.005,0.013,0.007,0.023,0.009,0.036c0.006,0.011,0.012,0.022,0.016,0.033c0.005,0.011,0.007,0.022,0.012,0.034
				c0.004,0.013,0.012,0.021,0.016,0.033s0.004,0.023,0.008,0.035c0.006,0.012,0.012,0.021,0.016,0.032
				c0.006,0.012,0.006,0.022,0.012,0.036c0.004,0.011,0.012,0.021,0.016,0.031c0.004,0.012,0.004,0.023,0.01,0.035
				c0.003,0.012,0.011,0.021,0.016,0.032c0.004,0.012,0.004,0.024,0.01,0.036c0.004,0.012,0.01,0.021,0.016,0.032
				c0.004,0.013,0.006,0.024,0.009,0.036c0.005,0.012,0.013,0.021,0.017,0.032c0.004,0.012,0.004,0.024,0.01,0.034
				c0.004,0.012,0.01,0.022,0.016,0.033c0.004,0.012,0.004,0.023,0.01,0.035c0.004,0.012,0.012,0.021,0.014,0.033
				c0.006,0.01,0.008,0.023,0.012,0.035s0.01,0.021,0.016,0.032c0.004,0.013,0.006,0.024,0.01,0.035
				c0.005,0.013,0.012,0.021,0.015,0.034c0.004,0.01,0.007,0.023,0.011,0.033c0.005,0.012,0.01,0.023,0.015,0.033
				c0.005,0.012,0.007,0.023,0.011,0.035c0.004,0.013,0.011,0.021,0.015,0.032c0.005,0.013,0.007,0.024,0.011,0.034
				c0.004,0.013,0.01,0.023,0.014,0.034c0.006,0.012,0.007,0.022,0.012,0.034c0.005,0.013,0.01,0.023,0.016,0.033
				c0.004,0.012,0.004,0.023,0.01,0.035c0.004,0.012,0.011,0.021,0.016,0.033c0.004,0.011,0.004,0.023,0.01,0.035
				c0.004,0.012,0.012,0.021,0.016,0.032c0.004,0.013,0.006,0.024,0.01,0.036s0.012,0.021,0.016,0.033
				c0.004,0.01,0.006,0.021,0.01,0.033c0.005,0.012,0.01,0.022,0.016,0.033c0.004,0.012,0.006,0.023,0.01,0.035
				s0.011,0.021,0.014,0.033c0.006,0.01,0.008,0.023,0.012,0.035c0.004,0.011,0.01,0.02,0.016,0.032
				c0.002,0.013,0.006,0.024,0.01,0.034c0.006,0.012,0.01,0.021,0.016,0.033c0.004,0.012,0.006,0.023,0.01,0.035
				s0.012,0.021,0.015,0.033c0.005,0.012,0.007,0.023,0.013,0.035c0.002,0.013,0.01,0.021,0.012,0.033
				c0.006,0.012,0.008,0.023,0.012,0.033c0.004,0.014,0.012,0.023,0.016,0.035s0.006,0.021,0.01,0.035
				c0.004,0.01,0.013,0.021,0.016,0.033c0.003,0.01,0.006,0.021,0.01,0.033s0.012,0.021,0.016,0.033s0.006,0.021,0.01,0.035
				c0.004,0.012,0.012,0.021,0.016,0.032c0.004,0.012,0.006,0.024,0.01,0.036s0.012,0.021,0.016,0.033
				c0.006,0.01,0.006,0.023,0.01,0.033c0.005,0.012,0.012,0.021,0.016,0.033c0.004,0.011,0.006,0.023,0.01,0.035
				c0.004,0.011,0.011,0.021,0.016,0.031c0.004,0.012,0.006,0.025,0.01,0.035c0.004,0.013,0.011,0.021,0.016,0.034
				c0.004,0.013,0.006,0.023,0.01,0.034c0.004,0.012,0.01,0.021,0.016,0.033c0.004,0.012,0.006,0.023,0.01,0.035
				s0.012,0.021,0.016,0.033s0.006,0.023,0.01,0.035c0.005,0.011,0.012,0.021,0.016,0.033c0.004,0.012,0.006,0.023,0.01,0.033
				c0.004,0.013,0.012,0.021,0.016,0.033s0.006,0.023,0.01,0.035s0.01,0.023,0.014,0.033c0.006,0.011,0.008,0.023,0.013,0.035
				c0.003,0.012,0.011,0.021,0.015,0.033c0.006,0.012,0.006,0.022,0.01,0.035c0.006,0.012,0.014,0.02,0.016,0.033
				c0.005,0.011,0.006,0.021,0.01,0.033c0.006,0.012,0.012,0.023,0.018,0.033c0.004,0.012,0.004,0.024,0.008,0.036
				c0.006,0.011,0.012,0.021,0.016,0.032c0.006,0.012,0.006,0.023,0.01,0.035s0.012,0.021,0.016,0.031
				c0.006,0.013,0.006,0.025,0.01,0.035c0.005,0.014,0.012,0.021,0.016,0.034c0.005,0.011,0.008,0.024,0.01,0.034
				c0.006,0.012,0.01,0.021,0.017,0.033c0.004,0.01,0.005,0.023,0.009,0.035c0.005,0.011,0.013,0.021,0.016,0.032
				c0.004,0.013,0.006,0.023,0.01,0.035c0.004,0.011,0.012,0.021,0.016,0.032c0.006,0.013,0.006,0.025,0.011,0.035
				c0.005,0.013,0.011,0.021,0.015,0.033c0.006,0.012,0.006,0.024,0.01,0.035c0.006,0.012,0.012,0.021,0.018,0.033
				c0.002,0.012,0.004,0.023,0.01,0.035c0.003,0.012,0.01,0.021,0.014,0.033c0.006,0.012,0.006,0.021,0.012,0.034
				c0.004,0.012,0.012,0.021,0.014,0.034c0.004,0.01,0.006,0.021,0.01,0.033c0.006,0.012,0.012,0.023,0.018,0.035
				c0.004,0.01,0.004,0.022,0.008,0.033c0.004,0.012,0.012,0.021,0.016,0.032c0.006,0.012,0.006,0.024,0.01,0.036
				c0.005,0.012,0.012,0.021,0.016,0.031c0.006,0.013,0.006,0.025,0.01,0.036c0.006,0.011,0.012,0.021,0.018,0.032
				c0.004,0.012,0.006,0.023,0.01,0.035s0.01,0.021,0.016,0.033c0.004,0.01,0.004,0.023,0.01,0.035
				c0.002,0.012,0.011,0.021,0.016,0.033c0.004,0.01,0.005,0.023,0.009,0.034c0.003,0.011,0.012,0.021,0.015,0.032
				c0.004,0.012,0.008,0.025,0.011,0.035c0.005,0.012,0.011,0.022,0.017,0.033c0.004,0.012,0.005,0.023,0.01,0.035
				c0.004,0.012,0.01,0.021,0.014,0.032c0.004,0.012,0.006,0.024,0.012,0.036c0.004,0.012,0.012,0.021,0.016,0.031
				c0.004,0.014,0.004,0.025,0.009,0.035c0.005,0.013,0.013,0.021,0.015,0.034c0.004,0.011,0.006,0.023,0.012,0.034
				c0.002,0.012,0.01,0.023,0.014,0.033c0.006,0.012,0.006,0.023,0.012,0.035c0.004,0.012,0.011,0.021,0.014,0.033
				c0.006,0.011,0.006,0.021,0.01,0.033c0.006,0.012,0.013,0.023,0.016,0.033c0.006,0.014,0.007,0.023,0.01,0.035
				c0.006,0.012,0.012,0.022,0.018,0.033c0.004,0.012,0.006,0.023,0.01,0.035s0.01,0.021,0.014,0.033
				c0.006,0.01,0.006,0.023,0.012,0.035c0.004,0.011,0.011,0.021,0.016,0.032c0.004,0.011,0.006,0.024,0.01,0.036
				c0.004,0.01,0.01,0.02,0.016,0.031c0.004,0.012,0.006,0.023,0.01,0.035s0.01,0.022,0.014,0.033
				c0.006,0.012,0.008,0.023,0.012,0.035s0.01,0.021,0.014,0.033c0.006,0.01,0.006,0.023,0.012,0.034
				c0.004,0.012,0.012,0.021,0.016,0.033c0.004,0.013,0.004,0.022,0.01,0.034c0.004,0.012,0.01,0.021,0.016,0.033
				c0.004,0.012,0.004,0.023,0.01,0.035c0.004,0.012,0.012,0.021,0.014,0.033c0.006,0.011,0.008,0.023,0.012,0.035
				s0.012,0.02,0.016,0.033c0.004,0.011,0.004,0.023,0.01,0.033c0.004,0.014,0.011,0.023,0.015,0.034
				c0.005,0.011,0.007,0.023,0.011,0.034c0.004,0.012,0.011,0.021,0.016,0.033c0.004,0.012,0.006,0.023,0.01,0.035
				s0.01,0.021,0.014,0.031c0.006,0.012,0.007,0.023,0.012,0.037c0.682,1.816,6.199,1.428,12.324-0.869
				c6.127-2.296,10.539-5.631,9.858-7.449c-0.005-0.01-0.011-0.02-0.015-0.031c-0.006-0.012-0.006-0.023-0.012-0.035
				c-0.004-0.012-0.01-0.022-0.016-0.033c-0.004-0.012-0.006-0.023-0.008-0.035c-0.005-0.012-0.014-0.021-0.017-0.033
				c-0.004-0.01-0.007-0.023-0.011-0.034c-0.004-0.012-0.01-0.021-0.016-0.032c-0.004-0.012-0.006-0.023-0.01-0.036
				c-0.004-0.011-0.01-0.021-0.016-0.032c-0.003-0.012-0.004-0.023-0.01-0.035c-0.004-0.012-0.012-0.021-0.016-0.033
				c-0.004-0.01-0.006-0.023-0.01-0.035s-0.01-0.021-0.015-0.031c-0.005-0.013-0.006-0.023-0.01-0.035
				c-0.005-0.012-0.011-0.021-0.017-0.033c-0.004-0.012-0.004-0.023-0.01-0.035c-0.004-0.011-0.012-0.021-0.016-0.033
				s-0.006-0.023-0.01-0.035c-0.004-0.01-0.012-0.021-0.015-0.032c-0.005-0.012-0.007-0.024-0.01-0.035
				c-0.005-0.013-0.013-0.021-0.017-0.034c-0.002-0.01-0.006-0.021-0.01-0.033c-0.002-0.012-0.01-0.021-0.014-0.033
				c-0.006-0.012-0.008-0.023-0.012-0.035s-0.012-0.022-0.016-0.033c-0.004-0.012-0.006-0.022-0.01-0.035
				c-0.004-0.01-0.012-0.021-0.016-0.033c-0.004-0.01-0.006-0.021-0.01-0.034c-0.004-0.012-0.012-0.021-0.016-0.032
				c-0.004-0.012-0.005-0.023-0.009-0.036c-0.005-0.011-0.011-0.021-0.015-0.032c-0.006-0.012-0.008-0.022-0.012-0.035
				c-0.004-0.012-0.012-0.021-0.016-0.033c-0.003-0.01-0.006-0.023-0.01-0.034s-0.011-0.021-0.016-0.032
				c-0.004-0.012-0.006-0.023-0.01-0.035s-0.01-0.021-0.016-0.033c-0.004-0.012-0.004-0.023-0.01-0.035
				c-0.004-0.012-0.012-0.021-0.016-0.032c-0.004-0.012-0.006-0.024-0.01-0.036s-0.012-0.021-0.016-0.032
				c-0.003-0.011-0.006-0.022-0.01-0.034c-0.004-0.011-0.011-0.021-0.016-0.033c-0.002-0.012-0.005-0.023-0.01-0.034
				c-0.002-0.013-0.012-0.022-0.016-0.034s-0.006-0.023-0.012-0.035c-0.002-0.012-0.01-0.022-0.014-0.033
				c-0.004-0.01-0.006-0.022-0.01-0.035c-0.004-0.01-0.01-0.021-0.016-0.033c-0.004-0.01-0.007-0.021-0.01-0.033
				c-0.006-0.013-0.012-0.022-0.016-0.033c-0.004-0.012-0.006-0.023-0.01-0.035s-0.012-0.021-0.016-0.033s-0.006-0.022-0.01-0.035
				c-0.004-0.01-0.012-0.021-0.016-0.033c-0.006-0.01-0.006-0.023-0.01-0.035c-0.004-0.01-0.012-0.02-0.016-0.031
				s-0.004-0.023-0.01-0.035c-0.004-0.012-0.012-0.021-0.018-0.033c-0.002-0.011-0.004-0.023-0.01-0.035
				c-0.002-0.012-0.01-0.021-0.014-0.033c-0.004-0.01-0.006-0.023-0.01-0.035c-0.006-0.01-0.01-0.02-0.016-0.031
				c-0.004-0.012-0.006-0.024-0.01-0.035c-0.006-0.012-0.012-0.021-0.016-0.033c-0.003-0.012-0.006-0.023-0.01-0.034
				c-0.003-0.013-0.012-0.022-0.014-0.034c-0.006-0.012-0.008-0.023-0.014-0.035c-0.004-0.01-0.01-0.021-0.014-0.033
				c-0.005-0.01-0.006-0.023-0.012-0.033c-0.002-0.012-0.01-0.021-0.014-0.033s-0.006-0.023-0.011-0.035s-0.011-0.021-0.015-0.033
				s-0.006-0.021-0.01-0.034s-0.011-0.022-0.016-0.034c-0.004-0.012-0.006-0.022-0.01-0.035c-0.005-0.011-0.012-0.021-0.016-0.033
				c-0.004-0.01-0.006-0.021-0.01-0.033s-0.012-0.021-0.016-0.033c-0.006-0.012-0.006-0.024-0.01-0.035
				c-0.006-0.012-0.012-0.021-0.016-0.033c-0.006-0.011-0.006-0.023-0.012-0.035c-0.004-0.012-0.01-0.021-0.014-0.033
				c-0.004-0.01-0.006-0.023-0.011-0.035c-0.003-0.01-0.011-0.021-0.016-0.031c-0.003-0.012-0.006-0.024-0.01-0.035
				c-0.003-0.012-0.009-0.021-0.015-0.033c-0.004-0.012-0.006-0.023-0.01-0.035c-0.004-0.011-0.012-0.021-0.016-0.031
				c-0.006-0.014-0.006-0.025-0.012-0.037c-0.004-0.012-0.011-0.021-0.014-0.031c-0.005-0.012-0.006-0.023-0.01-0.035
				c-0.006-0.012-0.012-0.021-0.016-0.033s-0.006-0.023-0.012-0.035c-0.004-0.011-0.01-0.022-0.016-0.033
				c-0.002-0.012-0.004-0.022-0.01-0.035c-0.002-0.012-0.01-0.021-0.014-0.033c-0.005-0.01-0.006-0.022-0.012-0.033
				c-0.004-0.013-0.01-0.022-0.014-0.033c-0.004-0.012-0.008-0.023-0.01-0.035c-0.006-0.012-0.012-0.021-0.016-0.033
				c-0.006-0.012-0.006-0.021-0.01-0.035c-0.005-0.012-0.012-0.021-0.016-0.032c-0.006-0.013-0.006-0.024-0.012-0.036
				c-0.002-0.01-0.01-0.021-0.014-0.032c-0.005-0.011-0.006-0.024-0.01-0.034c-0.004-0.012-0.012-0.021-0.017-0.033
				c-0.003-0.012-0.006-0.024-0.01-0.035s-0.011-0.021-0.015-0.033c-0.004-0.01-0.006-0.022-0.011-0.035
				c-0.003-0.011-0.011-0.021-0.015-0.033c-0.006-0.012-0.007-0.023-0.012-0.035c-0.004-0.012-0.01-0.021-0.014-0.031
				c-0.004-0.012-0.008-0.023-0.01-0.035c-0.006-0.012-0.012-0.021-0.016-0.033c-0.005-0.012-0.006-0.023-0.012-0.035
				c-0.004-0.012-0.01-0.021-0.016-0.032c-0.004-0.013-0.004-0.023-0.01-0.036c-0.004-0.01-0.01-0.021-0.014-0.031
				c-0.004-0.012-0.007-0.024-0.012-0.035c-0.004-0.012-0.01-0.021-0.014-0.033s-0.008-0.023-0.012-0.035s-0.01-0.021-0.016-0.033
				c-0.004-0.012-0.004-0.022-0.009-0.035c-0.004-0.012-0.011-0.021-0.017-0.033c-0.004-0.012-0.005-0.022-0.01-0.034
				c-0.004-0.012-0.01-0.022-0.014-0.033c-0.006-0.011-0.008-0.022-0.012-0.034s-0.01-0.021-0.016-0.033
				c-0.003-0.012-0.004-0.023-0.009-0.035s-0.011-0.021-0.017-0.033c-0.004-0.01-0.004-0.022-0.009-0.035
				c-0.004-0.011-0.013-0.021-0.017-0.032c-0.004-0.013-0.005-0.024-0.011-0.036c-0.003-0.01-0.009-0.021-0.015-0.031
				c-0.002-0.012-0.006-0.023-0.008-0.035c-0.006-0.012-0.012-0.021-0.018-0.032c-0.004-0.013-0.006-0.024-0.01-0.036
				s-0.01-0.021-0.016-0.033c-0.004-0.01-0.005-0.022-0.01-0.035c-0.004-0.011-0.012-0.021-0.016-0.031
				c-0.004-0.012-0.005-0.025-0.01-0.036c-0.004-0.011-0.012-0.021-0.014-0.032c-0.004-0.012-0.008-0.023-0.012-0.035
				c-0.005-0.012-0.012-0.021-0.016-0.033s-0.004-0.022-0.009-0.035c-0.005-0.01-0.012-0.021-0.015-0.032
				c-0.006-0.011-0.007-0.023-0.012-0.035c-0.004-0.011-0.01-0.022-0.016-0.034c-0.004-0.01-0.005-0.021-0.01-0.033
				c-0.004-0.012-0.01-0.021-0.016-0.033c-0.004-0.012-0.006-0.023-0.01-0.035s-0.01-0.021-0.016-0.033
				c-0.004-0.011-0.004-0.021-0.01-0.035c-0.004-0.01-0.012-0.021-0.016-0.032s-0.006-0.024-0.009-0.036
				c-0.005-0.01-0.011-0.02-0.017-0.031c-0.004-0.012-0.006-0.023-0.01-0.035s-0.012-0.021-0.016-0.033
				c-0.004-0.011-0.006-0.023-0.01-0.035s-0.011-0.021-0.014-0.031c-0.006-0.012-0.007-0.025-0.012-0.037
				c-0.004-0.01-0.012-0.021-0.016-0.031c-0.004-0.012-0.006-0.023-0.01-0.035s-0.01-0.021-0.016-0.033
				c-0.004-0.012-0.006-0.021-0.01-0.033s-0.012-0.023-0.016-0.033c-0.004-0.014-0.006-0.024-0.01-0.036s-0.012-0.021-0.015-0.034
				c-0.005-0.01-0.007-0.022-0.011-0.033c-0.004-0.012-0.012-0.021-0.014-0.033c-0.006-0.012-0.008-0.023-0.012-0.035
				c-0.005-0.011-0.012-0.021-0.016-0.033c-0.004-0.011-0.006-0.021-0.01-0.033c-0.004-0.014-0.01-0.022-0.016-0.035
				c-0.004-0.01-0.006-0.021-0.01-0.035c-0.004-0.01-0.012-0.021-0.016-0.032s-0.006-0.022-0.01-0.034s-0.01-0.021-0.016-0.033
				c-0.004-0.012-0.006-0.023-0.01-0.035c-0.006-0.012-0.012-0.021-0.016-0.031c-0.004-0.012-0.006-0.025-0.01-0.037
				c-0.006-0.01-0.012-0.021-0.015-0.031c-0.005-0.012-0.007-0.025-0.013-0.037c-0.002-0.01-0.009-0.02-0.014-0.031
				c-0.004-0.012-0.005-0.023-0.01-0.035c-0.004-0.012-0.01-0.021-0.016-0.033c-0.004-0.012-0.005-0.023-0.01-0.033
				c-0.004-0.012-0.012-0.023-0.018-0.034c-0.004-0.013-0.004-0.023-0.008-0.035s-0.012-0.021-0.016-0.034
				c-0.004-0.01-0.006-0.021-0.01-0.034c-0.004-0.011-0.012-0.021-0.016-0.032s-0.006-0.023-0.01-0.035s-0.012-0.021-0.016-0.033
				s-0.006-0.022-0.01-0.033c-0.004-0.014-0.012-0.022-0.016-0.035c-0.006-0.01-0.006-0.021-0.012-0.033
				c-0.002-0.012-0.008-0.022-0.014-0.033c-0.004-0.012-0.006-0.023-0.01-0.035c-0.004-0.011-0.01-0.021-0.016-0.033
				c-0.004-0.012-0.008-0.022-0.01-0.035c-0.006-0.012-0.012-0.021-0.016-0.033c-0.005-0.011-0.006-0.023-0.01-0.035
				c-0.005-0.012-0.012-0.021-0.016-0.031c-0.004-0.012-0.006-0.023-0.012-0.036c-0.004-0.011-0.01-0.021-0.015-0.032
				c-0.004-0.012-0.005-0.023-0.009-0.035c-0.006-0.012-0.012-0.021-0.016-0.033c-0.005-0.01-0.006-0.022-0.01-0.034
				c-0.004-0.011-0.012-0.022-0.016-0.032c-0.004-0.012-0.006-0.024-0.01-0.036c-0.006-0.011-0.012-0.021-0.018-0.032
				c-0.002-0.012-0.004-0.023-0.008-0.035c-0.006-0.012-0.012-0.021-0.016-0.033c-0.006-0.012-0.006-0.023-0.01-0.034
				c-0.006-0.012-0.012-0.022-0.016-0.034c-0.006-0.01-0.006-0.022-0.011-0.034s-0.011-0.022-0.015-0.032
				c-0.006-0.012-0.006-0.023-0.011-0.036c-0.004-0.011-0.011-0.021-0.015-0.034c-0.004-0.01-0.006-0.021-0.01-0.033
				s-0.012-0.021-0.016-0.033c-0.004-0.011-0.008-0.023-0.012-0.035c-0.004-0.011-0.01-0.021-0.014-0.032
				c-0.004-0.012-0.008-0.023-0.01-0.034c-0.006-0.012-0.012-0.023-0.016-0.033c-0.004-0.012-0.006-0.023-0.01-0.035
				c-0.006-0.011-0.012-0.021-0.016-0.033c-0.005-0.012-0.006-0.023-0.01-0.035c-0.006-0.012-0.012-0.021-0.016-0.033
				c-0.005-0.01-0.006-0.022-0.01-0.034c-0.005-0.012-0.012-0.021-0.017-0.033c-0.005-0.011-0.005-0.024-0.01-0.035
				s-0.011-0.021-0.015-0.032c-0.006-0.012-0.006-0.023-0.011-0.035s-0.013-0.021-0.015-0.033c-0.006-0.012-0.008-0.023-0.012-0.034
				c-0.004-0.012-0.01-0.022-0.015-0.032c-0.005-0.012-0.007-0.024-0.009-0.036c-0.006-0.012-0.012-0.021-0.016-0.032
				c-0.006-0.012-0.006-0.023-0.012-0.037c-0.004-0.01-0.01-0.02-0.016-0.03c-0.002-0.013-0.004-0.024-0.008-0.034
				c-0.006-0.014-0.012-0.022-0.018-0.035c-0.002-0.011-0.006-0.023-0.01-0.033c-0.004-0.013-0.01-0.023-0.014-0.034
				c-0.006-0.011-0.008-0.023-0.012-0.034c-0.002-0.012-0.01-0.023-0.014-0.033c-0.006-0.012-0.008-0.023-0.01-0.035
				c-0.006-0.012-0.012-0.021-0.018-0.033c-0.004-0.012-0.005-0.023-0.008-0.033c-0.006-0.014-0.012-0.023-0.016-0.035
				c-0.006-0.01-0.008-0.021-0.01-0.035c-0.006-0.01-0.012-0.021-0.018-0.032c-0.004-0.011-0.004-0.024-0.01-0.036
				c-0.003-0.01-0.011-0.021-0.016-0.033c-0.004-0.012-0.006-0.021-0.009-0.033c-0.005-0.01-0.011-0.02-0.015-0.029
				c-0.006-0.013-0.006-0.025-0.011-0.038c-0.005-0.011-0.011-0.02-0.014-0.03c-0.005-0.014-0.007-0.025-0.013-0.037
				c-0.002-0.012-0.011-0.023-0.016-0.037c-0.004-0.01-0.004-0.021-0.01-0.031c-0.004-0.012-0.01-0.021-0.014-0.032
				c-0.006-0.013-0.006-0.024-0.01-0.034c-0.006-0.014-0.012-0.022-0.018-0.035c-0.004-0.011-0.006-0.023-0.01-0.033
				c-0.004-0.012-0.012-0.021-0.014-0.033c-0.005-0.012-0.006-0.023-0.012-0.035c-0.004-0.011-0.011-0.021-0.015-0.033
				c-0.005-0.012-0.007-0.023-0.011-0.035c-0.004-0.01-0.011-0.021-0.016-0.033c-0.004-0.011-0.006-0.021-0.01-0.033
				c-0.004-0.014-0.01-0.023-0.016-0.034c-0.004-0.011-0.005-0.022-0.01-0.036c-0.004-0.01-0.01-0.02-0.014-0.031
				c-0.006-0.012-0.008-0.023-0.012-0.035s-0.012-0.021-0.016-0.033s-0.004-0.023-0.008-0.035c-0.008-0.012-0.014-0.023-0.02-0.035
				c-0.004-0.011-0.006-0.021-0.008-0.032c-0.004-0.011-0.01-0.021-0.014-0.029c-0.006-0.013-0.008-0.026-0.012-0.039
				c-0.004-0.009-0.01-0.02-0.014-0.03c-0.004-0.012-0.006-0.023-0.011-0.037c-0.005-0.012-0.012-0.023-0.017-0.035
				c-0.004-0.01-0.006-0.022-0.009-0.031c-0.005-0.012-0.011-0.022-0.017-0.035c-0.004-0.011-0.008-0.023-0.01-0.034
				c-0.006-0.013-0.012-0.021-0.014-0.03c-0.006-0.014-0.008-0.025-0.012-0.037c-0.004-0.011-0.011-0.021-0.016-0.033
				c-0.004-0.012-0.006-0.023-0.01-0.035c-0.006-0.012-0.012-0.021-0.016-0.033c-0.005-0.012-0.006-0.023-0.01-0.033
				c-0.005-0.014-0.012-0.023-0.016-0.034c-0.004-0.012-0.006-0.022-0.01-0.034s-0.012-0.023-0.016-0.034s-0.006-0.022-0.008-0.034
				c-0.006-0.012-0.014-0.021-0.018-0.033s-0.006-0.021-0.01-0.034c-0.004-0.011-0.01-0.022-0.016-0.034
				c-0.004-0.01-0.006-0.023-0.01-0.034c-0.006-0.013-0.012-0.024-0.017-0.034c-0.003-0.012-0.005-0.021-0.009-0.033
				c-0.004-0.01-0.01-0.02-0.016-0.029c-0.004-0.013-0.004-0.025-0.01-0.039c-0.006-0.011-0.012-0.021-0.014-0.032
				c-0.006-0.011-0.008-0.023-0.012-0.034c-0.004-0.013-0.011-0.023-0.016-0.035c-0.004-0.011-0.008-0.023-0.012-0.034
				c-0.002-0.011-0.008-0.021-0.012-0.032c-0.006-0.012-0.006-0.023-0.012-0.035c-0.004-0.012-0.012-0.021-0.016-0.032
				c-0.006-0.012-0.006-0.024-0.01-0.034c-0.004-0.012-0.012-0.023-0.016-0.034s-0.006-0.023-0.01-0.034
				c-0.006-0.014-0.012-0.021-0.016-0.033s-0.006-0.023-0.01-0.035c-0.005-0.012-0.012-0.021-0.016-0.033s-0.006-0.023-0.01-0.035
				s-0.012-0.021-0.016-0.033c-0.004-0.01-0.006-0.021-0.01-0.034c-0.004-0.012-0.011-0.022-0.016-0.033
				c-0.004-0.011-0.008-0.022-0.01-0.034c-0.004-0.012-0.011-0.021-0.016-0.03c-0.002-0.013-0.005-0.026-0.01-0.038
				c-0.004-0.013-0.012-0.023-0.016-0.035s-0.006-0.023-0.01-0.032c-0.004-0.012-0.012-0.022-0.016-0.033
				c-0.006-0.011-0.006-0.023-0.01-0.034c-0.004-0.012-0.01-0.02-0.016-0.031c-0.002-0.012-0.004-0.024-0.009-0.037
				c-0.007-0.014-0.013-0.025-0.019-0.039c-0.003-0.008-0.006-0.02-0.009-0.029s-0.011-0.02-0.015-0.029
				c-0.004-0.013-0.006-0.025-0.011-0.037s-0.011-0.023-0.015-0.034s-0.007-0.023-0.01-0.034c-0.006-0.012-0.012-0.021-0.016-0.033
				s-0.006-0.023-0.012-0.035c-0.002-0.01-0.01-0.021-0.012-0.03c-0.006-0.011-0.007-0.024-0.012-0.037
				c-0.006-0.013-0.012-0.023-0.018-0.036c-0.002-0.011-0.006-0.021-0.008-0.031c-0.006-0.012-0.011-0.023-0.016-0.035
				c-0.006-0.01-0.006-0.021-0.01-0.033s-0.012-0.022-0.016-0.033c-0.005-0.012-0.006-0.023-0.012-0.035
				c-0.004-0.012-0.01-0.021-0.014-0.033c-0.006-0.012-0.008-0.023-0.01-0.034c-0.004-0.012-0.012-0.022-0.016-0.032
				c-0.006-0.012-0.007-0.023-0.01-0.035c-0.006-0.012-0.012-0.021-0.016-0.033c-0.006-0.012-0.006-0.024-0.012-0.037
				c-0.002-0.01-0.01-0.02-0.014-0.03c-0.005-0.013-0.006-0.024-0.012-0.036c-0.003-0.012-0.01-0.021-0.015-0.033
				c-0.004-0.01-0.006-0.022-0.011-0.033c-0.003-0.012-0.01-0.022-0.016-0.033c-0.002-0.012-0.005-0.024-0.008-0.035
				c-0.006-0.012-0.012-0.021-0.016-0.033c-0.006-0.011-0.006-0.023-0.012-0.035c-0.004-0.012-0.01-0.021-0.014-0.031
				c-0.004-0.014-0.006-0.023-0.01-0.035c-0.005-0.013-0.012-0.022-0.017-0.033c-0.005-0.014-0.005-0.025-0.01-0.035
				c-0.005-0.014-0.013-0.024-0.017-0.035c-0.004-0.012-0.005-0.021-0.01-0.033c-0.004-0.011-0.01-0.02-0.014-0.03
				c-0.005-0.013-0.006-0.024-0.012-0.038c-0.004-0.012-0.012-0.021-0.014-0.033c-0.006-0.011-0.008-0.021-0.012-0.033
				c-0.002-0.012-0.01-0.023-0.014-0.033c-0.006-0.011-0.008-0.023-0.01-0.036c-0.006-0.011-0.012-0.021-0.016-0.032
				c-0.006-0.012-0.008-0.022-0.01-0.035c-0.006-0.012-0.012-0.021-0.016-0.032c-0.006-0.013-0.006-0.024-0.012-0.036
				c-0.004-0.01-0.01-0.021-0.016-0.033c-0.003-0.01-0.004-0.022-0.01-0.034c-0.003-0.011-0.01-0.021-0.015-0.034
				c-0.005-0.01-0.007-0.022-0.01-0.033c-0.007-0.013-0.013-0.021-0.015-0.033c-0.006-0.011-0.007-0.023-0.012-0.035
				c-0.004-0.012-0.011-0.021-0.014-0.032c-0.006-0.011-0.006-0.022-0.012-0.034c-0.004-0.012-0.011-0.021-0.014-0.033
				c-0.004-0.012-0.007-0.023-0.012-0.035c-0.006-0.01-0.008-0.021-0.014-0.031c-0.004-0.012-0.006-0.024-0.01-0.037
				C212.49,82.238,212.482,82.227,212.478,82.215z"/>
			<path fill="#33495F" d="M212.367,81.91c-0.682-1.815-6.197-1.428-12.324,0.869c-6.125,2.296-10.539,5.631-9.857,7.449
				c0.258,0.688,1.207,1.057,2.621,1.129l5.109,13.629c0.48,0.025,1.017,0.014,1.598-0.029l-5.111-13.629
				c0.915-0.07,1.941-0.225,3.043-0.463l5.109,13.629c0.48-0.102,0.971-0.221,1.477-0.355L198.92,90.51
				c0.93-0.246,1.895-0.545,2.883-0.895l5.109,13.63c0.234-0.083,0.471-0.169,0.707-0.257c0.238-0.09,0.472-0.18,0.703-0.271
				l-5.111-13.629c0.975-0.386,1.898-0.797,2.76-1.221l5.109,13.629c0.469-0.23,0.918-0.465,1.346-0.701l-5.109-13.631
				c0.986-0.545,1.861-1.102,2.596-1.65l5.109,13.629c0.467-0.348,0.877-0.691,1.223-1.027l-5.109-13.629
				C212.154,83.503,212.625,82.598,212.367,81.91z"/>
		</g>
		<g>
			<path fill="#2A3E4F" d="M248.293,240.055c-2.516-1.139-3.633-4.1-2.493-6.616l29.278-64.683c1.139-2.516,4.102-3.631,6.617-2.492
				c2.517,1.139,3.633,4.101,2.494,6.617l-29.279,64.682C253.771,240.078,250.809,241.193,248.293,240.055z"/>
		</g>
		<g>
			<g>
				<path fill="#2A3E4F" d="M291.658,238.829l-52.84-23.919c-3.773-1.707-5.447-6.15-3.738-9.925
					c1.707-3.774,6.15-5.448,9.924-3.739l52.84,23.918c3.773,1.708,5.447,6.15,3.74,9.926
					C299.875,238.863,295.432,240.537,291.658,238.829z"/>
			</g>
		</g>
		<circle fill="#33495F" cx="259.299" cy="215.726" r="19.501"/>
		<circle fill="#ECF0F1" cx="259.299" cy="215.726" r="11.5"/>
	</g>
	<g id="map__x26__locator">
	</g>
	<g id="envelope">
	</g>
	<g id="phone__x26__megaphone">
	</g>
	<g id="speech_bubble">
	</g>
	<g id="medal">
	</g>
</g>
<g id="Design">
	<g id="blueprint">
	</g>
	<g id="computer__x26__pencil__x26__ruker">
	</g>
	<g id="pencil__x26__ruler__x26__eraser">
	</g>
	<g id="paint_brush">
	</g>
	<g id="eraser">
	</g>
	<g id="round_brush">
	</g>
	<g id="scissor">
	</g>
	<g id="wacom">
	</g>
	<g id="vector">
	</g>
	<g id="lightbulb">
	</g>
	<g id="lamp">
	</g>
	<g id="pencil__x26__brush">
	</g>
	<g id="laptop__x26__brush">
	</g>
	<g id="paint">
	</g>
	<g id="magic_wand">
	</g>
</g>
<g id="SEO_x2F__Web">
	<g id="W_key">
	</g>
	<g id="link_plus">
	</g>
	<g id="website__x26__lock">
	</g>
	<g id="video">
	</g>
	<g id="maginifier__x26__target">
	</g>
	<g id="website__x26__setting_1_">
	</g>
	<g id="website__x26__code">
	</g>
	<g id="SEO_tag">
	</g>
	<g id="website__x26__wrench">
	</g>
	<g id="crown">
	</g>
	<g id="eye">
	</g>
	<g id="website__x26__clock">
	</g>
	<g id="spider">
	</g>
	<g id="website__x26__medal">
	</g>
	<g id="graph">
	</g>
</g>
<g id="Finance__x2F__Money">
	<g id="diamond">
	</g>
	<g id="calculating">
	</g>
	<g id="calculator">
	</g>
	<g id="auction_hammer">
	</g>
	<g id="bag_of_money">
	</g>
	<g id="piggy_bank">
	</g>
	<g id="bank">
	</g>
	<g id="umbrella__x26__coins">
	</g>
	<g id="safe">
	</g>
	<g id="treasure">
	</g>
	<g id="cash__x26__card">
	</g>
	<g id="coins__x26__cash">
	</g>
	<g id="coins__x26__card">
	</g>
	<g id="briefcase">
	</g>
	<g id="cash">
	</g>
</g>
<g id="E-Commerce__x2F__Shopping">
	<g id="New_Symbol">
	</g>
	<g id="mobile__x26__finger">
	</g>
	<g id="price_tag">
	</g>
	<g id="website__x26__magnifier">
	</g>
	<g id="hand_to_ahnd_delivery">
	</g>
	<g id="hand__x26__credit_card">
	</g>
	<g id="hand__x26__iPad">
	</g>
	<g id="empty_basket">
	</g>
	<g id="full_basket">
	</g>
	<g id="trolley">
	</g>
	<g id="wallet">
	</g>
	<g id="truck">
	</g>
	<g id="delivery">
	</g>
	<g id="gift">
	</g>
	<g id="hand__x26__shopping_bag">
	</g>
	<g id="iMac_with_products">
	</g>
	<g id="laptop_store">
	</g>
	<g id="shopping_bag_with_mouse">
	</g>
	<g id="mobile_store">
	</g>
	<g id="store">
	</g>
	<g id="laptop_with_money">
	</g>
</g>
<g id="Strategy">
	<g id="money_palnt">
	</g>
	<g id="contract">
	</g>
	<g id="trophy">
	</g>
	<g id="graph_paper">
	</g>
	<g id="competition">
	</g>
	<g id="checklist">
	</g>
	<g id="megaphone">
	</g>
	<g id="paper_airplane">
	</g>
	<g id="mission_1">
	</g>
	<g id="graph_board">
	</g>
	<g id="mission_2">
	</g>
	<g id="strategy">
	</g>
	<g id="target">
	</g>
	<g id="partnership">
	</g>
	<g id="chess">
	</g>
</g>
</svg>
