<?xml version="1.0" encoding="utf-8"?>
<!-- Generator: Adobe Illustrator 16.0.0, SVG Export Plug-In . SVG Version: 6.00 Build 0)  -->
<!DOCTYPE svg PUBLIC "-//W3C//DTD SVG 1.1//EN" "http://www.w3.org/Graphics/SVG/1.1/DTD/svg11.dtd">
<svg version="1.1" xmlns="http://www.w3.org/2000/svg" xmlns:xlink="http://www.w3.org/1999/xlink" x="0px" y="0px" width="512px"
	 height="512px" viewBox="0 0 512 512" enable-background="new 0 0 512 512" xml:space="preserve">
<g id="Palette" display="none">
	<rect x="-1591" y="-3851" display="inline" fill="#FFFFFF" width="9201" height="7668"/>
</g>
<g id="Others">
	<g id="files">
	</g>
	<g id="pencil_rocket">
	</g>
	<g id="magic_hat__x26__rabbit">
	</g>
	<g id="phone__x26__target">
	</g>
	<g id="toast">
	</g>
	<g id="coffee">
	</g>
	<g id="suit">
	</g>
	<g id="DNA_tube">
	</g>
	<g id="clapper">
	</g>
	<g id="stopwatch">
	</g>
	<g id="map__x26__locator">
	</g>
	<g id="envelope">
	</g>
	<g id="phone__x26__megaphone">
	</g>
	<g id="speech_bubble">
	</g>
	<g id="medal">
	</g>
</g>
<g id="Design">
	<g id="blueprint">
	</g>
	<g id="computer__x26__pencil__x26__ruker">
	</g>
	<g id="pencil__x26__ruler__x26__eraser">
	</g>
	<g id="paint_brush">
	</g>
	<g id="eraser">
	</g>
	<g id="round_brush">
	</g>
	<g id="scissor">
	</g>
	<g id="wacom">
	</g>
	<g id="vector">
	</g>
	<g id="lightbulb">
	</g>
	<g id="lamp">
	</g>
	<g id="pencil__x26__brush">
	</g>
	<g id="laptop__x26__brush">
	</g>
	<g id="paint">
	</g>
	<g id="magic_wand">
	</g>
</g>
<g id="SEO_x2F__Web">
	<g id="W_key">
	</g>
	<g id="link_plus">
	</g>
	<g id="website__x26__lock">
	</g>
	<g id="video">
	</g>
	<g id="maginifier__x26__target">
	</g>
	<g id="website__x26__setting_1_">
	</g>
	<g id="website__x26__code">
	</g>
	<g id="SEO_tag">
	</g>
	<g id="website__x26__wrench">
	</g>
	<g id="crown">
	</g>
	<g id="eye">
	</g>
	<g id="website__x26__clock">
	</g>
	<g id="spider">
	</g>
	<g id="website__x26__medal">
	</g>
	<g id="graph">
	</g>
</g>
<g id="Finance__x2F__Money">
	<g id="diamond">
	</g>
	<g id="calculating">
	</g>
	<g id="calculator">
	</g>
	<g id="auction_hammer">
	</g>
	<g id="bag_of_money">
	</g>
	<g id="piggy_bank">
	</g>
	<g id="bank">
	</g>
	<g id="umbrella__x26__coins">
	</g>
	<g id="safe">
	</g>
	<g id="treasure">
	</g>
	<g id="cash__x26__card">
	</g>
	<g id="coins__x26__cash">
	</g>
	<g id="coins__x26__card">
	</g>
	<g id="briefcase">
	</g>
	<g id="cash">
	</g>
</g>
<g id="E-Commerce__x2F__Shopping">
	<g id="New_Symbol">
	</g>
	<g id="mobile__x26__finger">
	</g>
	<g id="price_tag">
	</g>
	<g id="website__x26__magnifier">
	</g>
	<g id="hand_to_ahnd_delivery">
	</g>
	<g id="hand__x26__credit_card">
	</g>
	<g id="hand__x26__iPad">
	</g>
	<g id="empty_basket">
	</g>
	<g id="full_basket">
	</g>
	<g id="trolley">
	</g>
	<g id="wallet">
		<radialGradient id="SVGID_1_" cx="256" cy="256" r="256" gradientUnits="userSpaceOnUse">
			<stop  offset="0.0051" style="stop-color:#33495F"/>
			<stop  offset="1" style="stop-color:#2B3E51"/>
		</radialGradient>
		<circle fill="url(#SVGID_1_)" cx="256" cy="256" r="256"/>
		<path fill="#D55400" d="M353,271c0,5.5,4.5,10,10,10h60c5.5,0,10-4.5,10-10v-21c0-5.5-4.5-10-10-10h-60c-5.5,0-10,4.5-10,10V271z"
			/>
		<path fill="#C24C00" d="M349,279c0,5.5,4.5,10,10,10h60c5.5,0,10-4.5,10-10v-21c0-5.5-4.5-10-10-10h-60c-5.5,0-10,4.5-10,10V279z"
			/>
		<path fill="#E87E04" d="M394,179H107.414C96.14,179,87,169.188,87,157.914v-4.285C87,142.354,96.14,134,107.414,134h286.234
			c11.274,0,20.352,8.354,20.352,19.629v69.811l-20-11.277V179z"/>
		<path fill="#00BD9C" d="M399,208.844c0,0,0-13.225,0-24.127c0-10.9-10.125-11.717-10.125-11.717H107.414
			C99.268,173,93,166.061,93,157.914v-4.285C93,145.482,99.268,139,107.414,139h286.234c8.147,0,14.352,6.482,14.352,14.629v60.227
			L399,208.844z"/>
		<path fill="#00A185" d="M406,175.057c0-0.383,0.056-0.784,0.026-1.161c-2.624-4.121-7.139-6.896-12.378-6.896H95.824
			c2.709,4,6.893,6,11.59,6h281.461h4.773c8.147,0,14.352,6.316,14.352,14.463v-5.639c0-2.869,0-5.539-2-7.811V175.057z"/>
		<path fill="#00A185" d="M406.026,174.278c0.021,0.031-0.026-0.294-0.026-0.265v-3.467c0-8.148-6.46-14.547-14.606-14.547H93v1.914
			c0,0.809-0.278,2.086-0.152,3.086h298.546C399.156,161,405.441,166.663,406.026,174.278z"/>
		<path fill="#00A185" d="M393.648,145H95.824c-1.057,1-1.887,3-2.434,4h300.258c8.147,0,14.352,6.633,14.352,14.779v-4.512
			C408,151.121,401.796,145,393.648,145z"/>
		<path fill="#D55400" d="M401,178.443V179H107.414C96.14,179,87,169.188,87,157.914v224.508C87,394.9,97.115,405,109.594,405
			h288.642C410.714,405,421,394.9,421,382.422v-181.5C421,189.217,412,179.594,401,178.443z"/>
		<g>
			<path fill="#E87E04" d="M105.956,190.271c0.159-0.92-0.46-1.795-1.38-1.955c-1.293-0.223-2.623-0.609-4.03-1.018
				c-0.793-0.23-1.599-0.463-2.415-0.672c-0.507-0.135-1.051-0.021-1.465,0.301c-0.413,0.32-0.666,0.812-0.666,1.336v6.98
				c0,0.934,0.565,1.691,1.5,1.691s1.5-0.758,1.5-1.691v-4.754c0,0.02,0.336,0.039,0.402,0.059c1.434,0.416,3.121,0.848,4.6,1.104
				C104.915,191.811,105.798,191.193,105.956,190.271z"/>
			<path fill="#E87E04" d="M97.5,277.375c0.935,0,1.5-0.758,1.5-1.691v-13.4c0-0.934-0.565-1.691-1.5-1.691s-1.5,0.758-1.5,1.691
				v13.4C96,276.617,96.565,277.375,97.5,277.375z"/>
			<path fill="#E87E04" d="M97.5,223.773c0.935,0,1.5-0.758,1.5-1.691v-13.398c0-0.934-0.565-1.691-1.5-1.691s-1.5,0.758-1.5,1.691
				v13.398C96,223.016,96.565,223.773,97.5,223.773z"/>
			<path fill="#E87E04" d="M144.251,192h13.399c0.935,0,1.691-0.566,1.691-1.5c0-0.936-0.757-1.5-1.691-1.5h-13.399
				c-0.935,0-1.692,0.564-1.692,1.5C142.559,191.434,143.316,192,144.251,192z"/>
			<path fill="#E87E04" d="M117.451,192h13.399c0.935,0,1.691-0.566,1.691-1.5c0-0.936-0.757-1.5-1.691-1.5h-13.399
				c-0.936,0-1.692,0.564-1.692,1.5C115.759,191.434,116.516,192,117.451,192z"/>
			<path fill="#E87E04" d="M97.5,304.174c0.935,0,1.5-0.758,1.5-1.691v-13.398c0-0.936-0.565-1.691-1.5-1.691s-1.5,0.756-1.5,1.691
				v13.398C96,303.416,96.565,304.174,97.5,304.174z"/>
			<path fill="#E87E04" d="M97.5,357.775c0.935,0,1.5-0.758,1.5-1.693v-13.4c0-0.934-0.565-1.691-1.5-1.691s-1.5,0.758-1.5,1.691
				v13.4C96,357.018,96.565,357.775,97.5,357.775z"/>
			<path fill="#E87E04" d="M99,369.482c0-0.934-0.565-1.691-1.5-1.691s-1.5,0.758-1.5,1.691v12.939c0,0.178,0.016,0.569,0.023,0.747
				c0.039,0.908,0.799,1.831,1.699,1.831c0.024,0,0.049,0,0.074,0c0.934,0,1.454-1.044,1.414-1.978
				c-0.005-0.127-0.211-0.472-0.211-0.601V369.482z"/>
			<path fill="#E87E04" d="M97.5,330.975c0.935,0,1.5-0.758,1.5-1.691v-13.4c0-0.934-0.565-1.691-1.5-1.691s-1.5,0.758-1.5,1.691
				v13.4C96,330.217,96.565,330.975,97.5,330.975z"/>
			<path fill="#E87E04" d="M97.5,250.574c0.935,0,1.5-0.758,1.5-1.691v-13.4c0-0.934-0.565-1.691-1.5-1.691s-1.5,0.758-1.5,1.691
				v13.4C96,249.816,96.565,250.574,97.5,250.574z"/>
			<path fill="#E87E04" d="M305.051,192h13.4c0.934,0,1.691-0.566,1.691-1.5c0-0.936-0.758-1.5-1.691-1.5h-13.4
				c-0.935,0-1.691,0.564-1.691,1.5C303.359,191.434,304.116,192,305.051,192z"/>
			<path fill="#E87E04" d="M358.65,192h13.4c0.935,0,1.691-0.566,1.691-1.5c0-0.936-0.757-1.5-1.691-1.5h-13.4
				c-0.934,0-1.691,0.564-1.691,1.5C356.959,191.434,357.717,192,358.65,192z"/>
			<path fill="#E87E04" d="M331.852,192h13.399c0.935,0,1.691-0.566,1.691-1.5c0-0.936-0.757-1.5-1.691-1.5h-13.399
				c-0.936,0-1.692,0.564-1.692,1.5C330.159,191.434,330.916,192,331.852,192z"/>
			<path fill="#E87E04" d="M171.051,192h13.4c0.934,0,1.691-0.566,1.691-1.5c0-0.936-0.758-1.5-1.691-1.5h-13.4
				c-0.935,0-1.691,0.564-1.691,1.5C169.359,191.434,170.116,192,171.051,192z"/>
			<path fill="#E87E04" d="M385.451,192h13.363c0.359,0,0.737-0.074,1.027-0.285c0.754-0.551,0.904-1.54,0.354-2.294
				c-0.354-0.482-0.924-0.421-1.481-0.421h-13.263c-0.935,0-1.691,0.564-1.691,1.5C383.76,191.434,384.517,192,385.451,192z"/>
			<path fill="#E87E04" d="M278.25,192h13.4c0.936,0,1.692-0.566,1.692-1.5c0-0.936-0.757-1.5-1.692-1.5h-13.4
				c-0.934,0-1.691,0.564-1.691,1.5C276.559,191.434,277.316,192,278.25,192z"/>
			<path fill="#E87E04" d="M197.851,192h13.399c0.936,0,1.692-0.566,1.692-1.5c0-0.936-0.757-1.5-1.692-1.5h-13.399
				c-0.935,0-1.691,0.564-1.691,1.5C196.159,191.434,196.916,192,197.851,192z"/>
			<path fill="#E87E04" d="M224.65,192h13.4c0.935,0,1.691-0.566,1.691-1.5c0-0.936-0.757-1.5-1.691-1.5h-13.4
				c-0.934,0-1.691,0.564-1.691,1.5C222.959,191.434,223.717,192,224.65,192z"/>
			<path fill="#E87E04" d="M251.451,192h13.4c0.934,0,1.691-0.566,1.691-1.5c0-0.936-0.758-1.5-1.691-1.5h-13.4
				c-0.936,0-1.692,0.564-1.692,1.5C249.759,191.434,250.516,192,251.451,192z"/>
			<path fill="#E87E04" d="M171.926,393h-13.399c-0.935,0-1.692,0.566-1.692,1.5s0.758,1.5,1.692,1.5h13.399
				c0.935,0,1.691-0.566,1.691-1.5S172.86,393,171.926,393z"/>
			<path fill="#E87E04" d="M409,330.035c-0.935,0-2,0.758-2,1.691v13.4c0,0.934,1.065,1.691,2,1.691s2-0.758,2-1.691v-13.4
				C411,330.793,409.935,330.035,409,330.035z"/>
			<path fill="#E87E04" d="M409,356.836c-0.935,0-2,0.758-2,1.691v13.4c0,0.934,1.065,1.691,2,1.691s2-0.758,2-1.691v-13.4
				C411,357.594,409.935,356.836,409,356.836z"/>
			<path fill="#E87E04" d="M409.039,383.654c-0.91-0.203-1.816,0.363-2.025,1.271c-0.928,4.07-3.889,7.049-7.542,7.594
				c-0.924,0.139-1.562,0.998-1.425,1.922c0.125,0.84,0.848,1.443,1.672,1.443c0.083,0,0.166-0.006,0.251-0.02
				c5.042-0.75,9.103-4.748,10.343-10.186C410.521,384.77,409.95,383.861,409.039,383.654z"/>
			<path fill="#E87E04" d="M409,303.234c-0.935,0-2,0.758-2,1.691v13.4c0,0.936,1.065,1.693,2,1.693s2-0.758,2-1.693v-13.4
				C411,303.992,409.935,303.234,409,303.234z"/>
			<path fill="#E87E04" d="M409,276.436c-0.935,0-2,0.758-2,1.691v13.4c0,0.934,1.065,1.691,2,1.691s2-0.758,2-1.691v-13.4
				C411,277.193,409.935,276.436,409,276.436z"/>
			<path fill="#E87E04" d="M410.318,197.314c-0.25-0.902-1.383-1.428-2.281-1.178c-0.899,0.25-1.5,1.184-1.25,2.082
				c0.239,0.861,0.213,1.77,0.213,2.703v10.205c0,0.934,1.065,1.691,2,1.691s2-0.758,2-1.691V200.92
				C411,199.682,410.639,198.469,410.318,197.314z"/>
			<path fill="#E87E04" d="M409,222.834c-0.935,0-2,0.758-2,1.693v13.4c0,0.934,1.065,1.691,2,1.691s2-0.758,2-1.691v-13.4
				C411,223.592,409.935,222.834,409,222.834z"/>
			<path fill="#E87E04" d="M386.326,393h-13.399c-0.935,0-1.692,0.566-1.692,1.5s0.758,1.5,1.692,1.5h13.399
				c0.935,0,1.691-0.566,1.691-1.5S387.261,393,386.326,393z"/>
			<path fill="#E87E04" d="M409,249.635c-0.935,0-2,0.758-2,1.693v13.398c0,0.934,1.065,1.691,2,1.691s2-0.758,2-1.691v-13.398
				C411,250.393,409.935,249.635,409,249.635z"/>
			<path fill="#E87E04" d="M279.127,393h-13.4c-0.935,0-1.691,0.566-1.691,1.5s0.757,1.5,1.691,1.5h13.4
				c0.934,0,1.691-0.566,1.691-1.5S280.061,393,279.127,393z"/>
			<path fill="#E87E04" d="M225.526,393h-13.4c-0.935,0-1.691,0.566-1.691,1.5s0.757,1.5,1.691,1.5h13.4
				c0.935,0,1.692-0.566,1.692-1.5S226.461,393,225.526,393z"/>
			<path fill="#E87E04" d="M359.526,393h-13.399c-0.936,0-1.692,0.566-1.692,1.5s0.757,1.5,1.692,1.5h13.399
				c0.935,0,1.691-0.566,1.691-1.5S360.461,393,359.526,393z"/>
			<path fill="#E87E04" d="M198.727,393h-13.4c-0.934,0-1.691,0.566-1.691,1.5s0.758,1.5,1.691,1.5h13.4
				c0.934,0,1.691-0.566,1.691-1.5S199.66,393,198.727,393z"/>
			<path fill="#E87E04" d="M145.127,393h-13.4c-0.936,0-1.692,0.566-1.692,1.5s0.757,1.5,1.692,1.5h13.4
				c0.934,0,1.691-0.566,1.691-1.5S146.061,393,145.127,393z"/>
			<path fill="#E87E04" d="M252.326,393h-13.4c-0.934,0-1.691,0.566-1.691,1.5s0.758,1.5,1.691,1.5h13.4
				c0.935,0,1.691-0.566,1.691-1.5S253.261,393,252.326,393z"/>
			<path fill="#E87E04" d="M332.727,393h-13.4c-0.935,0-1.691,0.566-1.691,1.5s0.757,1.5,1.691,1.5h13.4
				c0.935,0,1.691-0.566,1.691-1.5S333.661,393,332.727,393z"/>
			<path fill="#E87E04" d="M305.926,393h-13.398c-0.936,0-1.692,0.566-1.692,1.5s0.757,1.5,1.692,1.5h13.398
				c0.936,0,1.692-0.566,1.692-1.5S306.861,393,305.926,393z"/>
			<path fill="#E87E04" d="M118.326,393h-8.732c-1.293,0-2.581-0.479-3.829-1.04c-0.853-0.385-1.853-0.198-2.237,0.653
				c-0.383,0.854-0.002,1.856,0.85,2.239c1.688,0.76,3.443,1.147,5.217,1.147h8.732c0.935,0,1.691-0.566,1.691-1.5
				S119.261,393,118.326,393z"/>
		</g>
		<path fill="#E87E04" d="M433,296c0,5.5-4.5,10-10,10h-99c-5.5,0-10-4.5-10-10v-26c0-5.5,4.5-10,10-10h99c5.5,0,10-3.5,10-9.5V296z
			"/>
		<path fill="#E87E04" d="M401.5,173H107.414c-0.601,0-1.189-0.323-1.771-0.394c0.584,0.051,1.354-0.052,1.952-0.052
			c-8.147,0-14.595-6.738-14.595-14.885v-4.398l-5.819-1.24l0.135,0.641l-0.236,0.284L87,153v0.387v4.283
			c0,11.275,9.14,21.33,20.414,21.33H401c11,1.15,20,9.975,20,21.678v-5.639C421,183.336,412.5,174.15,401.5,173z"/>
		<rect x="117" y="348" fill="#F59D00" width="93" height="20"/>
		<rect x="117" y="355" fill="#F2C500" width="93" height="21"/>
		<path fill="#95A5A6" d="M230.529,120.179l-3.165-4.028l-3.167-4.002l-3.166-3.983l-12.664-15.897l-0.795,0.632l-72.287,57.739
			c-1.83,1.457-3.217,3.361-4.176,5.361h127.885L230.529,120.179z"/>
		<path fill="#7F8C8D" d="M224.197,112.121l3.167,3.973l3.165,4.085L258.994,156h91.346l16.436-13.216
			c6.554-5.225,7.642-14.917,2.416-21.472l-44.326-55.635l-10.132-12.722l-3.167-3.981l-3.166-3.974l-3.166-3.974l-3.166-3.974
			c-5.225-6.553-14.861-7.642-21.414-2.417l-72.287,57.625l12.664,15.889L224.197,112.121z"/>
		<circle fill="#F2C500" cx="317.523" cy="137.111" r="13.715"/>
		<circle fill="#E94B35" cx="331.822" cy="125.713" r="13.715"/>
		<g>
			<path fill="#ECF0F1" d="M259.383,97.631l-3.803,3.031c-0.548,0.436-1.039,0.627-1.47,0.566c-0.431-0.059-0.861-0.357-1.288-0.895
				l-7.457-9.354c-0.438-0.549-0.633-1.037-0.584-1.473c0.05-0.432,0.343-0.861,0.881-1.289l4.031-3.215
				c0.594-0.473,1.138-0.846,1.633-1.119c0.494-0.275,0.996-0.445,1.51-0.512c0.434-0.059,0.871-0.043,1.312,0.045
				c0.438,0.088,0.85,0.248,1.227,0.479c0.38,0.23,0.713,0.527,1.001,0.891c0.991,1.244,1.096,2.65,0.311,4.219
				c2.052-0.781,3.676-0.422,4.876,1.086c0.555,0.693,0.877,1.463,0.964,2.305c0.088,0.842-0.065,1.635-0.459,2.385
				c-0.252,0.459-0.6,0.92-1.04,1.377C260.588,96.615,260.038,97.107,259.383,97.631z M248.164,89.318l2.564,3.219l2.308-1.842
				c0.628-0.5,1.065-0.947,1.313-1.338c0.248-0.393,0.328-0.826,0.244-1.305c-0.049-0.35-0.189-0.674-0.426-0.967
				c-0.5-0.629-1.055-0.867-1.668-0.719c-0.61,0.15-1.373,0.592-2.291,1.322L248.164,89.318z M254.792,92.254l-2.623,2.092
				l2.896,3.631l2.707-2.158c1.703-1.357,2.066-2.65,1.088-3.879c-0.502-0.627-1.086-0.906-1.753-0.838
				S255.668,91.555,254.792,92.254z"/>
			<path fill="#ECF0F1" d="M272.747,84.672l-1.838-1.088l-5.058,4.033l0.676,2.068c0.265,0.807,0.401,1.385,0.411,1.732
				c0.01,0.35-0.173,0.672-0.546,0.969c-0.317,0.254-0.691,0.361-1.117,0.324c-0.428-0.039-0.76-0.205-0.995-0.498
				c-0.136-0.172-0.246-0.369-0.333-0.596c-0.088-0.225-0.196-0.551-0.323-0.979l-3.259-10.617
				c-0.094-0.303-0.207-0.668-0.339-1.096c-0.132-0.426-0.212-0.805-0.239-1.135c-0.027-0.332,0.025-0.656,0.152-0.975
				c0.129-0.32,0.367-0.619,0.711-0.895c0.351-0.279,0.698-0.447,1.039-0.5c0.339-0.053,0.666-0.033,0.977,0.059
				c0.312,0.096,0.612,0.223,0.903,0.385c0.29,0.16,0.673,0.381,1.146,0.662l9.651,5.438c0.741,0.408,1.224,0.752,1.444,1.029
				c0.229,0.289,0.32,0.648,0.271,1.078c-0.049,0.436-0.243,0.785-0.582,1.055c-0.198,0.158-0.396,0.26-0.594,0.301
				c-0.197,0.043-0.393,0.041-0.586-0.004c-0.195-0.045-0.447-0.148-0.758-0.312S272.98,84.801,272.747,84.672z M265.003,85.195
				l3.718-2.963l-5.969-3.641L265.003,85.195z"/>
			<path fill="#ECF0F1" d="M272.812,68.697l10.691,3.471l-5.9-7.4c-0.382-0.48-0.566-0.924-0.552-1.33
				c0.016-0.404,0.197-0.748,0.548-1.027c0.361-0.289,0.744-0.395,1.146-0.322c0.399,0.074,0.792,0.352,1.176,0.834l7.801,9.783
				c0.87,1.094,0.854,2-0.052,2.721c-0.228,0.18-0.456,0.311-0.688,0.389c-0.234,0.078-0.486,0.113-0.757,0.1
				c-0.271-0.018-0.551-0.064-0.837-0.146c-0.289-0.082-0.577-0.168-0.871-0.258l-10.506-3.479l5.811,7.289
				c0.38,0.477,0.557,0.924,0.529,1.342c-0.025,0.422-0.212,0.768-0.557,1.043c-0.357,0.285-0.74,0.391-1.152,0.312
				c-0.41-0.074-0.803-0.344-1.179-0.814l-7.651-9.602c-0.325-0.406-0.535-0.762-0.629-1.064c-0.096-0.342-0.084-0.691,0.037-1.051
				s0.324-0.654,0.613-0.885c0.227-0.18,0.449-0.297,0.67-0.355c0.219-0.053,0.439-0.066,0.66-0.039
				c0.222,0.025,0.476,0.09,0.759,0.186C272.209,68.49,272.505,68.592,272.812,68.697z"/>
			<path fill="#ECF0F1" d="M285.285,58.785l3.478,4.361l0.835-9.107c0.039-0.438,0.096-0.783,0.168-1.035
				c0.07-0.25,0.246-0.486,0.523-0.709c0.361-0.287,0.739-0.414,1.133-0.383c0.392,0.033,0.71,0.205,0.955,0.512
				c0.292,0.365,0.393,0.883,0.303,1.547l-0.75,5.346l7.562,2.244c0.529,0.152,0.961,0.311,1.295,0.473
				c0.334,0.166,0.601,0.371,0.799,0.619c0.221,0.279,0.305,0.605,0.248,0.982c-0.055,0.379-0.27,0.715-0.643,1.012
				c-0.352,0.281-0.696,0.436-1.037,0.459c-0.34,0.027-0.686-0.023-1.037-0.15c-0.351-0.127-0.667-0.248-0.949-0.354l-6.631-2.209
				l-0.487,3.621l2.05,2.572c0.416,0.521,0.604,0.998,0.566,1.441c-0.035,0.441-0.241,0.811-0.615,1.107
				c-0.213,0.172-0.467,0.281-0.754,0.326c-0.288,0.045-0.564,0.014-0.824-0.094c-0.205-0.096-0.399-0.24-0.583-0.438
				c-0.185-0.193-0.434-0.492-0.749-0.887l-7.375-9.252c-0.406-0.508-0.6-0.979-0.579-1.412c0.021-0.432,0.224-0.801,0.608-1.109
				c0.379-0.303,0.786-0.422,1.222-0.355C284.452,57.977,284.875,58.268,285.285,58.785z"/>
		</g>
		<circle fill="#F2C500" cx="340.152" cy="282.779" r="16.525"/>
		<g>
			<path fill="#F59D00" d="M340.152,295.805c-7.183,0-13.025-5.843-13.025-13.025s5.843-13.025,13.025-13.025
				s13.025,5.843,13.025,13.025S347.335,295.805,340.152,295.805z M340.152,272.754c-5.528,0-10.025,4.497-10.025,10.025
				s4.497,10.025,10.025,10.025s10.025-4.497,10.025-10.025S345.681,272.754,340.152,272.754z"/>
		</g>
	</g>
	<g id="truck">
	</g>
	<g id="delivery">
	</g>
	<g id="gift">
	</g>
	<g id="hand__x26__shopping_bag">
	</g>
	<g id="iMac_with_products">
	</g>
	<g id="laptop_store">
	</g>
	<g id="shopping_bag_with_mouse">
	</g>
	<g id="mobile_store">
	</g>
	<g id="store">
	</g>
	<g id="laptop_with_money">
	</g>
</g>
<g id="Strategy">
	<g id="money_palnt">
	</g>
	<g id="contract">
	</g>
	<g id="trophy">
	</g>
	<g id="graph_paper">
	</g>
	<g id="competition">
	</g>
	<g id="checklist">
	</g>
	<g id="megaphone">
	</g>
	<g id="paper_airplane">
	</g>
	<g id="mission_1">
	</g>
	<g id="graph_board">
	</g>
	<g id="mission_2">
	</g>
	<g id="strategy">
	</g>
	<g id="target">
	</g>
	<g id="partnership">
	</g>
	<g id="chess">
	</g>
</g>
</svg>
