<?xml version="1.0" encoding="utf-8"?>
<!-- Generator: Adobe Illustrator 16.0.0, SVG Export Plug-In . SVG Version: 6.00 Build 0)  -->
<!DOCTYPE svg PUBLIC "-//W3C//DTD SVG 1.1//EN" "http://www.w3.org/Graphics/SVG/1.1/DTD/svg11.dtd">
<svg version="1.1" xmlns="http://www.w3.org/2000/svg" xmlns:xlink="http://www.w3.org/1999/xlink" x="0px" y="0px" width="512px"
	 height="512px" viewBox="0 0 512 512" enable-background="new 0 0 512 512" xml:space="preserve">
<g id="Palette" display="none">
	<rect x="-4549" y="-4493" display="inline" fill="#FFFFFF" width="9201" height="7668"/>
</g>
<g id="Others">
	<g id="files">
	</g>
	<g id="pencil_rocket">
	</g>
	<g id="magic_hat__x26__rabbit">
	</g>
	<g id="phone__x26__target">
	</g>
	<g id="toast">
	</g>
	<g id="coffee">
	</g>
	<g id="suit">
	</g>
	<g id="DNA_tube">
	</g>
	<g id="clapper">
	</g>
	<g id="stopwatch">
	</g>
	<g id="map__x26__locator">
	</g>
	<g id="envelope">
	</g>
	<g id="phone__x26__megaphone">
	</g>
	<g id="speech_bubble">
	</g>
	<g id="medal">
	</g>
</g>
<g id="Design">
	<g id="blueprint">
	</g>
	<g id="computer__x26__pencil__x26__ruker">
	</g>
	<g id="pencil__x26__ruler__x26__eraser">
	</g>
	<g id="paint_brush">
	</g>
	<g id="eraser">
	</g>
	<g id="round_brush">
	</g>
	<g id="scissor">
	</g>
	<g id="wacom">
	</g>
	<g id="vector">
	</g>
	<g id="lightbulb">
	</g>
	<g id="lamp">
	</g>
	<g id="pencil__x26__brush">
	</g>
	<g id="laptop__x26__brush">
	</g>
	<g id="paint">
	</g>
	<g id="magic_wand">
	</g>
</g>
<g id="SEO_x2F__Web">
	<g id="W_key">
	</g>
	<g id="link_plus">
	</g>
	<g id="website__x26__lock">
		<radialGradient id="SVGID_1_" cx="256" cy="256" r="256" gradientUnits="userSpaceOnUse">
			<stop  offset="0" style="stop-color:#2A93D8"/>
			<stop  offset="1" style="stop-color:#227FBB"/>
		</radialGradient>
		<circle fill="url(#SVGID_1_)" cx="256" cy="256" r="256"/>
		<g>
			<g>
				<path fill="#BDC3C7" d="M433,365.201c0,11.047-7.954,20.799-19,20.799H99c-11.046,0-21-9.752-21-20.799v-222
					C78,132.156,87.954,124,99,124h315c11.046,0,19,8.156,19,19.201V365.201z"/>
				<path fill="#FFFFFF" d="M416,354c0,5.523-4.477,10-10,10H104c-5.523,0-10-4.477-10-10V182c0-5.523,4.477-10,10-10h302
					c5.523,0,10,4.477,10,10V354z"/>
				<circle fill="#FFFFFF" cx="107.03" cy="147.869" r="9.666"/>
				<circle fill="#EE483C" cx="107.03" cy="147.869" r="9.666"/>
				<circle fill="#F4C342" cx="137.03" cy="147.869" r="9.666"/>
				<circle fill="#00CA77" cx="167.03" cy="147.869" r="9.666"/>
			</g>
			<g>
				<path fill="#BDC3C7" d="M288.716,265.08c-7.901-8.45-18.357-12.735-31.079-12.735c-0.206,0-0.409,0.012-0.609,0.03
					c-0.201-0.019-0.403-0.03-0.609-0.03c-12.723,0-23.179,4.285-31.08,12.735c-17.461,18.68-15.487,51.154-15.395,52.527
					c0.233,3.458,3.109,6.104,6.525,6.104c0.145,0,0.292-0.005,0.439-0.014c3.604-0.238,6.335-3.356,6.102-6.961
					c-0.019-0.281-1.66-28.252,11.921-42.741c5.397-5.757,12.425-8.555,21.487-8.555c0.206,0,0.408-0.013,0.609-0.031
					c0.2,0.019,0.403,0.031,0.609,0.031c9.062,0,16.089,2.798,21.486,8.555c13.581,14.489,11.939,42.46,11.921,42.741
					c-0.237,3.604,2.488,6.721,6.094,6.964c0.149,0.011,0.299,0.015,0.446,0.015c3.416,0,6.293-2.648,6.527-6.107
					C304.203,316.234,306.178,283.76,288.716,265.08z"/>
				<path fill="#BDC3C7" d="M288.716,265.08c-7.901-8.45-18.357-12.735-31.079-12.735c-0.206,0-0.409,0.012-0.609,0.03
					c-0.201-0.019-0.403-0.03-0.609-0.03c-12.723,0-23.179,4.285-31.08,12.735c-17.461,18.68-15.487,51.154-15.395,52.527
					c0.233,3.458,3.109,6.104,6.525,6.104c0.145,0,0.292-0.005,0.439-0.014c3.604-0.238,6.335-3.356,6.102-6.961
					c-0.019-0.281-1.66-28.252,11.921-42.741c5.397-5.757,12.425-8.555,21.487-8.555c0.206,0,0.408-0.013,0.609-0.031
					c0.2,0.019,0.403,0.031,0.609,0.031c9.062,0,16.089,2.798,21.486,8.555c13.581,14.489,11.939,42.46,11.921,42.741
					c-0.237,3.604,2.488,6.721,6.094,6.964c0.149,0.011,0.299,0.015,0.446,0.015c3.416,0,6.293-2.648,6.527-6.107
					C304.203,316.234,306.178,283.76,288.716,265.08z"/>
				<g opacity="0.4">
					<path fill="#2A3E4F" d="M209.943,318.108c0.115,1.697,0.868,2.892,2.007,3.892H221c1.348-1,2.14-2.755,2.01-4.763
						c-0.006-0.085-0.157-3.237,0.001-6.237h-13.118C209.744,315,209.918,317.724,209.943,318.108z"/>
					<path fill="#2A3E4F" d="M304.162,311h-13.119c0.158,3,0.007,6.152,0.001,6.237c-0.133,2.008,0.656,3.763,2.003,4.763h9.06
						c1.138-1,1.89-2.195,2.005-3.892C304.137,317.724,304.311,315,304.162,311z"/>
				</g>
				<path fill="#F4C342" d="M324,439.314c0,6.453-5.231,11.686-11.686,11.686H197.686c-6.454,0-11.686-5.232-11.686-11.686v-99.629
					c0-6.453,5.231-11.686,11.686-11.686h114.629c6.454,0,11.686,5.232,11.686,11.686V439.314z"/>
				<g>
					<g>
						<rect x="186" y="342" fill="#F89B36" width="138" height="4"/>
						<rect x="186" y="360" fill="#F89B36" width="138" height="5"/>
						<rect x="186" y="379" fill="#F89B36" width="138" height="4"/>
						<rect x="186" y="397" fill="#F89B36" width="138" height="4"/>
						<rect x="186" y="415" fill="#F89B36" width="138" height="4"/>
						<rect x="186" y="434" fill="#F89B36" width="138" height="4"/>
					</g>
				</g>
				<g>
					<g>
						<path fill="#BDC3C7" d="M230.906,325.115c0,1.441-1.179,2.619-2.619,2.619h-26.191c-1.439,0-2.618-1.178-2.618-2.619v-6.548
							c0-1.44,1.179-2.618,2.618-2.618h26.191c1.44,0,2.619,1.178,2.619,2.618V325.115z"/>
					</g>
					<g>
						<path fill="#BDC3C7" d="M313.408,325.115c0,1.441-1.179,2.619-2.619,2.619h-26.191c-1.44,0-2.618-1.178-2.618-2.619v-6.548
							c0-1.44,1.178-2.618,2.618-2.618h26.191c1.44,0,2.619,1.178,2.619,2.618V325.115z"/>
					</g>
				</g>
			</g>
		</g>
	</g>
	<g id="video">
	</g>
	<g id="maginifier__x26__target">
	</g>
	<g id="website__x26__setting_1_">
	</g>
	<g id="website__x26__code">
	</g>
	<g id="SEO_tag">
	</g>
	<g id="website__x26__wrench">
	</g>
	<g id="crown">
	</g>
	<g id="eye">
	</g>
	<g id="website__x26__clock">
	</g>
	<g id="spider">
	</g>
	<g id="website__x26__medal">
	</g>
	<g id="graph">
	</g>
</g>
<g id="Finance__x2F__Money">
	<g id="diamond">
	</g>
	<g id="calculating">
	</g>
	<g id="calculator">
	</g>
	<g id="auction_hammer">
	</g>
	<g id="bag_of_money">
	</g>
	<g id="piggy_bank">
	</g>
	<g id="bank">
	</g>
	<g id="umbrella__x26__coins">
	</g>
	<g id="safe">
	</g>
	<g id="treasure">
	</g>
	<g id="cash__x26__card">
	</g>
	<g id="coins__x26__cash">
	</g>
	<g id="coins__x26__card">
	</g>
	<g id="briefcase">
	</g>
	<g id="cash">
	</g>
</g>
<g id="E-Commerce__x2F__Shopping">
	<g id="New_Symbol">
	</g>
	<g id="mobile__x26__finger">
	</g>
	<g id="price_tag">
	</g>
	<g id="website__x26__magnifier">
	</g>
	<g id="hand_to_ahnd_delivery">
	</g>
	<g id="hand__x26__credit_card">
	</g>
	<g id="hand__x26__iPad">
	</g>
	<g id="empty_basket">
	</g>
	<g id="full_basket">
	</g>
	<g id="trolley">
	</g>
	<g id="wallet">
	</g>
	<g id="truck">
	</g>
	<g id="delivery">
	</g>
	<g id="gift">
	</g>
	<g id="hand__x26__shopping_bag">
	</g>
	<g id="iMac_with_products">
	</g>
	<g id="laptop_store">
	</g>
	<g id="shopping_bag_with_mouse">
	</g>
	<g id="mobile_store">
	</g>
	<g id="store">
	</g>
	<g id="laptop_with_money">
	</g>
</g>
<g id="Strategy">
	<g id="money_palnt">
	</g>
	<g id="contract">
	</g>
	<g id="trophy">
	</g>
	<g id="graph_paper">
	</g>
	<g id="competition">
	</g>
	<g id="checklist">
	</g>
	<g id="megaphone">
	</g>
	<g id="paper_airplane">
	</g>
	<g id="mission_1">
	</g>
	<g id="graph_board">
	</g>
	<g id="mission_2">
	</g>
	<g id="strategy">
	</g>
	<g id="target">
	</g>
	<g id="partnership">
	</g>
	<g id="chess">
	</g>
</g>
</svg>
