<?xml version="1.0" encoding="iso-8859-1"?>
<!-- Generator: Adobe Illustrator 17.0.0, SVG Export Plug-In . SVG Version: 6.00 Build 0)  -->
<!DOCTYPE svg PUBLIC "-//W3C//DTD SVG 1.1//EN" "http://www.w3.org/Graphics/SVG/1.1/DTD/svg11.dtd">
<svg version="1.1" id="Layer_1" xmlns="http://www.w3.org/2000/svg" xmlns:xlink="http://www.w3.org/1999/xlink" x="0px" y="0px"
	 width="512px" height="512px" viewBox="0 0 512 512" style="enable-background:new 0 0 512 512;" xml:space="preserve">
<path id="bg_3_" style="fill:#E27C3E;" d="M512,256c0,141.386-114.611,256-256,256C114.614,512,0,397.386,0,256
	C0,114.616,114.614,0,256,0C397.389,0,512,114.616,512,256z"/>
<circle style="fill:#FFFFFF;" cx="196.58" cy="162.328" r="32.262"/>
<path style="fill:#FFFFFF;" d="M272.05,143.851c0-17.818-14.447-32.263-32.266-32.263c-17.817,0-32.26,14.444-32.26,32.263
	c0,17.817,14.442,32.26,32.26,32.26C257.603,176.11,272.05,161.668,272.05,143.851z"/>
<path style="fill:#F4F4F4;" d="M426.985,181.458c-29.254,0-82.817,0-130.529,0c0,0-46.36,191.293,16.653,191.293
	c63.02,0,87.322-16.202,126.479-91.369C478.75,206.213,456.245,181.458,426.985,181.458z M334.756,336.536
	c-39.157,0-10.35-118.864-10.35-118.864c29.65,0,62.933,0,81.111,0c18.178,0,32.16,15.385,7.831,62.09
	C389.01,326.471,373.913,336.536,334.756,336.536z"/>
<path style="fill:#FFFFFF;" d="M443.761,255.88c-0.336,0-0.679-0.057-1.012-0.175c-1.59-0.56-2.424-2.302-1.864-3.89
	c7.378-20.934,7.759-36.969,1.107-46.366c-5.583-7.889-14.917-9.543-21.763-9.543c-1.683,0-3.049-1.365-3.049-3.049
	c0-1.684,1.363-3.049,3.049-3.049h0.003c11.88,0,21.126,4.189,26.735,12.117c7.959,11.24,7.846,28.708-0.33,51.917
	C446.196,255.095,445.018,255.88,443.761,255.88z"/>
<path style="fill:#F4F4F4;" d="M154.567,148.823c-0.008,0.259-0.041,0.51-0.041,0.769v246.228c0,16.965,13.751,30.715,30.713,30.715
	h151.018c16.96,0,30.713-13.75,30.713-30.715V149.592c0-0.259-0.032-0.51-0.039-0.769H154.567z"/>
<path style="fill:#EFC84A;" d="M172.216,175.494c-0.004,0.215-0.027,0.423-0.027,0.638v205.291
	c0,14.143,11.465,25.608,25.609,25.608H323.7c14.144,0,25.61-11.465,25.61-25.608V176.132c0-0.215-0.026-0.423-0.033-0.638H172.216z
	"/>
<path style="fill:#EFD7AC;" d="M182.878,314.927c-1.885,0-3.411-1.527-3.411-3.411v-87.914c0-1.883,1.526-3.41,3.411-3.41
	s3.41,1.527,3.41,3.41v87.914C186.288,313.399,184.763,314.927,182.878,314.927z"/>
<circle style="fill:#F2D379;" cx="287.395" cy="344.102" r="6.822"/>
<circle style="fill:#F2D379;" cx="257.55" cy="304.874" r="6.823"/>
<circle style="fill:#F2D379;" cx="236.23" cy="290.379" r="6.823"/>
<path style="fill:#F2D379;" d="M260.109,254.137c0-3.767-3.056-6.822-6.825-6.822c-3.766,0-6.821,3.056-6.821,6.822
	c0,3.768,3.056,6.822,6.821,6.822C257.054,260.959,260.109,257.904,260.109,254.137z"/>
<circle style="fill:#EFBB5E;" cx="230.262" cy="273.323" r="6.822"/>
<circle style="fill:#F2D379;" cx="272.046" cy="211.5" r="6.822"/>
<circle style="fill:#EFBB5E;" cx="234.526" cy="212.778" r="6.822"/>
<circle style="fill:#EAAA54;" cx="276.31" cy="182.081" r="6.822"/>
<circle style="fill:#F2D379;" cx="308.289" cy="213.206" r="6.821"/>
<circle style="fill:#F2D379;" cx="287.822" cy="243.479" r="6.823"/>
<circle style="fill:#F2D379;" cx="276.31" cy="269.06" r="6.822"/>
<circle style="fill:#F2D379;" cx="301.467" cy="263.091" r="6.821"/>
<circle style="fill:#F2D379;" cx="283.131" cy="291.231" r="6.822"/>
<circle style="fill:#F2D379;" cx="263.518" cy="330.031" r="6.822"/>
<path style="fill:#FFFFFF;" d="M238.478,147.531c0-21.893-17.752-39.637-39.641-39.637c-21.893,0-39.637,17.744-39.637,39.637
	c0,21.891,17.744,39.635,39.637,39.635C220.726,187.166,238.478,169.422,238.478,147.531z"/>
<circle style="fill:#FFFFFF;" cx="160.761" cy="153.518" r="20.607"/>
<path style="fill:#FFFFFF;" d="M305.958,130.958c0-24.515-19.879-44.386-44.39-44.386c-24.515,0-44.385,19.871-44.385,44.386
	c0,24.513,19.87,44.385,44.385,44.385C286.079,175.343,305.958,155.471,305.958,130.958z"/>
<circle style="fill:#FFFFFF;" cx="282.079" cy="158.127" r="38.013"/>
<circle style="fill:#FFFFFF;" cx="327.906" cy="150.673" r="32.263"/>
<circle style="fill:#FFFFFF;" cx="353.486" cy="149.535" r="21.747"/>
<path style="fill:#FFFFFF;" d="M332.737,129.785c0-14.911-12.089-26.995-26.998-26.995c-14.904,0-26.994,12.084-26.994,26.995
	c0,14.91,12.09,26.995,26.994,26.995C320.648,156.78,332.737,144.695,332.737,129.785z"/>
<circle style="fill:#FFFFFF;" cx="205.487" cy="125.354" r="26.997"/>
<path style="fill:#FFFFFF;" d="M268.587,169.413c0-14.911-12.09-26.996-27.001-26.996c-14.905,0-26.993,12.085-26.993,26.996
	c0,14.909,12.088,26.994,26.993,26.994C256.497,196.407,268.587,184.322,268.587,169.413z"/>
<path style="fill:#FFFFFF;" d="M269.229,191.04c0-14.911-12.089-26.997-27-26.997c-14.906,0-26.994,12.086-26.994,26.997
	c0,14.908,12.088,26.994,26.994,26.994C257.141,218.034,269.229,205.948,269.229,191.04z"/>
<circle style="fill:#FFFFFF;" cx="219.96" cy="183.617" r="16.344"/>
<path style="fill:#FFFFFF;" d="M260.151,101.09c0-14.912-12.09-26.997-26.998-26.997c-14.906,0-26.994,12.085-26.994,26.997
	c0,14.908,12.088,26.994,26.994,26.994C248.062,128.084,260.151,115.998,260.151,101.09z"/>
<path style="fill:#FFFFFF;" d="M239.358,305.738c0,7.633-6.188,13.819-13.821,13.819l0,0c-7.63,0-13.817-6.186-13.817-13.819
	V109.391c0-7.631,6.188-13.818,13.817-13.818l0,0c7.634,0,13.821,6.188,13.821,13.818V305.738z"/>
<path style="fill:#FFFFFF;" d="M324.341,269.092c0,4.552-3.692,8.242-8.245,8.242l0,0c-4.55,0-8.241-3.69-8.241-8.242v-117.11
	c0-4.552,3.691-8.242,8.241-8.242l0,0c4.553,0,8.245,3.69,8.245,8.242V269.092z"/>
<path style="fill:#FFFFFF;" d="M257.697,274.22c0,3.924-3.183,7.105-7.107,7.105l0,0c-3.921,0-7.105-3.182-7.105-7.105V192.07
	c0-3.925,3.184-7.104,7.105-7.104l0,0c3.925,0,7.107,3.18,7.107,7.104V274.22z"/>
<g>
</g>
<g>
</g>
<g>
</g>
<g>
</g>
<g>
</g>
<g>
</g>
<g>
</g>
<g>
</g>
<g>
</g>
<g>
</g>
<g>
</g>
<g>
</g>
<g>
</g>
<g>
</g>
<g>
</g>
</svg>
