<?xml version="1.0" encoding="iso-8859-1"?>
<!-- Generator: Adobe Illustrator 17.0.0, SVG Export Plug-In . SVG Version: 6.00 Build 0)  -->
<!DOCTYPE svg PUBLIC "-//W3C//DTD SVG 1.1//EN" "http://www.w3.org/Graphics/SVG/1.1/DTD/svg11.dtd">
<svg version="1.1" id="Layer_1" xmlns="http://www.w3.org/2000/svg" xmlns:xlink="http://www.w3.org/1999/xlink" x="0px" y="0px"
	 width="512px" height="512px" viewBox="0 0 512 512" style="enable-background:new 0 0 512 512;" xml:space="preserve">
<circle id="background_81_" style="fill:#EFC84A;" cx="256" cy="256" r="256"/>
<rect x="128.435" y="123" style="fill:#EEF2F2;" width="24" height="87"/>
<rect x="359.435" y="123" style="fill:#EEF2F2;" width="24" height="87"/>
<rect x="152.435" y="123" style="fill:#2B3F4D;" width="207" height="35"/>
<rect x="152.435" y="145" style="fill:#243440;" width="207" height="13"/>
<rect x="123.435" y="196" style="fill:#567282;" width="36" height="10"/>
<rect x="354.435" y="196" style="fill:#567282;" width="34" height="10"/>
<rect x="87.435" y="203" style="fill:#ECF0F0;" width="337" height="177"/>
<g>
	<rect x="87.435" y="254" style="fill:#FFFFFF;" width="337" height="2"/>
</g>
<g>
	<rect x="87.435" y="257" style="fill:#FFFFFF;" width="337" height="2"/>
</g>
<g>
	<rect x="87.435" y="259" style="fill:#FFFFFF;" width="337" height="2"/>
</g>
<g>
	<rect x="87.435" y="262" style="fill:#FFFFFF;" width="337" height="2"/>
</g>
<g>
	<rect x="87.435" y="264" style="fill:#FFFFFF;" width="337" height="2"/>
</g>
<rect x="119.435" y="212" style="fill:none;stroke:#AAADAD;stroke-width:2;stroke-miterlimit:10;" width="66" height="38"/>
<rect x="123.435" y="216" style="fill:#2B3F4D;" width="57" height="28"/>
<rect x="121.435" y="222" style="fill:#E2E6E6;" width="60" height="5"/>
<rect x="121.435" y="234" style="fill:#E2E6E6;" width="60" height="6"/>
<rect x="329.435" y="212" style="fill:none;stroke:#AAADAD;stroke-width:2;stroke-miterlimit:10;" width="66" height="38"/>
<rect x="333.435" y="216" style="fill:#2B3F4D;" width="56" height="28"/>
<rect x="331.435" y="222" style="fill:#E2E6E6;" width="60" height="5"/>
<rect x="331.435" y="234" style="fill:#E2E6E6;" width="60" height="6"/>
<rect x="205.435" y="350" style="fill:#2B3F4D;" width="103" height="32"/>
<circle style="fill:#233540;" cx="149.724" cy="322.175" r="52.205"/>
<path style="fill:#E27C3E;" d="M149.724,364.651c-23.422,0-42.479-19.055-42.479-42.477s19.057-42.479,42.479-42.479
	c23.422,0,42.479,19.057,42.479,42.479S173.146,364.651,149.724,364.651z"/>
<path style="fill:none;stroke:#B86532;stroke-width:2.4899;stroke-miterlimit:10;" d="M149.724,354.925
	c-18.059,0-32.752-14.691-32.752-32.75s14.693-32.75,32.752-32.75s32.752,14.691,32.752,32.75S167.782,354.925,149.724,354.925z"/>
<path style="fill:#3B5666;" d="M149.724,345.196c-12.695,0-23.023-10.328-23.023-23.021c0-12.695,10.328-23.023,23.023-23.023
	s23.023,10.328,23.023,23.023C172.747,334.868,162.419,345.196,149.724,345.196z"/>
<path style="fill:#EFC84A;" d="M149.724,335.47c-7.332,0-13.295-5.965-13.295-13.295c0-7.331,5.963-13.295,13.295-13.295
	c7.332,0,13.295,5.964,13.295,13.295C163.019,329.505,157.056,335.47,149.724,335.47z"/>
<circle style="fill:#233540;" cx="364.957" cy="322.175" r="52.206"/>
<path style="fill:#E27C3E;" d="M364.958,364.651c-23.423,0-42.48-19.055-42.48-42.477s19.057-42.479,42.48-42.479
	c23.42,0,42.477,19.057,42.477,42.479S388.378,364.651,364.958,364.651z"/>
<path style="fill:none;stroke:#B86532;stroke-width:2.4899;stroke-miterlimit:10;" d="M364.958,354.925
	c-18.06,0-32.752-14.691-32.752-32.75s14.692-32.75,32.752-32.75c18.057,0,32.75,14.691,32.75,32.75
	S383.015,354.925,364.958,354.925z"/>
<path style="fill:#3B5666;" d="M364.958,345.196c-12.696,0-23.023-10.328-23.023-23.021c0-12.695,10.327-23.023,23.023-23.023
	c12.693,0,23.023,10.328,23.023,23.023C387.982,334.868,377.651,345.196,364.958,345.196z"/>
<path style="fill:#EFC84A;" d="M364.958,335.47c-7.333,0-13.297-5.965-13.297-13.295c0-7.331,5.964-13.295,13.297-13.295
	c7.33,0,13.293,5.964,13.293,13.295C378.251,329.505,372.288,335.47,364.958,335.47z"/>
<rect x="212.435" y="285" style="fill:#2B3F4D;" width="89" height="54"/>
<rect x="217.435" y="290" style="fill:#BFC2C2;" width="79" height="44"/>
<rect x="220.435" y="292" style="fill:#E9EDED;" width="72" height="39"/>
<rect x="191.435" y="210" style="fill:#2B3F4D;" width="128" height="41"/>
<rect x="191.435" y="240" style="fill:#1E2C36;" width="128" height="11"/>
<circle style="fill:#2B3F4D;" cx="235.942" cy="311.191" r="4.703"/>
<circle style="fill:#ECF0F0;" cx="235.942" cy="311.192" r="2.006"/>
<circle style="fill:#2B3F4D;" cx="277.164" cy="311.191" r="4.702"/>
<circle style="fill:#ECF0F0;" cx="277.165" cy="311.192" r="2.006"/>
<circle style="fill:#E0BC46;" cx="209.325" cy="258.748" r="6.6"/>
<circle style="fill:#EFC84A;" cx="209.327" cy="257.282" r="5.135"/>
<circle style="fill:#E0BC46;" cx="223.21" cy="258.748" r="6.6"/>
<circle style="fill:#EFC84A;" cx="223.211" cy="257.282" r="5.136"/>
<circle style="fill:#E0BC46;" cx="237.095" cy="258.748" r="6.6"/>
<circle style="fill:#EFC84A;" cx="237.097" cy="257.282" r="5.135"/>
<circle style="fill:#E0BC46;" cx="250.982" cy="258.748" r="6.6"/>
<circle style="fill:#EFC84A;" cx="250.98" cy="257.282" r="5.135"/>
<circle style="fill:#E0BC46;" cx="264.867" cy="258.748" r="6.6"/>
<circle style="fill:#EFC84A;" cx="264.865" cy="257.282" r="5.136"/>
<circle style="fill:#E0BC46;" cx="278.752" cy="258.748" r="6.6"/>
<circle style="fill:#EFC84A;" cx="278.75" cy="257.282" r="5.135"/>
<circle style="fill:#CF7139;" cx="298.224" cy="260.56" r="10.832"/>
<circle style="fill:#E27C3E;" cx="298.222" cy="258.157" r="8.427"/>
<g>
</g>
<g>
</g>
<g>
</g>
<g>
</g>
<g>
</g>
<g>
</g>
<g>
</g>
<g>
</g>
<g>
</g>
<g>
</g>
<g>
</g>
<g>
</g>
<g>
</g>
<g>
</g>
<g>
</g>
</svg>
