<?xml version="1.0" encoding="iso-8859-1"?>
<!-- Generator: Adobe Illustrator 17.0.0, SVG Export Plug-In . SVG Version: 6.00 Build 0)  -->
<!DOCTYPE svg PUBLIC "-//W3C//DTD SVG 1.1//EN" "http://www.w3.org/Graphics/SVG/1.1/DTD/svg11.dtd">
<svg version="1.1" id="Layer_1" xmlns="http://www.w3.org/2000/svg" xmlns:xlink="http://www.w3.org/1999/xlink" x="0px" y="0px"
	 width="512px" height="512px" viewBox="0 0 512 512" style="enable-background:new 0 0 512 512;" xml:space="preserve">
<path id="bg_54_" style="fill:#45B39C;" d="M512,256c0,141.382-114.61,256-256,256C114.616,512,0,397.382,0,256
	C0,114.62,114.616,0,256,0C397.39,0,512,114.62,512,256z"/>
<path style="fill:#389B83;" d="M506.417,255.887c-8.093,0-15.715,1.953-22.494,5.342c-2.734-16.79-16.606-29.813-33.807-31.219
	c0.101-1.126,0.172-2.257,0.172-3.409c0-16.722-10.973-30.873-26.109-35.67c-0.795-19.965-17.186-35.918-37.344-35.918
	c-20.667,0-37.422,16.754-37.422,37.422c0,16.721,10.973,30.873,26.107,35.67c0.756,18.934,15.539,34.231,34.265,35.762
	c-0.101,1.123-0.173,2.258-0.173,3.409c0,20.667,16.755,37.421,37.422,37.421c3.141,0,6.172-0.429,9.087-1.158
	c-0.051,0.93-0.14,1.846-0.14,2.787c0,22.933,15.318,42.256,36.271,48.381c12.682-30.316,19.715-63.584,19.741-98.494
	C510.16,256.009,508.305,255.887,506.417,255.887z"/>
<path style="fill:#308C74;" d="M376.458,151.073c0.402-2.468,0.664-4.986,0.664-7.568c0-26.031-21.102-47.131-47.131-47.131
	c-2.406,0-4.75,0.238-7.061,0.584c-9.524-12.675-24.641-20.91-41.721-20.91c-9.316,0-18.043,2.468-25.615,6.744
	c-11.15-19.205-31.886-32.151-55.691-32.151c-29.072,0-53.627,19.271-61.637,45.732c-9.403-7.613-21.367-12.189-34.408-12.189
	c-30.24,0-54.754,24.51-54.754,54.752c0,0.459,0.057,0.905,0.068,1.361c-1.744-0.131-3.498-0.221-5.275-0.221
	c-5.952,0-11.726,0.754-17.234,2.17C9.626,176.523,0,215.128,0,256c0,2.147,0.11,4.267,0.161,6.401
	c11.904,9.77,27.134,15.638,43.736,15.638c38.098,0,68.982-30.882,68.982-68.981c0-5.473-0.654-10.788-1.86-15.891
	c19.476-2.549,35.739-15.284,43.197-32.729c11.669,11.742,27.825,19.019,45.687,19.019c16.367,0,31.264-6.154,42.627-16.213
	c9.555,10.556,23.319,17.229,38.68,17.229c5.768,0,11.303-0.974,16.49-2.701c4.23,3.99,9.183,7.209,14.661,9.421
	c-0.003,0.176-0.026,0.349-0.026,0.524c0,23.507,19.053,42.557,42.557,42.557c23.505,0,42.558-19.05,42.558-42.557
	C397.449,172.092,389.005,158.476,376.458,151.073z"/>
<path style="fill:#236D58;" d="M496.437,344.097c-2.514-2.289-5.297-4.277-8.254-5.999c-2.164-22.548-20.035-40.511-42.551-42.792
	c2.969-5.657,4.672-12.086,4.672-18.919c0-20.907-15.746-38.118-36.02-40.478c0.607-3.187,0.956-6.464,0.956-9.829
	c0-28.301-22.531-51.287-50.627-52.133c0.202-2.158,0.319-4.347,0.319-6.559c0-38.1-30.887-68.982-68.983-68.982
	c-15.593,0-29.975,5.181-41.527,13.904c-10.364-17.43-29.335-29.148-51.085-29.148c-27.065,0-49.864,18.1-57.059,42.842
	c-9.08-6.77-20.307-10.828-32.505-10.828c-30.1,0-54.5,24.4-54.5,54.5c0,4.627,0.64,9.096,1.724,13.387
	c-0.321-0.007-0.637-0.049-0.961-0.049c-24.839,0-44.973,20.135-44.973,44.973c0,5.877,1.161,11.475,3.209,16.619
	c-2.691-0.881-5.559-1.375-8.545-1.375c-3.326,0-6.497,0.623-9.447,1.703C0.122,248.606,0,252.287,0,256
	c0,4.88,0.193,9.716,0.471,14.526l-0.033,0.024c0.033,0.604,0.108,1.2,0.146,1.804c0.18,2.781,0.4,5.554,0.67,8.308
	c0.141,1.474,0.287,2.944,0.453,4.413c0.253,2.203,0.548,4.395,0.855,6.58c0.235,1.703,0.456,3.406,0.727,5.098
	c0.03,0.196,0.051,0.393,0.083,0.586c0.006,0.004,0.016,0.004,0.021,0.004C23.165,419.059,128.7,512,256,512
	c88.569,0,166.618-44.983,212.582-113.341c-0.015-0.023-0.036-0.05-0.051-0.071C479.885,381.732,489.329,363.486,496.437,344.097z"
	/>
<path style="fill:#216854;" d="M33.452,382.465C77.499,459.808,160.628,512,256,512c95.376,0,178.505-52.192,222.551-129.535H33.452
	z"/>
<path style="fill:#134435;" d="M451.378,421.339c21.539-25.425,38.213-55.086,48.562-87.588c-1.432-0.143-2.885-0.221-4.355-0.221
	c-11.9,0-22.671,4.755-30.585,12.434c0.032-0.702,0.113-1.398,0.113-2.107c0-29.096-23.591-52.687-52.69-52.687
	c-9.703,0-18.764,2.671-26.576,7.244c-3.631-19.407-20.635-34.11-41.094-34.11c-18.418,0-34.032,11.928-39.618,28.465
	c-5.431-1.709-11.21-2.635-17.204-2.635c-27.429,0-50.322,19.275-55.969,44.998c33.238,33.586,71.029,62.629,112.357,86.207H451.378
	z"/>
<path style="fill:#995F1A;" d="M172.332,177.249c0-3.928-3.183-7.113-7.113-7.113l0,0c-3.931,0-7.113,3.186-7.113,7.113v61.188
	c0,3.927,3.183,7.112,7.113,7.112l0,0c3.931,0,7.113-3.186,7.113-7.112V177.249z"/>
<path style="fill:#995F1A;" d="M186.091,177.249c0-3.928-3.186-7.113-7.115-7.113l0,0c-3.932,0-7.113,3.186-7.113,7.113v61.188
	c0,3.927,3.182,7.112,7.113,7.112l0,0c3.93,0,7.115-3.186,7.115-7.112V177.249z"/>
<path style="fill:#995F1A;" d="M200.317,177.249c0-3.928-3.183-7.113-7.113-7.113l0,0c-3.93,0-7.113,3.186-7.113,7.113v61.188
	c0,3.927,3.184,7.112,7.113,7.112l0,0c3.931,0,7.113-3.186,7.113-7.112V177.249z"/>
<path style="fill:#4C2E0B;" d="M164.436,170.213c-3.555,0.395-6.33,3.376-6.33,7.036v61.188c0,3.658,2.775,6.639,6.33,7.035V170.213
	z"/>
<path style="fill:#4C2E0B;" d="M178.421,170.192c-3.665,0.285-6.559,3.316-6.559,7.057v61.188c0,3.739,2.894,6.77,6.559,7.057
	V170.192z"/>
<path style="fill:#4C2E0B;" d="M191.927,234.387v-64.123c-3.32,0.607-5.836,3.495-5.836,6.985v57.138H191.927z"/>
<path style="fill:#664110;" d="M383.118,422.443c0,12.988,12.557,23.522-0.432,23.522H125.618c-12.988,0,0.551-10.534,0.551-23.522
	V301.909c0-12.984,112.255-121.709,125.24-121.709l61.738,43.51c12.99,0,69.971,65.215,69.971,78.199V422.443z"/>
<path style="fill:#4C2E0B;" d="M313.147,223.71l-61.738-43.51c-12.985,0-125.24,108.725-125.24,121.709v24.945
	c2.537-0.741,4.951-2.049,7.023-3.966l119.863-110.824l119.865,110.824c2.924,2.706,6.518,4.21,10.197,4.585v-25.564
	c0-7.744-20.262-34.053-39.371-54.037l-20.473-18.926C318.944,225.677,315.386,223.71,313.147,223.71z"/>
<path style="fill:#D8D8D8;" d="M151.993,135.752c8.962,0,16.221,7.265,16.221,16.228h-32.449
	C135.765,143.017,143.03,135.752,151.993,135.752z"/>
<path style="fill:#FFFFFF;" d="M175.819,144.3c8.955,0,16.221,7.26,16.221,16.222h-32.455
	C159.585,151.56,166.856,144.3,175.819,144.3z"/>
<path style="fill:#D8D8D8;" d="M108,92.501c11.351,0,20.545,9.203,20.545,20.554H87.449C87.449,101.704,96.649,92.501,108,92.501z"
	/>
<path style="fill:#FFFFFF;" d="M138.175,103.327c11.344,0,20.544,9.194,20.544,20.545h-41.101
	C117.618,112.521,126.823,103.327,138.175,103.327z"/>
<path style="fill:#664110;" d="M396.868,279.149L265.052,157.27c-1.885-1.748-4.053-2.986-6.34-3.755l-0.008-0.003
	c-0.524-0.176-1.052-0.328-1.584-0.453c-0.078-0.021-0.155-0.032-0.23-0.047c-0.461-0.102-0.926-0.193-1.393-0.256
	c-0.164-0.024-0.334-0.033-0.5-0.055c-0.375-0.041-0.751-0.08-1.129-0.098c-0.271-0.012-0.545-0.003-0.812-0.006
	c-0.274,0.003-0.545-0.006-0.816,0.006c-0.378,0.018-0.753,0.057-1.129,0.098c-0.166,0.021-0.333,0.03-0.5,0.055
	c-0.467,0.062-0.932,0.154-1.396,0.256c-0.071,0.015-0.148,0.026-0.223,0.047c-0.536,0.125-1.062,0.277-1.588,0.453
	c0,0-0.006,0.003-0.008,0.003c-2.287,0.769-4.455,2.007-6.34,3.755L109.239,279.149c-7.152,6.616-7.59,17.773-0.977,24.928
	c6.615,7.152,17.775,7.59,24.93,0.971L253.056,194.22l119.865,110.828c7.152,6.619,18.309,6.182,24.924-0.971
	C404.458,296.923,404.021,285.766,396.868,279.149z"/>
<rect x="124.775" y="417.177" style="fill:#995F1A;" width="257.911" height="28.789"/>
<rect x="124.775" y="432.886" style="fill:#4C2E0B;" width="257.911" height="13.08"/>
<rect x="124.775" y="389.061" style="fill:#995F1A;" width="257.911" height="28.789"/>
<rect x="124.775" y="404.77" style="fill:#4C2E0B;" width="257.911" height="13.08"/>
<rect x="124.775" y="360.944" style="fill:#995F1A;" width="257.911" height="28.789"/>
<rect x="124.775" y="376.653" style="fill:#4C2E0B;" width="257.911" height="13.08"/>
<rect x="124.775" y="332.827" style="fill:#995F1A;" width="257.911" height="28.789"/>
<rect x="124.775" y="348.536" style="fill:#4C2E0B;" width="257.911" height="13.08"/>
<rect x="124.775" y="304.712" style="fill:#995F1A;" width="257.911" height="28.789"/>
<rect x="124.775" y="320.423" style="fill:#4C2E0B;" width="257.911" height="13.078"/>
<rect x="124.775" y="276.595" style="fill:#995F1A;" width="257.911" height="28.789"/>
<rect x="120.217" y="295.356" style="fill:#4C2E0B;" width="257.911" height="13.076"/>
<rect x="161.905" y="248.481" style="fill:#995F1A;" width="183.649" height="28.787"/>
<rect x="148.339" y="264.19" style="fill:#4C2E0B;" width="210.784" height="13.078"/>
<rect x="186.3" y="220.366" style="fill:#995F1A;" width="134.863" height="28.789"/>
<rect x="174.387" y="236.075" style="fill:#4C2E0B;" width="158.687" height="13.08"/>
<rect x="211.186" y="192.249" style="fill:#995F1A;" width="85.091" height="28.789"/>
<rect x="200.851" y="207.958" style="fill:#4C2E0B;" width="105.762" height="13.08"/>
<path style="fill:#E2B279;" d="M111.15,431.709c0-7.988,6.479-14.467,14.468-14.467c7.992,0,14.471,6.479,14.471,14.467
	c0,7.992-6.479,14.468-14.471,14.468C117.63,446.177,111.15,439.701,111.15,431.709z"/>
<rect x="216.206" y="325.282" style="fill:#331D07;" width="70.433" height="120.537"/>
<path style="fill:#BA7F3E;" d="M201.431,337.747c0,1.053-0.854,1.904-1.904,1.904H146.55c-1.051,0-1.905-0.852-1.905-1.904l0,0
	c0-1.055,0.854-1.906,1.905-1.906h52.977C200.577,335.841,201.431,336.692,201.431,337.747L201.431,337.747z"/>
<path style="fill:#BA7F3E;" d="M352.736,343.464c0,1.053-0.854,1.904-1.905,1.904h-52.977c-1.051,0-1.905-0.852-1.905-1.904l0,0
	c0-1.055,0.855-1.906,1.905-1.906h52.977C351.882,341.558,352.736,342.409,352.736,343.464L352.736,343.464z"/>
<path style="fill:#BA7F3E;" d="M213.246,312.593c0,1.055-0.854,1.906-1.905,1.906h-52.977c-1.051,0-1.905-0.852-1.905-1.906l0,0
	c0-1.055,0.855-1.906,1.905-1.906h52.977C212.392,310.686,213.246,311.538,213.246,312.593L213.246,312.593z"/>
<path style="fill:#BA7F3E;" d="M298.235,281.722c0,1.055-0.853,1.906-1.904,1.906h-52.977c-1.051,0-1.906-0.852-1.906-1.906l0,0
	c0-1.053,0.855-1.904,1.906-1.904h52.977C297.382,279.817,298.235,280.669,298.235,281.722L298.235,281.722z"/>
<path style="fill:#BA7F3E;" d="M229.95,290.593c0,1.054-0.855,1.905-1.906,1.905h-52.976c-1.051,0-1.905-0.851-1.905-1.905l0,0
	c0-1.055,0.854-1.906,1.905-1.906h52.976C229.095,288.686,229.95,289.538,229.95,290.593L229.95,290.593z"/>
<path style="fill:#BA7F3E;" d="M363.018,291.208c0,1.055-0.855,1.906-1.905,1.906h-52.977c-1.051,0-1.905-0.852-1.905-1.906l0,0
	c0-1.054,0.854-1.905,1.905-1.905h52.977C362.163,289.303,363.018,290.154,363.018,291.208L363.018,291.208z"/>
<path style="fill:#BA7F3E;" d="M248.691,255.044c0,1.055-0.855,1.906-1.906,1.906H193.81c-1.052,0-1.906-0.852-1.906-1.906l0,0
	c0-1.054,0.854-1.905,1.906-1.905h52.975C247.836,253.139,248.691,253.99,248.691,255.044L248.691,255.044z"/>
<path style="fill:#BA7F3E;" d="M282.61,225.698c0,1.055-0.855,1.906-1.906,1.906h-52.976c-1.051,0-1.905-0.852-1.905-1.906l0,0
	c0-1.055,0.854-1.906,1.905-1.906h52.976C281.755,223.792,282.61,224.644,282.61,225.698L282.61,225.698z"/>
<path style="fill:#BA7F3E;" d="M211.722,366.33c0,1.054-0.854,1.905-1.906,1.905h-52.975c-1.052,0-1.906-0.852-1.906-1.905l0,0
	c0-1.054,0.854-1.905,1.906-1.905h52.975C210.867,364.425,211.722,365.276,211.722,366.33L211.722,366.33z"/>
<path style="fill:#BA7F3E;" d="M367.219,365.568c0,1.054-0.854,1.905-1.905,1.905h-52.977c-1.051,0-1.905-0.852-1.905-1.905l0,0
	c0-1.055,0.854-1.906,1.905-1.906h52.977C366.364,363.662,367.219,364.514,367.219,365.568L367.219,365.568z"/>
<path style="fill:#BA7F3E;" d="M347.02,394.151c0,1.055-0.854,1.906-1.905,1.906h-52.977c-1.051,0-1.905-0.852-1.905-1.906l0,0
	c0-1.054,0.854-1.905,1.905-1.905h52.977C346.165,392.246,347.02,393.098,347.02,394.151L347.02,394.151z"/>
<path style="fill:#BA7F3E;" d="M198.382,394.533c0,1.054-0.854,1.905-1.905,1.905h-52.976c-1.051,0-1.906-0.852-1.906-1.905l0,0
	c0-1.055,0.855-1.906,1.906-1.906h52.976C197.528,392.627,198.382,393.478,198.382,394.533L198.382,394.533z"/>
<path style="fill:#BA7F3E;" d="M365.314,422.735c0,1.054-0.855,1.905-1.906,1.905h-52.976c-1.051,0-1.905-0.852-1.905-1.905l0,0
	c0-1.054,0.854-1.905,1.905-1.905h52.976C364.458,420.83,365.314,421.682,365.314,422.735L365.314,422.735z"/>
<path style="fill:#995F1A;" d="M396.868,279.149L265.052,157.27c-1.885-1.748-4.053-2.986-6.34-3.755l-0.008-0.003
	c-0.524-0.176-1.052-0.328-1.584-0.453c-0.078-0.021-0.155-0.032-0.23-0.047c-0.461-0.102-0.926-0.193-1.393-0.256
	c-0.164-0.024-0.334-0.033-0.5-0.055c-0.375-0.041-0.751-0.08-1.129-0.098c-0.271-0.012-0.545-0.003-0.812-0.006
	c-0.274,0.003-0.545-0.006-0.816,0.006c-0.378,0.018-0.753,0.057-1.129,0.098c-0.166,0.021-0.333,0.03-0.5,0.055
	c-0.467,0.062-0.932,0.154-1.396,0.256c-0.071,0.015-0.148,0.026-0.223,0.047c-0.536,0.125-1.062,0.277-1.588,0.453
	c0,0-0.006,0.003-0.008,0.003c-2.287,0.769-4.455,2.007-6.34,3.755L109.239,279.149c-7.152,6.616-7.59,17.773-0.977,24.928
	c6.615,7.152,17.775,7.59,24.93,0.971L253.056,194.22l119.865,110.828c7.152,6.619,18.309,6.182,24.924-0.971
	C404.458,296.923,404.021,285.766,396.868,279.149z"/>
<path style="opacity:0.5;fill:#4C2E0B;" d="M382.687,292.108L265.052,183.341c-1.885-1.748-4.053-2.986-6.34-3.755l-0.008-0.003
	c-0.524-0.176-1.052-0.327-1.584-0.453c-0.078-0.02-0.155-0.032-0.23-0.047c-0.461-0.102-0.926-0.193-1.393-0.256
	c-0.164-0.023-0.334-0.033-0.5-0.054c-0.375-0.042-0.751-0.081-1.129-0.099c-0.271-0.012-0.545-0.003-0.812-0.006
	c-0.274,0.003-0.545-0.006-0.816,0.006c-0.378,0.018-0.753,0.057-1.129,0.099c-0.166,0.02-0.333,0.03-0.5,0.054
	c-0.467,0.062-0.932,0.154-1.396,0.256c-0.071,0.015-0.148,0.027-0.223,0.047c-0.536,0.126-1.062,0.277-1.588,0.453
	c0,0-0.006,0.003-0.008,0.003c-2.287,0.769-4.455,2.007-6.34,3.755l-116.28,107.514v44.531c3.043-0.629,5.97-2.004,8.417-4.268
	l119.863-110.827l119.865,110.827c2.811,2.6,6.238,4.074,9.766,4.514V292.108z"/>
<path style="fill:#4C2E0B;" d="M133.192,305.048L253.056,194.22l119.865,110.828c6.994,6.473,17.791,6.151,24.454-0.554
	c-0.182-0.185-0.315-0.396-0.507-0.571L265.052,182.042c-1.885-1.747-4.053-2.986-6.34-3.754l-0.008-0.003
	c-0.524-0.176-1.052-0.327-1.584-0.452c-0.078-0.021-0.155-0.033-0.23-0.049c-0.461-0.101-0.926-0.193-1.393-0.256
	c-0.164-0.023-0.334-0.032-0.5-0.053c-0.375-0.042-0.751-0.081-1.129-0.099c-0.271-0.013-0.545-0.003-0.812-0.006
	c-0.274,0.003-0.545-0.007-0.816,0.006c-0.378,0.018-0.753,0.057-1.129,0.099c-0.166,0.02-0.333,0.029-0.5,0.053
	c-0.467,0.062-0.932,0.155-1.396,0.256c-0.071,0.016-0.148,0.027-0.223,0.049c-0.536,0.125-1.062,0.276-1.588,0.452
	c0,0-0.006,0.003-0.008,0.003c-2.287,0.768-4.455,2.007-6.34,3.754L109.239,303.923c-0.191,0.176-0.325,0.387-0.507,0.571
	C115.396,311.199,126.196,311.521,133.192,305.048z"/>
<path style="fill:#E2B279;" d="M111.15,402.777c0-7.988,6.479-14.468,14.468-14.468c7.992,0,14.471,6.479,14.471,14.468
	c0,7.988-6.479,14.468-14.471,14.468C117.63,417.245,111.15,410.766,111.15,402.777z"/>
<path style="fill:#E2B279;" d="M111.15,373.846c0-7.992,6.479-14.468,14.468-14.468c7.992,0,14.471,6.476,14.471,14.468
	c0,7.988-6.479,14.467-14.471,14.467C117.63,388.312,111.15,381.834,111.15,373.846z"/>
<path style="fill:#E2B279;" d="M111.15,344.91c0-7.988,6.479-14.468,14.468-14.468c7.992,0,14.471,6.479,14.471,14.468
	c0,7.991-6.479,14.471-14.471,14.471C117.63,359.381,111.15,352.901,111.15,344.91z"/>
<path style="fill:#E2B279;" d="M111.15,315.978c0-7.988,6.479-14.467,14.468-14.467c7.992,0,14.471,6.479,14.471,14.467
	c0,7.992-6.479,14.469-14.471,14.469C117.63,330.446,111.15,323.97,111.15,315.978z"/>
<circle style="fill:#995F1A;" cx="125.62" cy="315.978" r="10.658"/>
<circle style="fill:#995F1A;" cx="125.62" cy="344.69" r="10.658"/>
<circle style="fill:#995F1A;" cx="125.62" cy="373.401" r="10.658"/>
<circle style="fill:#995F1A;" cx="125.62" cy="402.113" r="10.658"/>
<circle style="fill:#E2B279;" cx="382.688" cy="431.709" r="14.468"/>
<circle style="fill:#E2B279;" cx="382.688" cy="402.777" r="14.468"/>
<circle style="fill:#E2B279;" cx="382.688" cy="373.846" r="14.468"/>
<circle style="fill:#E2B279;" cx="382.688" cy="344.91" r="14.468"/>
<circle style="fill:#E2B279;" cx="382.688" cy="315.978" r="14.468"/>
<path style="fill:#E2B279;" d="M297.602,322.758c0-3.228-2.617-5.845-5.845-5.845h-84.609c-3.227,0-5.844,2.617-5.844,5.845l0,0
	c0,3.228,2.617,5.845,5.844,5.845h84.609C294.984,328.603,297.602,325.985,297.602,322.758L297.602,322.758z"/>
<path style="fill:#BA7F3E;" d="M154.628,254.07c0.711,0.777,0.652,1.983-0.122,2.692l-39.134,35.709
	c-0.773,0.708-1.979,0.657-2.691-0.123l0,0c-0.709-0.777-0.652-1.982,0.122-2.691l39.13-35.709
	C152.71,253.239,153.916,253.29,154.628,254.07L154.628,254.07z"/>
<path style="fill:#BA7F3E;" d="M221.958,180.77c0.712,0.777,0.652,1.983-0.122,2.692l-39.134,35.708
	c-0.773,0.709-1.979,0.658-2.691-0.121l0,0c-0.709-0.777-0.652-1.983,0.123-2.691l39.13-35.709
	C220.04,179.94,221.247,179.991,221.958,180.77L221.958,180.77z"/>
<path style="fill:#BA7F3E;" d="M277.834,174.927c-0.712,0.777-0.651,1.982,0.122,2.691l39.133,35.709
	c0.775,0.709,1.98,0.658,2.692-0.123l0,0c0.708-0.776,0.651-1.982-0.122-2.691l-39.131-35.709
	C279.751,174.096,278.546,174.146,277.834,174.927L277.834,174.927z"/>
<path style="fill:#BA7F3E;" d="M300.192,207.958c-0.712,0.777-0.652,1.983,0.122,2.691l39.134,35.709
	c0.773,0.709,1.979,0.658,2.691-0.121l0,0c0.709-0.777,0.652-1.983-0.123-2.691l-39.13-35.709
	C302.11,207.128,300.903,207.179,300.192,207.958L300.192,207.958z"/>
<path style="fill:#134435;" d="M203.849,435.315c-5.854,0-11.15,2.337-15.042,6.115c0.015-0.345,0.054-0.688,0.054-1.036
	c0-14.312-11.604-25.916-25.916-25.916c-4.773,0-9.23,1.314-13.072,3.565c-1.785-9.546-10.149-16.778-20.213-16.778
	c-9.06,0-16.74,5.866-19.488,14c-2.671-0.84-5.515-1.295-8.463-1.295c-13.49,0-24.752,9.48-27.529,22.135
	c16.35,16.518,34.938,30.805,55.266,42.402h74.404c11.928,0,21.596-9.668,21.596-21.596
	C225.444,444.983,215.776,435.315,203.849,435.315z"/>
<path style="fill:#995F1A;" d="M372.189,315.978c0-5.883,4.773-10.656,10.656-10.656c5.887,0,10.66,4.773,10.66,10.656
	c0,5.887-4.773,10.657-10.66,10.657C376.962,326.635,372.189,321.864,372.189,315.978z"/>
<path style="fill:#995F1A;" d="M372.189,344.942c0-5.883,4.773-10.656,10.656-10.656c5.887,0,10.66,4.773,10.66,10.656
	c0,5.887-4.773,10.657-10.66,10.657C376.962,355.6,372.189,350.829,372.189,344.942z"/>
<path style="fill:#995F1A;" d="M372.189,373.911c0-5.884,4.773-10.656,10.656-10.656c5.887,0,10.66,4.772,10.66,10.656
	c0,5.886-4.773,10.656-10.66,10.656C376.962,384.567,372.189,379.797,372.189,373.911z"/>
<path style="fill:#995F1A;" d="M372.189,402.56c0-5.883,4.773-10.656,10.656-10.656c5.887,0,10.66,4.773,10.66,10.656
	c0,5.887-4.773,10.657-10.66,10.657C376.962,413.217,372.189,408.446,372.189,402.56z"/>
<path style="fill:#995F1A;" d="M372.189,431.459c0-5.883,4.773-10.656,10.656-10.656c5.887,0,10.66,4.773,10.66,10.656
	c0,5.887-4.773,10.656-10.66,10.656C376.962,442.115,372.189,437.346,372.189,431.459z"/>
<g>
</g>
<g>
</g>
<g>
</g>
<g>
</g>
<g>
</g>
<g>
</g>
<g>
</g>
<g>
</g>
<g>
</g>
<g>
</g>
<g>
</g>
<g>
</g>
<g>
</g>
<g>
</g>
<g>
</g>
</svg>
