<?xml version="1.0" encoding="iso-8859-1"?>
<!-- Generator: Adobe Illustrator 17.0.0, SVG Export Plug-In . SVG Version: 6.00 Build 0)  -->
<!DOCTYPE svg PUBLIC "-//W3C//DTD SVG 1.1//EN" "http://www.w3.org/Graphics/SVG/1.1/DTD/svg11.dtd">
<svg version="1.1" id="Layer_1" xmlns="http://www.w3.org/2000/svg" xmlns:xlink="http://www.w3.org/1999/xlink" x="0px" y="0px"
	 width="512px" height="512px" viewBox="0 0 512 512" style="enable-background:new 0 0 512 512;" xml:space="preserve">
<circle id="bg_13_" style="fill:#E05B49;" cx="256" cy="256" r="256"/>
<path style="fill:#5B2B0B;" d="M404.512,382.849H69.245c-6.032,0-10.922-4.891-10.922-10.923c0-6.032,4.89-10.92,10.922-10.92
	h335.267c18.067,0,32.765-14.699,32.765-32.766v-4.225c0-18.071-14.697-32.766-32.765-32.766H69.245
	c-6.032,0-10.922-4.891-10.922-10.923c0-6.033,4.89-10.92,10.922-10.92h335.267c30.111,0,54.608,24.496,54.608,54.609v4.225
	C459.119,358.351,434.623,382.849,404.512,382.849z"/>
<path style="fill:#FFFFFF;" d="M69.245,361.005h335.267c18.067,0,32.765-14.699,32.765-32.766v-4.225
	c0-18.071-14.697-32.766-32.765-32.766H69.245c-0.699,0-1.379-0.082-2.036-0.205v70.167
	C67.866,361.085,68.546,361.005,69.245,361.005z"/>
<path style="fill:#EFC84A;" d="M303.118,324.61h106.154c5.714,0,10.371-4.654,10.371-10.376v-1.337
	c0-5.721-4.657-10.374-10.371-10.374H303.118c-0.227,0-235.704-0.028-235.909-0.067v22.218
	C67.414,324.636,302.892,324.61,303.118,324.61z"/>
<path style="fill:#EFC84A;" d="M303.118,354.099h106.154c5.714,0,10.371-4.655,10.371-10.375v-1.339
	c0-5.721-4.657-10.372-10.371-10.372H303.118c-0.227,0-236.252-0.028-236.457-0.067v22.217
	C66.866,354.125,302.892,354.099,303.118,354.099z"/>
<path style="fill:#5B2B0B;" d="M186.071,281.823l233-2.914l31.309,37.134l8.578,3.588
	c-3.438-108.479-92.398-195.376-201.709-195.376c-8.072,0-16.016,0.526-23.841,1.449L62.963,271.398c0,0-0.843,4.127-1.104,3.858
	c-0.283,1.085-0.482,2.203-0.751,3.296L186.071,281.823z"/>
<path style="fill:#5B2B0B;" d="M137.288,334.808c0,4.267-3.46,7.728-7.725,7.728l0,0c-4.272,0-7.729-3.461-7.729-7.728v-45.072
	c0-4.268,3.457-7.728,7.729-7.728l0,0c4.265,0,7.725,3.46,7.725,7.728V334.808z"/>
<path style="fill:#5B2B0B;" d="M244.708,347.08c0,4.858-3.939,8.797-8.793,8.797l0,0c-4.865,0-8.802-3.939-8.802-8.797v-66.48
	c0-4.859,3.936-8.796,8.802-8.796v15.173c4.854,0,8.793-11.237,8.793-6.378V347.08z"/>
<path style="fill:#5B2B0B;" d="M149.2,316.344c0,2.845-2.307,5.151-5.15,5.151l0,0c-2.844,0-5.151-2.306-5.151-5.151v-30.043
	c0-2.847,2.308-5.154,5.151-5.154l0,0c2.844,0,5.15,2.307,5.15,5.154V316.344z"/>
<path style="fill:#5B2B0B;" d="M253.843,316.344c0,2.845-2.311,5.151-5.151,5.151l0,0c-2.847,0-5.153-2.306-5.153-5.151v-30.043
	c0-2.847,2.307-5.154,5.153-5.154l0,0c2.841,0,5.151,2.307,5.151,5.154V316.344z"/>
<path style="fill:#3F1E07;" d="M244.24,213.259c0-27.346,22.171-49.51,49.511-49.51c27.346,0,49.513,22.165,49.513,49.51
	s-22.167,49.512-49.513,49.512C266.411,262.771,244.24,240.605,244.24,213.259z"/>
<path style="fill:#D15322;" d="M223.21,202.459c0-27.346,22.168-49.511,49.508-49.511c27.346,0,49.513,22.165,49.513,49.511
	c0,27.345-22.167,49.512-49.513,49.512C245.378,251.97,223.21,229.804,223.21,202.459z"/>
<path style="fill:#EFB5A3;" d="M235.767,205.871c-1.885,0-3.41-1.527-3.41-3.412c0-22.256,18.107-40.362,40.361-40.362
	c1.888,0,3.412,1.527,3.412,3.411c0,1.885-1.524,3.412-3.412,3.412c-18.494,0-33.539,15.045-33.539,33.539
	C239.179,204.343,237.654,205.871,235.767,205.871z"/>
<g>
</g>
<g>
</g>
<g>
</g>
<g>
</g>
<g>
</g>
<g>
</g>
<g>
</g>
<g>
</g>
<g>
</g>
<g>
</g>
<g>
</g>
<g>
</g>
<g>
</g>
<g>
</g>
<g>
</g>
</svg>
