<?xml version="1.0" encoding="iso-8859-1"?>
<!-- Generator: Adobe Illustrator 17.0.0, SVG Export Plug-In . SVG Version: 6.00 Build 0)  -->
<!DOCTYPE svg PUBLIC "-//W3C//DTD SVG 1.1//EN" "http://www.w3.org/Graphics/SVG/1.1/DTD/svg11.dtd">
<svg version="1.1" id="Layer_1" xmlns="http://www.w3.org/2000/svg" xmlns:xlink="http://www.w3.org/1999/xlink" x="0px" y="0px"
	 width="512px" height="512px" viewBox="0 0 512 512" style="enable-background:new 0 0 512 512;" xml:space="preserve">
<path id="bg_56_" style="fill:#ECF0F0;" d="M512,256c0,141.382-114.609,256-256,256C114.617,512,0,397.382,0,256
	C0,114.621,114.617,0,256,0C397.391,0,512,114.621,512,256z"/>
<path style="fill:#D8D8D8;" d="M31.946,353.193c1.09,3.722,2.269,7.396,3.537,11.035h7.691v-63.063H31.946V353.193z"/>
<rect x="63.047" y="301.165" style="fill:#D8D8D8;" width="11.231" height="63.063"/>
<path style="fill:#D8D8D8;" d="M499.861,333.992H12.143c1.209,3.781,2.489,7.529,3.868,11.23h479.983
	C497.369,341.522,498.652,337.773,499.861,333.992z"/>
<rect x="436.246" y="301.165" style="fill:#D8D8D8;" width="11.232" height="63.063"/>
<path style="fill:#B5B5B5;" d="M493.076,352.625H18.929C57.067,446.097,148.814,512,256,512
	C363.191,512,454.937,446.097,493.076,352.625z"/>
<path style="fill:#848484;" d="M450.158,422.748l-22.54-16.808l-340.204,6.723l88.706,86.579C201.256,507.498,228.098,512,256,512
	C333.678,512,403.227,477.375,450.158,422.748z"/>
<path style="fill:#D8D8D8;" d="M505.891,311.533H6.11c0.837,3.775,1.741,7.521,2.742,11.23h494.299
	C504.152,319.054,505.057,315.309,505.891,311.533z"/>
<rect x="185.195" y="212.195" style="fill:#6B1912;" width="169.861" height="175.757"/>
<ellipse style="fill:#9E2D1E;" cx="255.956" cy="405.939" rx="171.54" ry="39.407"/>
<path style="fill:#FFFFFF;" d="M413.65,206.121H98.389L84.481,405.94c0,17.153,47.726,31.743,114.327,37.152l11.13-196.593h92.165
	l11.127,196.597c66.602-5.413,114.328-20.003,114.328-37.156L413.65,206.121z"/>
<path style="fill:#E45136;" d="M111.99,427.332c10.15,3.601,22.784,6.792,37.35,9.451l12.721-180.59h-38.02L111.99,427.332z"/>
<path style="fill:#E45136;" d="M198.809,443.092l10.811-190.983h-11.353l-13.395,189.683
	C189.418,442.268,194.062,442.705,198.809,443.092z"/>
<path style="fill:#E45136;" d="M313.249,443.092L302.44,252.108h11.354l13.395,189.683
	C322.643,442.268,317.998,442.705,313.249,443.092z"/>
<path style="fill:#E45136;" d="M84.481,405.94c0,3.73,2.266,7.343,6.487,10.764l12.256-174.063H95.85L84.481,405.94z"/>
<path style="fill:#E45136;" d="M400.109,427.332c-10.15,3.601-22.787,6.792-37.354,9.451l-12.717-180.59h38.02L400.109,427.332z"/>
<path style="fill:#E45136;" d="M427.618,405.94c0,3.73-2.267,7.343-6.488,10.764L408.871,242.64h7.379L427.618,405.94z"/>
<path style="opacity:0.5;fill:#822119;" d="M414.32,215.73h-26.375v55.08c0,9.04,7.331,16.367,16.371,16.367h4.541
	c3.855,0,7.39-1.343,10.186-3.569L414.32,215.73z"/>
<path style="opacity:0.5;fill:#822119;" d="M350.305,270.81c0,9.04,7.324,16.367,16.363,16.367h4.544
	c9.04,0,16.368-7.327,16.368-16.367v-55.08h-37.275V270.81z"/>
<path style="opacity:0.5;fill:#822119;" d="M312.662,270.81c0,9.04,7.325,16.367,16.365,16.367h4.543
	c9.04,0,16.365-7.327,16.365-16.367v-55.08h-37.273V270.81z"/>
<path style="opacity:0.5;fill:#822119;" d="M302.44,252.108l1.854,32.752c4.785-2.858,7.998-8.071,7.998-14.051v-18.701H302.44z"/>
<path style="opacity:0.5;fill:#822119;" d="M199.732,270.81c0,5.994,3.227,11.22,8.034,14.069l1.854-32.771h-9.888V270.81z"/>
<path style="opacity:0.5;fill:#822119;" d="M162.087,270.81c0,9.04,7.327,16.367,16.368,16.367h4.543
	c9.039,0,16.364-7.327,16.364-16.367v-55.08h-37.275V270.81z"/>
<path style="opacity:0.5;fill:#822119;" d="M124.442,270.81c0,9.04,7.331,16.367,16.37,16.367h4.544
	c9.04,0,16.364-7.327,16.364-16.367v-55.08h-37.278V270.81z"/>
<path style="opacity:0.5;fill:#822119;" d="M92.994,283.616c2.796,2.224,6.324,3.561,10.171,3.561h4.544
	c9.039,0,16.37-7.327,16.37-16.367v-55.08H97.723L92.994,283.616z"/>
<polygon style="fill:#B23424;" points="314.182,45.248 267.416,45.248 267.416,25.082 314.182,25.082 302.402,34.991 "/>
<path style="fill:#350704;" d="M255.899,75.657c-0.768,0-1.388-0.622-1.388-1.391V9.106c0-0.769,0.619-1.391,1.388-1.391
	c0.771,0,1.394,0.622,1.394,1.391v65.161C257.293,75.035,256.67,75.657,255.899,75.657z"/>
<polygon style="fill:#E45136;" points="425.225,203.212 86.801,203.212 255.947,66.88 "/>
<polygon style="fill:#FFFFFF;" points="161.721,203.212 256.176,67.038 124.242,203.197 "/>
<polygon style="fill:#FFFFFF;" points="199.732,203 237.01,203 256.176,66.826 "/>
<polygon style="fill:#FFFFFF;" points="256.176,66.826 275.015,203 312.293,203 "/>
<polygon style="fill:#FFFFFF;" points="256.176,66.826 350.305,203 387.58,203 "/>
<path style="fill:#B23424;" d="M387.945,203.212v55.081c0,9.039,7.331,16.367,16.371,16.367h4.541
	c9.036,0,16.367-7.328,16.367-16.367v-55.081H387.945z"/>
<path style="fill:#C1C1C1;" d="M350.305,203.212v55.081c0,9.039,7.324,16.367,16.363,16.367h4.544
	c9.04,0,16.368-7.328,16.368-16.367v-55.081H350.305z"/>
<path style="fill:#B23424;" d="M312.662,203.212v55.081c0,9.039,7.325,16.367,16.365,16.367h4.543
	c9.04,0,16.365-7.328,16.365-16.367v-55.081H312.662z"/>
<path style="fill:#C1C1C1;" d="M275.015,203.212v55.081c0,9.039,7.331,16.367,16.364,16.367h4.55
	c9.036,0,16.364-7.328,16.364-16.367v-55.081H275.015z"/>
<path style="fill:#B23424;" d="M237.373,203.212v55.081c0,9.039,7.33,16.367,16.367,16.367h4.541c9.039,0,16.37-7.328,16.37-16.367
	v-55.081H237.373z"/>
<path style="fill:#C1C1C1;" d="M199.732,203.212v55.081c0,9.039,7.325,16.367,16.364,16.367h4.544c9.04,0,16.37-7.328,16.37-16.367
	v-55.081H199.732z"/>
<path style="fill:#B23424;" d="M162.087,203.212v55.081c0,9.039,7.327,16.367,16.368,16.367h4.543
	c9.039,0,16.364-7.328,16.364-16.367v-55.081H162.087z"/>
<path style="fill:#C1C1C1;" d="M124.442,203.212v55.081c0,9.039,7.331,16.367,16.37,16.367h4.544c9.04,0,16.364-7.328,16.364-16.367
	v-55.081H124.442z"/>
<path style="fill:#B23424;" d="M86.801,203.212v55.081c0,9.039,7.33,16.367,16.364,16.367h4.544c9.039,0,16.37-7.328,16.37-16.367
	v-55.081H86.801z"/>
<rect x="257.102" y="13.435" style="fill:#E45136;" width="28.221" height="20.166"/>
<polygon style="fill:#842119;" points="267.416,45.248 285.322,33.601 267.401,33.643 "/>
<g>
</g>
<g>
</g>
<g>
</g>
<g>
</g>
<g>
</g>
<g>
</g>
<g>
</g>
<g>
</g>
<g>
</g>
<g>
</g>
<g>
</g>
<g>
</g>
<g>
</g>
<g>
</g>
<g>
</g>
</svg>
