<?xml version="1.0" encoding="iso-8859-1"?>
<!-- Generator: Adobe Illustrator 17.0.0, SVG Export Plug-In . SVG Version: 6.00 Build 0)  -->
<!DOCTYPE svg PUBLIC "-//W3C//DTD SVG 1.1//EN" "http://www.w3.org/Graphics/SVG/1.1/DTD/svg11.dtd">
<svg version="1.1" id="Layer_1" xmlns="http://www.w3.org/2000/svg" xmlns:xlink="http://www.w3.org/1999/xlink" x="0px" y="0px"
	 width="512px" height="512px" viewBox="0 0 512 512" style="enable-background:new 0 0 512 512;" xml:space="preserve">
<circle id="background_4_" style="fill:#ECF0F0;" cx="256" cy="256" r="256"/>
<circle style="fill:#FF5646;" cx="256" cy="256" r="255.48"/>
<path style="fill:#E24C3E;" d="M256,500.153c-65.216,0-126.527-25.398-172.643-71.512C37.244,382.528,11.848,321.215,11.848,256
	c0-65.215,25.396-126.528,71.51-172.642C129.473,37.245,190.784,11.847,256,11.847c65.215,0,126.528,25.398,172.642,71.512
	s71.51,107.427,71.51,172.642c0,65.215-25.396,126.528-71.51,172.642S321.215,500.153,256,500.153z"/>
<circle style="fill:#BD3F34;" cx="256" cy="256" r="203.845"/>
<path style="fill:#ECF0F0;" d="M256,448.518c-106.155,0-192.519-86.362-192.519-192.518c0-106.155,86.363-192.52,192.519-192.52
	S448.519,149.845,448.519,256C448.519,362.156,362.155,448.518,256,448.518z"/>
<path style="fill:#334D5C;" d="M93,257.116c0,3.802-3.082,6.884-6.883,6.884h-5.234c-3.801,0-6.883-3.082-6.883-6.884v-1.231
	c0-3.803,3.082-6.885,6.883-6.885h5.234c3.801,0,6.883,3.081,6.883,6.885V257.116z"/>
<path style="fill:#334D5C;" d="M115.3,174.884c-1.901,3.291-6.111,4.419-9.403,2.518l-4.755-2.745c-3.291-1.9-4.42-6.11-2.52-9.402
	l0.48-0.831c1.9-3.294,6.109-4.418,9.401-2.518l4.756,2.745c3.292,1.902,4.42,6.108,2.519,9.4L115.3,174.884z"/>
<path style="fill:#334D5C;" d="M115.212,337.995c1.9,3.292,0.772,7.5-2.52,9.401l-4.755,2.746c-3.292,1.9-7.502,0.773-9.401-2.519
	l-0.481-0.833c-1.899-3.292-0.771-7.5,2.521-9.4l4.755-2.746c3.292-1.9,7.501-0.771,9.401,2.52L115.212,337.995z"/>
<path style="opacity:0.3;fill:#5D5D5D;" d="M336.988,248.999h-57.59c-2.692-5-7.398-9.823-12.398-12.169V131.968
	c0-6.568-5.432-11.893-12-11.893c-6.568,0-12,5.325-12,11.893v105.974c-7,4.498-12.809,12.925-12.809,22.59
	c0,6.423,2.465,12.301,6.322,16.843c-21.838,21.837-43.607,43.673-65.441,65.509c-1.026-0.656-2.208-1.04-3.515-1.04
	c-3.65,0-6.594,2.96-6.594,6.61c0,3.651,2.97,6.611,6.62,6.611c3.652,0,6.615-2.96,6.615-6.611c0-1.108-0.274-2.151-0.757-3.07
	c21.854-21.854,43.708-43.708,65.562-65.564c4.625,4.202,10.768,7.333,17.51,7.333c10.328,0,19.253-6.155,23.468-14.155h57.007
	c6.57,0,11.893-5.432,11.893-12C348.882,254.431,343.559,248.999,336.988,248.999z"/>
<path style="fill:#334D5C;" d="M254.746,254.745c-27.87,27.87-55.737,55.74-83.606,83.608c-1.025-0.655-2.24-1.038-3.547-1.038
	c-3.651,0-6.611,2.961-6.611,6.609c0,3.652,2.96,6.61,6.611,6.61c3.651,0,6.61-2.958,6.61-6.61c0-1.109-0.276-2.153-0.759-3.072
	c27.901-27.9,55.803-55.803,83.705-83.705C258.7,255.597,256.297,253.195,254.746,254.745z"/>
<path style="fill:#334D5C;" d="M263,87.119c0,3.8-3.082,6.881-6.883,6.881h-1.234c-3.801,0-6.883-3.081-6.883-6.881v-5.237
	c0-3.8,3.082-6.882,6.883-6.882h1.234c3.801,0,6.883,3.082,6.883,6.882V87.119z"/>
<path style="fill:#334D5C;" d="M263,430.99c0,3.8-2.514,7.009-6.315,7.009h-1.593c-3.802,0-7.092-3.21-7.092-7.009v-5.01
	c0-3.801,3.29-5.981,7.092-5.981h1.593c3.802,0,6.315,2.18,6.315,5.981V430.99z"/>
<path style="fill:#334D5C;" d="M437,257.116c0,3.802-3.082,6.884-6.884,6.884h-5.232c-3.802,0-6.884-3.082-6.884-6.884v-1.231
	c0-3.803,3.082-6.885,6.884-6.885h5.232c3.802,0,6.884,3.081,6.884,6.885V257.116z"/>
<path style="fill:#334D5C;" d="M347.397,112.693c-1.901,3.292-6.11,4.42-9.401,2.519l-0.832-0.48c-3.291-1.9-4.42-6.108-2.518-9.4
	l2.743-4.756c1.903-3.292,6.109-4.42,9.403-2.52l0.83,0.48c3.293,1.903,4.42,6.11,2.52,9.401L347.397,112.693z"/>
<path style="fill:#334D5C;" d="M174.657,411.885c-1.9,3.292-6.109,4.42-9.401,2.521l-0.831-0.48
	c-3.293-1.899-4.421-6.109-2.52-9.401l2.746-4.755c1.9-3.292,6.108-4.42,9.4-2.521l0.832,0.48c3.292,1.9,4.42,6.112,2.52,9.404
	L174.657,411.885z"/>
<path style="fill:#334D5C;" d="M414.491,347.622c-1.899,3.291-6.109,4.42-9.401,2.52l-4.755-2.746
	c-3.292-1.901-4.42-6.111-2.52-9.403l0.479-0.831c1.9-3.292,6.11-4.419,9.401-2.519l4.756,2.746c3.293,1.9,4.42,6.108,2.52,9.4
	L414.491,347.622z"/>
<path style="fill:#334D5C;" d="M177.403,105.898c1.9,3.292,0.771,7.498-2.52,9.4l-0.832,0.48c-3.293,1.902-7.501,0.773-9.402-2.518
	l-2.745-4.756c-1.9-3.292-0.772-7.5,2.519-9.402l0.832-0.48c3.292-1.899,7.501-0.773,9.402,2.52L177.403,105.898z"/>
<path style="fill:#334D5C;" d="M350.142,405.089c1.9,3.293,0.773,7.503-2.52,9.402l-0.832,0.48c-3.292,1.9-7.502,0.771-9.401-2.519
	l-2.745-4.756c-1.9-3.291-0.773-7.5,2.518-9.401l0.834-0.479c3.29-1.9,7.5-0.772,9.401,2.52L350.142,405.089z"/>
<path style="fill:#334D5C;" d="M414.405,165.255c1.899,3.293,0.773,7.502-2.521,9.402l-4.757,2.745
	c-3.29,1.901-7.5,0.773-9.399-2.518l-0.48-0.833c-1.899-3.292-0.773-7.5,2.519-9.402l4.757-2.745c3.292-1.9,7.501-0.773,9.401,2.518
	L414.405,165.255z"/>
<path style="fill:#334D5C;" d="M267,263.106c0,6.568-5.325,11.893-11.895,11.893h-0.211c-6.569,0-11.895-5.325-11.895-11.893
	V127.893c0-6.568,5.325-11.894,11.895-11.894h0.211c6.569,0,11.895,5.325,11.895,11.894V263.106z"/>
<path style="fill:#334D5C;" d="M348,256.106c0,6.569-5.324,11.894-11.893,11.894h-68.215c-6.568,0-11.893-5.325-11.893-11.894
	v-0.213c0-6.568,5.324-11.894,11.893-11.894h68.215c6.568,0,11.893,5.325,11.893,11.894V256.106z"/>
<circle style="fill:#B83E32;" cx="256.514" cy="256" r="26.052"/>
<circle style="fill:#E24C3E;" cx="256.514" cy="256" r="16.802"/>
<path style="opacity:0.3;fill:#5D5D5D;" d="M0.521,256c0,141.099,114.382,255.48,255.48,255.48
	c55.515,0,106.885-17.717,148.79-47.789L48.308,107.21C18.235,149.113,0.521,200.487,0.521,256z"/>
<g>
</g>
<g>
</g>
<g>
</g>
<g>
</g>
<g>
</g>
<g>
</g>
<g>
</g>
<g>
</g>
<g>
</g>
<g>
</g>
<g>
</g>
<g>
</g>
<g>
</g>
<g>
</g>
<g>
</g>
</svg>
