<?xml version="1.0" encoding="iso-8859-1"?>
<!-- Generator: Adobe Illustrator 17.0.0, SVG Export Plug-In . SVG Version: 6.00 Build 0)  -->
<!DOCTYPE svg PUBLIC "-//W3C//DTD SVG 1.1//EN" "http://www.w3.org/Graphics/SVG/1.1/DTD/svg11.dtd">
<svg version="1.1" id="Layer_1" xmlns="http://www.w3.org/2000/svg" xmlns:xlink="http://www.w3.org/1999/xlink" x="0px" y="0px"
	 width="512px" height="512px" viewBox="0 0 512 512" style="enable-background:new 0 0 512 512;" xml:space="preserve">
<g>
	<circle id="background_23_" style="fill:#E27C3E;" cx="256" cy="256" r="256"/>
	<circle style="fill:#CCCCCC;" cx="317.65" cy="192.305" r="115.466"/>
	<circle style="fill:#CCCCCC;" cx="317.65" cy="192.305" r="115.466"/>
	<path style="fill:#E6E6E6;" d="M317.649,296.737c-57.584,0-104.434-46.849-104.434-104.433c0-57.586,46.85-104.437,104.434-104.437
		c57.586,0,104.434,46.851,104.434,104.437C422.083,249.889,375.235,296.737,317.649,296.737z"/>
	<path style="fill:#9E9E9E;" d="M317.649,293.059c-55.557,0-100.756-45.197-100.756-100.754
		c0-55.559,45.199-100.759,100.756-100.759c55.557,0,100.758,45.2,100.758,100.759C418.407,247.861,373.206,293.059,317.649,293.059
		z"/>
	<path style="fill:#A8A8A8;" d="M317.649,287.666c-52.581,0-95.361-42.779-95.361-95.361c0-52.584,42.78-95.363,95.361-95.363
		c52.584,0,95.363,42.779,95.363,95.363C413.013,244.887,370.233,287.666,317.649,287.666z"/>
	<path style="fill:#E6E6E6;" d="M317.649,278.35c-47.446,0-86.048-38.601-86.048-86.045c0-47.447,38.602-86.049,86.048-86.049
		c47.447,0,86.049,38.602,86.049,86.049C403.698,239.749,365.097,278.35,317.649,278.35z"/>
	<path style="fill:#CCCCCC;" d="M317.649,273.447c-44.742,0-81.145-36.4-81.145-81.143c0-44.746,36.402-81.146,81.145-81.146
		c44.744,0,81.145,36.4,81.145,81.146C398.795,237.047,362.394,273.447,317.649,273.447z"/>
	<path style="fill:#9E9E9E;" d="M264.933,183.23v-34.941c0-0.787,0.591-1.377,1.277-1.377h41.145c0.787,0,1.28,0.59,1.18,1.377
		l-1.673,13.879c-0.099,0.689-0.786,1.279-1.475,1.279h-23.523v2.462h5.214c15.946,0,25.789,10.039,25.789,22.345
		c0,12.301-9.843,22.241-26.675,22.241c-13.78,0-20.668-5.214-24.409-12.795c-0.199-0.589,0-1.378,0.591-1.575l15.059-7.678
		c0.59-0.294,1.182,0.1,1.477,0.492c0.69,1.379,2.854,2.362,7.283,2.362c5.905,0,7.679-1.476,7.679-3.345
		c0-1.969-1.28-3.444-7.679-3.444H266.21C265.523,184.513,264.933,183.92,264.933,183.23z"/>
	<path style="fill:#E6E6E6;" d="M286.191,207.255c-12.001,0-17.122-4.212-19.896-8.567l10.978-5.596
		c2.802,2.326,7.243,2.326,8.918,2.326c9.386,0,11.354-3.821,11.354-7.025c0-7.121-8.545-7.121-11.354-7.121h-17.583v-30.246h35.945
		l-1.107,9.182h-25.262v9.814h8.892c13.02,0,22.111,7.676,22.111,18.668C309.189,199.793,299.946,207.255,286.191,207.255z"/>
	<path style="fill:#A8A8A8;" d="M286.191,207.255c-12.001,0-17.122-4.212-19.896-8.567l10.978-5.596
		c2.802,2.326,7.243,2.326,8.918,2.326c9.386,0,11.354-3.821,11.354-7.025c0-7.121-8.545-7.121-11.354-7.121h-17.583v-30.246h35.945
		l-1.107,9.182h-25.262v9.814h8.892c13.02,0,22.111,7.676,22.111,18.668C309.189,199.793,299.946,207.255,286.191,207.255z"/>
	<path style="fill:#9E9E9E;" d="M373.595,178.114c0,24.802-12.305,32.381-27.463,32.381c-15.257,0-27.559-7.579-27.559-32.381
		c0-24.903,12.302-32.384,27.559-32.384C361.29,145.73,373.595,153.211,373.595,178.114z M355.284,178.114
		c0-8.86-0.885-14.667-9.152-14.667c-8.365,0-9.252,5.807-9.252,14.667c0,8.76,0.887,14.566,9.252,14.566
		C354.399,192.681,355.284,186.874,355.284,178.114z"/>
	<path style="fill:#E6E6E6;" d="M346.132,207.255c-16.293,0-23.884-9.12-23.884-28.706c0-19.583,7.591-28.706,23.884-28.706
		c16.227,0,23.785,9.123,23.785,28.706C369.917,198.135,362.358,207.255,346.132,207.255z M346.132,160.207
		c-12.929,0-12.929,11.48-12.929,18.342c0,6.824,0,18.244,12.929,18.244c12.833,0,12.833-11.42,12.833-18.244
		C358.965,171.688,358.965,160.207,346.132,160.207z"/>
	<path style="fill:#A8A8A8;" d="M346.132,207.255c-16.293,0-23.884-9.12-23.884-28.706c0-19.583,7.591-28.706,23.884-28.706
		c16.227,0,23.785,9.123,23.785,28.706C369.917,198.135,362.358,207.255,346.132,207.255z M346.132,160.207
		c-12.929,0-12.929,11.48-12.929,18.342c0,6.824,0,18.244,12.929,18.244c12.833,0,12.833-11.42,12.833-18.244
		C358.965,171.688,358.965,160.207,346.132,160.207z"/>
	<path style="fill:#9E9E9E;" d="M296.046,235.793c-1.383,1.359-3.27,2.211-5.366,2.211c-4.19,0-7.575-3.384-7.575-7.574
		c0-4.192,3.385-7.6,7.575-7.6c2.097,0,3.983,0.853,5.366,2.234c0.092,0.112,0.092,0.3-0.046,0.412l-2.901,2.349
		c-0.139,0.118-0.348,0.118-0.484,0c-0.529-0.39-1.196-0.644-1.935-0.644c-1.772,0-3.224,1.448-3.224,3.248
		c0,1.771,1.451,3.223,3.224,3.223c0.738,0,1.405-0.23,1.935-0.645c0.137-0.117,0.346-0.093,0.484,0l2.901,2.371
		C296.138,235.494,296.138,235.654,296.046,235.793z"/>
	<path style="fill:#A8A8A8;" d="M290.68,236.971c-3.364,0-6.104-2.742-6.104-6.106c0-3.38,2.74-6.128,6.104-6.128
		c1.171,0,2.294,0.33,3.264,0.949l-1.175,0.95c-0.648-0.322-1.359-0.491-2.089-0.491c-2.59,0-4.693,2.118-4.693,4.72
		c0,2.589,2.104,4.693,4.693,4.693c0.749,0,1.458-0.165,2.092-0.481l1.169,0.955C292.965,236.641,291.843,236.971,290.68,236.971z"
		/>
	<path style="fill:#9E9E9E;" d="M303.071,227.505c-0.162,0-0.3,0.136-0.3,0.3v0.596c0,0.16,0.138,0.323,0.3,0.323h3.43
		c0.185,0,0.301,0.139,0.277,0.3l-0.392,3.108c-0.022,0.159-0.161,0.299-0.344,0.299h-2.972c-0.162,0-0.3,0.161-0.3,0.321v0.278
		c0,0.184,0.138,0.323,0.3,0.323h5.297c0.186,0,0.322,0.136,0.322,0.299v3.729c0,0.163-0.137,0.324-0.322,0.324h-9.65
		c-0.16,0-0.298-0.161-0.298-0.324V223.45c0-0.161,0.138-0.3,0.298-0.3h9.65c0.186,0,0.322,0.139,0.322,0.3v3.731
		c0,0.184-0.137,0.323-0.322,0.323H303.071z"/>
	<path style="fill:#A8A8A8;" d="M300,236.918V225.15h7.354v1.471h-4.283c-0.977,0-1.602,0.643-1.602,1.619v0.597
		c0,0.991,0.625,1.462,1.602,1.462h2.077l-0.095,0.735h-1.982c-0.977,0-1.602,1.167-1.602,2.154v0.276
		c0,0.991,0.625,1.982,1.602,1.982h4.283v1.471H300z"/>
	<path style="fill:#9E9E9E;" d="M323.106,223.15c0.186,0,0.323,0.139,0.323,0.324v13.931c0,0.161-0.138,0.3-0.323,0.3h-3.731
		c-0.16,0-0.368-0.115-0.458-0.278l-3.41-5.849c-0.094-0.136-0.16-0.136-0.16,0.049v5.778c0,0.161-0.139,0.3-0.323,0.3h-3.731
		c-0.16,0-0.297-0.139-0.297-0.3v-13.931c0-0.186,0.137-0.324,0.297-0.324h3.731c0.185,0,0.39,0.115,0.483,0.274l3.41,5.852
		c0.09,0.16,0.16,0.139,0.16-0.046v-5.757c0-0.186,0.138-0.324,0.298-0.324H323.106z"/>
	<path style="fill:#A8A8A8;" d="M319.923,236.918l-3.168-5.559l-0.023-0.097c-0.438-0.657-0.975-0.785-1.285-0.785
		c-0.736,0-1.471,0.535-1.471,1.584v4.857h-1.473V225.15h1.998l3.145,5.35c0.43,0.755,1.128,0.814,1.399,0.814
		c0.738,0,1.548-0.592,1.548-1.648v-4.516h1.469v11.768H319.923z"/>
	<path style="fill:#9E9E9E;" d="M337.271,227.205c-0.023,0.16-0.186,0.3-0.344,0.3h-2.719c-0.185,0-0.323,0.136-0.323,0.32v9.58
		c0,0.161-0.137,0.3-0.298,0.3h-3.73c-0.186,0-0.322-0.139-0.322-0.3v-9.58c0-0.185-0.139-0.32-0.301-0.32h-3.199
		c-0.162,0-0.299-0.14-0.299-0.3v-3.73c0-0.186,0.137-0.324,0.299-0.324h11.352c0.185,0,0.298,0.139,0.274,0.3L337.271,227.205z"/>
	<path style="fill:#A8A8A8;" d="M330.89,236.918v-8.657c0-0.987-0.68-1.64-1.656-1.64h-2.021v-1.471h8.85l-0.148,1.471h-1.705
		c-0.988,0-1.85,0.652-1.85,1.64v8.657H330.89z"/>
	<path style="fill:#9E9E9E;" d="M349.892,233.075c0,2.718-2.349,4.929-6.311,4.929c-3.27,0-4.902-1.148-5.779-2.833
		c-0.068-0.136,0-0.3,0.115-0.345l3.569-1.703c0.162-0.072,0.276,0.025,0.345,0.111c0.186,0.324,0.692,0.529,1.75,0.529
		c1.384,0,1.797-0.342,1.797-0.756c0-0.416-0.298-0.762-1.82-0.762c-3.291,0-5.616-2.092-5.616-4.696c0-2.603,2.417-4.72,5.733-4.72
		c2.74,0,4.281,1.059,5.158,2.579c0.092,0.182,0.021,0.321-0.139,0.39l-3.408,1.612c-0.115,0.046-0.253,0.069-0.346-0.069
		c-0.137-0.23-0.506-0.391-1.15-0.391c-1.107,0-1.429,0.275-1.429,0.599c0,0.321,0.321,0.6,1.429,0.6
		C347.566,228.149,349.892,230.359,349.892,233.075z"/>
	<path style="fill:#A8A8A8;" d="M343.581,236.971c-1.938,0-3.027-0.449-3.688-1.021l1.503-0.719
		c0.679,0.385,1.521,0.441,2.185,0.441c2.952,0,3.27-1.558,3.27-2.228c0-1.018-0.574-2.231-3.293-2.231
		c-2.364,0-4.146-1.389-4.146-3.227c0-1.824,1.872-3.25,4.264-3.25c1.486,0,2.41,0.363,3.01,0.822l-1.381,0.654
		c-0.371-0.174-0.863-0.297-1.514-0.297c-2.689,0-2.9,1.583-2.9,2.07c0,0.484,0.211,2.069,2.9,2.069
		c2.727,0,4.633,1.421,4.633,3.456C348.423,235.58,346.477,236.971,343.581,236.971z"/>
	<path style="opacity:0.4;fill:#ECF0F0;" d="M433.116,192.305c0-63.771-51.695-115.468-115.467-115.468
		c-25.128,0-48.379,8.033-67.333,21.662l146.204,178.124C419.038,255.555,433.116,225.576,433.116,192.305z"/>
	<path style="opacity:0.4;fill:#5D5D5D;" d="M211.597,185.215c-3.097,0-6.164,0.125-9.201,0.357
		c-0.129,2.229-0.211,4.471-0.211,6.732c0,63.769,51.695,115.465,115.465,115.465c4.277,0,8.492-0.25,12.646-0.703
		c0.025-1.023,0.082-2.041,0.082-3.071C330.378,238.395,277.198,185.215,211.597,185.215z"/>
	<circle style="fill:#F3C42C;" cx="197.664" cy="316.382" r="118.78"/>
	<path style="fill:#FFCE2E;" d="M197.663,423.814c-59.238,0-107.432-48.193-107.432-107.432
		c0-59.237,48.193-107.433,107.432-107.433s107.432,48.195,107.432,107.433C305.095,375.62,256.901,423.814,197.663,423.814z"/>
	<path style="fill:#CC9902;" d="M197.663,420.031c-57.153,0-103.648-46.497-103.648-103.65c0-57.151,46.495-103.649,103.648-103.649
		s103.648,46.498,103.648,103.649C301.311,373.534,254.816,420.031,197.663,420.031z"/>
	<path style="fill:#D8A202;" d="M197.663,414.481c-54.094,0-98.102-44.007-98.102-98.1c0-54.092,44.008-98.101,98.102-98.101
		c54.092,0,98.1,44.009,98.1,98.101C295.763,370.475,251.755,414.481,197.663,414.481z"/>
	<path style="fill:#FFCE2E;" d="M197.663,404.9c-48.81,0-88.519-39.71-88.519-88.519c0-48.81,39.709-88.517,88.519-88.517
		c48.809,0,88.519,39.707,88.519,88.517C286.182,365.19,246.472,404.9,197.663,404.9z"/>
	<path style="fill:#F3C42C;" d="M197.663,399.856c-46.028,0-83.473-37.446-83.473-83.475c0-46.026,37.444-83.474,83.473-83.474
		c46.027,0,83.474,37.447,83.474,83.474C281.137,362.41,243.69,399.856,197.663,399.856z"/>
	<path style="fill:#CC9902;" d="M218.653,268.023v95.843c0,1.273-1.111,2.386-2.383,2.386h-28.294c-1.271,0-2.386-1.112-2.386-2.386
		v-71.523h-6.99c-1.115,0-2.068-0.956-1.909-2.068l2.702-22.568c0.158-1.112,1.271-2.068,2.385-2.068h34.492
		C217.542,265.638,218.653,266.754,218.653,268.023z"/>
	<polygon style="fill:#D8A202;" points="189.34,362.531 189.34,289.147 180.706,289.147 182.998,270.23 215.064,270.23 
		215.064,362.531 	"/>
	<path style="opacity:0.4;fill:#ECF0F0;" d="M316.443,316.382c0-65.601-53.181-118.78-118.78-118.78
		c-25.85,0-49.77,8.264-69.269,22.284l150.403,183.237C301.962,381.448,316.443,350.609,316.443,316.382z"/>
</g>
<g>
</g>
<g>
</g>
<g>
</g>
<g>
</g>
<g>
</g>
<g>
</g>
<g>
</g>
<g>
</g>
<g>
</g>
<g>
</g>
<g>
</g>
<g>
</g>
<g>
</g>
<g>
</g>
<g>
</g>
</svg>
