<?xml version="1.0" encoding="iso-8859-1"?>
<!-- Generator: Adobe Illustrator 17.0.0, SVG Export Plug-In . SVG Version: 6.00 Build 0)  -->
<!DOCTYPE svg PUBLIC "-//W3C//DTD SVG 1.1//EN" "http://www.w3.org/Graphics/SVG/1.1/DTD/svg11.dtd">
<svg version="1.1" id="Layer_1" xmlns="http://www.w3.org/2000/svg" xmlns:xlink="http://www.w3.org/1999/xlink" x="0px" y="0px"
	 width="512px" height="512px" viewBox="0 0 512 512" style="enable-background:new 0 0 512 512;" xml:space="preserve">
<circle id="background_52_" style="fill:#E27C3E;" cx="256" cy="256" r="256"/>
<g>
	<path style="fill:#F0EEEC;" d="M155.379,193.546l-0.001-0.006C155.278,193.543,155.289,193.544,155.379,193.546z"/>
	<path style="fill:#F0EEEC;" d="M361.766,193.54c-0.196,0-0.39,0.013-0.585,0.015c-7.579,0.055-195.025,0.055-204.945,0
		c-0.197-0.002-0.39-0.015-0.586-0.015c-0.09,0-0.18,0.006-0.27,0.006l0,0l0,0c-40.981,0.148-74.159,33.408-74.159,74.424
		c0,41.107,33.324,74.431,74.43,74.431c18.832,0,36.018-7.008,49.127-18.54H312.64c13.109,11.532,30.295,18.54,49.126,18.54
		c41.106,0,74.431-33.324,74.431-74.431C436.196,226.864,402.872,193.54,361.766,193.54z"/>
	<path style="fill:#D1CFCD;" d="M155.379,193.546l-0.001-0.006C155.278,193.543,155.289,193.544,155.379,193.546z"/>
	<path style="fill:#D1CFCD;" d="M150.107,197.356h39.622v-3.772c-18.217-0.005-31.087-0.016-33.494-0.029
		c-0.197-0.002-0.39-0.015-0.586-0.015c-0.09,0-0.18,0.006-0.27,0.006c-17.037,0.062-32.714,5.86-45.231,15.544l2.779,2.314
		C112.927,211.405,132.296,197.356,150.107,197.356z"/>
	<path style="fill:#E8E6E4;" d="M155.379,204.452l-0.001-0.006C155.278,204.447,155.289,204.45,155.379,204.452z"/>
	<path style="fill:#E8E6E4;" d="M361.766,204.446c-0.196,0-0.39,0.013-0.585,0.014c-7.579,0.054-195.025,0.055-204.945,0
		c-0.197-0.001-0.39-0.014-0.586-0.014c-0.09,0-0.18,0.006-0.27,0.006l0,0l0,0c-40.981,0.146-74.159,33.407-74.159,74.424
		c0,41.107,33.324,74.431,74.43,74.431c18.832,0,36.018-7.007,49.127-18.54H312.64c13.109,11.533,30.295,18.54,49.126,18.54
		c41.106,0,74.431-33.324,74.431-74.431C436.196,237.768,402.872,204.446,361.766,204.446z"/>
	<circle style="fill:#D1CFCD;" cx="155.922" cy="278.876" r="38.896"/>
	<path style="fill:#5C5A5A;" d="M185.913,272.933c0-1.979-1.619-3.599-3.6-3.599h-10.796c-1.979,0-3.599-1.618-3.599-3.6v-10.796
		c0-1.979-1.619-3.598-3.6-3.598h-16.795c-1.979,0-3.598,1.619-3.598,3.598v10.796c0,1.981-1.62,3.6-3.6,3.6H129.53
		c-1.979,0-3.598,1.619-3.598,3.599v16.794c0,1.98,1.619,3.599,3.598,3.599h10.797c1.98,0,3.6,1.62,3.6,3.599v10.797
		c0,1.979,1.619,3.599,3.598,3.599h16.795c1.98,0,3.6-1.62,3.6-3.599v-10.797c0-1.979,1.619-3.599,3.599-3.599h10.796
		c1.98,0,3.6-1.62,3.6-3.599V272.933z"/>
	<path style="fill:#999796;" d="M183.187,288.964c0,1.799-1.473,3.271-3.271,3.271h-47.984c-1.8,0-3.272-1.473-3.272-3.271v-15.268
		c0-1.799,1.473-3.272,3.272-3.272h47.984c1.799,0,3.271,1.473,3.271,3.272V288.964z"/>
	<path style="fill:#999796;" d="M148.288,308.594c-1.799,0-3.271-1.473-3.271-3.271v-47.985c0-1.798,1.473-3.272,3.271-3.272h15.269
		c1.8,0,3.271,1.473,3.271,3.272v47.985c0,1.799-1.472,3.271-3.271,3.271H148.288z"/>
	<circle style="fill:#A19E9D;" cx="155.786" cy="281.33" r="8.315"/>
	<circle style="fill:#999796;" cx="363.128" cy="279.876" r="65.07"/>
	<path style="fill:#E8E6E4;" d="M335.218,295.734L335.218,295.734c-6.878,2.849-15.346,0.371-19.908-5.911
		c-4.561-6.283-4.289-15.092,0.551-20.751l0,0l42.669-31c6.762-2.504,15.061,0.172,19.464,6.235
		c4.402,6.064,4.369,14.773-0.103,20.427l0,0L335.218,295.734z"/>
	<circle style="fill:#45B39C;" cx="328.646" cy="280.139" r="12.362"/>
	<circle style="fill:#238AB4;" cx="364.656" cy="253.991" r="12.361"/>
	<path style="fill:#E8E6E4;" d="M368.153,321.442L368.153,321.442c-6.879,2.849-15.348,0.372-19.907-5.912
		c-4.565-6.282-4.29-15.09,0.548-20.75l0,0l42.67-31c6.762-2.504,15.062,0.172,19.465,6.237c4.4,6.062,4.368,14.772-0.103,20.425
		l0,0L368.153,321.442z"/>
	<circle style="fill:#EFC84A;" cx="361.581" cy="305.846" r="12.361"/>
	<circle style="fill:#BD3E25;" cx="397.59" cy="279.7" r="12.362"/>
	<path style="fill:#999796;" d="M108.825,206.899l1.586,1.321c1.384,1.152,3.707,1.23,5.164,0.173c0,0,16.721-12.126,34.532-12.126
		h36.35c1.799,0,3.272-1.227,3.272-2.727c0-1.499-1.473-2.727-3.272-2.727h-33.807c-1.8,0-4.738,0.128-6.531,0.285
		C146.12,191.098,124.435,192.995,108.825,206.899z"/>
	<path style="fill:#D1CFCD;" d="M362.036,193.546l0.002-0.006C362.138,193.543,362.126,193.544,362.036,193.546z"/>
	<path style="fill:#D1CFCD;" d="M367.309,197.356h-40.168v-3.772c18.54-0.005,31.36-0.016,33.768-0.029
		c0.196-0.002,0.525-0.015,0.721-0.015c0.091,0,0.249,0.006,0.339,0.006c17.038,0.062,32.749,5.86,45.267,15.544l-2.762,2.314
		C404.473,211.405,385.12,197.356,367.309,197.356z"/>
	<path style="fill:#999796;" d="M408.591,206.899l-1.587,1.321c-1.383,1.152-3.707,1.23-5.163,0.173
		c0,0-16.721-12.126-34.532-12.126h-36.351c-1.8,0-3.271-1.227-3.271-2.727c0-1.499,1.472-2.727,3.271-2.727h33.807
		c1.799,0,4.738,0.128,6.531,0.285C371.296,191.098,392.982,192.995,408.591,206.899z"/>
	<ellipse style="fill:#F0EEEC;" cx="258.708" cy="193.54" rx="13.359" ry="2.727"/>
	<path style="fill:#5C5A5A;" d="M229.316,302.05c-2.061,0-4.078-1.259-4.907-3.259c-0.78-1.885-0.357-3.829,1.129-5.315
		l12.29-12.256c0.99-0.99,2.196-1.496,3.49-1.496c2.061,0,4.079,1.407,4.907,3.408c0.781,1.884,0.359,3.902-1.128,5.389
		l-12.289,12.153c-0.99,0.99-2.198,1.376-3.49,1.376C229.318,302.05,229.318,302.05,229.316,302.05z"/>
	<path style="fill:#999796;" d="M231.77,299.776c4.096-4.096,8.191-8.193,12.288-12.29c3.352-3.352-1.841-8.543-5.192-5.192
		c-4.096,4.097-8.191,8.192-12.289,12.289C223.226,297.935,228.419,303.127,231.77,299.776L231.77,299.776z"/>
	<path style="fill:#5C5A5A;" d="M265.191,302.05c-2.061,0-4.079-1.259-4.907-3.259c-0.781-1.885-0.358-3.829,1.129-5.315
		l12.289-12.256c0.989-0.99,2.197-1.496,3.491-1.496c2.061,0,4.078,1.407,4.907,3.408c0.78,1.884,0.357,3.902-1.129,5.389
		l-12.289,12.153c-0.99,0.99-2.197,1.376-3.49,1.376H265.191z"/>
	<path style="fill:#999796;" d="M267.644,299.776c4.097-4.096,8.192-8.193,12.29-12.29c3.352-3.352-1.842-8.543-5.193-5.192
		c-4.097,4.097-8.192,8.192-12.288,12.289C259.101,297.935,264.292,303.127,267.644,299.776L267.644,299.776z"/>
	<circle style="fill:#5C5A5A;" cx="212.726" cy="217.895" r="3.089"/>
	<circle style="fill:#5C5A5A;" cx="212.726" cy="228.802" r="3.089"/>
	<circle style="fill:#5C5A5A;" cx="218.181" cy="223.349" r="3.089"/>
	<circle style="fill:#5C5A5A;" cx="207.274" cy="223.349" r="3.089"/>
	<path style="fill:#5C5A5A;" d="M233.288,216.255c-0.381-0.473-0.875-0.712-1.484-0.712c-0.196,0-0.393,0.04-0.595,0.116
		c-0.2,0.077-0.381,0.19-0.542,0.34c-0.158,0.148-0.291,0.335-0.395,0.56c-0.103,0.226-0.153,0.487-0.153,0.785
		c0,0.389,0.108,0.705,0.325,0.946c0.216,0.242,0.503,0.47,0.865,0.686c0.229,0.146,0.458,0.306,0.688,0.481
		c0.232,0.176,0.441,0.381,0.627,0.613c0.186,0.232,0.336,0.496,0.449,0.79c0.113,0.294,0.168,0.633,0.168,1.016
		c0,0.589-0.096,1.105-0.285,1.55c-0.189,0.445-0.447,0.815-0.773,1.116c-0.324,0.299-0.699,0.526-1.121,0.681
		c-0.422,0.155-0.871,0.232-1.345,0.232c-0.608,0-1.166-0.111-1.678-0.332c-0.511-0.223-0.905-0.508-1.184-0.858l1.099-1.298
		c0.206,0.268,0.464,0.484,0.773,0.649c0.308,0.165,0.64,0.248,0.989,0.248c0.493,0,0.904-0.149,1.229-0.449
		c0.323-0.299,0.486-0.727,0.486-1.283c0-0.392-0.106-0.727-0.317-1.005c-0.211-0.278-0.537-0.551-0.982-0.82
		c-0.226-0.134-0.447-0.286-0.664-0.456c-0.216-0.169-0.407-0.366-0.571-0.587c-0.166-0.221-0.296-0.474-0.395-0.758
		c-0.097-0.282-0.146-0.615-0.146-0.996c0-0.527,0.089-1.006,0.271-1.438c0.179-0.434,0.424-0.804,0.732-1.114
		c0.312-0.309,0.676-0.548,1.1-0.718c0.422-0.17,0.882-0.256,1.376-0.256c0.556,0,1.057,0.09,1.499,0.27
		c0.443,0.181,0.799,0.431,1.067,0.751L233.288,216.255z"/>
	<path style="fill:#5C5A5A;" d="M241.685,221.311c-0.104,0.577-0.244,1.119-0.426,1.623c-0.182,0.504-0.426,0.942-0.734,1.314
		c-0.307,0.372-0.69,0.664-1.145,0.88c-0.453,0.217-1.001,0.325-1.637,0.325c-0.517,0-0.961-0.075-1.33-0.224
		c-0.373-0.15-0.682-0.358-0.929-0.625c-0.247-0.269-0.431-0.581-0.548-0.936c-0.121-0.355-0.178-0.745-0.178-1.168
		c0-0.175,0.006-0.36,0.02-0.556c0.018-0.196,0.045-0.408,0.087-0.634l1.236-7.066h1.764l-1.223,6.896
		c-0.03,0.175-0.057,0.353-0.077,0.535c-0.021,0.179-0.03,0.356-0.03,0.531c0,0.444,0.096,0.82,0.285,1.129
		c0.19,0.31,0.544,0.464,1.06,0.464c0.341,0,0.626-0.072,0.858-0.216c0.231-0.145,0.424-0.34,0.579-0.587
		c0.155-0.248,0.282-0.531,0.379-0.851c0.099-0.319,0.177-0.653,0.239-1.005l1.223-6.896h1.764L241.685,221.311z"/>
	<path style="fill:#5C5A5A;" d="M250.42,216.904c0,0.619-0.083,1.166-0.256,1.64c-0.168,0.475-0.408,0.873-0.718,1.198
		c-0.309,0.324-0.682,0.572-1.111,0.742c-0.436,0.17-0.914,0.255-1.44,0.255h-1.33l-0.788,4.453h-1.732l1.9-10.947h2.783
		c0.36,0,0.703,0.051,1.029,0.155c0.324,0.104,0.611,0.263,0.857,0.48c0.248,0.216,0.443,0.492,0.589,0.828
		C250.348,216.041,250.42,216.44,250.42,216.904z M248.72,217.151c0-0.433-0.105-0.775-0.317-1.028
		c-0.211-0.252-0.531-0.378-0.966-0.378h-1.021l-0.604,3.557h1.099c0.557,0,0.997-0.191,1.321-0.573
		C248.557,218.347,248.72,217.822,248.72,217.151z"/>
	<path style="fill:#5C5A5A;" d="M256.914,215.791h-3.03l-0.541,3.015h2.893l-0.25,1.468h-2.875l-0.588,3.341h3.31l-0.265,1.577
		h-5.01l1.902-10.947h4.732L256.914,215.791z"/>
	<path style="fill:#5C5A5A;" d="M264.755,216.873c0,0.876-0.211,1.603-0.627,2.18c-0.419,0.578-0.967,0.96-1.648,1.145l1.346,4.994
		h-1.84l-1.143-4.701h-1.083l-0.835,4.701h-1.699l1.899-10.947h2.814c0.908,0,1.605,0.217,2.088,0.649
		C264.512,215.327,264.755,215.988,264.755,216.873z M263.023,217.105c0-0.495-0.134-0.848-0.405-1.06
		c-0.266-0.211-0.596-0.316-0.988-0.316h-1.05l-0.605,3.449h1.082c0.558,0,1.023-0.184,1.4-0.55
		C262.833,218.263,263.023,217.754,263.023,217.105z"/>
	<path style="fill:#5C5A5A;" d="M274.866,216.533c-0.322-0.597-0.824-0.896-1.515-0.896c-0.507,0-0.954,0.181-1.347,0.542
		c-0.392,0.361-0.722,0.818-0.99,1.37c-0.268,0.554-0.471,1.156-0.609,1.806c-0.141,0.649-0.209,1.266-0.209,1.843
		c0,0.775,0.148,1.403,0.447,1.883c0.299,0.48,0.782,0.72,1.453,0.72c0.269,0,0.505-0.028,0.712-0.084
		c0.206-0.058,0.392-0.144,0.558-0.257l0.492-2.905h-1.498l0.277-1.546h3.14l-0.958,5.52c-0.382,0.289-0.814,0.516-1.299,0.68
		c-0.486,0.165-1.047,0.248-1.686,0.248c-0.568,0-1.064-0.101-1.493-0.302c-0.428-0.201-0.786-0.484-1.073-0.851
		c-0.29-0.365-0.506-0.801-0.65-1.306c-0.145-0.505-0.215-1.066-0.215-1.686c0-0.896,0.124-1.781,0.368-2.652
		c0.247-0.87,0.597-1.655,1.046-2.35c0.447-0.695,0.984-1.257,1.608-1.685c0.622-0.427,1.317-0.642,2.079-0.642
		c0.649,0,1.188,0.113,1.623,0.341c0.432,0.226,0.763,0.546,0.988,0.958L274.866,216.533z"/>
	<path style="fill:#5C5A5A;" d="M281.251,225.192l-0.078-2.366h-2.956l-1.002,2.366h-1.84l4.854-10.947h2.274l0.541,10.947H281.251z
		 M281.064,215.96h-0.061l-2.288,5.49h2.49L281.064,215.96z"/>
	<path style="fill:#5C5A5A;" d="M293.435,225.192h-1.717l1.5-8.458h-0.047l-3.678,8.458h-1.455l-0.664-8.458h-0.047l-1.468,8.458
		h-1.608l1.932-10.947h2.367l0.693,8.056h0.062l3.48-8.056h2.582L293.435,225.192z"/>
	<path style="fill:#5C5A5A;" d="M302.045,215.791h-3.029l-0.54,3.015h2.89l-0.247,1.468h-2.875l-0.588,3.341h3.31l-0.265,1.577
		h-5.01l1.902-10.947h4.732L302.045,215.791z"/>
	<rect x="226.81" y="230.074" style="fill:#5C5A5A;" width="71.977" height="4.361"/>
	<path style="fill:#575655;" d="M367.091,25.297c-6.965,2.682-12.766,8.868-16.34,15.795c-9.668,18.746-3.505,41.979-0.247,61.555
		c1.374,8.251,3.058,17.432,0.681,25.644c-0.664,2.296-2.783,4.98-3.931,5.821c-0.573,0.419-0.751,0.573-0.84,0.634
		c-0.026-0.015-0.038-0.019-0.061-0.031c-0.028-0.025-0.034-0.034-0.068-0.063c-0.335-0.294-0.634-0.628-0.932-0.956
		c-0.785-0.861-0.417-0.46-1.298-1.79c-1.543-2.322-2.865-4.793-4.242-7.215c-3.373-5.934-7.064-11.674-11.725-16.694
		c-12.596-13.566-32.255-17.011-49.714-12.338c-16.345,4.376-25.922,18.622-29.321,34.451c-4.362,20.315-1.44,43.326,4.396,63.133
		c1.983,6.73,12.508,3.863,10.516-2.899c-2.393-8.12-3.942-16.596-4.928-24.99c-1.72-14.657-2.186-31.355,4.765-44.826
		c8.003-15.509,27.597-18.952,43.143-13.825c13.152,4.337,19.616,17.046,26.125,28.166c2.545,4.345,5.36,8.419,10.174,10.342
		c5.209,2.081,10.832-1.985,14.006-5.721c11.807-13.901,4.012-37.754,1.421-53.568c-2.616-15.969-5.812-40.593,11.159-50.156
		c1.557-0.876,2.857-1.071,4.454-1.064c1.017,0.005,3.388,0.583,5.493,1.414c2.924,1.154,8.21,4.386,12.066,6.221
		c3.39,1.612,6.688,2.634,9.902,3.198C390.784,37.928,379.208,31.142,367.091,25.297z M346.456,134.768
		c-0.013-0.008-0.015-0.007-0.025-0.014C346.619,134.751,346.54,134.815,346.456,134.768z M345.732,134.869
		c0.244-0.058,0.419-0.089,0.544-0.104c0.01,0.008,0.019,0.015,0.029,0.023C346.239,134.788,346.124,134.776,345.732,134.869z"/>
</g>
<g>
</g>
<g>
</g>
<g>
</g>
<g>
</g>
<g>
</g>
<g>
</g>
<g>
</g>
<g>
</g>
<g>
</g>
<g>
</g>
<g>
</g>
<g>
</g>
<g>
</g>
<g>
</g>
<g>
</g>
</svg>
