<?xml version="1.0" encoding="iso-8859-1"?>
<!-- Generator: Adobe Illustrator 17.0.0, SVG Export Plug-In . SVG Version: 6.00 Build 0)  -->
<!DOCTYPE svg PUBLIC "-//W3C//DTD SVG 1.1//EN" "http://www.w3.org/Graphics/SVG/1.1/DTD/svg11.dtd">
<svg version="1.1" id="Layer_1" xmlns="http://www.w3.org/2000/svg" xmlns:xlink="http://www.w3.org/1999/xlink" x="0px" y="0px"
	 width="512.693px" height="512.906px" viewBox="0 0 512.693 512.906" style="enable-background:new 0 0 512.693 512.906;"
	 xml:space="preserve">
<path id="bg_43_" style="fill:#334D5C;" d="M512.693,256.906c0,141.379-114.613,256-256,256s-256-114.621-256-256
	c0-141.381,114.613-256,256-256S512.693,115.525,512.693,256.906z"/>
<path style="fill:#EFC84A;" d="M433.477,336.777l-6.074-144.082c-1.964,0.492-4.006,0.781-6.122,0.781
	c-13.892,0-25.153-11.264-25.153-25.154c0-0.021,0.002-0.039,0.002-0.061c-14.291-0.621-25.998-11.125-28.463-24.861
	c-3.36,2.258-7.396,3.58-11.748,3.58c-8.613,0-16.009-5.158-19.309-12.543H179.707l-1.393,10.826l-0.772-10.826h-22.68
	l-3.227,15.973l-0.841-15.973H88.1l-6.096,78.246l12.273,1.754l-12.547,1.75l-5.881,75.486l22.619,4.322l-23.111,1.98l-6.342,81.396
	h107.405l2.084-16.68l2.634,16.68h77.468l3.745-39.166l3.264,39.166h153.079L433.477,336.777z"/>
<path style="fill:#2893C0;" d="M124.586,191.984c0-10.338,8.383-18.719,18.721-18.719s18.721,8.381,18.721,18.719
	c0,10.34-8.383,18.729-18.721,18.729S124.586,202.324,124.586,191.984z"/>
<path style="fill:#E8E8E8;" d="M131.673,191.984c0-6.422,5.208-11.631,11.634-11.631s11.635,5.209,11.635,11.631
	c0,6.422-5.209,11.639-11.635,11.639S131.673,198.406,131.673,191.984z"/>
<path style="fill:#E45136;" d="M218.632,367.861c-4.679,0-9.323-0.166-13.801-0.494c-0.939-0.068-1.646-0.885-1.575-1.822
	c0.068-0.943,0.85-1.674,1.825-1.58c5.453,0.4,11.11,0.539,16.892,0.461c0.986-0.061,1.717,0.734,1.729,1.676
	c0.014,0.943-0.737,1.721-1.679,1.733C220.885,367.853,219.754,367.861,218.632,367.861z M239.019,366.877
	c-0.87,0-1.614-0.664-1.695-1.547c-0.088-0.94,0.6-1.768,1.538-1.858c5.484-0.517,11.135-1.248,16.793-2.174
	c0.926-0.16,1.806,0.477,1.959,1.406c0.15,0.928-0.478,1.81-1.41,1.959c-5.734,0.941-11.461,1.682-17.021,2.205
	C239.126,366.873,239.072,366.877,239.019,366.877z M188.047,365.238c-0.104,0-0.205-0.012-0.312-0.027
	c-5.866-1.078-11.499-2.492-16.747-4.203c-0.895-0.295-1.385-1.258-1.092-2.152c0.293-0.896,1.251-1.379,2.15-1.094
	c5.104,1.67,10.59,3.047,16.305,4.092c0.926,0.17,1.539,1.059,1.369,1.986C189.571,364.66,188.854,365.238,188.047,365.238z
	 M272.666,361.416c-0.779,0-1.482-0.537-1.662-1.328c-0.209-0.92,0.367-1.832,1.285-2.041c5.397-1.223,10.922-2.641,16.43-4.209
	c0.912-0.262,1.849,0.268,2.107,1.172c0.26,0.906-0.267,1.85-1.172,2.105c-5.566,1.59-11.153,3.023-16.608,4.258
	C272.918,361.404,272.791,361.416,272.666,361.416z M155.826,354.463c-0.271,0-0.546-0.066-0.802-0.205
	c-5.395-2.885-10.216-6.215-14.323-9.9c-0.705-0.625-0.763-1.703-0.135-2.406c0.632-0.703,1.711-0.762,2.409-0.131
	c3.907,3.502,8.503,6.676,13.657,9.434c0.832,0.443,1.145,1.477,0.699,2.305C157.023,354.135,156.436,354.463,155.826,354.463z
	 M305.456,352.08c-0.71,0-1.372-0.445-1.614-1.158c-0.305-0.887,0.172-1.858,1.064-2.164c5.247-1.787,10.606-3.76,15.929-5.859
	c0.878-0.352,1.867,0.084,2.213,0.961c0.346,0.877-0.084,1.867-0.959,2.209c-5.373,2.123-10.783,4.113-16.08,5.92
	C305.824,352.051,305.639,352.08,305.456,352.08z M337.184,339.588c-0.654,0-1.276-0.375-1.559-1.01
	c-0.387-0.861,0.001-1.867,0.861-2.254c4.605-2.051,9.258-4.23,13.826-6.477c0.848-0.408,1.865-0.062,2.281,0.781
	c0.415,0.846,0.066,1.869-0.779,2.283c-4.605,2.26-9.294,4.457-13.939,6.529C337.65,339.543,337.414,339.588,337.184,339.588z
	 M131.107,331.656c-0.596,0-1.174-0.31-1.486-0.867c-2.674-4.725-4.476-9.785-5.363-15.039l-0.249-1.611
	c-0.134-0.932,0.513-1.795,1.446-1.932c0.934-0.125,1.797,0.518,1.93,1.447l0.237,1.535c0.82,4.858,2.491,9.543,4.967,13.92
	c0.464,0.818,0.177,1.857-0.645,2.326C131.681,331.584,131.392,331.656,131.107,331.656z M125.808,298.627
	c-0.096,0-0.192-0.008-0.289-0.021c-0.929-0.16-1.553-1.043-1.394-1.971c0.999-5.854,3.02-11.402,6.006-16.49
	c0.475-0.816,1.521-1.078,2.333-0.609c0.812,0.479,1.085,1.522,0.608,2.334c-2.776,4.734-4.655,9.895-5.586,15.34
	C127.346,298.039,126.623,298.627,125.808,298.627z M339.22,275.84c-0.894,0-1.642-0.691-1.7-1.596
	c-0.061-0.939,0.652-1.752,1.592-1.811c5.895-0.379,11.475-1.174,16.591-2.361c0.913-0.215,1.835,0.357,2.047,1.273
	c0.213,0.92-0.357,1.838-1.274,2.049c-5.299,1.23-11.066,2.051-17.143,2.441C339.293,275.84,339.256,275.84,339.22,275.84z
	 M322.175,275.84c-0.034,0-0.067,0-0.101-0.004c-5.554-0.32-11.312-0.955-17.112-1.879c-0.933-0.148-1.564-1.022-1.415-1.953
	c0.146-0.922,1.009-1.561,1.951-1.416c5.689,0.904,11.334,1.529,16.775,1.846c0.939,0.053,1.656,0.863,1.602,1.801
	C323.823,275.139,323.071,275.84,322.175,275.84z M288.532,270.545c-0.139,0-0.278-0.018-0.419-0.051
	c-5.529-1.393-11.074-3.033-16.482-4.891c-0.891-0.301-1.364-1.271-1.061-2.166c0.307-0.891,1.274-1.369,2.168-1.057
	c5.317,1.82,10.77,3.436,16.207,4.803c0.913,0.229,1.469,1.158,1.238,2.07C289.989,270.027,289.295,270.545,288.532,270.545z
	 M142.516,269.717c-0.477,0-0.949-0.199-1.287-0.586c-0.618-0.709-0.544-1.789,0.168-2.406c4.191-3.641,9.078-6.883,14.527-9.629
	c0.842-0.422,1.865-0.086,2.289,0.756c0.425,0.84,0.087,1.867-0.754,2.291c-5.195,2.617-9.848,5.699-13.824,9.154
	C143.312,269.58,142.913,269.717,142.516,269.717z M372.12,267.75c-0.621,0-1.221-0.34-1.521-0.932
	c-0.427-0.84-0.093-1.867,0.747-2.293c5.215-2.654,9.613-5.943,13.076-9.779c0.633-0.695,1.709-0.746,2.408-0.121
	c0.7,0.629,0.756,1.709,0.124,2.408c-3.743,4.148-8.473,7.688-14.063,10.529C372.643,267.689,372.381,267.75,372.12,267.75z
	 M256.271,259.56c-0.207,0-0.417-0.035-0.619-0.115c-5.18-2.022-10.575-3.754-16.032-5.156c-0.912-0.232-1.461-1.162-1.229-2.076
	c0.235-0.91,1.173-1.465,2.076-1.23c5.591,1.435,11.117,3.217,16.423,5.285c0.878,0.344,1.311,1.332,0.97,2.207
	C257.596,259.148,256.951,259.56,256.271,259.56z M172.58,254.199c-0.743,0-1.426-0.492-1.64-1.238
	c-0.257-0.908,0.269-1.85,1.175-2.109c5.385-1.529,11.092-2.674,16.963-3.402c0.934-0.154,1.788,0.551,1.902,1.482
	c0.117,0.938-0.547,1.787-1.482,1.902c-5.699,0.705-11.234,1.82-16.451,3.303C172.891,254.178,172.734,254.199,172.58,254.199z
	 M223.31,251.102c-0.075,0-0.149-0.006-0.227-0.014c-5.597-0.748-11.247-1.146-16.793-1.197c-0.942-0.01-1.698-0.777-1.691-1.721
	c0.008-0.936,0.771-1.69,1.705-1.69c0.004,0,0.01,0,0.016,0c5.687,0.049,11.477,0.463,17.213,1.221
	c0.934,0.129,1.591,0.984,1.466,1.918C224.886,250.477,224.152,251.102,223.31,251.102z M393.979,242.885
	c-0.162,0-0.329-0.023-0.494-0.074c-0.901-0.275-1.41-1.227-1.138-2.127c1.219-4.025,1.838-8.443,1.838-13.131
	c-0.002-1.023-0.03-2.072-0.088-3.137c-0.053-0.939,0.666-1.746,1.607-1.797c0.902-0.102,1.746,0.67,1.795,1.611
	c0.062,1.125,0.094,2.231,0.096,3.32c0,5.025-0.667,9.777-1.982,14.119C395.389,242.41,394.713,242.885,393.979,242.885z
	 M393.116,209.221c-0.765,0-1.459-0.518-1.653-1.289c-1.408-5.615-3.312-10.883-5.654-15.652c-0.414-0.846-0.066-1.869,0.781-2.287
	c0.844-0.408,1.866-0.062,2.28,0.779c2.448,4.988,4.434,10.482,5.901,16.326c0.23,0.918-0.324,1.844-1.238,2.072
	C393.395,209.203,393.254,209.221,393.116,209.221z M167.44,181.301c-0.701,0-1.357-0.438-1.608-1.135
	c-0.314-0.887,0.149-1.859,1.035-2.18c0.648-0.232,1.596-0.58,2.821-1.035c2.948-1.094,7.479-2.775,13.261-4.791
	c0.891-0.303,1.862,0.158,2.172,1.051c0.31,0.891-0.159,1.857-1.049,2.174c-5.754,2-10.264,3.678-13.199,4.764
	c-1.241,0.461-2.204,0.818-2.859,1.051C167.823,181.268,167.63,181.301,167.44,181.301z M378.016,179.029
	c-0.479,0-0.956-0.203-1.293-0.596c-3.564-4.141-7.717-7.854-12.34-11.031c-0.777-0.533-0.974-1.596-0.44-2.371
	c0.532-0.77,1.599-0.971,2.372-0.439c4.866,3.344,9.238,7.25,12.994,11.617c0.614,0.713,0.535,1.793-0.18,2.406
	C378.808,178.893,378.412,179.029,378.016,179.029z M199.721,170.115c-0.726,0-1.398-0.469-1.627-1.197
	c-0.281-0.9,0.218-1.855,1.117-2.139c5.533-1.734,11.059-3.369,16.422-4.859c0.895-0.252,1.85,0.277,2.102,1.185
	c0.251,0.906-0.28,1.85-1.189,2.1c-5.328,1.482-10.815,3.107-16.315,4.832C200.062,170.09,199.89,170.115,199.721,170.115z
	 M232.614,160.992c-0.771,0-1.47-0.527-1.659-1.311c-0.217-0.918,0.348-1.834,1.264-2.055c5.687-1.361,11.321-2.584,16.748-3.645
	c0.92-0.176,1.82,0.426,2.001,1.35c0.181,0.926-0.423,1.822-1.348,2c-5.382,1.049-10.968,2.264-16.608,3.611
	C232.877,160.977,232.745,160.992,232.614,160.992z M350.318,159.732c-0.211,0-0.426-0.041-0.634-0.125
	c-4.916-1.971-10.309-3.598-16.031-4.832c-0.921-0.197-1.505-1.105-1.308-2.025c0.2-0.92,1.119-1.51,2.027-1.307
	c5.911,1.273,11.488,2.959,16.58,5.002c0.875,0.348,1.299,1.342,0.948,2.219C351.635,159.33,350.994,159.732,350.318,159.732z
	 M266.103,154.498c-0.835,0-1.564-0.611-1.685-1.463c-0.135-0.932,0.512-1.795,1.443-1.932c5.84-0.844,11.578-1.504,17.057-1.965
	c0.923-0.037,1.764,0.615,1.843,1.557c0.081,0.938-0.618,1.764-1.556,1.84c-5.412,0.459-11.082,1.111-16.855,1.947
	C266.268,154.492,266.184,154.498,266.103,154.498z M317.152,152.336c-0.051,0-0.099-0.002-0.15-0.006
	c-4.74-0.41-9.775-0.619-14.965-0.619l-1.91,0.006c-0.006,0-0.014,0-0.019,0c-0.935,0-1.695-0.754-1.706-1.688
	c-0.009-0.941,0.746-1.713,1.689-1.723l1.954-0.008c5.279,0,10.413,0.215,15.253,0.635c0.939,0.08,1.634,0.908,1.552,1.846
	C318.771,151.666,318.027,152.336,317.152,152.336z"/>
<polygon style="fill:#E45136;" points="383.322,308.49 368.553,323.258 353.777,308.49 347.9,314.365 362.671,329.143 347.9,343.91 
	353.777,349.795 368.553,335.02 383.322,349.795 389.205,343.91 374.43,329.143 389.205,314.365 "/>
<path style="fill:#E27C3E;" d="M377.832,219.012c2.025-21.26-11.053-42.305-39.637-43.449c-28.584-1.143-52.975,9.529-77.367,5.717
	c-24.393-3.811-84.609-3.049-84.609,21.725c0,24.773,44.591,30.109,61.36,16.008c16.77-14.102,48.784,0,73.176,11.814
	C335.146,242.641,374.783,251.025,377.832,219.012z"/>
<path style="fill:#45B39C;" d="M362.969,214.184c1.074-13.973-12.959-31.508-28.965-30.744c-12.748,0.607-57.93,9.402-76.732,4.066
	c-18.804-5.336-71.651-1.018-69.365,13.465c2.287,14.482,28.713,20.584,44.211,10.164c15.498-10.418,44.21-4.828,63.266,6.605
	C314.439,229.174,360.682,243.912,362.969,214.184z"/>
<path style="fill:#E27C3E;" d="M146.49,288.756c-5.883,16.867,0,42.305,26.68,46.115c26.678,3.811,75.462,36.588,75.843,9.147
	c0.382-27.44-9.528-45.354-8.003-60.598c1.523-15.244-48.021-16.77-59.837-4.574C169.357,291.043,152.207,272.367,146.49,288.756z"
	/>
<path style="fill:#45B39C;" d="M229.957,290.662c-2.682-13.199-24.774-15.246-34.683-4.574
	c-9.909,10.672-36.969,1.523-38.112,15.625c-1.142,14.102,77.368,50.689,84.229,42.305
	C248.25,335.633,234.911,315.053,229.957,290.662z"/>
<path style="fill:#334D5C;" d="M219.285,292.185c-8.004-4.955-16.77,4.955-22.486,7.623c-5.717,2.668-21.343,1.523-20.58,8.766
	c0.762,7.24,39.256,32.395,48.402,24.01c9.146-8.385-2.668-19.818-1.143-25.916C225.002,300.57,224.955,295.695,219.285,292.185z"/>
<path style="fill:#E27C3E;" d="M292.588,279.99c-7.094-5.332-25.662-7.369-27.186,3.301c-1.524,10.672,13.466,16.008,21.088,27.188
	C294.111,321.66,314.604,296.541,292.588,279.99z"/>
<path style="fill:#45B39C;" d="M278.359,282.785c-2.857,3.506,3.557,10.672,8.385,17.531c4.828,6.861,14.99,4.068,10.672-4.572
	C293.097,287.103,283.949,275.926,278.359,282.785z"/>
<path style="fill:#E27C3E;" d="M274.803,312.514c-4.209-4.91-9.146-5.336-13.721,0.762c-4.573,6.098,2.54,10.922,4.319,18.037
	c1.778,7.117,14.228,20.074,20.325,15.754c6.099-4.32,14.992-17.022,7.115-23.119C284.965,317.85,277.852,316.07,274.803,312.514z"
	/>
<path style="fill:#45B39C;" d="M271.754,319.879c-2.414,3.793,0.254,9.656,5.336,15.754c5.08,6.098,7.877,5.846,9.908,1.525
	c2.033-4.32,0.508-9.654-5.59-13.975C275.311,318.863,273.533,317.084,271.754,319.879z"/>
<path style="fill:#334D5C;" d="M341.513,210.9c1.051-14.08-13.774-18.938-40.638-15.84c-26.863,3.096-95.395-10.336-100.561,5.508
	c-5.166,15.844,31.338-5.854,61.645,1.033C292.266,208.488,339.79,233.973,341.513,210.9z"/>
<path style="fill:#2893C0;" d="M176.522,232.072c-2.737-14.596-59.663-5.799-68.779,26.105
	c-9.115,31.902-14.917,77.891,3.314,96.951c18.231,19.062,19.061-2.068,9.945-23.199c-9.116-21.131-14.09-41.85-2.902-60.494
	C129.288,252.791,180.252,251.959,176.522,232.072z"/>
<path style="fill:#2893C0;" d="M336.041,289.666c-0.723-7.525,14.916-5.799,26.518-8.699c11.603-2.9,31.904-31.074,41.021-24.445
	c9.116,6.627,9.529,28.586-4.143,31.486C385.764,290.908,338.112,311.211,336.041,289.666z"/>
<path style="fill:#EFC84A;" d="M439.478,359.221c0,3.949,1.146,20.24-22.104,20.24c1.81-11.719,6.384-38.397,6.384-38.397
	l13.911,9.908L439.478,359.221z"/>
<path style="fill:#B2902F;" d="M427.402,192.695c-0.262-7.127-7.504-7.318-8.789-4.428l-1.27,161.342
	c6.074-6.541,20.276-1.68,22.135,9.611L427.402,192.695z"/>
<path id="bg_41_" style="fill:#E27C3E;" d="M512,255.998C512,397.379,397.387,512,255.998,512C114.612,512,0,397.379,0,255.998
	S114.612,0,255.998,0C397.387,0,512,114.617,512,255.998z"/>
<path style="fill:#1B2C35;" d="M454.972,365.203c0,8.719-7.068,15.789-15.79,15.789H72.814c-8.722,0-15.79-7.07-15.79-15.789
	V171.488c0-8.725,7.068-15.793,15.79-15.793h366.367c8.722,0,15.79,7.068,15.79,15.793V365.203z"/>
<path style="fill:#334D5C;" d="M454.972,340.514c0,8.719-7.068,15.791-15.79,15.791H72.814c-8.722,0-15.79-7.072-15.79-15.791
	V146.799c0-8.725,7.068-15.793,15.79-15.793h366.367c8.722,0,15.79,7.068,15.79,15.793V340.514z"/>
<path style="fill:#334D5C;" d="M454.972,340.514c0,8.719-7.068,15.791-15.79,15.791H72.814c-8.722,0-15.79-7.072-15.79-15.791
	V146.799c0-8.725,7.068-15.793,15.79-15.793h366.367c8.722,0,15.79,7.068,15.79,15.793V340.514z"/>
<rect x="76.357" y="144.937" style="fill:#EBE7DF;" width="360.473" height="162.15"/>
<path style="fill:#B2902F;" d="M85.811,330.111c0-8.883,7.197-16.072,16.076-16.072c8.866,0,16.069,7.189,16.069,16.072
	c0,8.879-7.203,16.072-16.069,16.072C93.008,346.184,85.811,338.99,85.811,330.111z"/>
<path style="fill:#EFC84A;" d="M89.342,330.111c0-6.93,5.616-12.541,12.545-12.541c6.916,0,12.531,5.611,12.531,12.541
	c0,6.928-5.615,12.541-12.531,12.541C94.958,342.652,89.342,337.039,89.342,330.111z"/>
<circle style="fill:#FFFFFF;" cx="97.829" cy="322.969" r="3.372"/>
<path style="fill:#1B2C35;" d="M398.551,324.545c0,2.594-2.099,4.693-4.689,4.693H167.459c-2.59,0-4.689-2.1-4.689-4.693l0,0
	c0-2.59,2.1-4.689,4.689-4.689h226.402C396.452,319.855,398.551,321.955,398.551,324.545L398.551,324.545z"/>
<path style="fill:#1B2C35;" d="M398.551,340.75c0,2.59-2.099,4.689-4.689,4.689H167.459c-2.59,0-4.689-2.1-4.689-4.689l0,0
	c0-2.594,2.1-4.69,4.689-4.69h226.402C396.452,336.06,398.551,338.156,398.551,340.75L398.551,340.75z"/>
<path style="fill:#718F9E;" d="M65.605,265.557c-1.885,0-3.412-1.527-3.412-3.412v-93.348c0-1.885,1.527-3.412,3.412-3.412
	c1.879,0,3.412,1.527,3.412,3.412v93.348C69.018,264.029,67.484,265.557,65.605,265.557z"/>
<path style="fill:#2E826C;" d="M434.445,199.811h-17.053v-5.115h17.053V199.811z M400.338,199.811h-17.055v-5.115h17.055V199.811z
	 M366.228,199.811h-17.055v-5.115h17.055V199.811z M332.117,199.811h-17.055v-5.115h17.055V199.811z M298.008,199.811h-17.053
	v-5.115h17.053V199.811z M263.9,199.811h-17.055v-5.115H263.9V199.811z M229.79,199.811h-17.055v-5.115h17.055V199.811z
	 M195.68,199.811h-17.055v-5.115h17.055V199.811z M161.57,199.811h-17.053v-5.115h17.053V199.811z M127.463,199.811h-17.055v-5.115
	h17.055V199.811z M93.353,199.811H76.298v-5.115h17.055V199.811z"/>
<polygon style="fill:#A6CB95;" points="264.19,213.369 436.83,214.361 436.83,144.938 265.127,144.938 "/>
<path style="fill:#FFFFFF;" d="M230.877,277.158c-1.033,0-2.078-0.002-3.126-0.006l-3.156-0.008H76.324V266.91l151.468,0.012
	c11.237,0.031,20.965,0.084,26.16-5.092c3.484-3.465,5.179-9.477,5.179-18.371v-98.488h10.23v98.488
	c0,11.756-2.677,20.137-8.186,25.625C253.628,276.596,242.668,277.158,230.877,277.158z"/>
<rect x="263.674" y="207.65" style="fill:#FFFFFF;" width="173.197" height="10.232"/>
<path style="fill:#2E826C;" d="M434.445,259.467h-17.053v-5.119h17.053V259.467z M400.338,259.467h-17.055v-5.119h17.055V259.467z
	 M366.228,259.467h-17.055v-5.119h17.055V259.467z M332.117,259.467h-17.055v-5.119h17.055V259.467z M298.008,259.467h-17.053
	v-5.119h17.053V259.467z M263.9,259.467h-17.055v-5.119H263.9V259.467z M229.79,259.467h-17.055v-5.119h17.055V259.467z
	 M195.68,259.467h-17.055v-5.119h17.055V259.467z M161.57,259.467h-17.053v-5.119h17.053V259.467z M127.463,259.467h-17.055v-5.119
	h17.055V259.467z M93.353,259.467H76.298v-5.119h17.055V259.467z"/>
<path style="fill:#FEF976;" d="M155.383,307.416h-20.467v-70.494c0-37.934,19.887-59.689,54.562-59.689h247.301v20.463H189.479
	c-8.433,0-34.096,0-34.096,39.227V307.416z"/>
<path style="fill:#FEF976;" d="M436.765,284.109h-96.06c-28.227,0-43.77-15.348-43.77-43.207v-53.439h17.055v53.439
	c0,18.332,7.989,26.15,26.715,26.15h96.06V284.109z"/>
<rect x="214.269" y="144.904" style="fill:#FEF976;" width="13.643" height="41.701"/>
<rect x="76.217" y="150.086" style="fill:#FEF976;" width="141.557" height="10.234"/>
<rect x="251.714" y="145.051" style="fill:#2E826C;" width="5.118" height="8.527"/>
<path style="fill:#2E826C;" d="M256.832,282.5h-5.118v-16.117h5.118V282.5z M256.832,250.27h-5.118v-16.115h5.118V250.27z
	 M256.832,218.039h-5.118v-16.115h5.118V218.039z M256.832,185.807h-5.118v-16.113h5.118V185.807z"/>
<rect x="251.714" y="298.615" style="fill:#2E826C;" width="5.118" height="8.527"/>
<rect x="377.399" y="145.051" style="fill:#2E826C;" width="5.118" height="8.527"/>
<path style="fill:#2E826C;" d="M382.518,282.5h-5.118v-16.117h5.118V282.5z M382.518,250.27h-5.118v-16.115h5.118V250.27z
	 M382.518,218.039h-5.118v-16.115h5.118V218.039z M382.518,185.807h-5.118v-16.113h5.118V185.807z"/>
<rect x="377.399" y="298.615" style="fill:#2E826C;" width="5.118" height="8.527"/>
<rect x="126.031" y="145.051" style="fill:#2E826C;" width="5.115" height="8.527"/>
<path style="fill:#2E826C;" d="M131.146,282.5h-5.115v-16.117h5.115V282.5z M131.146,250.27h-5.115v-16.115h5.115V250.27z
	 M131.146,218.039h-5.115v-16.115h5.115V218.039z M131.146,185.807h-5.115v-16.113h5.115V185.807z"/>
<rect x="126.031" y="298.615" style="fill:#2E826C;" width="5.115" height="8.527"/>
<path style="fill:#A6CB95;" d="M228.713,264.746c0-15.068,12.216-27.289,27.285-27.289c15.069,0,27.289,12.221,27.289,27.289
	c0,15.068-12.22,27.289-27.289,27.289C240.929,292.035,228.713,279.814,228.713,264.746z"/>
<polygon style="fill:#E27C3E;" points="255.998,240.691 236.725,279.244 255.998,270.496 "/>
<polygon style="fill:#CD5929;" points="255.998,240.691 275.277,279.244 255.998,270.496 "/>
<polygon style="fill:#B74821;" points="236.725,279.244 275.277,279.244 255.998,270.496 "/>
<g>
</g>
<g>
</g>
<g>
</g>
<g>
</g>
<g>
</g>
<g>
</g>
<g>
</g>
<g>
</g>
<g>
</g>
<g>
</g>
<g>
</g>
<g>
</g>
<g>
</g>
<g>
</g>
<g>
</g>
</svg>
