<?xml version="1.0" encoding="iso-8859-1"?>
<!-- Generator: Adobe Illustrator 17.0.0, SVG Export Plug-In . SVG Version: 6.00 Build 0)  -->
<!DOCTYPE svg PUBLIC "-//W3C//DTD SVG 1.1//EN" "http://www.w3.org/Graphics/SVG/1.1/DTD/svg11.dtd">
<svg version="1.1" id="Layer_1" xmlns="http://www.w3.org/2000/svg" xmlns:xlink="http://www.w3.org/1999/xlink" x="0px" y="0px"
	 width="512px" height="512px" viewBox="0 0 512 512" style="enable-background:new 0 0 512 512;" xml:space="preserve">
<circle style="fill:#EFC84A;" cx="256" cy="256" r="256"/>
<path style="fill:#1D2A33;" d="M399.435,337.177c74-254.048-143.5-251.542-143.5-251.542s-217.5-2.506-143.5,251.542v-16.726
	c0,0-56.315-211.777,143.5-211.777s143.5,211.777,143.5,211.777V337.177z"/>
<path style="fill:#172229;" d="M347.435,271.076c0-6.117-4.959-11.076-11.076-11.076h-8.848c-6.117,0-11.076,4.959-11.076,11.076
	v131.848c0,6.117,4.959,11.076,11.076,11.076h8.848c6.117,0,11.076-4.959,11.076-11.076V271.076z"/>
<path style="fill:#172229;" d="M194.435,402.924c0,6.117-4.959,11.076-11.076,11.076h-8.848c-6.117,0-11.076-4.959-11.076-11.076
	V271.076c0-6.117,4.959-11.076,11.076-11.076h8.848c6.117,0,11.076,4.959,11.076,11.076V402.924z"/>
<path style="fill:#283B47;" d="M128.435,276.666c0,8.6,0,112.421,0,121.022c0,25.1,38.461,22.147,38.461,22.147
	c3.154-0.24,5.539-2.432,5.539-4.868V259.387c0-2.436-2.385-4.627-5.539-4.868C166.896,254.519,128.435,251.565,128.435,276.666z"/>
<path style="fill:#344C5C;" d="M112.435,293.318c0,6.218,0,81.278,0,87.496c0,18.148,13.951,16.013,13.951,16.013
	c1.139-0.175,2.049-1.759,2.049-3.52v-112.48c0-1.762-0.91-3.346-2.049-3.521C126.386,277.306,112.435,275.171,112.435,293.318z"/>
<path style="fill:#385363;" d="M166.896,254.519c0,0-38.461-2.953-38.461,22.147c0,1.22,0,4.356,0,8.861
	c0-25.102,38.461-22.148,38.461-22.148c3.154,0.242,5.539,2.433,5.539,4.869v-8.861C172.435,256.95,170.05,254.76,166.896,254.519z"
	/>
<path style="fill:#172229;" d="M154.435,419.377c2,0.219,3,0.358,5,0.443V254.533c-2,0.085-3,0.225-5,0.442V419.377z"/>
<path style="fill:#283B47;" d="M96.479,274.051l11.245-1.449l4.71,39.171v49.218C112.435,360.99,98.694,345.381,96.479,274.051z"/>
<path style="fill:#283B47;" d="M383.435,276.666c0,8.6,0,112.421,0,121.022c0,25.1-38.461,22.147-38.461,22.147
	c-3.154-0.24-5.539-2.432-5.539-4.868V259.387c0-2.436,2.385-4.627,5.539-4.868C344.974,254.519,383.435,251.565,383.435,276.666z"
	/>
<path style="fill:#344C5C;" d="M399.435,293.318c0,6.218,0,81.278,0,87.496c0,18.148-13.951,16.013-13.951,16.013
	c-1.139-0.175-2.049-1.759-2.049-3.52v-112.48c0-1.762,0.91-3.346,2.049-3.521C385.483,277.306,399.435,275.171,399.435,293.318z"/>
<path style="fill:#385363;" d="M344.974,254.519c0,0,38.461-2.953,38.461,22.147c0,1.22,0,4.356,0,8.861
	c0-25.102-38.461-22.148-38.461-22.148c-3.154,0.242-5.539,2.433-5.539,4.869v-8.861C339.435,256.95,341.819,254.76,344.974,254.519
	z"/>
<path style="fill:#172229;" d="M357.435,419.377c-1,0.219-3,0.358-5,0.443V254.533c2,0.085,4,0.225,5,0.442V419.377z"/>
<path style="fill:#283B47;" d="M415.483,274.051l-11.292-1.449l-4.757,39.171v49.218
	C399.435,360.99,413.269,345.381,415.483,274.051z"/>
<path style="fill:#385363;" d="M255.973,75.002C102.233,73.672,96.363,212.139,96.363,212.139l1.733,9.1h0.001
	C111.559,83.969,255.973,86.031,255.973,86.031S400.428,84,413.889,222h0.042l1.706-9.48
	C415.637,212.52,409.711,73.672,255.973,75.002z"/>
<path style="fill:#283B47;" d="M255.973,85.635c0,0-144.414-1.666-157.875,135.603l10.994-6.359
	c10.888-53.049,46.773-106.205,146.881-106.205c100.129,0,136.02,53.156,146.907,106.205l11.023,6.359
	C400.441,83.969,255.973,85.635,255.973,85.635z"/>
<g>
</g>
<g>
</g>
<g>
</g>
<g>
</g>
<g>
</g>
<g>
</g>
<g>
</g>
<g>
</g>
<g>
</g>
<g>
</g>
<g>
</g>
<g>
</g>
<g>
</g>
<g>
</g>
<g>
</g>
</svg>
