<?xml version="1.0" encoding="iso-8859-1"?>
<!-- Generator: Adobe Illustrator 17.0.0, SVG Export Plug-In . SVG Version: 6.00 Build 0)  -->
<!DOCTYPE svg PUBLIC "-//W3C//DTD SVG 1.1//EN" "http://www.w3.org/Graphics/SVG/1.1/DTD/svg11.dtd">
<svg version="1.1" id="Layer_1" xmlns="http://www.w3.org/2000/svg" xmlns:xlink="http://www.w3.org/1999/xlink" x="0px" y="0px"
	 width="512px" height="512px" viewBox="0 0 512 512" style="enable-background:new 0 0 512 512;" xml:space="preserve">
<circle id="background_63_" style="fill:#E05B49;" cx="256" cy="256" r="256"/>
<g>
	<polygon style="fill:#233540;" points="328.795,399 192.064,399 202.582,389 318.278,389 	"/>
	<polygon style="fill:#3B5666;" points="328.202,401 192.52,401 192.064,399 328.795,399 	"/>
	<rect x="253" y="314" style="fill:#233540;" width="15" height="85"/>
	<linearGradient id="SVGID_1_" gradientUnits="userSpaceOnUse" x1="260.5" y1="388.8077" x2="260.5" y2="369.6007">
		<stop  offset="0" style="stop-color:#FFFFFF;stop-opacity:0"/>
		<stop  offset="1" style="stop-color:#000000"/>
	</linearGradient>
	<rect x="253" y="363" style="fill:url(#SVGID_1_);" width="15" height="22"/>
	<path style="fill:#4D7085;" d="M451,366.894c0,4.477-3.629,8.106-8.106,8.106H70.106c-4.477,0-8.106-3.63-8.106-8.106V154.107
		c0-4.477,3.629-8.107,8.106-8.107h372.787c4.477,0,8.106,3.63,8.106,8.107V366.894z"/>
	<path style="fill:#233540;" d="M445,363.894c0,4.478-3.629,8.106-8.106,8.106H71.106c-4.477,0-8.106-3.629-8.106-8.106V158.106
		c0-4.476,3.629-8.106,8.106-8.106h365.787c4.477,0,8.106,3.63,8.106,8.106V363.894z"/>
	<path style="fill:#233540;" d="M443,358.894c0,4.477-3.629,8.106-8.106,8.106H77.106c-4.477,0-8.106-3.63-8.106-8.106V163.107
		c0-4.477,3.629-8.107,8.106-8.107h357.787c4.477,0,8.106,3.63,8.106,8.107V358.894z"/>
	<path style="fill:#141E24;" d="M434,349.894c0,4.478-3.63,8.106-8.107,8.106H85.107C80.63,358,77,354.371,77,349.894V170.106
		c0-4.476,3.63-8.106,8.107-8.106h340.785c4.477,0,8.107,3.63,8.107,8.106V349.894z"/>
	<path style="fill:#3B5666;" d="M431,345.894c0,4.477-3.629,8.106-8.106,8.106H89.106c-4.477,0-8.106-3.63-8.106-8.106V173.107
		c0-4.477,3.629-8.107,8.106-8.107h333.787c4.477,0,8.106,3.63,8.106,8.107V345.894z"/>
	<polygon style="fill:#4E7287;" points="240.819,354 346.648,165 247.815,165 141.987,354 	"/>
	<polygon style="fill:#4E7287;" points="299.704,354 405.657,165 369.778,165 263.95,354 	"/>
</g>
<g>
</g>
<g>
</g>
<g>
</g>
<g>
</g>
<g>
</g>
<g>
</g>
<g>
</g>
<g>
</g>
<g>
</g>
<g>
</g>
<g>
</g>
<g>
</g>
<g>
</g>
<g>
</g>
<g>
</g>
</svg>
