<?xml version="1.0" encoding="iso-8859-1"?>
<!-- Generator: Adobe Illustrator 17.0.0, SVG Export Plug-In . SVG Version: 6.00 Build 0)  -->
<!DOCTYPE svg PUBLIC "-//W3C//DTD SVG 1.1//EN" "http://www.w3.org/Graphics/SVG/1.1/DTD/svg11.dtd">
<svg version="1.1" id="Layer_1" xmlns="http://www.w3.org/2000/svg" xmlns:xlink="http://www.w3.org/1999/xlink" x="0px" y="0px"
	 width="512px" height="512.001px" viewBox="0 0 512 512.001" style="enable-background:new 0 0 512 512.001;" xml:space="preserve"
	>
<path id="bg_20_" style="fill:#334D5C;" d="M512,255.999c0,141.381-114.611,256.002-255.998,256.002
	C114.613,512.001,0,397.38,0,255.999S114.613,0,256.002,0C397.389,0,512,114.618,512,255.999z"/>
<path style="fill:#939FA7;" d="M326.391,49.876c6.455-1.316,16.953-2.262,16.953-2.262s-10.645-0.822-17.061-2.094
	c0.783-3.633,3.025-9.32,3.025-9.32s-5.473,2.159-9.109,2.975c-1.223-6.496-2.012-17.01-2.012-17.01s-0.738,10.787-1.986,17.078
	c-3.617-0.752-9.428-3.043-9.428-3.043s2.076,5.271,2.928,8.906c-6.568,1.289-16.963,2.215-16.963,2.215s10.492,1.004,16.996,2.359
	c-0.822,3.635-2.961,9.054-2.961,9.054s5.605-2.21,9.24-3.001c1.199,6.357,1.881,17.037,1.881,17.037s0.914-10.723,2.242-17.022
	c3.643,0.808,9.172,2.986,9.172,2.986S327.248,53.513,326.391,49.876z"/>
<path style="fill:#939FA7;" d="M67.799,148.645c3.346-0.682,8.783-1.174,8.783-1.174s-5.514-0.426-8.838-1.083
	c0.406-1.882,1.566-4.827,1.566-4.827s-2.834,1.117-4.717,1.54c-0.633-3.364-1.045-8.81-1.045-8.81s-0.381,5.588-1.027,8.846
	c-1.875-0.391-4.883-1.576-4.883-1.576s1.074,2.731,1.516,4.613c-3.402,0.666-8.787,1.148-8.787,1.148s5.436,0.518,8.805,1.221
	c-0.426,1.883-1.533,4.689-1.533,4.689s2.902-1.143,4.785-1.554c0.623,3.294,0.977,8.825,0.977,8.825s0.473-5.553,1.162-8.816
	c1.885,0.417,4.748,1.545,4.748,1.545S68.244,150.53,67.799,148.645z"/>
<path style="fill:#939FA7;" d="M410.912,396.712c7.238-1.474,19-2.537,19-2.537s-11.928-0.92-19.117-2.343
	c0.877-4.07,3.389-10.442,3.389-10.442s-6.133,2.415-10.203,3.332c-1.369-7.279-2.26-19.059-2.26-19.059s-0.824,12.088-2.221,19.137
	c-4.059-0.846-10.564-3.41-10.564-3.41s2.324,5.908,3.277,9.978c-7.359,1.44-19.004,2.486-19.004,2.486s11.754,1.119,19.043,2.641
	c-0.92,4.07-3.316,10.145-3.316,10.145s6.279-2.475,10.35-3.361c1.348,7.121,2.113,19.088,2.113,19.088s1.025-12.012,2.51-19.07
	c4.08,0.902,10.275,3.344,10.275,3.344S411.877,400.792,410.912,396.712z"/>
<path style="fill:#E27C3E;" d="M251.541,348.429c0,0,0.055-1.098,0.156-3.162c0.051-1.041,0.109-2.316,0.182-3.828
	c0.113-1.871,0.244-4.029,0.383-6.436c0.367-4.811,0.945-10.221,2.1-16.855c0.5-3.244,1.441-6.898,2.264-10.59
	c1.184-3.862,2.113-7.748,3.902-12.035c1.48-4.178,3.746-8.635,6.123-13.09c1.408-2.236,2.881-4.484,4.397-6.723
	c1.52-2.236,3.535-4.383,5.371-6.547c7.758-8.588,18.635-15.445,29.787-18.815c2.77-0.732,5.607-1.683,8.367-2.11
	c2.752-0.4,5.52-0.764,8.271-1.09c2.74-0.277,5.357-0.152,8.033-0.212l3.992-0.003l0.248,0.003c-0.523,0.032-0.086,0.009-0.18,0.021
	l0.105,0.004l0.398,0.023l0.818,0.045l1.621,0.092c2.152,0.119,4.305,0.232,6.463,0.352l5.852,0.199
	c3.889,0.041,7.994,0.074,11.748-0.209c7.658-0.451,14.721-1.691,20.188-4.114c5.277-2.483,9.314-6.351,12.178-12.423
	c0.594-1.586,1.322-3.087,1.848-4.748c0.457-1.707,1.029-3.354,1.42-5.098c0.353-1.736,0.709-3.457,1.06-5.15
	c0.268-1.93,0.525-3.83,0.795-5.703c0.934-7.107,1.414-14.127,1.703-20.672c0.309-6.554,0.455-12.732,1.164-18.288
	c0.666-5.561,2.107-10.431,4.025-13.974c1.908-3.543,3.885-5.938,5.309-7.453c1.449-1.479,2.227-2.271,2.227-2.271
	s-0.574,0.932-1.66,2.695c-1.037,1.748-2.377,4.46-3.359,8.01c-0.988,3.56-1.272,7.994-0.744,13.115
	c0.496,5.121,1.67,10.957,2.838,17.514c1.178,6.557,2.34,13.766,3.068,21.718c0.162,1.888,0.318,3.8,0.488,5.735
	c0.055,2.152,0.111,4.338,0.168,6.537c0.008,2.186-0.199,4.467-0.312,6.756c-0.186,2.303-0.664,4.709-1.022,7.119
	c-0.631,2.422-1.215,4.914-2.139,7.402c-1.047,2.466-1.977,5.045-3.545,7.414c-2.723,4.99-6.852,9.231-11.215,12.961
	c-9.021,7.072-19.076,10.932-28.557,13.78c-4.83,1.478-9.441,2.501-14.215,3.537l-7.154,1.378c-2.168,0.369-4.338,0.736-6.49,1.105
	l-3.434,0.568l-2.402,0.613c-1.555,0.443-3.219,0.682-4.625,1.219c-1.369,0.574-2.709,1.108-4.031,1.602
	c-1.305,0.521-2.254,1.334-3.367,1.893c-4.105,2.678-6.318,5.625-7.863,8.867c-0.312,0.92-0.787,1.576-1.049,2.535
	c-0.256,0.965-0.529,1.872-0.836,2.724c-0.355,2.081-0.852,3.903-0.994,6.106c-0.346,1.951-0.242,4.338-0.408,6.301
	c0.103,2.254,0.012,4.205,0.201,6.291c0.256,4,0.732,7.908,1.201,10.768c1.193,6.758,1.869,10.627,1.869,10.627L251.541,348.429z"/>
<path style="fill:#E27C3E;" d="M133.244,279.876c0,0,0.684-4.44,1.875-12.211c0.732-4.326,1.781-9.365,3.373-15.433
	c1.764-6.077,3.955-13.03,7.59-20.438c3.594-7.363,8.471-14.991,14.498-21.866c5.984-6.938,13.065-12.959,20.502-18.02
	c1.85-1.338,3.73-2.564,5.654-3.688c1.912-1.131,3.812-2.391,5.766-3.412c1.943-1.029,3.902-2.074,5.865-3.113l0.734-0.394
	l0.185-0.095l0.09-0.051c0.346-0.224-0.367,0.252-0.262,0.189l0.326-0.172l1.332-0.674l2.664-1.357l2.678-1.366l2.113-1.144
	c1.42-0.771,2.906-1.5,4.264-2.396c1.381-0.867,2.9-1.727,4.055-2.617l1.885-1.316l1.609-1.311c1.199-0.884,1.865-1.723,2.846-2.574
	c0.66-0.834,1.498-1.646,1.994-2.531c1.15-1.727,2.016-3.88,2.535-6.974c0.502-3.085,0.654-6.958,0.887-10.954
	c0.098-2.025,0.223-4.073,0.393-6.178l0.125-1.555l0.043-1.144l0.035-0.182l0.064-0.351l0.137-0.707l0.549-2.852
	c1.516-7.217,5.307-11.744,9.107-14.969c0.953-0.705,1.896-1.414,2.842-2.11c0.916-0.589,1.811-1.083,2.713-1.616
	c1.824-1.123,3.435-1.781,5.111-2.66c6.512-3.057,12.133-5.541,17.127-8.551c2.545-1.426,4.799-3.033,7.033-4.511
	c2.078-1.638,4.209-3.079,5.984-4.684c1.777-1.603,3.521-3.063,5.02-4.522c1.463-1.525,2.799-2.918,4.012-4.178
	c2.453-2.527,4.049-4.787,5.305-6.223c1.213-1.471,1.855-2.258,1.855-2.258s-0.435,0.914-1.254,2.629
	c-0.873,1.686-1.912,4.324-3.713,7.424c-0.902,1.566-1.902,3.296-2.988,5.181c-1.15,1.858-2.543,3.764-3.971,5.878
	c-1.432,2.113-3.238,4.135-5.027,6.426c-1.935,2.11-3.949,4.445-6.26,6.618c-4.49,4.499-10.084,8.831-15.33,13.093
	c-1.186,1.057-2.639,2.137-3.621,3.197l-1.594,1.58l-1.188,1.528c-1.375,1.866-1.494,3.96-1.338,4.232l0.152,2.828l0.039,0.715
	l0.021,0.363l0.008,0.178c-0.008,0.242,0.055-1.754,0.031-0.869l0.019,0.078l0.221,1.318c0.279,1.73,0.613,3.541,0.98,5.396
	c0.689,3.761,1.559,7.735,2.033,12.589c0.459,4.832,0.289,10.723-1.334,16.531c-0.73,2.959-1.936,5.627-3.156,8.349
	c-1.355,2.433-2.748,5.077-4.314,7.145c-0.768,1.084-1.551,2.222-2.34,3.255l-2.43,2.909c-1.635,2.031-3.291,3.652-4.959,5.395
	c-1.637,1.771-3.436,3.355-5.213,4.984l-2.674,2.428l-2.27,1.965l-2.262,1.962l-1.123,0.974l-0.279,0.238
	c0.047-0.023-0.715,0.484-0.42,0.297l-0.062,0.051l-0.123,0.107l-0.482,0.443c-1.289,1.162-2.566,2.322-3.844,3.473
	c-1.279,1.131-2.352,2.363-3.52,3.508c-1.182,1.142-2.256,2.312-3.225,3.504c-4.117,4.654-7.227,9.264-9.266,13.622
	c-2.086,4.362-3.277,8.44-4.01,12.356c-0.738,3.886-0.857,7.824-0.963,11.374c0.031,3.624,0.176,7.107,0.42,9.817
	c0.6,6.314,0.936,9.926,0.936,9.926L133.244,279.876z"/>
<path style="fill:#41ACB7;" d="M161.527,433.909c-38.352,14.021-80.811-5.698-94.828-44.061
	c-14.021-38.35,5.711-80.809,44.064-94.826c38.354-14.024,80.809,5.705,94.83,44.055
	C219.607,377.436,199.885,419.892,161.527,433.909z"/>
<path style="fill:#E27C3E;" d="M223.572,463.411c-64.205,23.469-135.273-9.543-158.736-73.75
	c-23.467-64.189,9.551-135.258,73.752-158.727c64.197-23.465,135.264,9.558,158.732,73.75
	C320.789,368.888,287.758,439.951,223.572,463.411z"/>
<path style="fill:#E27C3E;" d="M71.758,305.979c0,0,0.307-0.994,0.895-2.85c0.633-1.924,1.564-4.756,2.738-8.352
	c2.482-7.206,6.189-17.514,11.957-29.534c2.879-6.005,6.295-12.435,10.428-19.044c4.154-6.596,9.004-13.398,14.98-19.902
	c5.943-6.48,13.059-12.73,21.5-17.563l4.939-2.774c1.232-0.68,2.617-1.582,3.889-2.484c2.521-1.807,4.617-3.771,6.158-5.768
	c1.506-2.017,2.492-4.025,2.84-6.392c0.408-2.336,0.135-5.123-0.771-8.078c-1.805-5.969-5.899-12.145-10.373-17.721
	c-1.193-1.465-2.189-2.639-3.609-4.288c-1.135-1.327-2.578-3.102-3.783-4.79c-2.338-3.393-4.711-7.189-5.426-12.084
	c-0.375-2.391-0.154-4.963,0.545-7.119c0.672-2.161,1.648-4.031,2.703-5.58c2.09-3.137,4.318-5.484,6.348-7.791
	c4.109-4.506,7.607-8.62,10.369-12.625c2.744-3.984,4.777-7.729,6.293-10.91c1.457-3.197,2.473-5.799,3.088-7.595
	c0.611-1.808,0.938-2.769,0.938-2.769s-0.16,1-0.469,2.894c-0.322,1.885-0.891,4.634-1.842,8.116
	c-0.996,3.457-2.43,7.625-4.594,12.227c-2.146,4.597-5.143,9.584-8.461,14.703c-1.611,2.561-3.35,5.201-4.482,7.776
	c-1.148,2.638-1.484,4.803-0.715,6.737c0.645,2.008,2.467,4.333,4.705,6.578c1.137,1.123,2.195,2.078,3.723,3.367
	c1.453,1.221,2.918,2.459,4.4,3.698c6.008,5.351,12.229,11.425,16.857,20.155c2.273,4.334,4.08,9.539,4.348,15.291
	c0.381,5.732-1.023,11.771-3.453,16.814c-2.436,5.08-5.709,9.338-9.156,12.949c-1.742,1.801-3.469,3.457-5.49,5.139l-2.584,2.129
	l-1.172,0.953l-0.145,0.117l-0.322,0.219l-0.051,0.051l-0.229,0.199l-0.453,0.389c-4.85,4.043-8.975,9.09-12.439,14.526
	c-3.49,5.41-6.312,11.231-8.664,16.956c-2.354,5.735-4.227,11.398-5.738,16.746c-3.049,10.68-4.713,19.979-5.779,26.496
	c-0.492,3.309-0.875,5.904-1.141,7.676c-0.252,1.85-0.391,2.832-0.391,2.832L71.758,305.979z"/>
<path style="fill:#E27C3E;" d="M222.312,384.111c0,0,0.059,0,0.184,0.015c0.012,0.012-0.018,0.029-0.023,0.062
	c0.191,0.057,0.607,0.117,1.209,0.191c1.221,0.143,3.23,0.295,5.883,0.359c5.295,0.111,13.203-0.164,22.152-1.93
	c8.951-1.744,18.773-5.098,27.395-11.158c4.252-3.082,8.205-6.867,11.611-11.5c0.912-1.123,1.596-2.412,2.445-3.623l0.156-0.238
	l0.082-0.111c-0.176,0.43,0.27-0.645,0.24-0.568l0.047-0.076l0.373-0.629l0.736-1.26l1.473-2.516l1.482-2.522
	c0.471-0.819,0.971-1.678,1.658-2.728l3.795-5.861c5.258-7.463,11.121-14.684,19.309-20.629c2.049-1.455,4.1-2.861,6.482-3.979
	c1.17-0.562,2.248-1.199,3.469-1.652l3.664-1.285c4.896-1.496,9.969-2.094,14.488-1.811c4.584,0.151,8.647,0.994,12.248,1.846
	c3.117,0.772,6.168,1.533,9.131,2.275l1.244,0.148l0.625,0.062c0.227,0.035,0.15-0.012,0.242-0.012
	c0.211-0.039,0.416,0.039,0.729,0.104c0.426-0.113,0.867-0.199,1.34-0.268c0.471-0.107,0.945-0.414,1.451-0.586
	c2-1.01,4.15-2.654,6.207-4.619c4.109-3.84,8.207-7.935,12.232-10.889c4.047-2.998,7.986-4.942,11.246-6.252
	c3.332-1.189,5.949-1.915,7.789-2.178c1.805-0.336,2.766-0.514,2.766-0.514s-0.885,0.414-2.545,1.188
	c-1.674,0.691-3.994,2.037-6.736,3.879c-2.674,1.98-5.684,4.589-8.529,8.09c-2.885,3.535-5.428,7.85-8.703,12.994
	c-1.621,2.543-3.631,5.383-6.652,8.132c-0.818,0.655-1.584,1.376-2.537,1.974c-0.988,0.574-2.023,1.141-3.072,1.683
	c-1.25,0.468-2.652,0.86-4.043,1.183c-0.312,0.068-0.789,0.178-0.977,0.199l-0.617,0.083l-1.244,0.179l-0.625,0.084l-0.312,0.038
	l-0.156,0.03c-0.35-0.018,0.674,0.026-0.807-0.022h-0.086l-1.373,0.022c-0.908,0.008-1.828,0.014-2.748,0.029
	c-1.699,0.01-3.42,0.018-5.172,0.027c-3.346,0.059-6.451,0.264-9.131,0.938c-5.504,1.167-9.092,3.963-12.483,8.146
	c-3.34,4.162-6.17,10.1-8.402,16.18l-1.48,4.502c-0.246,0.664-0.512,1.584-0.785,2.551l-0.807,2.824l-0.805,2.801l-0.396,1.402
	l-0.207,0.693l-0.025,0.096c-0.051,0.135,0.373-0.893,0.18-0.404l-0.066,0.217l-0.137,0.426c-0.75,2.275-1.369,4.618-2.295,6.852
	c-3.43,9.037-8.402,17.565-14.295,24.928c-5.928,7.312-12.666,13.473-19.438,18.537c-6.779,5.083-13.621,9.008-20.053,12.217
	c-12.908,6.378-24.188,9.784-32.312,11.82c-4.078,1.007-7.385,1.662-9.795,2.066c-1.213,0.197-2.189,0.346-2.934,0.441
	c-0.482,0.041-0.846,0.077-1.092,0.107c-0.117,0.018-0.176,0.026-0.176,0.026L222.312,384.111z"/>
<path style="fill:#E27C3E;" d="M163.324,309.857c0,0,0.244-1.322,0.709-3.803c0.111-0.617,0.238-1.316,0.379-2.07
	c0.166-1.083,0.342-2.26,0.539-3.537c0.402-2.56,0.84-5.531,1.498-8.685c0.32-1.587,0.654-3.255,1.008-5.005
	c0.426-1.82,0.879-3.729,1.344-5.715c0.873-3.883,2.256-8.449,3.652-13.1c3.137-9.564,7.576-20.635,14.459-32.09
	c6.774-11.463,16.49-22.967,27.885-32.228c11.383-9.29,24.299-16.511,37.219-21.292c3.238-1.293,6.449-2.144,9.695-3.197
	l4.857-1.471l0.152-0.049c-0.49,0.224,1.328-0.565-1.068,0.494l0.234-0.062l0.471-0.115l0.943-0.242l1.879-0.473
	c2.387-0.602,4.785-1.2,7.191-1.805c1.494-0.334,3.049-0.652,4.668-0.953c7.106-1.967,13.873-4.691,19.522-8.154
	c5.756-3.455,10.332-7.957,14.268-14.006c1.822-3.098,3.604-6.465,4.869-10.307c0.734-1.854,1.223-3.912,1.822-5.924l0.738-3.13
	l0.096-0.394l0.047-0.195c-0.018,1.018,0.051-1.486,0.051-1.275l0.033-0.115l0.217-0.924l0.449-1.843
	c0.375-1.54,0.756-3.069,1.125-4.597c0.51-1.939,1.061-3.848,1.635-5.699c0.664-1.549,1.322-3.088,1.984-4.625l1.002-2.244
	l1.191-2.127c0.811-1.384,1.611-2.766,2.412-4.135c0.873-1.307,1.818-2.555,2.727-3.799c1.742-2.535,3.893-4.695,5.896-6.84
	c8.273-8.42,17.986-13.619,26.969-16.281c2.195-0.834,4.49-1.107,6.619-1.629c1.076-0.217,2.127-0.467,3.168-0.643
	c1.055-0.102,2.092-0.205,3.119-0.301c2.041-0.164,3.998-0.423,5.898-0.449c1.885,0.045,3.715,0.086,5.496,0.125
	c7.018,0.357,12.883,1.42,17.555,2.668c4.717,0.982,8.203,2.468,10.605,3.232c2.383,0.832,3.65,1.27,3.65,1.27
	s-1.348,0.047-3.873,0.127c-2.516,0.137-6.16,0.012-10.728,0.76c-4.541,0.479-9.992,1.539-15.756,3.457
	c-1.412,0.506-2.877,1.023-4.381,1.566c-1.465,0.584-2.883,1.398-4.348,2.1c-0.723,0.359-1.459,0.72-2.199,1.092
	c-0.705,0.423-1.389,0.911-2.084,1.369c-1.355,0.983-2.861,1.713-4.103,2.9c-5.318,4.137-9.701,9.701-12.178,15.992
	c-0.561,1.613-1.254,3.1-1.539,4.8l-0.562,2.409l-0.275,2.471l-0.15,1.207l0.025,1.223l0.006,2.373
	c0.18,0.555,0.322,1.061,0.42,1.549c0.066,0.318,0.072,0.297,0.146,0.885l0.244,1.879l0.25,1.875l0.123,0.943l0.012,0.117
	c0.002,0.289,0.068-2.127,0.047-1.039l0.045,0.268l0.08,0.551l0.631,4.395c0.307,3.01,0.707,6.047,0.787,9.254
	c0.383,6.34-0.01,13.122-0.951,20.057c-2.084,13.852-7.531,28.551-15.928,40.89c-8.322,12.479-18.609,22.724-29.424,31.341
	c-2.949,2.191-5.953,4.359-8.992,6.494c-2.258,1.588-4.512,3.172-6.748,4.746l-1.59,1.117l-0.789,0.559l-0.393,0.283l-0.193,0.141
	c-2.465,1.09-0.727,0.34-1.287,0.59l-0.068,0.059l-2.004,1.751c-1.277,1.171-2.725,2.191-3.783,3.364
	c-4.621,4.523-7.164,9.016-8.48,12.699c-1.273,3.767-1.385,6.715-1.078,9.758c0.277,2.988,0.801,6.018,1.358,9.078
	c0.4,1.721,0.6,3.088,1.016,4.764c0.174,0.795,0.336,1.549,0.492,2.27c0.193,0.801,0.375,1.562,0.547,2.292
	c0.301,1.468,0.697,2.632,0.992,3.657c0.143,0.523,0.279,1.015,0.404,1.461c0.143,0.756,0.268,1.457,0.387,2.076
	c0.459,2.477,0.707,3.799,0.707,3.799L163.324,309.857z"/>
<path style="fill:#FFDB64;" d="M215.752,448.654c-55.604,20.319-117.146-8.268-137.465-63.873
	c-20.32-55.583,8.275-117.126,63.871-137.452c55.596-20.318,117.137,8.277,137.461,63.863
	C299.936,366.794,271.34,428.339,215.752,448.654z"/>
<path style="fill:#FFDB64;" d="M148.375,226.677c3.078,4.275-0.232,11.987-5.064,14.971c-4.83,2.986-28.65,13.182-35.838,32.883
	c11.666,21.162,40.611-1.273,43.371-2.436c2.766-1.158,16.906-25.403,16.906-25.403l-6.912-14.53L148.375,226.677z"/>
<path style="fill:#E27C3E;" d="M236.041,175.872c0.066-0.042,0.205-0.074,0.818-0.385c0.584-0.289,1.475-0.753,2.611-1.385
	c2.27-1.256,5.535-3.18,9.236-5.768c3.693-2.586,7.85-5.829,11.645-9.732c3.791-3.889,7.203-8.488,8.867-13.467
	c0.447-1.242,0.709-2.508,0.902-3.785c0.061-0.289,0.096-0.699,0.129-1.117l0.098-1.229l0.205-2.439
	c0.287-3.271,0.537-6.49,0.953-9.7c0.424-3.192,0.887-6.339,1.883-9.341c0.945-2.988,2.465-5.752,4.363-7.777
	c1.859-2.098,4.062-3.248,5.881-4.26c0.959-0.408,1.852-0.789,2.674-1.141c0.844-0.279,1.617-0.536,2.314-0.768
	c1.375-0.477,2.512-0.68,3.25-0.896c0.758-0.188,1.156-0.289,1.156-0.289s-0.369,0.188-1.061,0.541
	c-0.676,0.379-1.721,0.822-2.932,1.582c-0.611,0.371-1.287,0.777-2.016,1.221c-0.684,0.5-1.424,1.039-2.217,1.611
	c-1.42,1.285-3.062,2.703-4.09,4.65c-1.084,1.902-1.713,4.146-1.924,6.682c-0.238,2.519-0.029,5.359,0.256,8.312
	c0.283,2.951,0.754,6.102,1.193,9.29c0.113,0.81,0.23,1.614,0.35,2.429l0.172,1.215c0.057,0.395,0.119,0.802,0.154,1.334
	c0.191,1.992,0.225,4.023,0.027,6.004c-0.348,3.983-1.367,7.809-2.719,11.334c-1.353,3.529-3.033,6.777-4.826,9.762
	c-3.6,5.957-7.617,10.879-11.228,14.898c-3.619,4.02-6.877,7.117-9.238,9.252c-1.188,1.068-2.15,1.893-2.84,2.471
	c-0.748,0.601-1.145,0.92-1.145,0.92L236.041,175.872z"/>
<path style="fill:#E27C3E;" d="M309.195,245.39c0,0,0.371-0.631,1.061-1.818c0.654-1.049,1.59-2.49,2.807-4.181
	c1.215-1.7,2.703-3.698,4.49-5.856c1.775-2.18,3.822-4.551,6.17-7.004c2.318-2.475,4.924-5.025,7.779-7.592
	c2.848-2.576,5.959-5.139,9.272-7.629c3.314-2.488,6.838-4.893,10.52-7.121c1.797-1.171,3.74-2.166,5.625-3.225l1.414-0.783
	l0.357-0.193l0.18-0.096l0.045-0.023c0.059-0.043-0.367,0.268-0.164,0.127l0.08-0.041l0.66-0.352l2.648-1.42
	c1.887-0.975,3.254-1.809,4.764-2.674c1.529-0.811,2.93-1.885,4.406-2.85c1.426-0.998,2.725-2.066,4.029-3.139
	c1.166-1.125,2.461-2.215,3.426-3.434c1.125-1.164,1.934-2.447,2.842-3.709c0.711-1.325,1.578-2.615,2.062-4.029
	c1.238-2.736,1.805-5.672,2.244-8.453c0.703-5.624,0.492-10.65,0.322-14.113c-0.184-3.48-0.342-5.48-0.342-5.48
	s0.728,1.86,1.932,5.162c1.18,3.316,2.889,8.055,3.99,14.307c0.441,3.136,0.83,6.697,0.381,10.568
	c-0.102,1.953-0.613,3.902-1.051,5.951c-0.613,1.963-1.225,4.059-2.174,5.982c-0.824,2.051-1.949,3.87-3.043,5.817
	c-1.18,1.822-2.42,3.686-3.758,5.425c-1.379,1.68-2.688,3.473-4.27,5.092c-1.523,1.652-3.152,3.409-4.498,4.717l-2.123,2.119
	l-0.527,0.533l-0.066,0.068c0.174-0.122-0.275,0.205-0.238,0.186l-0.031,0.025l-0.123,0.125l-0.24,0.248l-0.951,0.991
	c-1.254,1.325-2.549,2.561-3.697,3.948c-2.373,2.668-4.557,5.4-6.527,8.125c-1.977,2.717-3.746,5.408-5.299,8.031
	c-1.559,2.607-2.918,5.117-4.059,7.471c-1.164,2.334-2.117,4.52-2.879,6.434c-0.793,1.918-1.367,3.588-1.809,4.932
	c-0.437,1.352-0.699,2.348-0.848,2.974c-0.066,0.292-0.022,0.333-0.035,0.444c-0.057,0.217-0.084,0.326-0.084,0.326L309.195,245.39z
	"/>
<path style="fill:#E27C3E;" d="M323.68,234.487l-26.207-8.338c0,0-20.252,13.898-15.09,20.247
	c5.156,6.355,11.117,21.052,15.486,21.446c4.365,0.396,36.531-7.545,36.531-7.545l-1.191-27.4L323.68,234.487z"/>
<path style="fill:#FFDB64;" d="M200.99,299.479c0,0,0.119-0.652,0.348-1.864c0.055-0.304,0.113-0.644,0.188-1.015
	c0.084-0.531,0.164-1.107,0.262-1.733c0.191-1.259,0.412-2.722,0.734-4.258c0.156-0.783,0.32-1.604,0.496-2.46
	c0.209-0.893,0.43-1.828,0.662-2.805c0.422-1.902,1.102-4.145,1.783-6.428c1.539-4.688,3.715-10.115,7.098-15.736
	c3.322-5.619,8.088-11.264,13.672-15.807c5.59-4.553,11.922-8.097,18.26-10.445c1.586-0.635,3.158-1.055,4.752-1.564l2.385-0.723
	l0.074-0.021c-0.242,0.107,0.652-0.276-0.521,0.238l0.113-0.026l0.229-0.06l0.465-0.116l0.924-0.237
	c1.17-0.289,2.342-0.584,3.527-0.883c0.732-0.166,1.492-0.32,2.291-0.464c3.48-0.971,6.799-2.304,9.568-3.999
	c2.82-1.697,5.07-3.906,6.998-6.875c0.898-1.516,1.766-3.164,2.391-5.053c0.359-0.91,0.602-1.918,0.887-2.908l0.373-1.527
	l0.045-0.197l0.02-0.096c-0.006,0.494,0.022-0.732,0.027-0.621l0.018-0.061l0.103-0.453l0.221-0.907
	c0.182-0.751,0.369-1.507,0.551-2.257c0.254-0.943,0.525-1.885,0.801-2.787c0.326-0.766,0.652-1.519,0.975-2.271l0.49-1.102
	l0.588-1.043c0.393-0.682,0.785-1.354,1.176-2.03c0.435-0.644,0.902-1.253,1.346-1.864c0.855-1.241,1.906-2.301,2.889-3.351
	c4.059-4.127,8.822-6.682,13.225-7.983c1.082-0.413,2.211-0.542,3.25-0.804c0.529-0.107,1.041-0.227,1.551-0.312
	c0.521-0.048,1.029-0.102,1.529-0.152c1.002-0.077,1.969-0.205,2.895-0.217c0.93,0.023,1.822,0.041,2.697,0.062
	c3.443,0.176,6.322,0.696,8.611,1.311c2.311,0.481,4.02,1.208,5.205,1.584c1.168,0.407,1.789,0.621,1.789,0.621
	s-0.66,0.021-1.902,0.066c-1.232,0.064-3.016,0.006-5.258,0.365c-2.23,0.238-4.904,0.763-7.732,1.697
	c-0.693,0.244-1.408,0.504-2.15,0.768c-0.715,0.288-1.404,0.689-2.135,1.03c-0.348,0.172-0.711,0.36-1.074,0.535
	c-0.346,0.213-0.68,0.447-1.02,0.674c-0.666,0.477-1.404,0.842-2.012,1.42c-2.611,2.031-4.762,4.762-5.977,7.846
	c-0.277,0.793-0.615,1.521-0.75,2.353l-0.279,1.185l-0.135,1.207l-0.07,0.595l0.008,0.599l0.006,1.164
	c0.084,0.273,0.152,0.523,0.205,0.766c0.031,0.151,0.033,0.143,0.068,0.428l0.123,0.924l0.121,0.923l0.061,0.458l0.008,0.061
	c0,0.139,0.031-1.045,0.021-0.513l0.022,0.138l0.041,0.262l0.307,2.155c0.152,1.48,0.35,2.972,0.391,4.544
	c0.184,3.107-0.006,6.438-0.471,9.838c-1.023,6.788-3.695,14-7.812,20.053c-4.086,6.125-9.127,11.15-14.432,15.373
	c-1.441,1.072-2.922,2.138-4.41,3.186c-1.107,0.777-2.213,1.555-3.31,2.326l-0.777,0.551l-0.387,0.276l-0.193,0.138l-0.1,0.068
	c-1.205,0.535-0.354,0.163-0.627,0.289l-0.033,0.029l-0.982,0.854c-0.623,0.582-1.34,1.078-1.859,1.656
	c-2.266,2.215-3.516,4.418-4.158,6.227c-0.623,1.846-0.676,3.295-0.527,4.784c0.137,1.465,0.391,2.954,0.666,4.454
	c0.197,0.846,0.295,1.513,0.496,2.334c0.086,0.394,0.168,0.763,0.244,1.113c0.092,0.395,0.184,0.77,0.268,1.123
	c0.148,0.721,0.346,1.295,0.482,1.799c0.074,0.256,0.145,0.494,0.199,0.715c0.07,0.371,0.133,0.715,0.188,1.016
	c0.228,1.221,0.348,1.863,0.348,1.863L200.99,299.479z"/>
<path style="fill:#FFDB64;" d="M181.404,247.132c0,0,17.604-17.341,40.58-16.34c22.98,0.997,34.898,5.195,45.094-1.039
	c-10.697,21.137-34.818,32.144-34.818,32.144s-18.219,11.984-19.244,11.639c-1.021-0.346-25.463-16.57-25.463-16.57L181.404,247.132
	z"/>
<path style="fill:#FFDB64;" d="M276.4,313.327c0,0,16.818-14.768,16.086-36.215c-0.736-21.443,5.891-38.498,7.029-49.486
	c-18.477,8.17-52.598,32.803-52.598,32.803l-17.672,21.107c0,0,17.871,20.635,18.076,21.105
	C247.52,303.107,276.4,313.327,276.4,313.327z"/>
<path style="fill:#E27C3E;" d="M190.012,113.356c0.619-0.92,1.146-1.873,1.76-2.645c0.641-0.746,1.191-1.512,1.783-2.099
	c0.607-0.589,1.152-1.116,1.623-1.575c0.498-0.44,0.959-0.762,1.316-1.048c0.742-0.571,1.137-0.876,1.137-0.876
	s-0.477,0.155-1.359,0.447c-0.438,0.158-1.01,0.315-1.646,0.572c-0.633,0.288-1.354,0.621-2.166,0.994
	c-0.82,0.384-1.635,0.955-2.59,1.516c-0.938,0.586-1.838,1.379-2.885,2.161c-1.877,1.754-4.014,3.913-5.734,6.685
	c-1.838,2.726-3.381,5.967-4.637,9.514c-1.293,3.551-2.156,7.404-2.832,11.43c-0.33,2.016-0.527,4.053-0.764,6.143
	c-0.113,2.066-0.316,4.154-0.338,6.322l-0.018,3.295l-0.002,1.664l0.031,1.486l0.061,2.975l0.018,0.744l0.012,0.369v0.096v0.041
	c-0.006-0.026,0.09,0.463,0.041,0.271l-0.008,0.141l-0.129,1.098c-0.195,1.457-0.125,2.829-0.615,4.205
	c-0.357,1.359-0.6,2.658-1.238,3.939l-0.746,1.866c-0.301,0.616-0.688,1.221-1.006,1.813c-0.342,0.596-0.625,1.176-0.977,1.744
	c-0.398,0.572-0.795,1.135-1.193,1.695c-0.693,1.104-1.621,2.164-2.48,3.18c-0.789,1.027-1.807,1.983-2.697,2.912
	c-0.393,0.404-0.811,0.759-1.215,1.146c-0.506,9.11-1.252,22.241-1.346,22.529c-0.078,0.23-3.014,1.582-5.779,2.791l15.539,20.812
	c0,0,0.084-0.09,0.254-0.268c0.258-0.254,0.644-0.632,1.148-1.123c0.998-0.998,2.105-2.195,3.51-3.842
	c1.402-1.625,3.008-3.596,4.74-5.957c1.752-2.344,3.615-5.051,5.5-8.141c1.885-3.076,3.785-6.527,5.518-10.392
	c0.853-1.953,1.756-3.882,2.469-6.065c0.752-2.125,1.512-4.275,2.035-6.637c0.283-1.154,0.561-2.312,0.85-3.483
	c0.223-1.196,0.377-2.448,0.563-3.669c0.154-1.238,0.352-2.443,0.447-3.701c0.025-1.268,0.057-2.542,0.088-3.832
	c0.137-2.518-0.205-5.111-0.533-7.664c-0.193-2.542-1.045-5.025-1.693-7.461l-0.522-1.807l-0.068-0.227
	c-0.041-0.217,0.045,0.24,0.033,0.176l-0.022-0.042l-0.035-0.089l-0.121-0.346l-0.27-0.697l-1.051-2.783l-0.521-1.391l-0.42-1.225
	l-0.859-2.449c-0.572-1.646-0.994-3.389-1.504-5.08c-0.387-1.682-0.816-3.379-1.117-5.038c-0.58-3.313-0.988-6.574-0.959-9.636
	c-0.006-3.062,0.277-5.979,0.953-8.574C187.91,117.614,188.979,115.372,190.012,113.356z"/>
<path style="fill:#FFDB64;" d="M167.037,256.716c0,0,0.281-1.815,0.77-4.992c0.297-1.771,0.727-3.826,1.381-6.312
	c0.715-2.486,1.613-5.324,3.096-8.355c1.475-3.013,3.469-6.131,5.93-8.938c2.447-2.838,5.344-5.297,8.381-7.367
	c0.754-0.541,1.525-1.047,2.311-1.51c0.783-0.461,1.557-0.971,2.357-1.387c0.797-0.43,1.594-0.852,2.399-1.281l0.301-0.156
	l0.076-0.039l0.031-0.023c0.145-0.088-0.145,0.106-0.105,0.08l0.135-0.072l0.547-0.273l1.09-0.555l1.094-0.557l0.859-0.471
	c0.584-0.314,1.191-0.609,1.748-0.979c0.566-0.354,1.187-0.703,1.652-1.068l0.777-0.539l0.656-0.537
	c0.494-0.363,0.764-0.705,1.158-1.053c0.268-0.344,0.615-0.674,0.818-1.031c0.471-0.711,0.828-1.593,1.033-2.855
	c0.205-1.26,0.273-2.844,0.365-4.479c0.043-0.827,0.094-1.66,0.164-2.523l0.045-0.635l0.021-0.471l0.014-0.072l0.023-0.143
	l0.055-0.289l0.227-1.166c0.621-2.948,2.174-4.801,3.725-6.122c0.387-0.282,0.777-0.571,1.16-0.858
	c0.379-0.244,0.742-0.443,1.111-0.663c0.748-0.458,1.402-0.729,2.088-1.09c2.664-1.241,4.959-2.261,7.006-3.493
	c1.035-0.583,1.959-1.244,2.869-1.842c0.85-0.674,1.725-1.258,2.449-1.912c0.725-0.661,1.439-1.256,2.053-1.855
	c0.6-0.615,1.141-1.188,1.641-1.705c1.002-1.031,1.656-1.96,2.168-2.541c0.494-0.604,0.756-0.922,0.756-0.922
	s-0.178,0.369-0.512,1.071c-0.359,0.688-0.783,1.769-1.521,3.034c-0.363,0.641-0.773,1.349-1.215,2.117
	c-0.471,0.762-1.039,1.539-1.623,2.406c-0.588,0.863-1.324,1.693-2.057,2.619c-0.793,0.867-1.613,1.822-2.561,2.709
	c-1.834,1.838-4.123,3.609-6.268,5.354c-0.482,0.436-1.074,0.873-1.48,1.311l-0.652,0.644l-0.484,0.622
	c-0.561,0.766-0.611,1.617-0.543,1.736l0.061,1.148l0.018,0.295l0.006,0.146l0.004,0.078c0,0.098,0.019-0.721,0.014-0.357
	l0.006,0.035l0.096,0.535c0.111,0.713,0.248,1.447,0.396,2.204c0.279,1.542,0.641,3.162,0.83,5.153
	c0.188,1.972,0.119,4.375-0.545,6.754c-0.297,1.209-0.789,2.301-1.289,3.412c-0.551,0.991-1.119,2.074-1.762,2.92
	c-0.316,0.444-0.635,0.912-0.959,1.334l-0.992,1.183c-0.664,0.833-1.346,1.495-2.031,2.21c-0.67,0.723-1.402,1.372-2.125,2.039
	l-1.096,0.992l-0.93,0.801l-0.922,0.797l-0.463,0.406l-0.113,0.094c0.021-0.008-0.287,0.2-0.168,0.125l-0.031,0.02l-0.041,0.041
	l-0.199,0.182c-0.531,0.477-1.051,0.947-1.576,1.42c-0.523,0.461-0.961,0.965-1.434,1.436c-0.486,0.467-0.93,0.943-1.316,1.43
	c-1.689,1.902-2.961,3.787-3.793,5.572c-0.851,1.781-1.338,3.449-1.639,5.045c-0.301,1.59-0.352,3.203-0.397,4.654
	c0.016,1.482,0.072,2.908,0.174,4.014c0.244,2.578,0.383,4.055,0.383,4.055L167.037,256.716z"/>
<path style="fill:#FFDB64;" d="M112.225,317.54c0,0,0.191-0.589,0.543-1.703c0.381-1.152,0.932-2.84,1.635-4.992
	c1.488-4.318,3.701-10.48,7.154-17.672c1.725-3.591,3.764-7.436,6.234-11.389c2.49-3.948,5.387-8.019,8.965-11.907
	c3.553-3.88,7.809-7.616,12.857-10.511l2.959-1.655c0.732-0.407,1.566-0.946,2.324-1.491c1.512-1.075,2.766-2.252,3.686-3.445
	c0.902-1.209,1.488-2.408,1.697-3.823c0.25-1.399,0.082-3.067-0.465-4.835c-1.072-3.567-3.525-7.266-6.201-10.6
	c-0.715-0.879-1.309-1.582-2.16-2.564c-0.682-0.801-1.541-1.855-2.262-2.867c-1.4-2.031-2.816-4.297-3.242-7.232
	c-0.23-1.42-0.1-2.963,0.318-4.258c0.406-1.289,0.99-2.408,1.619-3.338c1.256-1.875,2.588-3.281,3.799-4.656
	c2.459-2.695,4.551-5.16,6.205-7.555c1.639-2.385,2.855-4.627,3.764-6.529c0.875-1.908,1.477-3.463,1.844-4.543
	c0.369-1.078,0.563-1.656,0.563-1.656s-0.092,0.602-0.285,1.732c-0.186,1.129-0.531,2.773-1.094,4.854
	c-0.598,2.07-1.455,4.564-2.748,7.316c-1.289,2.754-3.078,5.731-5.063,8.799c-0.971,1.527-2.004,3.107-2.685,4.65
	c-0.684,1.578-0.891,2.867-0.428,4.031c0.383,1.203,1.473,2.59,2.818,3.934c0.676,0.67,1.314,1.238,2.225,2.013
	c0.863,0.73,1.754,1.472,2.635,2.212c3.594,3.207,7.316,6.834,10.082,12.057c1.357,2.596,2.445,5.707,2.6,9.146
	c0.232,3.434-0.607,7.047-2.061,10.059c-1.461,3.045-3.414,5.592-5.48,7.752c-1.039,1.076-2.076,2.06-3.287,3.074l-1.547,1.272
	l-0.689,0.57l-0.096,0.068l-0.187,0.131l-0.033,0.033l-0.141,0.117l-0.268,0.232c-2.902,2.421-5.365,5.442-7.439,8.694
	c-2.088,3.234-3.775,6.717-5.188,10.141c-1.408,3.434-2.531,6.818-3.428,10.014c-1.824,6.387-2.824,11.955-3.463,15.858
	c-0.291,1.978-0.514,3.534-0.682,4.589c-0.143,1.107-0.232,1.697-0.232,1.697L112.225,317.54z"/>
<path style="fill:#E27C3E;" d="M289.478,335.554c0,0,0.029-0.115,0.08-0.336c0.064-0.354,0.16-0.879,0.289-1.562
	c0.133-0.795,0.309-1.406,0.516-2.248c0.195-0.84,0.455-1.758,0.762-2.76c0.59-2.035,1.393-4.414,2.475-7.105
	c1.064-2.682,2.432-5.66,4.176-8.818c1.748-3.15,3.887-6.498,6.578-9.803c1.42-1.635,2.707-3.334,4.449-4.877
	c1.666-1.568,3.287-3.174,5.303-4.529c0.967-0.688,1.941-1.381,2.924-2.074c0.967-0.697,2.117-1.194,3.176-1.781
	c1.082-0.551,2.168-1.102,3.256-1.655c1.113-0.497,2.295-0.837,3.438-1.245c1.152-0.365,2.309-0.738,3.463-1.115
	c1.162-0.305,2.35-0.441,3.52-0.658c2.342-0.394,4.66-0.793,6.941-0.688h3.396l1.674,0.018c0.492,0.014,0.941,0.08,1.412,0.121
	c1.859,0.18,3.713,0.358,5.549,0.537c3.66,0.342,7.262,0.676,10.75,1.006c3.483,0.33,6.82,0.59,9.986,0.798
	c3.197,0.268,6.1,0.292,8.879,0.405c1.357,0.008,2.631-0.062,3.885-0.086c1.256,0.002,2.406-0.117,3.484-0.277
	c2.209-0.182,4.059-0.674,5.621-1.078c1.572-0.373,2.721-0.941,3.559-1.199c0.834-0.307,1.271-0.469,1.271-0.469
	s-0.367,0.289-1.055,0.84c-0.711,0.506-1.662,1.439-3.082,2.311c-1.408,0.906-3.147,2.039-5.33,2.973
	c-1.074,0.538-2.238,1.057-3.482,1.471c-1.242,0.438-2.57,0.958-3.955,1.402c-2.738,0.789-5.785,1.754-8.938,2.504
	c-3.178,0.824-6.529,1.652-9.979,2.435c-3.447,0.789-7.012,1.607-10.629,2.436c-1.801,0.41-3.615,0.821-5.44,1.232
	c-0.447,0.104-0.928,0.196-1.355,0.318l-1.074,0.385l-2.109,0.732c-1.441,0.371-2.656,1.137-3.846,1.795
	c-0.59,0.346-1.213,0.602-1.754,0.979l-1.502,1.233c-0.484,0.407-1.006,0.727-1.438,1.16l-1.211,1.376
	c-0.375,0.464-0.828,0.798-1.145,1.319c-0.318,0.49-0.633,0.985-0.953,1.467c-0.684,0.861-1.127,1.996-1.631,2.973
	c-0.547,0.91-0.84,2.107-1.238,3.084c-0.713,2.076-1.188,4.184-1.514,6.182c-0.314,1.998-0.488,3.889-0.541,5.576
	c-0.072,1.678-0.053,3.166,0.033,4.326c0.023,0.596,0.057,1.111,0.119,1.525c0.053,0.408,0.07,0.854,0.145,0.926
	c0.057,0.186,0.096,0.167,0.119,0.411c0.02,0.229,0.031,0.345,0.031,0.345L289.478,335.554z"/>
<path style="fill:#FFDB64;" d="M256.592,371.788c0,0,0.027,0,0.084,0.012c0.008,0.002-0.012,0.012-0.016,0.023
	c0.09,0.029,0.272,0.054,0.541,0.086c0.543,0.061,1.434,0.129,2.615,0.161c2.355,0.051,5.871-0.071,9.85-0.857
	c3.98-0.776,8.344-2.267,12.178-4.964c1.891-1.369,3.648-3.049,5.166-5.105c0.404-0.504,0.705-1.076,1.086-1.617l0.066-0.102
	l0.033-0.051c-0.072,0.186,0.125-0.289,0.115-0.258l0.018-0.031l0.168-0.279l0.324-0.561l0.654-1.119l0.658-1.119
	c0.215-0.36,0.432-0.744,0.742-1.209l1.686-2.607c2.336-3.32,4.947-6.533,8.584-9.178c0.914-0.646,1.824-1.268,2.885-1.768
	c0.518-0.248,0.994-0.533,1.543-0.73l1.625-0.574c2.18-0.664,4.43-0.936,6.439-0.805c2.041,0.066,3.848,0.441,5.447,0.82
	c1.391,0.342,2.744,0.684,4.065,1.008l0.551,0.066l0.275,0.029c0.102,0.021,0.068-0.002,0.107-0.006
	c0.1-0.012,0.186,0.018,0.33,0.045c0.186-0.047,0.385-0.086,0.588-0.116c0.215-0.048,0.422-0.179,0.652-0.257
	c0.887-0.451,1.842-1.184,2.756-2.057c1.822-1.706,3.648-3.531,5.439-4.838c1.799-1.338,3.551-2.201,5-2.785
	c1.48-0.529,2.647-0.848,3.469-0.965c0.799-0.148,1.227-0.234,1.227-0.234s-0.397,0.188-1.137,0.533
	c-0.742,0.303-1.775,0.904-2.992,1.724c-1.189,0.878-2.529,2.04-3.793,3.601c-1.283,1.565-2.41,3.486-3.869,5.773
	c-0.721,1.131-1.617,2.392-2.959,3.617c-0.361,0.291-0.699,0.613-1.129,0.875c-0.434,0.256-0.893,0.51-1.367,0.75
	c-0.559,0.209-1.176,0.381-1.797,0.524c-0.137,0.03-0.35,0.077-0.426,0.089l-0.277,0.043l-0.557,0.074l-0.277,0.038l-0.137,0.015
	l-0.072,0.016c-0.154-0.01,0.301,0.014-0.359-0.01l-0.039-0.002l-0.602,0.012c-0.41,0.002-0.816,0.006-1.23,0.014
	c-0.752,0-1.518,0.006-2.297,0.01c-1.484,0.023-2.867,0.119-4.063,0.416c-2.443,0.521-4.043,1.77-5.549,3.625
	c-1.484,1.852-2.74,4.492-3.734,7.193l-0.658,2.004c-0.109,0.291-0.227,0.702-0.348,1.131l-0.357,1.254l-0.361,1.244l-0.176,0.625
	l-0.092,0.311l-0.012,0.041c-0.018,0.062,0.166-0.393,0.084-0.178l-0.037,0.092l-0.057,0.193c-0.33,1.012-0.609,2.051-1.023,3.049
	c-1.521,4.014-3.734,7.807-6.353,11.082c-2.639,3.248-5.631,5.994-8.641,8.238c-3.018,2.258-6.051,4.008-8.916,5.432
	c-5.74,2.838-10.754,4.348-14.371,5.256c-1.814,0.449-3.279,0.74-4.35,0.92c-0.543,0.086-0.978,0.151-1.305,0.189
	c-0.215,0.027-0.375,0.039-0.488,0.055c-0.051,0.008-0.074,0.012-0.074,0.012L256.592,371.788z"/>
<path style="fill:#FFDB64;" d="M282.342,375.075c0,0,16.48-18.952,15.127-35.572c-1.352-16.623-0.395-18.344,2.832-24.312
	c3.229-5.964,6.375-13.446,5.977-21.94c-14.334,13.547-28.477,19.692-28.477,19.692s-13.435,12.14-13.191,12.44
	c0.244,0.301,7.771,22.33,7.771,22.33l2.287,13.557L282.342,375.075z"/>
<path style="fill:#FFDB64;" d="M231.43,350.858c0,0,0.02-0.506,0.068-1.453c0.018-0.477,0.047-1.062,0.086-1.754
	c0.047-0.865,0.104-1.852,0.172-2.959c0.174-2.207,0.43-4.689,0.965-7.73c0.227-1.491,0.658-3.162,1.039-4.859
	c0.539-1.771,0.969-3.556,1.793-5.522c0.676-1.918,1.719-3.961,2.805-6.006c0.648-1.033,1.322-2.06,2.02-3.088
	c0.693-1.022,1.619-2.01,2.467-3.004c3.557-3.939,8.543-7.087,13.664-8.629c1.272-0.343,2.572-0.777,3.842-0.975
	c1.262-0.182,2.531-0.348,3.797-0.496c1.252-0.125,2.459-0.074,3.686-0.096l1.834-0.006l0.113,0.006
	c-0.248,0.012-0.041,0.002-0.084,0.009h0.045l0.185,0.009l0.375,0.022l0.744,0.045c0.984,0.053,1.977,0.103,2.969,0.156l2.682,0.09
	c1.783,0.023,3.666,0.035,5.391-0.092c3.516-0.211,6.762-0.777,9.267-1.885c2.416-1.147,4.27-2.918,5.584-5.702
	c0.27-0.727,0.607-1.421,0.848-2.177c0.209-0.789,0.471-1.539,0.652-2.346c0.164-0.793,0.324-1.582,0.482-2.361
	c0.125-0.881,0.25-1.754,0.365-2.617c0.432-3.26,0.652-6.482,0.787-9.483c0.141-3.011,0.211-5.845,0.533-8.398
	c0.303-2.548,0.967-4.781,1.846-6.404c0.875-1.635,1.783-2.73,2.438-3.424c0.664-0.678,1.021-1.041,1.021-1.041
	s-0.268,0.426-0.762,1.238c-0.479,0.801-1.092,2.045-1.543,3.674c-0.451,1.635-0.58,3.668-0.342,6.018
	c0.228,2.352,0.762,5.029,1.301,8.033c0.543,3.014,1.072,6.32,1.412,9.965c0.074,0.873,0.148,1.746,0.223,2.633
	c0.022,0.994,0.051,1.992,0.078,3.002c0.002,1.002-0.096,2.048-0.143,3.1c-0.084,1.059-0.307,2.158-0.471,3.269
	c-0.289,1.108-0.557,2.254-0.982,3.393c-0.483,1.141-0.906,2.317-1.627,3.404c-1.25,2.293-3.143,4.234-5.145,5.945
	c-4.141,3.246-8.754,5.018-13.107,6.324c-2.215,0.68-4.334,1.152-6.52,1.623l-3.281,0.631c-0.994,0.17-1.996,0.344-2.978,0.513
	l-1.578,0.259l-1.098,0.283c-0.719,0.203-1.482,0.316-2.123,0.56c-0.637,0.259-1.248,0.507-1.85,0.739
	c-0.604,0.231-1.035,0.603-1.549,0.865c-1.885,1.227-2.893,2.576-3.611,4.068c-0.143,0.422-0.359,0.721-0.477,1.16
	c-0.119,0.441-0.246,0.861-0.387,1.254c-0.16,0.953-0.387,1.789-0.453,2.796c-0.162,0.896-0.111,1.995-0.193,2.892
	c0.055,1.035,0.012,1.93,0.102,2.894c0.113,1.831,0.334,3.626,0.549,4.935c0.545,3.102,0.853,4.877,0.853,4.877L231.43,350.858z"/>
<path style="fill:#3D3D3D;" d="M175.641,394.128c18.201,0,33.77,11.172,40.279,27.023l7.051-22.6l-12.357-12.359l-31.406-8.244
	l-19.039,0.568l-13.645,5.404l-8.668,14.066l-7.104,12.359l4.561,10.965C141.777,405.38,157.381,394.128,175.641,394.128z"/>
<path style="fill:#5E5E5E;" d="M237.682,236.804l-44.564,5.598l-97.976,70.474l11.172,108.718l29.057-0.102v-0.016
	c0-22.244,18.035-40.279,40.271-40.279c22.154,0,40.121,17.895,40.262,40.008l13.311-0.041l56.723-128.056l-18.684-33.265
	L237.682,236.804z"/>
<polygon style="fill:#7C7C7C;" points="267.252,259.843 229.213,421.163 285.936,293.107 "/>
<polygon style="fill:#7C7C7C;" points="237.682,236.804 106.312,421.593 95.141,312.875 193.117,242.401 "/>
<path style="fill:#4F4F4F;" d="M174.562,311.178c0,11.692-9.475,21.164-21.162,21.164c-11.691,0-21.17-9.472-21.17-21.164
	c0-11.687,9.479-21.163,21.17-21.163C165.088,290.015,174.562,299.491,174.562,311.178z"/>
<path style="fill:#5E5E5E;" d="M145.117,302.206c-4.578,0-8.801,1.465-12.258,3.928c-0.396,1.619-0.629,3.303-0.629,5.044
	c0,11.692,9.479,21.164,21.17,21.164c4.568,0,8.791-1.462,12.246-3.931c0.4-1.613,0.629-3.295,0.629-5.041
	C166.275,311.685,156.805,302.206,145.117,302.206z"/>
<path style="fill:#4F4F4F;" d="M173.65,347.914c0,6.429-5.205,11.64-11.635,11.64c-6.436,0-11.646-5.211-11.646-11.64
	c0-6.431,5.211-11.642,11.646-11.642C168.445,336.272,173.65,341.483,173.65,347.914z"/>
<path style="fill:#5E5E5E;" d="M157.457,342.978c-2.518,0-4.836,0.807-6.742,2.162c-0.211,0.89-0.346,1.818-0.346,2.774
	c0,6.429,5.211,11.64,11.646,11.64c2.51,0,4.838-0.805,6.734-2.156c0.221-0.893,0.354-1.822,0.354-2.777
	C169.104,348.19,163.887,342.978,157.457,342.978z"/>
<path style="fill:#4F4F4F;" d="M268.26,305.202c0,7.25-5.877,13.127-13.127,13.127c-7.248,0-13.125-5.877-13.125-13.127
	c0-7.254,5.877-13.125,13.125-13.125C262.383,292.077,268.26,297.948,268.26,305.202z"/>
<path style="fill:#3A3A3A;" d="M249.996,299.638c-2.832,0-5.449,0.904-7.596,2.441c-0.252,0.997-0.393,2.036-0.393,3.123
	c0,7.25,5.877,13.127,13.125,13.127c2.834,0,5.451-0.91,7.602-2.447c0.24-1,0.385-2.036,0.385-3.117
	C263.119,305.515,257.244,299.638,249.996,299.638z"/>
<path style="fill:#4F4F4F;" d="M243.738,320.61c0,3.439-2.791,6.232-6.238,6.232c-3.434,0-6.232-2.793-6.232-6.232
	c0-3.441,2.799-6.234,6.232-6.234C240.947,314.376,243.738,317.169,243.738,320.61z"/>
<path style="fill:#3A3A3A;" d="M235.061,317.964c-1.342,0-2.58,0.432-3.602,1.16c-0.123,0.48-0.191,0.969-0.191,1.486
	c0,3.439,2.799,6.232,6.232,6.232c1.352,0,2.594-0.43,3.611-1.158c0.111-0.48,0.182-0.971,0.182-1.482
	C241.293,320.757,238.504,317.964,235.061,317.964z"/>
<g>
</g>
<g>
</g>
<g>
</g>
<g>
</g>
<g>
</g>
<g>
</g>
<g>
</g>
<g>
</g>
<g>
</g>
<g>
</g>
<g>
</g>
<g>
</g>
<g>
</g>
<g>
</g>
<g>
</g>
</svg>
