<?xml version="1.0" encoding="iso-8859-1"?>
<!-- Generator: Adobe Illustrator 17.0.0, SVG Export Plug-In . SVG Version: 6.00 Build 0)  -->
<!DOCTYPE svg PUBLIC "-//W3C//DTD SVG 1.1//EN" "http://www.w3.org/Graphics/SVG/1.1/DTD/svg11.dtd">
<svg version="1.1" id="Layer_1" xmlns="http://www.w3.org/2000/svg" xmlns:xlink="http://www.w3.org/1999/xlink" x="0px" y="0px"
	 width="512px" height="512px" viewBox="0 0 512 512" style="enable-background:new 0 0 512 512;" xml:space="preserve">
<circle id="background_2_" style="fill:#EFC84A;" cx="256" cy="256" r="256"/>
<path style="fill:#E27676;" d="M228.861,154.539l-30.87-30.87c-12.274-12.274-32.357-12.274-44.633,0L142.2,134.827l-7.438,7.439
	l-11.158,11.158c-12.273,12.273-12.273,32.358,0,44.632l30.871,30.871c12.273,12.274,32.358,12.274,44.632,0l11.158-11.158
	l7.439-7.438l11.158-11.158C241.135,186.897,241.135,166.814,228.861,154.539z"/>
<path style="fill:#E27676;" d="M210.265,217.768l7.439-7.438c-1.267,1.267-2.621,2.395-4.036,3.401
	C212.66,215.146,211.532,216.501,210.265,217.768z"/>
<path style="fill:#E27676;" d="M142.2,134.827l-7.438,7.439c1.267-1.266,2.622-2.395,4.038-3.401
	C139.805,137.448,140.934,136.094,142.2,134.827z"/>
<rect x="136.939" y="166.459" transform="matrix(-0.7071 0.7071 -0.7071 -0.7071 469.0597 194.3811)" style="fill:#ECF0F0;" width="114.666" height="55.756"/>
<rect x="137.84" y="201.177" transform="matrix(-0.7071 0.7071 -0.7071 -0.7071 495.7345 204.9042)" style="fill:#FBFFFF;" width="135.18" height="7.891"/>
<rect x="126.681" y="190.02" transform="matrix(-0.7071 0.7071 -0.7071 -0.7071 468.7954 193.7485)" style="fill:#FBFFFF;" width="135.181" height="7.889"/>
<rect x="115.522" y="178.862" transform="matrix(-0.7071 0.7071 -0.7071 -0.7071 441.8578 182.5898)" style="fill:#FBFFFF;" width="135.182" height="7.89"/>
<polygon style="fill:#E3CB8F;" points="386.562,312.239 366.85,292.526 329.655,329.721 292.462,366.914 312.175,386.626 
	397.472,397.537 "/>
<polygon style="fill:#5C5C5C;" points="394.53,374.542 385.485,375.058 385.45,375.093 375.032,385.518 374.577,394.608 
	397.472,397.537 "/>
<polygon style="fill:#ECF0F0;" points="257.872,183.55 239.276,202.147 220.68,220.743 202.082,239.341 183.485,257.938 
	312.175,386.626 317.382,354.64 349.368,349.434 354.575,317.446 386.562,312.239 "/>
<polygon style="fill:#45B39C;" points="251.179,176.856 232.582,195.453 213.983,214.049 195.387,232.645 176.79,251.243 
	305.479,379.932 310.687,347.944 342.673,342.738 347.88,310.751 379.866,305.546 "/>
<path style="opacity:0.3;fill:#5D5D5D;" d="M179.396,142.266L347.88,310.751l6.695,6.695l42.896,80.09l-10.91-85.297l-67.692-67.691
	l-67.275-67.275l2.931-3.764l-5.95-5.951l7.439-7.439l-5.58-5.58l-7.438,7.439l-5.58-5.578l7.439-7.44l-5.578-5.578l-7.439,7.439
	l-5.578-5.58l7.438-7.438l-5.578-5.58l-7.439,7.44l-5.579-5.58l-3.347,3.347l-13.762-13.761c-12.274-12.274-32.357-12.274-44.633,0
	L142.2,134.827c-1.267,1.268-2.395,2.622-3.4,4.038C151.104,130.13,168.387,131.26,179.396,142.266z"/>
<path style="opacity:0.3;fill:#5D5D5D;" d="M317.382,354.64l-6.695-6.695L195.048,232.308c1.421-1.005-52.848-52.848-52.848-52.848
	c-11.005-11.007-12.135-28.291-3.4-40.595c-1.416,1.006-2.771,2.135-4.038,3.401l-11.158,11.158
	c-12.273,12.273-12.273,32.358,0,44.632l13.762,13.762l-3.347,3.347l5.578,5.578l-7.066,7.068l5.58,5.579l7.066-7.066l5.578,5.579
	l-7.066,7.066l5.58,5.58l7.066-7.066l5.578,5.578l-7.066,7.066l5.578,5.58l7.066-7.067l5.952,5.951l3.347-3.347l6.695,6.694
	l128.689,128.689l85.297,10.911L317.382,354.64z"/>
<g>
</g>
<g>
</g>
<g>
</g>
<g>
</g>
<g>
</g>
<g>
</g>
<g>
</g>
<g>
</g>
<g>
</g>
<g>
</g>
<g>
</g>
<g>
</g>
<g>
</g>
<g>
</g>
<g>
</g>
</svg>
