<?xml version="1.0" encoding="iso-8859-1"?>
<!-- Generator: Adobe Illustrator 17.0.0, SVG Export Plug-In . SVG Version: 6.00 Build 0)  -->
<!DOCTYPE svg PUBLIC "-//W3C//DTD SVG 1.1//EN" "http://www.w3.org/Graphics/SVG/1.1/DTD/svg11.dtd">
<svg version="1.1" id="Layer_1" xmlns="http://www.w3.org/2000/svg" xmlns:xlink="http://www.w3.org/1999/xlink" x="0px" y="0px"
	 width="512px" height="512px" viewBox="0 0 512 512" style="enable-background:new 0 0 512 512;" xml:space="preserve">
<circle id="background_56_" style="fill:#45B39C;" cx="256" cy="256" r="256"/>
<g>
	<path style="fill:#ECF0F0;" d="M139.729,44.741c9.81,40.507,19.623,81.014,29.434,121.521c0.333,1.372,2.38,1.335,2.733,0
		c10.18-38.618,20.357-77.235,30.536-115.854c0.467-1.769-2.267-2.773-2.732-1.007C189.52,88.019,179.342,128,169.162,165
		c0.909,0,1.821,0,2.733,0c-9.813-39-19.624-80.759-29.438-121.266C142.028,41.96,139.298,42.967,139.729,44.741L139.729,44.741z"/>
	<polygon style="fill:#2B2B2B;" points="184.618,338.553 168.247,339.554 146.028,413 154.434,413 	"/>
	<polygon style="fill:#ECF0F0;" points="146.028,413 140.858,430 147.469,430 154.434,413 	"/>
	<polygon style="fill:#2B2B2B;" points="326.908,338.553 343.28,339.554 365.499,413 357.092,413 	"/>
	<polygon style="fill:#ECF0F0;" points="365.499,413 370.669,430 364.059,430 357.092,413 	"/>
	<path style="fill:#BD3E25;" d="M415.435,355.62c0,10.703-8.677,19.38-19.38,19.38h-280.24c-10.703,0-19.38-8.677-19.38-19.38
		V189.38c0-10.704,8.677-19.38,19.38-19.38h280.24c10.703,0,19.38,8.677,19.38,19.38V355.62z"/>
	<path style="fill:#BD3E25;" d="M415.435,355.62c0,10.703-8.677,19.38-19.38,19.38h-280.24c-10.703,0-19.38-8.677-19.38-19.38
		V189.38c0-10.704,8.677-19.38,19.38-19.38h280.24c10.703,0,19.38,8.677,19.38,19.38V355.62z"/>
	<path style="fill:#DE492C;" d="M103.435,360.856V194.257c0-10.703,8.844-19.257,19.547-19.257h281.167
		c2.524,0,4.93,0.699,7.14,1.576c-3.553-4.143-8.816-6.576-14.705-6.576H115.417c-10.703,0-18.982,8.15-18.982,18.854v166.599
		c0,8.178,4.79,15.159,11.956,18.004C105.484,370.066,103.435,365.67,103.435,360.856z"/>
	<path style="fill:#233540;" d="M400.435,193.022c0-5.215-4.561-9.022-9.777-9.022H119.413c-5.217,0-8.978,3.807-8.978,9.022v156.9
		c0,5.214,3.762,10.078,8.978,10.078h271.244c5.217,0,9.777-4.863,9.777-10.078V193.022z"/>
	<path style="fill:#2B2B2B;" d="M350.435,193.022c0-5.215-4.055-9.022-9.272-9.022h-221.75c-5.217,0-8.978,3.807-8.978,9.022v156.9
		c0,5.214,3.762,10.078,8.978,10.078h221.75c5.217,0,9.272-4.863,9.272-10.078V193.022z"/>
	<path style="fill:#4A4A4A;" d="M342.435,341.389c0,5.214-4.588,9.611-9.805,9.611H129.653c-5.217,0-9.219-4.397-9.219-9.611
		V203.262c0-5.215,4.002-9.262,9.219-9.262H332.63c5.217,0,9.805,4.047,9.805,9.262V341.389z"/>
	<path style="fill:#363636;" d="M331.435,332.558c0,5.215-4.228,9.442-9.443,9.442H137.878c-5.216,0-9.443-4.228-9.443-9.442
		V213.442c0-5.215,4.227-9.442,9.443-9.442h184.113c5.216,0,9.443,4.227,9.443,9.442V332.558z"/>
	<path style="fill:#2B2B2B;" d="M326.435,328.555c0,5.217-4.229,9.445-9.444,9.445H142.879c-5.216,0-9.444-4.228-9.444-9.445
		v-111.11c0-5.217,4.228-9.445,9.444-9.445H316.99c5.216,0,9.444,4.229,9.444,9.445V328.555z"/>
	<path style="fill:#ECF0F0;" d="M392.363,184h-0.929h-5.781h-35.219v176h35.219h5.781h0.929c5.217,0,9.071-4.863,9.071-10.078
		v-156.9C401.435,187.807,397.58,184,392.363,184z"/>
	<path style="fill:#ECF0F0;" d="M195.435,167.587c0,1.885-1.528,3.413-3.413,3.413h-44.174c-1.885,0-3.413-1.528-3.413-3.413v-0.173
		c0-1.885,1.528-3.414,3.413-3.414h44.174c1.885,0,3.413,1.528,3.413,3.414V167.587z"/>
	<rect x="350.435" y="235" style="fill:#ADB0B0;" width="50" height="4"/>
	<rect x="350.435" y="288" style="fill:#ADB0B0;" width="50" height="5"/>
	<circle style="fill:none;stroke:#ADB0B0;stroke-width:0.9444;stroke-miterlimit:10;" cx="375.942" cy="208.739" r="18.299"/>
	<circle style="fill:none;stroke:#ADB0B0;stroke-width:0.9444;stroke-miterlimit:10;" cx="375.942" cy="262.688" r="18.299"/>
	<circle style="fill:#ADB0B0;" cx="392.728" cy="305.757" r="2.457"/>
	<circle style="fill:#ADB0B0;" cx="384.335" cy="305.757" r="2.457"/>
	<circle style="fill:#ADB0B0;" cx="375.942" cy="305.757" r="2.457"/>
	<circle style="fill:#ADB0B0;" cx="367.548" cy="305.757" r="2.457"/>
	<circle style="fill:#ADB0B0;" cx="359.155" cy="305.757" r="2.457"/>
	<circle style="fill:#ADB0B0;" cx="392.728" cy="313.943" r="2.457"/>
	<circle style="fill:#ADB0B0;" cx="384.335" cy="313.943" r="2.457"/>
	<circle style="fill:#ADB0B0;" cx="375.942" cy="313.943" r="2.457"/>
	<circle style="fill:#ADB0B0;" cx="367.548" cy="313.943" r="2.457"/>
	<circle style="fill:#ADB0B0;" cx="359.155" cy="313.943" r="2.457"/>
	<circle style="fill:#ADB0B0;" cx="392.728" cy="322.132" r="2.457"/>
	<circle style="fill:#ADB0B0;" cx="384.335" cy="322.132" r="2.457"/>
	<circle style="fill:#ADB0B0;" cx="375.942" cy="322.132" r="2.457"/>
	<circle style="fill:#ADB0B0;" cx="367.548" cy="322.132" r="2.457"/>
	<circle style="fill:#ADB0B0;" cx="359.155" cy="322.132" r="2.457"/>
	<circle style="fill:#ADB0B0;" cx="392.728" cy="330.32" r="2.457"/>
	<circle style="fill:#ADB0B0;" cx="384.335" cy="330.32" r="2.457"/>
	<circle style="fill:#ADB0B0;" cx="375.942" cy="330.32" r="2.457"/>
	<circle style="fill:#ADB0B0;" cx="367.548" cy="330.32" r="2.457"/>
	<circle style="fill:#ADB0B0;" cx="359.155" cy="330.32" r="2.457"/>
	<circle style="fill:#ADB0B0;" cx="392.728" cy="338.51" r="2.457"/>
	<circle style="fill:#ADB0B0;" cx="384.335" cy="338.51" r="2.457"/>
	<circle style="fill:#ADB0B0;" cx="375.942" cy="338.51" r="2.457"/>
	<circle style="fill:#ADB0B0;" cx="367.548" cy="338.51" r="2.457"/>
	<circle style="fill:#ADB0B0;" cx="359.155" cy="338.51" r="2.457"/>
	<path style="fill:#ADB0B0;" d="M395.185,346.699c0,1.355-1.1,2.455-2.456,2.455c-1.356,0-2.457-1.1-2.457-2.455
		c0-1.358,1.101-2.457,2.457-2.457C394.085,344.241,395.185,345.34,395.185,346.699z"/>
	<path style="fill:#ADB0B0;" d="M386.792,346.699c0,1.355-1.101,2.455-2.457,2.455c-1.357,0-2.457-1.1-2.457-2.455
		c0-1.358,1.1-2.457,2.457-2.457C385.691,344.241,386.792,345.34,386.792,346.699z"/>
	<path style="fill:#ADB0B0;" d="M378.398,346.699c0,1.355-1.101,2.455-2.456,2.455c-1.357,0-2.457-1.1-2.457-2.455
		c0-1.358,1.1-2.457,2.457-2.457C377.298,344.241,378.398,345.34,378.398,346.699z"/>
	<path style="fill:#ADB0B0;" d="M370.005,346.699c0,1.355-1.1,2.455-2.456,2.455c-1.358,0-2.457-1.1-2.457-2.455
		c0-1.358,1.1-2.457,2.457-2.457C368.905,344.241,370.005,345.34,370.005,346.699z"/>
	<path style="fill:#ADB0B0;" d="M361.612,346.699c0,1.355-1.101,2.455-2.457,2.455c-1.357,0-2.457-1.1-2.457-2.455
		c0-1.358,1.1-2.457,2.457-2.457C360.512,344.241,361.612,345.34,361.612,346.699z"/>
	<path style="fill:#FFFFFF;" d="M378.542,197.355l-2.6-4.503l-2.599,4.503c-5.137,1.181-8.972,5.772-8.972,11.266
		c0,6.389,5.18,11.568,11.57,11.568c6.39,0,11.569-5.18,11.569-11.568C387.512,203.127,383.679,198.535,378.542,197.355z"/>
	<path style="fill:#FFFFFF;" d="M383.269,254.225l-0.34-5.19l-4.323,2.892c-5.13-1.21-10.597,1.213-13.023,6.14
		c-2.823,5.732-0.467,12.669,5.263,15.492c5.733,2.823,12.667,0.468,15.492-5.266C388.765,263.367,387.355,257.554,383.269,254.225z
		"/>
	<polygon style="fill:#4A4A4A;" points="238.095,208 165.177,338 223.452,338 296.372,208 	"/>
	<path style="fill:#4A4A4A;" d="M317.89,208h-7.878l-72.92,130h21.078l68.882-122.667C326.037,211.212,322.325,208,317.89,208z"/>
</g>
<g>
</g>
<g>
</g>
<g>
</g>
<g>
</g>
<g>
</g>
<g>
</g>
<g>
</g>
<g>
</g>
<g>
</g>
<g>
</g>
<g>
</g>
<g>
</g>
<g>
</g>
<g>
</g>
<g>
</g>
</svg>
