<?xml version="1.0" encoding="iso-8859-1"?>
<!-- Generator: Adobe Illustrator 17.0.0, SVG Export Plug-In . SVG Version: 6.00 Build 0)  -->
<!DOCTYPE svg PUBLIC "-//W3C//DTD SVG 1.1//EN" "http://www.w3.org/Graphics/SVG/1.1/DTD/svg11.dtd">
<svg version="1.1" id="Layer_1" xmlns="http://www.w3.org/2000/svg" xmlns:xlink="http://www.w3.org/1999/xlink" x="0px" y="0px"
	 width="512px" height="512px" viewBox="0 0 512 512" style="enable-background:new 0 0 512 512;" xml:space="preserve">
<path id="bg_25_" style="fill:#334D5C;" d="M512,255.998C512,397.378,397.385,512,256,512C114.613,512,0,397.378,0,255.998
	S114.613,0,256,0C397.385,0,512,114.618,512,255.998z"/>
<path style="fill:#334D5C;" d="M512,255.998C512,397.378,397.385,512,256,512C114.613,512,0,397.378,0,255.998S114.613,0,256,0
	C397.385,0,512,114.618,512,255.998z"/>
<path style="fill:#939FA7;" d="M206.684,71.376c7.221-1.474,18.967-2.53,18.967-2.53s-11.91-0.921-19.088-2.344
	c0.875-4.064,3.385-10.424,3.385-10.424s-6.121,2.415-10.189,3.325c-1.369-7.268-2.254-19.029-2.254-19.029
	s-0.824,12.068-2.221,19.107c-4.047-0.843-10.547-3.403-10.547-3.403s2.322,5.896,3.275,9.962
	c-7.348,1.441-18.975,2.478-18.975,2.478s11.736,1.123,19.012,2.639c-0.918,4.067-3.312,10.129-3.312,10.129
	s6.271-2.472,10.338-3.358c1.344,7.113,2.105,19.061,2.105,19.061s1.022-11.996,2.508-19.044c4.072,0.902,10.26,3.341,10.26,3.341
	S207.643,75.443,206.684,71.376z"/>
<path style="fill:#939FA7;" d="M352.064,413.358c3.088-0.628,8.111-1.084,8.111-1.084s-5.092-0.393-8.158-1
	c0.371-1.736,1.443-4.457,1.443-4.457s-2.617,1.033-4.355,1.423c-0.588-3.108-0.963-8.141-0.963-8.141s-0.354,5.16-0.949,8.174
	c-1.732-0.36-4.512-1.456-4.512-1.456s0.992,2.521,1.4,4.261c-3.141,0.616-8.113,1.057-8.113,1.057s5.018,0.482,8.129,1.132
	c-0.395,1.738-1.416,4.329-1.416,4.329s2.682-1.058,4.42-1.436c0.574,3.04,0.898,8.149,0.898,8.149s0.438-5.127,1.076-8.143
	c1.74,0.387,4.385,1.429,4.385,1.429S352.477,415.098,352.064,413.358z"/>
<polygon style="fill:#FFFFFF;" points="363.918,216.46 198.898,149.893 122.998,293.538 319.211,372.508 "/>
<path style="fill:#45B39C;" d="M319.211,372.508c-8.549,21.244-59.402,20.788-113.586-1.016
	c-54.189-21.81-91.178-56.706-82.627-77.954c8.549-21.241,59.398-20.779,113.584,1.024
	C290.77,316.373,327.76,351.269,319.211,372.508z"/>
<path style="fill:#328E78;" d="M290.986,361.151c-6.092,15.135-42.311,14.807-80.908-0.729c-38.6-15.536-64.949-40.39-58.859-55.524
	c6.092-15.129,42.314-14.801,80.908,0.732C270.728,321.164,297.076,346.02,290.986,361.151z"/>
<path style="fill:#FFFFFF;" d="M363.305,218.259c-7.203,17.889-50.027,17.508-95.664-0.863
	c-45.635-18.362-76.787-47.756-69.586-65.644c7.201-17.893,50.029-17.505,95.66,0.86
	C339.352,170.98,370.504,200.364,363.305,218.259z"/>
<rect x="139.639" y="331.821" transform="matrix(0.9277 0.3734 -0.3734 0.9277 145.577 -55.0645)" style="fill:#328E78;" width="150.58" height="32.86"/>
<path style="fill:#45B39C;" d="M278.285,392.719c-6.096,15.138-42.316,14.809-80.914-0.721
	c-38.598-15.536-64.949-40.395-58.859-55.533c6.092-15.128,42.316-14.798,80.914,0.732
	C258.025,352.734,284.371,377.59,278.285,392.719z"/>
<path style="fill:#FFFFFF;" d="M189.719,251.47c-6.385,15.852-24.404,23.528-40.254,17.153l-71.098-28.616
	c-15.851-6.379-23.527-24.401-17.15-40.25l24.984-62.084c6.385-15.852,24.404-23.528,40.254-17.153l71.1,28.623
	c15.85,6.374,23.529,24.397,17.149,40.246L189.719,251.47z"/>
<path style="fill:#41AAD8;" d="M184.35,245.568c-5.719,14.206-21.873,21.087-36.076,15.366L84.549,235.29
	c-14.203-5.72-21.084-21.869-15.367-36.069l22.394-55.644c5.721-14.205,21.867-21.084,36.072-15.367l63.723,25.645
	c14.205,5.714,21.084,21.867,15.369,36.069L184.35,245.568z"/>
<path style="fill:#FFFFFF;" d="M428.412,347.541c-6.379,15.85-24.398,23.528-40.25,17.148l-71.098-28.61
	c-15.85-6.384-23.531-24.403-17.148-40.256l24.984-62.081c6.379-15.849,24.404-23.53,40.254-17.15l71.098,28.617
	c15.85,6.378,23.531,24.398,17.147,40.246L428.412,347.541z"/>
<path style="fill:#41AAD8;" d="M423.043,341.634c-5.721,14.206-21.869,21.087-36.076,15.367l-63.719-25.643
	c-14.205-5.714-21.086-21.866-15.373-36.072l22.4-55.643c5.713-14.203,21.863-21.084,36.066-15.367l63.723,25.645
	c14.209,5.717,21.086,21.87,15.369,36.072L423.043,341.634z"/>
<path style="fill:#FFFFFF;" d="M301.465,88.61c2.107-5.238,8.062-7.774,13.301-5.666c5.23,2.104,7.771,8.062,5.662,13.297
	c-2.104,5.237-8.062,7.771-13.293,5.663C301.893,99.8,299.359,93.845,301.465,88.61z"/>
<polygon style="fill:#FFFFFF;" points="271.922,208.392 258.758,203.095 309.215,94.285 310.906,94.964 "/>
<circle style="fill:#334D5C;" cx="265.32" cy="220.665" r="48.783"/>
<circle style="fill:#41AAD8;" cx="265.321" cy="220.665" r="38.243"/>
<path style="fill:#ACD9EA;" d="M245.438,253.286c5.799,3.543,12.588,5.621,19.883,5.621c2.059,0,4.062-0.208,6.033-0.521v-75.443
	c-1.971-0.312-3.975-0.52-6.033-0.52c-7.295,0-14.084,2.078-19.883,5.621V253.286z"/>
<path style="fill:#ACD9EA;" d="M275.164,257.583c2.666-0.712,5.221-1.686,7.623-2.925v-67.987c-2.402-1.239-4.957-2.213-7.623-2.924
	V257.583z"/>
<path style="fill:#ACD9EA;" d="M97.752,240.602l50.521,20.333c0.939,0.379,1.885,0.694,2.836,0.962V137.652l-23.461-9.442
	c-10.6-4.266-22.275-1.512-29.896,6.057V240.602z"/>
<path style="fill:#ACD9EA;" d="M155.301,262.716c4.174,0.506,8.338,0.057,12.209-1.257V144.253l-12.209-4.912V262.716z"/>
<rect x="134.193" y="132.461" transform="matrix(0.9276 0.3736 -0.3736 0.9276 82.3479 -37.4026)" style="fill:#FFFFFF;" width="6.959" height="122.591"/>
<rect x="136.046" y="128.567" transform="matrix(0.3734 -0.9277 0.9277 0.3734 -93.0085 251.3053)" style="fill:#FFFFFF;" width="6.962" height="131.872"/>
<path style="fill:#ACD9EA;" d="M397.949,236.996l-31.607-12.72c-6.205-2.498-12.785-2.591-18.701-0.718v117.616l39.326,15.826
	c3.603,1.449,7.332,2.084,10.982,1.998V236.996z"/>
<path style="fill:#ACD9EA;" d="M403.537,358.287c4.955-1.147,9.543-3.633,13.211-7.232V244.561l-13.211-5.317V358.287z"/>
<rect x="374.742" y="229.274" transform="matrix(0.9278 0.3732 -0.3732 0.9278 135.7568 -120.154)" style="fill:#FFFFFF;" width="6.966" height="122.592"/>
<rect x="375.374" y="224.886" transform="matrix(0.3736 -0.9276 0.9276 0.3736 -32.443 533.6057)" style="fill:#FFFFFF;" width="6.959" height="131.874"/>
<g>
</g>
<g>
</g>
<g>
</g>
<g>
</g>
<g>
</g>
<g>
</g>
<g>
</g>
<g>
</g>
<g>
</g>
<g>
</g>
<g>
</g>
<g>
</g>
<g>
</g>
<g>
</g>
<g>
</g>
</svg>
