<?xml version="1.0" encoding="iso-8859-1"?>
<!-- Generator: Adobe Illustrator 17.0.0, SVG Export Plug-In . SVG Version: 6.00 Build 0)  -->
<!DOCTYPE svg PUBLIC "-//W3C//DTD SVG 1.1//EN" "http://www.w3.org/Graphics/SVG/1.1/DTD/svg11.dtd">
<svg version="1.1" id="Layer_1" xmlns="http://www.w3.org/2000/svg" xmlns:xlink="http://www.w3.org/1999/xlink" x="0px" y="0px"
	 width="512px" height="512.075px" viewBox="0 0 512 512.075" style="enable-background:new 0 0 512 512.075;" xml:space="preserve"
	>
<circle id="background_31_" style="fill:#334D5C;" cx="256" cy="256" r="256"/>
<path style="fill:#EFD378;" d="M170.842,49.604c-6.604,0-12.78,1.824-18.059,4.987c15.814,3.033,27.66,15.405,27.66,30.214
	c0,14.808-11.846,27.18-27.66,30.213c5.279,3.163,11.456,4.986,18.059,4.986c19.44,0,35.2-15.76,35.2-35.199
	C206.042,65.365,190.282,49.604,170.842,49.604z"/>
<path style="fill:#56829C;" d="M195.435,125.827c0,5.184-4.203,9.387-9.387,9.387H91.821c-5.184,0-9.387-4.203-9.387-9.387v-0.227
	c0-5.184,4.203-9.387,9.387-9.387h94.227c5.184,0,9.387,4.203,9.387,9.387V125.827z"/>
<path style="fill:#56829C;" d="M149.435,113.823c0,4.634-3.756,8.391-8.39,8.391H70.824c-4.634,0-8.39-3.757-8.39-8.391v-0.219
	c0-4.634,3.756-8.391,8.39-8.391h70.221c4.634,0,8.39,3.757,8.39,8.391V113.823z"/>
<path style="fill:#56829C;" d="M473.435,136.827c0,5.184-4.203,9.387-9.387,9.387h-94.227c-5.184,0-9.387-4.203-9.387-9.387v-0.227
	c0-5.184,4.203-9.387,9.387-9.387h94.227c5.184,0,9.387,4.203,9.387,9.387V136.827z"/>
<path style="fill:#56829C;" d="M427.435,123.823c0,4.634-3.757,8.391-8.391,8.391h-70.219c-4.634,0-8.391-3.757-8.391-8.391v-0.219
	c0-4.634,3.757-8.391,8.391-8.391h70.219c4.634,0,8.391,3.757,8.391,8.391V123.823z"/>
<g>
	<path style="fill:#E8E8E8;" d="M254.033,97.288c-23.357,29.422-46.714,58.843-70.071,88.264
		c-38.745,48.805-77.49,97.61-116.236,146.415c-11.18,14.082-22.359,28.165-33.539,42.247c-2.03,2.558,1.568,6.206,3.62,3.621
		c23.357-29.422,46.714-58.843,70.071-88.264c38.745-48.805,77.49-97.61,116.236-146.415c11.18-14.082,22.359-28.165,33.539-42.247
		C259.683,98.352,256.085,94.703,254.033,97.288L254.033,97.288z"/>
</g>
<g>
	<path style="fill:#E8E8E8;" d="M254.347,100.909c23.357,29.421,46.713,58.842,70.07,88.263
		c38.746,48.806,77.491,97.61,116.236,146.415c11.18,14.083,22.359,28.165,33.539,42.248c2.053,2.585,5.65-1.063,3.621-3.621
		c-23.357-29.421-46.714-58.842-70.07-88.263c-38.746-48.806-77.491-97.61-116.236-146.415
		c-11.18-14.083-22.359-28.165-33.54-42.248C255.915,94.703,252.317,98.352,254.347,100.909L254.347,100.909z"/>
</g>
<g>
	<path style="fill:#E8E8E8;" d="M242.753,62.232c3.84,12.516,7.68,25.031,11.52,37.547c0.738,2.406,4.233,2.479,4.938,0
		c3.556-12.516,7.111-25.031,10.668-37.547c0.904-3.183-4.036-4.634-4.938-1.464c-3.556,12.516-7.112,25.445-10.668,37.445
		c1.646,0,3.292,0,4.938,0c-3.84-12-7.68-24.93-11.52-37.445C246.725,57.622,241.782,59.067,242.753,62.232L242.753,62.232z"/>
</g>
<polygon style="fill:#399481;" points="74.624,378.214 250.724,99.175 426.823,378.214 "/>
<path style="fill:#45B39C;" d="M256.995,101.658c0,0,9.415,18.942,9.604,19.36c0.188,0.416,12.695,48.267,12.695,48.267
	l3.443,57.813l-26.056,51.329l-40.042,99.786H79.249l175.359-278.011L256.995,101.658z"/>
<polygon style="fill:#EFC84A;" points="296.753,378.214 256.696,278.466 216.64,378.214 "/>
<polygon style="fill:#45B39C;" points="296.753,378.138 321.863,365.352 256.696,278.39 "/>
<path style="fill:#307D6C;" d="M256.696,278.39c0,0,46.889-69.425-0.854-179.291C255.843,99.099,333.452,235.816,256.696,278.39z"/>
<path style="fill:#E8E8E8;" d="M263.435,99.081c0,1.178-0.955,2.133-2.134,2.133h-9.732c-1.179,0-2.134-0.955-2.134-2.133v-0.734
	c0-1.178,0.955-2.133,2.134-2.133h9.732c1.179,0,2.134,0.955,2.134,2.133V99.081z"/>
<polygon style="fill:#EFBE21;" points="256.696,278.466 245.865,378.214 216.64,378.214 "/>
<polygon style="fill:#40A690;" points="221.755,205.034 129.312,378.214 164.582,378.214 "/>
<polygon style="fill:#307D6C;" points="312.208,244.402 344.92,378.214 374.502,378.214 "/>
<path style="fill:#EFDC9E;" d="M324.155,85.068c0-10.34-6.58-16.92-16.92-16.92c10.34,0,16.92-6.581,16.92-16.922
	c0,10.341,6.582,16.922,16.922,16.922C330.737,68.148,324.155,74.729,324.155,85.068z"/>
<path style="fill:#EFD378;" d="M385.595,107.604c0-6.773-4.31-11.083-11.083-11.083c6.773,0,11.083-4.312,11.083-11.085
	c0,6.773,4.312,11.085,11.086,11.085C389.907,96.521,385.595,100.831,385.595,107.604z"/>
<path style="fill:#21313B;" d="M30.962,378.214c43.368,79,127.883,133.861,225.038,133.861c97.155,0,181.67-54.861,225.038-133.861
	H30.962z"/>
<g>
</g>
<g>
</g>
<g>
</g>
<g>
</g>
<g>
</g>
<g>
</g>
<g>
</g>
<g>
</g>
<g>
</g>
<g>
</g>
<g>
</g>
<g>
</g>
<g>
</g>
<g>
</g>
<g>
</g>
</svg>
