<?xml version="1.0" encoding="iso-8859-1"?>
<!-- Generator: Adobe Illustrator 17.0.0, SVG Export Plug-In . SVG Version: 6.00 Build 0)  -->
<!DOCTYPE svg PUBLIC "-//W3C//DTD SVG 1.1//EN" "http://www.w3.org/Graphics/SVG/1.1/DTD/svg11.dtd">
<svg version="1.1" id="Layer_1" xmlns="http://www.w3.org/2000/svg" xmlns:xlink="http://www.w3.org/1999/xlink" x="0px" y="0px"
	 width="512px" height="512px" viewBox="0 0 512 512" style="enable-background:new 0 0 512 512;" xml:space="preserve">
<path id="bg_18_" style="fill:#334D5C;" d="M512,256.002C512,397.382,397.387,512,256.006,512C114.615,512,0,397.382,0,256.002
	C0,114.619,114.615,0,256.006,0C397.387,0,512,114.619,512,256.002z"/>
<path style="fill:#CDECF9;" d="M335.543,339.768H176.08L138.607,483.47C173.775,501.662,213.674,512,256.006,512
	c42.191,0,81.955-10.27,117.037-28.346L335.543,339.768z"/>
<path style="fill:#E5F4F9;" d="M256.006,512c23.908,0,47.033-3.305,68.977-9.453l-18.605-162.779H205.254L186.652,502.44
	C208.705,508.656,231.961,512,256.006,512z"/>
<path style="fill:#939FA7;" d="M134.242,394.211c7.221-1.475,18.967-2.534,18.967-2.534s-11.912-0.917-19.086-2.341
	c0.873-4.063,3.383-10.427,3.383-10.427s-6.121,2.415-10.191,3.329c-1.367-7.268-2.252-19.029-2.252-19.029
	s-0.828,12.068-2.219,19.106c-4.051-0.843-10.545-3.406-10.545-3.406s2.316,5.898,3.27,9.963c-7.35,1.444-18.975,2.479-18.975,2.479
	s11.738,1.123,19.016,2.639c-0.92,4.067-3.311,10.129-3.311,10.129s6.268-2.471,10.332-3.357c1.346,7.113,2.104,19.061,2.104,19.061
	s1.027-11.996,2.514-19.043c4.07,0.902,10.258,3.34,10.258,3.34S135.201,398.277,134.242,394.211z"/>
<path style="fill:#939FA7;" d="M146,103.513c3.092-0.628,8.115-1.081,8.115-1.081s-5.096-0.393-8.162-1.004
	c0.375-1.735,1.447-4.457,1.447-4.457s-2.617,1.033-4.355,1.424c-0.588-3.109-0.969-8.138-0.969-8.138s-0.352,5.159-0.943,8.17
	c-1.732-0.36-4.512-1.456-4.512-1.456s0.992,2.521,1.4,4.262c-3.149,0.615-8.117,1.059-8.117,1.059s5.018,0.48,8.129,1.129
	c-0.393,1.739-1.412,4.332-1.412,4.332s2.678-1.057,4.416-1.438c0.574,3.043,0.898,8.152,0.898,8.152s0.441-5.131,1.072-8.144
	c1.748,0.384,4.393,1.429,4.393,1.429S146.414,105.252,146,103.513z"/>
<path style="fill:#939FA7;" d="M392.783,161.874c4.609-0.944,12.113-1.62,12.113-1.62s-7.602-0.586-12.188-1.494
	c0.561-2.594,2.158-6.658,2.158-6.658s-3.908,1.543-6.5,2.127c-0.881-4.639-1.439-12.151-1.439-12.151s-0.525,7.706-1.418,12.202
	c-2.584-0.539-6.734-2.178-6.734-2.178s1.482,3.768,2.09,6.363c-4.689,0.92-12.119,1.584-12.119,1.584s7.494,0.715,12.145,1.686
	c-0.586,2.594-2.115,6.464-2.115,6.464s4-1.575,6.6-2.143c0.852,4.541,1.346,12.169,1.346,12.169s0.646-7.658,1.6-12.16
	c2.596,0.581,6.547,2.135,6.547,2.135S393.397,164.468,392.783,161.874z"/>
<path style="fill:#246D5A;" d="M405.436,266.926l-300.033-5.344l24.537,58.227h0.174c7.148,19.512,60.771,34.682,125.893,34.682
	c64.109,0,117.072-14.702,125.52-33.779h0.033L405.436,266.926z"/>
<path style="fill:#45B39C;" d="M465.594,250.561c0,35.733-93.844,64.704-209.588,64.704c-115.754,0-209.588-28.971-209.588-64.704
	c0-35.739,93.834-64.71,209.588-64.71C371.75,185.852,465.594,214.822,465.594,250.561z"/>
<path style="fill:#EADB94;" d="M441.916,250.561c0,31.695-83.242,57.394-185.91,57.394c-102.678,0-185.91-25.698-185.91-57.394
	c0-31.701,83.232-57.397,185.91-57.397C358.674,193.164,441.916,218.86,441.916,250.561z"/>
<path style="fill:#45B39C;" d="M403.848,250.561c0,25.208-66.193,45.64-147.842,45.64c-81.65,0-147.846-20.432-147.846-45.64
	c0-25.214,66.195-45.644,147.846-45.644C337.654,204.917,403.848,225.348,403.848,250.561z"/>
<path style="fill:#EADB94;" d="M383.443,251.887c0,21.73-57.055,39.342-127.438,39.342c-70.387,0-127.447-17.612-127.447-39.342
	c0-21.736,57.061-39.345,127.447-39.345C326.389,212.542,383.443,230.15,383.443,251.887z"/>
<path style="fill:#328E78;" d="M256.006,315.266c-115.754,0-209.588-28.971-209.588-64.704c0,45.776,93.834,82.888,209.588,82.888
	c115.744,0,209.588-37.111,209.588-82.888C465.594,286.295,371.75,315.266,256.006,315.266z"/>
<path style="fill:#A0DCEA;" d="M369.859,250.086c0-17.076-14.029-111.367-113.887-111.52v-0.006c-0.053,0-0.102,0.003-0.154,0.003
	c-0.045,0-0.107-0.044-0.146-0.003c-0.006,0.003,0,0.006,0,0.006c-99.857,0.152-113.887,94.443-113.887,111.52l114.033-2.24
	L369.859,250.086z"/>
<path style="fill:#FFFFFF;" d="M166.607,226.141c-0.639,0-1.285-0.096-1.932-0.289c-3.525-1.062-5.523-4.787-4.457-8.312
	c6.762-22.392,25.643-61.049,76.127-68.424c3.605-0.506,7.035,1.989,7.568,5.64c0.533,3.645-1.992,7.03-5.637,7.564
	c-41.025,5.993-58.145,35.432-65.283,59.076C172.123,224.276,169.473,226.141,166.607,226.141z"/>
<path style="fill:#81C2CC;" d="M370.166,251.02c0,19.467-51.111,35.245-114.16,35.245c-63.049,0-114.162-15.778-114.162-35.245
	c0-19.469,51.113-35.246,114.162-35.246C319.055,215.773,370.166,231.551,370.166,251.02z"/>
<g>
</g>
<g>
</g>
<g>
</g>
<g>
</g>
<g>
</g>
<g>
</g>
<g>
</g>
<g>
</g>
<g>
</g>
<g>
</g>
<g>
</g>
<g>
</g>
<g>
</g>
<g>
</g>
<g>
</g>
</svg>
