<?xml version="1.0" encoding="iso-8859-1"?>
<!-- Generator: Adobe Illustrator 17.0.0, SVG Export Plug-In . SVG Version: 6.00 Build 0)  -->
<!DOCTYPE svg PUBLIC "-//W3C//DTD SVG 1.1//EN" "http://www.w3.org/Graphics/SVG/1.1/DTD/svg11.dtd">
<svg version="1.1" id="Layer_1" xmlns="http://www.w3.org/2000/svg" xmlns:xlink="http://www.w3.org/1999/xlink" x="0px" y="0px"
	 width="511.999px" height="512px" viewBox="0 0 511.999 512" style="enable-background:new 0 0 511.999 512;" xml:space="preserve"
	>
<path id="bg_36_" style="fill:#E05B49;" d="M511.999,256.002C511.999,397.382,397.386,512,256.001,512
	C114.614,512,0,397.382,0,256.002C0,114.619,114.614,0,256.001,0C397.386,0,511.999,114.619,511.999,256.002z"/>
<path style="fill:#A84437;" d="M47.015,403.76C93.381,469.223,169.671,512,256.001,512c86.328,0,162.615-42.777,208.986-108.24
	H47.015z"/>
<ellipse style="fill:#FFFFFF;" cx="145.661" cy="165.986" rx="3.118" ry="16.146"/>
<path style="fill:#EFC84A;" d="M296.048,356.632H141.479c-10.895-29.048-9.337-118.953,24.896-176.011h27.229
	c0,0-14.262,151.387,50.573,151.387c35.79,0,58.614,0,58.614,0L296.048,356.632z"/>
<path style="fill:#D7B441;" d="M297.075,332.008l-6.744,24.624h5.717l6.744-24.624C302.792,332.008,300.77,332.008,297.075,332.008z
	"/>
<path style="fill:#D7B441;" d="M238.461,332.008c1.95,0,3.844,0,5.717,0c-64.835,0-50.573-151.387-50.573-151.387h-5.714
	C187.891,180.621,173.625,332.008,238.461,332.008z"/>
<path d="M96.963,356.725c0-25.973,21.063-47.035,47.036-47.035c25.976,0,47.039,21.062,47.039,47.035
	c0,25.981-21.063,47.036-47.039,47.036C118.026,403.76,96.963,382.706,96.963,356.725z"/>
<path style="fill:#FFFFFF;" d="M122.525,356.725c0-11.859,9.617-21.471,21.474-21.471c11.862,0,21.474,9.611,21.474,21.471
	s-9.611,21.474-21.474,21.474C132.143,378.198,122.525,368.584,122.525,356.725z"/>
<path d="M306.163,356.725c0-25.973,21.061-47.035,47.037-47.035c25.973,0,47.029,21.062,47.029,47.035
	c0,25.981-21.057,47.036-47.029,47.036C327.224,403.76,306.163,382.706,306.163,356.725z"/>
<path style="fill:#FFFFFF;" d="M331.722,356.725c0-11.859,9.619-21.471,21.479-21.471c11.853,0,21.471,9.611,21.471,21.471
	s-9.617,21.474-21.471,21.474C341.341,378.198,331.722,368.584,331.722,356.725z"/>
<path style="fill:#EFC84A;" d="M380.831,221.508h-45.852c-34.373,0-62.242,27.866-62.242,62.244v0.054v18.362v54.506h170.336
	v-54.506v-18.362v-0.054C443.073,249.374,415.21,221.508,380.831,221.508z"/>
<path style="fill:#EFC84A;" d="M380.831,221.508h-45.852c-34.373,0-62.242,27.866-62.242,62.244v0.054v18.362v54.506h170.336
	v-54.506v-18.362v-0.054C443.073,249.374,415.21,221.508,380.831,221.508z"/>
<path style="fill:#D7B441;" d="M380.831,221.508h-23.434c34.381,0,62.246,27.866,62.246,62.244v0.054v18.362v54.506h23.43v-54.506
	v-18.362v-0.054C443.073,249.374,415.21,221.508,380.831,221.508z"/>
<path style="fill:#EFC84A;" d="M206.676,356.725c-0.449-33.92-28.045-61.286-62.066-61.286s-61.623,27.366-62.069,61.286H206.676z"
	/>
<path style="fill:#D7B441;" d="M144.609,295.439c-2.892,0-5.708,0.268-8.495,0.649c30.002,4.115,53.17,29.594,53.581,60.637h16.98
	C206.227,322.805,178.631,295.439,144.609,295.439z"/>
<path style="fill:#D7B441;" d="M443.073,356.867c-0.613-46.52-38.461-84.049-85.121-84.049c-46.662,0-84.506,37.528-85.119,84.049
	H443.073z"/>
<path style="fill:#EFC84A;" d="M348.927,273.301c-42.418,4.473-75.52,40.086-76.094,83.566h152.193
	C424.452,313.387,391.353,277.773,348.927,273.301z"/>
<path d="M443.356,223.586c0,11.175-9.055,20.229-20.227,20.229H292.419c-11.174,0-20.232-9.054-20.232-20.229l0,0
	c0-11.172,9.058-20.229,20.232-20.229H423.13C434.302,203.357,443.356,212.414,443.356,223.586L443.356,223.586z"/>
<path style="fill:#EFC84A;" d="M151.773,152.341c0-3.546,2.879-6.426,6.425-6.426h34.828c3.553,0,6.429,2.88,6.429,6.426v25.454
	c0,3.549-2.876,6.426-6.429,6.426h-34.828c-3.546,0-6.425-2.877-6.425-6.426V152.341z"/>
<path style="fill:#D7B441;" d="M193.026,145.915h-10.096c3.552,0,6.428,2.88,6.428,6.426v25.454c0,3.549-2.876,6.426-6.428,6.426
	h10.096c3.553,0,6.429-2.877,6.429-6.426v-25.454C199.455,148.795,196.579,145.915,193.026,145.915z"/>
<path style="fill:#334D5C;" d="M218.354,162.384c0,2.739-2.218,4.958-4.958,4.958H185.72c-2.742,0-4.96-2.219-4.96-4.958l0,0
	c0-2.734,2.218-4.954,4.96-4.954h27.676C216.136,157.431,218.354,159.65,218.354,162.384L218.354,162.384z"/>
<path d="M145.458,180.755c0,2.626,2.129,4.749,4.755,4.749h4.609c2.623,0,4.752-2.123,4.752-4.749V149.83
	c0-2.619-2.129-4.748-4.752-4.748h-4.609c-2.626,0-4.755,2.129-4.755,4.748V180.755z"/>
<path style="fill:#FFFFFF;" d="M206.02,95.568c-4.261,0.444-7.658,8.701-7.658,18.854c0,10.15,3.398,18.405,7.658,18.854V95.568z"/>
<path style="fill:#FFFFFF;" d="M174.683,153.642c-0.316,0-0.629-0.065-0.93-0.211c-1.068-0.513-1.518-1.799-1.003-2.864
	c0.477-0.998,11.765-24.487,14.146-29.016c2.313-4.387,4.726-8.319,8.837-8.319c2.668,0,6.435,0.23,6.598,0.239
	c1.18,0.077,2.079,1.098,2.008,2.28c-0.074,1.183-1.102,2.046-2.281,2.01c-0.035-0.003-3.79-0.232-6.324-0.232
	c-1.319,0-2.778,1.745-5.038,6.023c-2.347,4.461-13.958,28.626-14.075,28.873C176.251,153.196,175.48,153.642,174.683,153.642z"/>
<g>
</g>
<g>
</g>
<g>
</g>
<g>
</g>
<g>
</g>
<g>
</g>
<g>
</g>
<g>
</g>
<g>
</g>
<g>
</g>
<g>
</g>
<g>
</g>
<g>
</g>
<g>
</g>
<g>
</g>
</svg>
