<?xml version="1.0" encoding="iso-8859-1"?>
<!-- Generator: Adobe Illustrator 17.0.0, SVG Export Plug-In . SVG Version: 6.00 Build 0)  -->
<!DOCTYPE svg PUBLIC "-//W3C//DTD SVG 1.1//EN" "http://www.w3.org/Graphics/SVG/1.1/DTD/svg11.dtd">
<svg version="1.1" id="Layer_1" xmlns="http://www.w3.org/2000/svg" xmlns:xlink="http://www.w3.org/1999/xlink" x="0px" y="0px"
	 width="512px" height="512.001px" viewBox="0 0 512 512.001" style="enable-background:new 0 0 512 512.001;" xml:space="preserve"
	>
<g>
	<circle style="fill:#45B39C;" cx="256" cy="256" r="256"/>
	<path style="fill:#E37D3E;" d="M373.07,164.145H130.017c-15.026,0-27.208,12.182-27.208,27.208H370.35v78.333l2.721,0.569
		c15.026,0,27.208-12.182,27.208-27.208v-51.694C400.279,176.326,388.097,164.145,373.07,164.145z"/>
	<path style="fill:#A3BA7D;" d="M392.116,191.353c0-12.001-9.771-21.766-21.771-21.766H132.737
		c-12.002,0-21.766,9.765-21.766,21.766v0.907c0,12,9.764,21.766,21.766,21.766h237.608c0.002,0,0.003,0,0.005,0v56.229h21.767
		V191.353z"/>
	<path style="fill:#A3BA7D;" d="M392.116,191.353c0-12.001-9.771-21.766-21.771-21.766H132.737
		c-12.002,0-21.766,9.765-21.766,21.766v0.907c0,12,9.764,21.766,21.766,21.766h237.608c0.002,0,0.003,0,0.005,0v56.229h21.767
		V191.353z"/>
	<path style="fill:#A3BA7D;" d="M119.464,174.121c0.455-0.352,0.924-0.686,1.408-1.002
		C120.388,173.436,119.919,173.769,119.464,174.121z"/>
	<path style="fill:#A3BA7D;" d="M120.901,173.102c0.952-0.621,1.956-1.167,3.003-1.635
		C122.856,171.934,121.853,172.481,120.901,173.102z"/>
	<path style="fill:#A3BA7D;" d="M131.063,169.658c0.553-0.043,1.11-0.071,1.674-0.071
		C132.173,169.587,131.615,169.615,131.063,169.658z"/>
	<path style="fill:#A3BA7D;" d="M129.178,169.883c0.522-0.087,1.052-0.154,1.586-0.202
		C130.23,169.729,129.7,169.796,129.178,169.883z"/>
	<path style="fill:#A3BA7D;" d="M124,171.424c0.504-0.223,1.018-0.426,1.541-0.609C125.018,170.998,124.504,171.201,124,171.424z"/>
	<path style="fill:#A3BA7D;" d="M370.345,174.121H119.462c-1.673,1.291-3.151,2.819-4.388,4.535h255.271
		c12.001,0,21.771,9.764,21.771,21.766v-4.535C392.116,183.886,382.346,174.121,370.345,174.121z"/>
	<path style="fill:#A3BA7D;" d="M370.345,183.191h-257.78c-0.585,1.442-1.021,2.96-1.285,4.534h259.065
		c12.001,0,21.771,9.766,21.771,21.767v-4.534C392.116,192.955,382.346,183.191,370.345,183.191z"/>
	<path style="fill:#A3BA7D;" d="M125.704,170.76c1.038-0.356,2.111-0.635,3.213-0.83
		C127.816,170.125,126.742,170.404,125.704,170.76z"/>
	<path style="fill:#7B8C5E;" d="M370.345,178.657H115.074c-1.007,1.396-1.852,2.917-2.51,4.534h257.78
		c12.001,0,21.771,9.765,21.771,21.767v-4.535C392.116,188.42,382.346,178.657,370.345,178.657z"/>
	<path style="fill:#7B8C5E;" d="M125.541,170.815c0.053-0.02,0.107-0.037,0.163-0.055
		C125.649,170.778,125.594,170.795,125.541,170.815z"/>
	<path style="fill:#7B8C5E;" d="M123.903,171.467c0.033-0.014,0.064-0.029,0.097-0.043
		C123.968,171.438,123.937,171.453,123.903,171.467z"/>
	<path style="fill:#7B8C5E;" d="M120.872,173.119c0.009-0.006,0.019-0.012,0.028-0.018
		C120.891,173.108,120.881,173.114,120.872,173.119z"/>
	<polygon style="fill:#7B8C5E;" points="119.462,174.121 119.462,174.121 119.464,174.121 	"/>
	<path style="fill:#7B8C5E;" d="M130.764,169.681c0.1-0.009,0.199-0.017,0.299-0.022
		C130.963,169.664,130.863,169.672,130.764,169.681z"/>
	<path style="fill:#7B8C5E;" d="M128.917,169.93c0.087-0.016,0.174-0.033,0.261-0.047
		C129.091,169.897,129.004,169.914,128.917,169.93z"/>
	<path style="fill:#7B8C5E;" d="M370.345,169.587H132.737c-0.563,0-1.121,0.028-1.674,0.071c-0.1,0.006-0.199,0.014-0.299,0.022
		c-0.534,0.048-1.063,0.115-1.586,0.202c-0.087,0.014-0.174,0.031-0.261,0.047c-1.102,0.195-2.175,0.474-3.213,0.83
		c-0.056,0.018-0.11,0.035-0.163,0.055c-0.523,0.184-1.037,0.387-1.541,0.609c-0.032,0.014-0.063,0.029-0.097,0.043
		c-1.047,0.468-2.051,1.014-3.003,1.635c-0.01,0.006-0.02,0.012-0.028,0.02c-0.484,0.314-0.953,1-1.408,1c-0.001,0-0.002,0-0.002,0
		h250.883c12.001,0,21.771,9.765,21.771,21.766v-4.534C392.116,179.352,382.346,169.587,370.345,169.587z"/>
	<path style="fill:#334D5C;" d="M389.038,143.061c8.303,5.385,10.69,16.582,5.307,24.887L278.252,346.981
		c-5.383,8.3-16.583,10.689-24.885,5.305l-113.82-73.807c-8.304-5.383-10.688-16.581-5.306-24.884L250.334,74.563
		c5.386-8.304,16.582-10.691,24.884-5.307L389.038,143.061z"/>
	<path style="opacity:0.2;fill:#5D5D5D;" d="M134.19,253.676l3.31-5.106l258.835-95.747c1.557,4.952,0.985,10.537-2.04,15.202
		L278.199,347.058c-5.384,8.304-16.53,10.612-24.832,5.228l-113.82-73.807C131.243,273.096,128.804,261.977,134.19,253.676z"/>
	<g>
		<path style="fill:#ECF0F0;" d="M247.204,300.006l-0.385,0.593l-4.595-4.286l0.114,1.855l-0.624,0.012l-0.099-2.523l0.347-0.534
			L247.204,300.006z"/>
		<path style="fill:#ECF0F0;" d="M251.156,293.91l-2.456,3.787l-0.557-0.516l-0.616-4.426c-0.028-0.224-0.062-0.43-0.104-0.619
			c-0.04-0.188-0.094-0.361-0.161-0.52c-0.069-0.16-0.154-0.304-0.26-0.436c-0.104-0.131-0.238-0.25-0.4-0.355
			c-0.151-0.098-0.303-0.154-0.458-0.172c-0.155-0.018-0.308-0.005-0.454,0.039c-0.146,0.043-0.282,0.115-0.408,0.215
			c-0.125,0.102-0.234,0.225-0.329,0.369c-0.234,0.363-0.323,0.721-0.267,1.074c0.057,0.353,0.201,0.664,0.437,0.936l-0.485,0.493
			c-0.161-0.191-0.293-0.401-0.395-0.629c-0.101-0.228-0.162-0.465-0.183-0.711c-0.021-0.247,0.003-0.497,0.066-0.752
			c0.064-0.254,0.177-0.507,0.339-0.758c0.137-0.211,0.299-0.396,0.484-0.556c0.188-0.159,0.391-0.276,0.609-0.353
			c0.219-0.074,0.445-0.102,0.682-0.078c0.234,0.022,0.469,0.108,0.703,0.26c0.239,0.155,0.429,0.317,0.57,0.486
			c0.139,0.169,0.251,0.354,0.336,0.553c0.084,0.198,0.148,0.417,0.192,0.654c0.044,0.237,0.085,0.504,0.124,0.798l0.511,3.882
			l2.012-3.102L251.156,293.91z"/>
		<path style="fill:#ECF0F0;" d="M249.739,288.752l0.168-0.26c0.325-0.502,0.472-0.963,0.438-1.384
			c-0.032-0.421-0.27-0.774-0.712-1.062c-0.291-0.188-0.578-0.236-0.861-0.143c-0.283,0.094-0.516,0.279-0.696,0.559
			c-0.17,0.262-0.263,0.539-0.279,0.834c-0.016,0.294,0.054,0.582,0.21,0.866l-0.591,0.306c-0.364-0.828-0.307-1.613,0.173-2.353
			c0.137-0.211,0.296-0.392,0.476-0.544c0.183-0.15,0.38-0.26,0.594-0.326c0.213-0.066,0.435-0.086,0.668-0.059
			c0.23,0.027,0.463,0.117,0.697,0.269c0.172,0.111,0.324,0.244,0.455,0.399c0.129,0.152,0.229,0.326,0.298,0.52
			c0.068,0.192,0.101,0.405,0.097,0.636c-0.003,0.232-0.046,0.479-0.13,0.741l0.017,0.012c0.121-0.113,0.255-0.204,0.403-0.273
			c0.148-0.07,0.306-0.115,0.473-0.134c0.166-0.018,0.335-0.008,0.507,0.032c0.173,0.041,0.336,0.111,0.492,0.213
			c0.284,0.184,0.518,0.404,0.7,0.661c0.182,0.257,0.302,0.532,0.36,0.827c0.057,0.295,0.054,0.604-0.013,0.925
			c-0.065,0.321-0.201,0.642-0.407,0.959c-0.141,0.218-0.302,0.403-0.482,0.56c-0.181,0.156-0.372,0.279-0.577,0.368
			c-0.205,0.089-0.419,0.142-0.643,0.159c-0.226,0.017-0.45-0.009-0.676-0.076l0.176-0.728c0.162,0.066,0.324,0.096,0.486,0.09
			c0.163-0.006,0.319-0.039,0.47-0.1c0.15-0.061,0.29-0.148,0.42-0.262c0.128-0.115,0.243-0.247,0.34-0.397
			c0.134-0.206,0.223-0.418,0.268-0.634c0.045-0.216,0.047-0.427,0.006-0.631c-0.042-0.205-0.126-0.398-0.254-0.58
			c-0.128-0.183-0.3-0.344-0.517-0.484c-0.374-0.242-0.727-0.295-1.057-0.156c-0.331,0.137-0.627,0.407-0.887,0.809l-0.168,0.26
			L249.739,288.752z"/>
		<path style="fill:#ECF0F0;" d="M255.316,283.211l0.569-0.878l0.467,0.434l-0.569,0.878l1.267,1.178l-0.374,0.577l-1.267-1.178
			l-1.757,2.709l-0.545-0.497l-1.819-5.691l0.52-0.803L255.316,283.211z M252.034,281.073l-0.011,0.017l1.552,4.806l1.366-2.106
			L252.034,281.073z"/>
		<path style="fill:#ECF0F0;" d="M258.25,271.16l-1.507,2.324l1.599,1.56c0.071-0.302,0.191-0.585,0.36-0.847
			c0.17-0.263,0.365-0.473,0.582-0.633c0.219-0.159,0.449-0.268,0.69-0.324c0.243-0.057,0.489-0.062,0.738-0.02
			c0.25,0.043,0.486,0.137,0.709,0.281c0.296,0.191,0.548,0.42,0.759,0.688c0.211,0.267,0.359,0.561,0.446,0.877
			c0.087,0.318,0.102,0.658,0.041,1.019c-0.06,0.361-0.213,0.731-0.458,1.11c-0.278,0.43-0.615,0.724-1.008,0.885
			c-0.393,0.16-0.783,0.195-1.167,0.104l0.115-0.709c0.297,0.081,0.585,0.064,0.865-0.051c0.281-0.115,0.508-0.307,0.681-0.574
			c0.17-0.262,0.278-0.521,0.324-0.774c0.047-0.256,0.042-0.496-0.013-0.723c-0.056-0.226-0.157-0.435-0.309-0.633
			c-0.15-0.195-0.339-0.368-0.567-0.517c-0.368-0.238-0.742-0.318-1.121-0.239c-0.379,0.078-0.695,0.312-0.948,0.703
			c-0.137,0.211-0.252,0.455-0.344,0.732c-0.094,0.277-0.144,0.531-0.151,0.764l-2.645-2.57l1.859-2.867L258.25,271.16z"/>
		<path style="fill:#ECF0F0;" d="M261.824,270.153l0.026-0.006c0.003-0.149,0.027-0.303,0.075-0.463
			c0.048-0.158,0.12-0.314,0.218-0.465c0.152-0.233,0.329-0.424,0.531-0.57c0.2-0.146,0.417-0.245,0.648-0.297
			c0.232-0.051,0.471-0.055,0.716-0.012c0.243,0.044,0.482,0.142,0.717,0.293c0.312,0.203,0.564,0.441,0.755,0.715
			c0.189,0.273,0.315,0.567,0.379,0.881c0.061,0.314,0.059,0.635-0.008,0.964c-0.066,0.329-0.202,0.652-0.408,0.97
			c-0.17,0.262-0.368,0.471-0.591,0.627c-0.225,0.156-0.463,0.262-0.718,0.318c-0.254,0.057-0.513,0.06-0.771,0.01
			c-0.262-0.05-0.508-0.151-0.742-0.303c-0.291-0.188-0.53-0.443-0.722-0.765c-0.191-0.321-0.368-0.733-0.533-1.237l-1.229-3.766
			l0.471-0.727L261.824,270.153z M263.048,272.229c0.161,0.104,0.33,0.176,0.507,0.215c0.176,0.039,0.35,0.043,0.52,0.01
			c0.17-0.031,0.336-0.1,0.494-0.203c0.157-0.105,0.294-0.246,0.41-0.426c0.152-0.234,0.25-0.473,0.293-0.715
			c0.043-0.242,0.038-0.478-0.015-0.707c-0.054-0.228-0.152-0.441-0.297-0.639c-0.145-0.197-0.325-0.365-0.542-0.506
			c-0.155-0.102-0.319-0.172-0.49-0.211c-0.173-0.04-0.342-0.047-0.509-0.02c-0.166,0.027-0.326,0.091-0.478,0.19
			c-0.151,0.1-0.286,0.24-0.401,0.418c-0.149,0.23-0.247,0.467-0.294,0.709c-0.047,0.244-0.047,0.481-0.002,0.714
			c0.047,0.233,0.139,0.451,0.275,0.655C262.655,271.916,262.832,272.088,263.048,272.229z"/>
		<path style="fill:#ECF0F0;" d="M264.78,261.143l3.188,6.842l-0.456,0.703l-3.152-6.949l-1.876,2.893l-0.467-0.434l2.276-3.512
			L264.78,261.143z"/>
		<path style="fill:#ECF0F0;" d="M270.129,258.793c0.332-0.038,0.658,0.047,0.975,0.252c0.335,0.217,0.591,0.468,0.767,0.752
			c0.176,0.283,0.284,0.581,0.324,0.891c0.041,0.311,0.02,0.621-0.063,0.932c-0.081,0.311-0.209,0.599-0.382,0.865
			c-0.151,0.234-0.329,0.434-0.532,0.598c-0.201,0.166-0.419,0.283-0.651,0.354c-0.232,0.071-0.474,0.091-0.726,0.058
			c-0.252-0.033-0.501-0.13-0.747-0.29c-0.234-0.151-0.424-0.332-0.569-0.541c-0.145-0.209-0.25-0.432-0.312-0.666
			c-0.062-0.234-0.085-0.475-0.07-0.719c0.015-0.243,0.065-0.477,0.146-0.701l-0.016-0.012c-0.248,0.174-0.514,0.266-0.8,0.274
			c-0.287,0.009-0.555-0.067-0.806-0.23c-0.25-0.162-0.454-0.36-0.611-0.594c-0.157-0.232-0.264-0.483-0.317-0.754
			c-0.055-0.27-0.055-0.547,0-0.833c0.056-0.285,0.168-0.56,0.338-0.822c0.146-0.224,0.312-0.411,0.497-0.564
			c0.187-0.153,0.384-0.259,0.592-0.318c0.209-0.059,0.426-0.072,0.649-0.038c0.223,0.034,0.446,0.123,0.669,0.268
			c0.195,0.127,0.353,0.277,0.474,0.452c0.119,0.175,0.209,0.359,0.268,0.556c0.061,0.194,0.09,0.395,0.091,0.602
			c0.001,0.206-0.028,0.408-0.086,0.609l0.017,0.01C269.501,258.96,269.795,258.83,270.129,258.793z M266.996,260.004
			c0.128,0.082,0.261,0.139,0.399,0.17c0.137,0.029,0.278,0.031,0.422,0.006c0.143-0.026,0.277-0.082,0.402-0.166
			c0.126-0.084,0.238-0.202,0.336-0.353c0.126-0.194,0.202-0.397,0.227-0.605c0.026-0.21,0.016-0.408-0.031-0.598
			c-0.047-0.188-0.122-0.357-0.223-0.506c-0.101-0.148-0.215-0.264-0.343-0.348c-0.322-0.208-0.625-0.276-0.909-0.203
			c-0.283,0.073-0.527,0.266-0.729,0.578c-0.116,0.178-0.186,0.363-0.213,0.557c-0.026,0.192-0.018,0.38,0.026,0.562
			c0.042,0.183,0.119,0.353,0.229,0.512C266.699,259.768,266.836,259.9,266.996,260.004z M269.463,262.576
			c0.318,0.207,0.64,0.273,0.967,0.199c0.326-0.073,0.6-0.283,0.824-0.629c0.155-0.239,0.257-0.478,0.305-0.717
			c0.047-0.238,0.046-0.465-0.006-0.68c-0.05-0.216-0.144-0.416-0.276-0.602c-0.134-0.185-0.308-0.348-0.52-0.486
			c-0.145-0.094-0.299-0.156-0.462-0.186s-0.324-0.028-0.482,0.009c-0.159,0.035-0.309,0.105-0.451,0.207
			c-0.141,0.102-0.264,0.233-0.369,0.395c-0.141,0.218-0.234,0.444-0.279,0.68c-0.046,0.236-0.048,0.467-0.007,0.691
			c0.041,0.224,0.125,0.434,0.254,0.627C269.088,262.279,269.256,262.443,269.463,262.576z"/>
		<path style="fill:#ECF0F0;" d="M275.642,250.492l-0.027,0.006c-0.002,0.148-0.026,0.303-0.074,0.462
			c-0.049,0.159-0.121,0.313-0.219,0.464c-0.151,0.234-0.329,0.426-0.532,0.574c-0.205,0.15-0.422,0.25-0.653,0.302
			c-0.232,0.052-0.468,0.056-0.711,0.008c-0.243-0.046-0.482-0.146-0.716-0.298c-0.312-0.201-0.564-0.439-0.754-0.714
			c-0.191-0.274-0.317-0.568-0.378-0.881c-0.062-0.313-0.061-0.635,0.006-0.964c0.067-0.328,0.204-0.652,0.41-0.97
			c0.166-0.257,0.361-0.464,0.587-0.622c0.226-0.158,0.466-0.266,0.721-0.323c0.253-0.057,0.512-0.06,0.772-0.01
			c0.26,0.05,0.508,0.151,0.741,0.303c0.29,0.188,0.53,0.443,0.722,0.765c0.19,0.322,0.369,0.734,0.534,1.237l1.228,3.766
			l-0.472,0.728L275.642,250.492z M274.418,248.415c-0.155-0.1-0.324-0.17-0.505-0.208c-0.181-0.038-0.356-0.041-0.526-0.01
			c-0.171,0.033-0.335,0.1-0.494,0.203c-0.157,0.104-0.294,0.244-0.41,0.424c-0.151,0.233-0.247,0.473-0.285,0.716
			c-0.04,0.243-0.034,0.48,0.02,0.708c0.053,0.229,0.151,0.439,0.293,0.635s0.32,0.363,0.537,0.504
			c0.156,0.101,0.319,0.171,0.491,0.211c0.172,0.04,0.339,0.046,0.503,0.018c0.165-0.027,0.322-0.092,0.474-0.191
			c0.151-0.1,0.285-0.239,0.4-0.418c0.145-0.223,0.242-0.457,0.291-0.702c0.048-0.245,0.052-0.484,0.009-0.718
			c-0.042-0.233-0.131-0.451-0.268-0.655C274.812,248.728,274.635,248.555,274.418,248.415z"/>
		<path style="fill:#ECF0F0;" d="M280.925,248.004l-0.386,0.594l-4.595-4.287l0.114,1.855l-0.624,0.012l-0.099-2.523l0.348-0.534
			L280.925,248.004z"/>
		<path style="fill:#ECF0F0;" d="M278.287,238.776c0.181-0.279,0.387-0.482,0.619-0.607c0.232-0.127,0.48-0.193,0.747-0.199
			c0.265-0.006,0.538,0.042,0.819,0.146c0.281,0.104,0.559,0.243,0.832,0.421c0.284,0.184,0.571,0.4,0.862,0.648
			c0.29,0.248,0.564,0.516,0.819,0.805c0.257,0.289,0.483,0.592,0.681,0.91c0.197,0.318,0.344,0.643,0.438,0.973
			c0.096,0.331,0.129,0.658,0.1,0.984c-0.03,0.325-0.142,0.643-0.342,0.948c-0.185,0.284-0.393,0.489-0.625,0.616
			c-0.232,0.126-0.478,0.193-0.736,0.199c-0.257,0.008-0.526-0.039-0.804-0.141c-0.28-0.102-0.558-0.243-0.837-0.424
			c-0.29-0.188-0.582-0.405-0.877-0.652c-0.295-0.246-0.571-0.514-0.827-0.803c-0.256-0.289-0.482-0.594-0.678-0.915
			c-0.196-0.321-0.342-0.646-0.438-0.974c-0.096-0.327-0.129-0.655-0.098-0.983C277.973,239.4,278.088,239.082,278.287,238.776z
			 M278.759,239.145c-0.182,0.28-0.238,0.605-0.174,0.977c0.064,0.371,0.216,0.754,0.456,1.148c0.24,0.395,0.549,0.78,0.926,1.159
			c0.377,0.38,0.788,0.714,1.234,1.003c0.206,0.135,0.414,0.245,0.624,0.334c0.208,0.088,0.406,0.139,0.595,0.152
			c0.188,0.016,0.366-0.014,0.533-0.088c0.168-0.074,0.31-0.203,0.43-0.389c0.178-0.273,0.236-0.596,0.175-0.965
			c-0.062-0.369-0.211-0.75-0.449-1.143c-0.237-0.393-0.542-0.776-0.916-1.154c-0.374-0.377-0.784-0.711-1.231-1
			c-0.207-0.135-0.415-0.246-0.627-0.336c-0.211-0.089-0.414-0.143-0.608-0.162c-0.194-0.018-0.373,0.008-0.539,0.08
			C279.022,238.833,278.878,238.961,278.759,239.145z"/>
		<path style="fill:#ECF0F0;" d="M287.213,238.305l-0.385,0.594l-4.595-4.286l0.114,1.856l-0.624,0.01l-0.099-2.521l0.347-0.535
			L287.213,238.305z"/>
		<path style="fill:#ECF0F0;" d="M293.069,229.276l-0.385,0.594l-4.596-4.286l0.115,1.856l-0.625,0.01l-0.099-2.521l0.348-0.535
			L293.069,229.276z"/>
		<path style="fill:#ECF0F0;" d="M296.213,224.427l-0.386,0.594l-4.595-4.286l0.114,1.855l-0.624,0.011l-0.099-2.523l0.347-0.535
			L296.213,224.427z"/>
		<path style="fill:#ECF0F0;" d="M300.165,218.332l-2.456,3.787l-0.557-0.516l-0.616-4.426c-0.028-0.224-0.063-0.43-0.104-0.619
			c-0.04-0.188-0.094-0.361-0.162-0.52c-0.068-0.159-0.154-0.304-0.26-0.435c-0.103-0.131-0.237-0.25-0.399-0.355
			c-0.151-0.098-0.304-0.154-0.459-0.172c-0.155-0.018-0.307-0.005-0.453,0.038c-0.147,0.044-0.283,0.115-0.408,0.216
			c-0.125,0.102-0.235,0.225-0.329,0.369c-0.235,0.363-0.324,0.721-0.268,1.073c0.057,0.354,0.201,0.665,0.438,0.936l-0.486,0.494
			c-0.16-0.192-0.292-0.402-0.393-0.63c-0.102-0.227-0.162-0.464-0.183-0.71c-0.021-0.247,0.002-0.497,0.066-0.752
			c0.063-0.254,0.176-0.508,0.339-0.758c0.137-0.211,0.299-0.396,0.484-0.557c0.188-0.158,0.39-0.275,0.609-0.352
			c0.218-0.074,0.444-0.102,0.681-0.079c0.234,0.021,0.47,0.108,0.704,0.261c0.239,0.154,0.428,0.317,0.569,0.486
			c0.139,0.169,0.251,0.353,0.337,0.552c0.083,0.199,0.148,0.418,0.191,0.655c0.044,0.237,0.086,0.504,0.125,0.798l0.511,3.882
			l2.012-3.102L300.165,218.332z"/>
		<path style="fill:#ECF0F0;" d="M302.501,214.729l-0.385,0.594l-4.595-4.286l0.114,1.855l-0.624,0.011l-0.099-2.521l0.347-0.535
			L302.501,214.729z"/>
	</g>
	<path style="fill:#ECF0F0;" d="M243.347,130.916c2.402,1.555,3.085,4.758,1.527,7.16l-0.014,0.02l-1.815,2.799l-2.275,3.508
		c-0.094,0.146-0.301,0.189-0.446,0.098l-12.636-8.195c-0.168-0.107-0.211-0.314-0.114-0.46l2.273-3.509l1.394-2.152
		c1.49-2.297,4.555-2.95,6.853-1.461c0.605,0.395,1.109,0.897,1.448,1.473C240.82,129.957,242.178,130.156,243.347,130.916z
		 M234.686,132.834l-1.123,1.732c-0.04,0.064-0.017,0.166,0.062,0.221l0.796,0.513c0.062,0.042,0.146,0.005,0.185-0.057l1.125-1.733
		c0.138-0.208,0.016-0.523-0.278-0.715C235.16,132.608,234.823,132.623,234.686,132.834z M240.707,134.987
		c-0.374-0.242-0.834-0.182-1.021,0.109c-0.013,0.021-0.013,0.021-0.013,0.021l-1.559,2.402c-0.039,0.062-0.037,0.152,0.024,0.193
		l1.128,0.73c0.064,0.043,0.166,0.018,0.207-0.045l1.556-2.401c0,0,0,0,0.014-0.021
		C241.233,135.684,241.106,135.243,240.707,134.987z"/>
	<path style="fill:#ECF0F0;" d="M239.354,117.674c0.108-0.165,0.342-0.252,0.508-0.231l16.26,2.739
		c0.165,0.02,0.235,0.184,0.141,0.33l-2.194,3.383c-0.092,0.146-0.319,0.268-0.508,0.232l-0.869-0.118
		c-0.188-0.032-0.414,0.089-0.51,0.233l-2.572,3.969c-0.094,0.145-0.112,0.402-0.007,0.561l0.466,0.745
		c0.105,0.157,0.104,0.392-0.008,0.561l-2.192,3.38c-0.094,0.148-0.275,0.149-0.359,0.005l-9.134-13.725
		c-0.085-0.144-0.104-0.393,0.006-0.561L239.354,117.674z M247.851,123.511c0.135-0.208,0.042-0.386-0.178-0.411l-1.652-0.243
		c-0.244-0.036-0.325,0.089-0.19,0.295l0.895,1.411c0.113,0.189,0.313,0.201,0.448-0.008L247.851,123.511z"/>
	<path style="fill:#ECF0F0;" d="M251.109,99.551c0.108-0.169,0.315-0.213,0.482-0.105l12.635,8.193
		c0.145,0.096,0.189,0.301,0.082,0.469l-2.194,3.383c-0.097,0.148-0.321,0.266-0.522,0.256l-7.309-0.348
		c-0.178,0.001-0.219,0.064-0.053,0.171l5.243,3.399c0.145,0.097,0.188,0.302,0.081,0.468l-2.194,3.385
		c-0.097,0.146-0.303,0.191-0.446,0.096l-12.636-8.192c-0.167-0.11-0.21-0.314-0.117-0.462l2.195-3.383
		c0.108-0.167,0.332-0.287,0.535-0.275l7.308,0.348c0.199,0.012,0.221-0.064,0.052-0.174l-5.22-3.385
		c-0.166-0.107-0.212-0.314-0.115-0.461L251.109,99.551z"/>
	<path style="fill:#ECF0F0;" d="M255.022,93.514c0.108-0.168,0.317-0.211,0.482-0.104l3.571,2.315
		c0.147,0.098,0.208,0.047,0.136-0.118l-2.145-4.741c-0.069-0.164-0.054-0.42,0.056-0.589l2.464-3.8
		c0.094-0.146,0.239-0.141,0.311,0.022l3.257,7.423c0.07,0.164,0.3,0.312,0.467,0.33l9.204,0.217
		c0.182-0.004,0.244,0.128,0.135,0.293l-2.465,3.802c-0.094,0.146-0.319,0.265-0.5,0.269l-5.939-0.082
		c-0.199-0.012-0.22,0.064-0.052,0.172l4.134,2.682c0.148,0.094,0.19,0.301,0.084,0.47l-2.196,3.381
		c-0.095,0.147-0.301,0.191-0.448,0.097l-12.632-8.195c-0.167-0.106-0.212-0.312-0.118-0.459L255.022,93.514z"/>
	
		<rect x="211.235" y="112.737" transform="matrix(0.5441 -0.839 0.839 0.5441 19.4706 262.386)" style="fill:#334D5C;" width="79.883" height="1.079"/>
	
		<rect x="206.706" y="109.8" transform="matrix(0.5441 -0.8391 0.8391 0.5441 19.8775 257.2594)" style="fill:#334D5C;" width="79.882" height="1.08"/>
	
		<rect x="215.46" y="115.476" transform="matrix(0.5441 -0.839 0.839 0.5441 19.1027 267.1864)" style="fill:#334D5C;" width="79.882" height="1.081"/>
	<path style="fill:#EFC84A;" d="M374.146,149.005c7.189,4.663,9.237,14.269,4.575,21.457c-4.661,7.189-14.265,9.237-21.454,4.575
		c-7.188-4.663-9.24-14.266-4.578-21.455C357.351,146.391,366.958,144.344,374.146,149.005z"/>
	<path style="fill:#EFC84A;" d="M374.146,149.005c7.189,4.663,9.237,14.269,4.575,21.457c-4.661,7.189-14.265,9.237-21.454,4.575
		c-7.188-4.663-9.24-14.266-4.578-21.455C357.351,146.391,366.958,144.344,374.146,149.005z"/>
	<circle style="fill:#E05B49;" cx="354.451" cy="179.376" r="15.514"/>
	<path style="fill:#E05B49;" d="M366.061,169.088c-0.137-0.152-0.277-0.305-0.42-0.452c-0.008-0.012-0.017-0.02-0.028-0.031v0.002
		c-0.347-0.36-0.715-0.708-1.104-1.039c-0.064-0.055-0.131-0.112-0.2-0.167c-0.095-0.078-0.19-0.154-0.289-0.23
		c-0.103-0.08-0.206-0.162-0.314-0.238c-0.076-0.059-0.149-0.115-0.229-0.172c-0.19-0.135-0.385-0.27-0.585-0.4
		c-1.701-1.102-3.535-1.824-5.408-2.195c-0.011-0.005-0.02-0.005-0.026-0.006c-0.67-0.131-1.346-0.219-2.024-0.262
		c-0.005-0.001-0.009-0.001-0.015,0c-0.333-0.02-0.662-0.032-0.993-0.029c-0.011-0.001-0.021-0.001-0.03-0.001
		c-0.663,0.003-1.322,0.048-1.975,0.136c-0.036,0.005-0.068,0.009-0.105,0.014c-0.306,0.042-0.615,0.094-0.919,0.155
		c-0.012,0.002-0.023,0.005-0.038,0.007c-0.328,0.068-0.654,0.144-0.978,0.231l0,0l0,0c-3.554,0.968-6.783,3.192-8.945,6.526
		c-4.662,7.189-2.613,16.795,4.575,21.457c7.19,4.662,16.794,2.611,21.458-4.575c2.161-3.335,2.878-7.188,2.308-10.829l0,0l0,0
		c-0.032-0.213-0.071-0.426-0.113-0.635c-0.005-0.025-0.008-0.049-0.012-0.076c-0.045-0.196-0.087-0.395-0.137-0.593
		c-0.01-0.036-0.016-0.071-0.025-0.107c-0.049-0.189-0.103-0.382-0.158-0.573c-0.012-0.037-0.021-0.076-0.032-0.113
		c-0.056-0.189-0.118-0.377-0.183-0.564c-0.015-0.037-0.025-0.078-0.041-0.116c-0.064-0.185-0.134-0.37-0.207-0.555
		c-0.015-0.037-0.031-0.075-0.044-0.114c-0.076-0.184-0.153-0.363-0.233-0.542c-0.017-0.04-0.035-0.077-0.052-0.116
		c-0.082-0.179-0.169-0.355-0.259-0.53c-0.018-0.039-0.039-0.077-0.058-0.116c-0.091-0.174-0.184-0.344-0.277-0.516
		c-0.013-0.017-0.021-0.035-0.03-0.051l-0.003,0.001c-0.517-0.909-1.131-1.767-1.837-2.563
		C366.071,169.1,366.067,169.094,366.061,169.088z"/>
	<path style="fill:#EFC84A;" d="M360.241,161.678l-6.571,10.133c0.235,0.287,0.482,0.568,0.741,0.84l6.902-10.641
		C360.957,161.885,360.6,161.776,360.241,161.678z"/>
	<path style="fill:#EFC84A;" d="M357.189,174.985l7.386-11.389c-0.308-0.197-0.618-0.378-0.933-0.551l-7.334,11.312
		C356.593,174.573,356.884,174.785,357.189,174.985z"/>
	<path style="fill:#EFC84A;" d="M360.423,176.608l6.952-10.722c-0.253-0.261-0.516-0.518-0.79-0.764l-7.181,11.074
		C359.74,176.346,360.082,176.484,360.423,176.608z"/>
	<path style="fill:#EFC84A;" d="M364.162,177.459l5.514-8.506c-0.194-0.346-0.408-0.68-0.633-1.01l-6.059,9.347
		C363.374,177.362,363.767,177.42,364.162,177.459z"/>
	<path style="fill:#E27C3E;" d="M221.2,303.123c0.499,0.322,0.426,0.654-0.163,0.735l-17.737,2.47
		c-0.589,0.082-1.204-0.317-1.369-0.888l-4.979-17.2c-0.165-0.57,0.107-0.773,0.605-0.45L221.2,303.123z"/>
	<g>
		
			<rect x="291.318" y="215.189" transform="matrix(0.8392 0.5439 -0.5439 0.8392 192.7122 -115.8438)" style="fill:#ECF0F0;" width="1.799" height="105.429"/>
	</g>
	<g>
		
			<rect x="302.416" y="226.328" transform="matrix(0.8392 0.5439 -0.5439 0.8392 199.5648 -120.3747)" style="fill:#ECF0F0;" width="1.799" height="101.83"/>
	</g>
	<path style="fill:#A3BA7D;" d="M370.345,192.26H110.971c0,1.555,0.167,3.071,0.479,4.535h258.895
		c12.001,0,21.771,9.764,21.771,21.766v-4.535C392.116,202.024,382.346,192.26,370.345,192.26z"/>
	<path style="fill:#7B8C5E;" d="M370.345,187.725H111.279c-0.199,1.182-0.309,2.392-0.309,3.628v0.907h259.374
		c12.001,0,21.771,9.764,21.771,21.766v-4.534C392.116,197.49,382.346,187.725,370.345,187.725z"/>
	<path style="fill:#A3BA7D;" d="M370.345,201.329H112.958c0.75,1.63,1.694,3.151,2.806,4.534h254.581
		c12.001,0,21.771,9.765,21.771,21.766v-4.534C392.116,211.094,382.346,201.329,370.345,201.329z"/>
	<path style="fill:#A3BA7D;" d="M370.345,210.399H120.723c3.446,2.289,7.576,3.627,12.014,3.627h237.608c0.002,0,0.003,0,0.005,0
		v56.229h21.767v-38.091C392.116,220.162,382.346,210.399,370.345,210.399z"/>
	<path style="fill:#7B8C5E;" d="M370.345,196.795H111.45c0.336,1.582,0.847,3.1,1.508,4.534h257.387
		c12.001,0,21.771,9.765,21.771,21.766v-4.534C392.116,206.559,382.346,196.795,370.345,196.795z"/>
	<path style="fill:#7B8C5E;" d="M370.345,205.864H115.764c1.409,1.754,3.082,3.286,4.959,4.535h249.622
		c12.001,0,21.771,9.764,21.771,21.766v-4.535C392.116,215.628,382.346,205.864,370.345,205.864z"/>
	<path style="fill:#733F1F;" d="M425.672,298.369c0,19.952,1.814,36.277-18.139,36.277h-51.694
		c-19.952,0-36.276-16.325-36.276-36.277l0,0c0-19.952,16.324-36.277,36.276-36.277h51.694
		C427.486,262.092,425.672,278.417,425.672,298.369L425.672,298.369z"/>
	<path style="fill:#542E17;" d="M422.951,304.718c0,19.952,1.814,36.276-18.139,36.276h-51.694
		c-19.952,0-36.276-16.324-36.276-36.276l0,0c0-19.952,16.324-36.276,36.276-36.276h51.694
		C424.765,268.442,422.951,284.766,422.951,304.718L422.951,304.718z"/>
	<path style="fill:#C26B35;" d="M370.35,214.026c-42.625,0-237.612,0-237.612,0c-12.002,0-21.767-9.764-21.767-21.766v-0.907h-8.162
		v0.907c0,15.025,12.182,27.207,27.208,27.207l240.333,50.219v-42.018c14.922,9.067,38.998,19.008,38.998,19.008
		S412.975,214.026,370.35,214.026z"/>
	<path style="fill:#9E572B;" d="M382.14,219.467H130.017c-15.026,0-27.208-12.182-27.208-27.207v54.415v131.503
		c0,15.027,12.182,27.208,27.208,27.208H382.14c15.026,0,27.208-12.181,27.208-27.208V246.675
		C409.348,231.649,397.166,219.467,382.14,219.467z"/>
	<path style="fill:#AD5F2F;" d="M127.295,382.713c-5,0-9.068-4.068-9.068-9.069V227.026c2.931,0.598,5.964,6.046,9.068,6.046
		h252.124c5,0,9.069,4.068,9.069,9.069v131.503c0,5.001-4.069,9.069-9.069,9.069H127.295z"/>
	<g>
		<defs>
			<path id="SVGID_1_" d="M382.14,219.467H130.017c-15.026,0-27.208-12.182-27.208-27.207v54.415v131.503
				c0,15.027,12.182,27.208,27.208,27.208H382.14c15.026,0,27.208-12.181,27.208-27.208V246.675
				C409.348,231.649,397.166,219.467,382.14,219.467z"/>
		</defs>
		<clipPath id="SVGID_2_">
			<use xlink:href="#SVGID_1_"  style="overflow:visible;"/>
		</clipPath>
		<path style="clip-path:url(#SVGID_2_);fill:#733F1F;" d="M94.102,205.846c0,0-0.638-0.788-1.274-1.576
			c-0.643-0.772-1.284-1.546-1.284-1.546l1.551-1.325c0,0,0.657,0.791,1.314,1.582c0.641,0.793,1.282,1.585,1.282,1.585
			L94.102,205.846z"/>
		<path style="clip-path:url(#SVGID_2_);fill:#733F1F;" d="M97.979,210.586c0,0-0.656-0.787-1.311-1.573
			c-0.645-0.791-1.289-1.583-1.289-1.583l1.587-1.283c0,0,0.639,0.785,1.278,1.57c0.646,0.775,1.293,1.551,1.293,1.551
			L97.979,210.586z"/>
		<polygon style="clip-path:url(#SVGID_2_);fill:none;" points="97.979,210.586 99.315,212.139 100.852,210.797 99.537,209.268 		
			"/>
		<path style="clip-path:url(#SVGID_2_);fill:none;" d="M91.543,202.724c0,0-0.327-0.373-0.653-0.747
			c-0.332-0.357-0.665-0.717-0.665-0.717l1.467-1.419c0,0,0.358,0.388,0.718,0.774c0.342,0.391,0.685,0.783,0.685,0.783
			L91.543,202.724z"/>
		<path style="clip-path:url(#SVGID_2_);fill:#733F1F;" d="M103.521,216.652c0,0-0.737-0.722-1.439-1.474
			c-0.713-0.742-1.4-1.506-1.4-1.506l1.51-1.373c0,0,0.673,0.748,1.369,1.471c0.685,0.735,1.401,1.437,1.401,1.437L103.521,216.652z
			"/>
		<path style="clip-path:url(#SVGID_2_);fill:#733F1F;" d="M108.105,220.821c0,0-0.787-0.671-1.576-1.342
			c-0.767-0.691-1.526-1.392-1.527-1.392l1.398-1.487c0,0,0.735,0.678,1.478,1.348c0.76,0.646,1.521,1.293,1.521,1.293
			L108.105,220.821z"/>
		<polygon style="clip-path:url(#SVGID_2_);fill:none;" points="108.105,220.821 109.737,222.1 110.965,220.47 109.398,219.24 		"/>
		<path style="clip-path:url(#SVGID_2_);fill:none;" d="M100.681,213.672c0,0-0.345-0.381-0.69-0.762
			c-0.338-0.385-0.677-0.771-0.677-0.771l1.537-1.342c0,0,0.332,0.379,0.664,0.756c0.337,0.373,0.675,0.746,0.675,0.746
			L100.681,213.672z"/>
		<path style="clip-path:url(#SVGID_2_);fill:#733F1F;" d="M114.971,225.498c0,0-0.234-0.117-0.573-0.312
			c-0.335-0.201-0.782-0.469-1.229-0.737c-0.453-0.259-0.873-0.567-1.202-0.776c-0.325-0.216-0.542-0.359-0.542-0.359l1.156-1.683
			c0,0,0.206,0.138,0.517,0.343c0.313,0.199,0.715,0.496,1.144,0.74c0.425,0.254,0.85,0.51,1.169,0.7
			c0.32,0.186,0.542,0.296,0.542,0.296L114.971,225.498z"/>
		<path style="clip-path:url(#SVGID_2_);fill:#733F1F;" d="M120.717,228.019c0,0-0.25-0.082-0.624-0.204
			c-0.375-0.123-0.856-0.332-1.346-0.52c-0.491-0.185-0.971-0.396-1.323-0.568c-0.355-0.166-0.593-0.275-0.593-0.275l0.879-1.842
			c0,0,0.223,0.104,0.559,0.26c0.332,0.164,0.783,0.361,1.244,0.533c0.46,0.177,0.912,0.375,1.262,0.488
			c0.351,0.115,0.584,0.191,0.584,0.191L120.717,228.019z"/>
		<path style="clip-path:url(#SVGID_2_);fill:none;" d="M120.717,228.019c0,0,0.499,0.162,0.999,0.325
			c0.508,0.133,1.017,0.268,1.017,0.268l0.509-1.977c0,0-0.475-0.124-0.949-0.248c-0.467-0.152-0.934-0.306-0.934-0.306
			L120.717,228.019z"/>
		<path style="clip-path:url(#SVGID_2_);fill:none;" d="M111.424,223.313c0,0-0.43-0.293-0.847-0.602
			c-0.42-0.306-0.84-0.61-0.84-0.61l1.228-1.63c0,0,0.402,0.292,0.805,0.585c0.399,0.297,0.811,0.574,0.811,0.574L111.424,223.313z"
			/>
		<path style="clip-path:url(#SVGID_2_);fill:#733F1F;" d="M128.972,229.52c0,0-1.056-0.006-2.101-0.152
			c-1.052-0.086-2.084-0.305-2.084-0.305l0.368-2.007c0,0,0.96,0.204,1.938,0.282c0.972,0.139,1.952,0.143,1.952,0.143
			L128.972,229.52z"/>
		<rect x="131.04" y="227.516" style="clip-path:url(#SVGID_2_);fill:#733F1F;" width="4.066" height="2.041"/>
		<rect x="135.107" y="227.516" style="clip-path:url(#SVGID_2_);fill:none;" width="2.033" height="2.041"/>
		<path style="clip-path:url(#SVGID_2_);fill:none;" d="M124.787,229.063c0,0-0.518-0.096-1.035-0.191
			c-0.51-0.131-1.02-0.26-1.02-0.26l0.509-1.977c0,0,0.476,0.121,0.95,0.242c0.481,0.09,0.964,0.179,0.964,0.179L124.787,229.063z"
			/>
		<rect x="139.173" y="227.516" style="clip-path:url(#SVGID_2_);fill:#733F1F;" width="4.065" height="2.041"/>
		<rect x="145.272" y="227.516" style="clip-path:url(#SVGID_2_);fill:#733F1F;" width="4.066" height="2.041"/>
		<rect x="149.338" y="227.516" style="clip-path:url(#SVGID_2_);fill:none;" width="2.033" height="2.041"/>
		<rect x="137.14" y="227.516" style="clip-path:url(#SVGID_2_);fill:none;" width="2.033" height="2.041"/>
		<rect x="153.404" y="227.516" style="clip-path:url(#SVGID_2_);fill:#733F1F;" width="4.065" height="2.041"/>
		<rect x="159.503" y="227.516" style="clip-path:url(#SVGID_2_);fill:#733F1F;" width="4.066" height="2.041"/>
		<rect x="163.57" y="227.516" style="clip-path:url(#SVGID_2_);fill:none;" width="2.033" height="2.041"/>
		<rect x="151.371" y="227.516" style="clip-path:url(#SVGID_2_);fill:none;" width="2.033" height="2.041"/>
		<rect x="167.635" y="227.516" style="clip-path:url(#SVGID_2_);fill:#733F1F;" width="4.066" height="2.041"/>
		<rect x="173.735" y="227.516" style="clip-path:url(#SVGID_2_);fill:#733F1F;" width="4.066" height="2.041"/>
		<rect x="177.801" y="227.516" style="clip-path:url(#SVGID_2_);fill:none;" width="2.032" height="2.041"/>
		<rect x="165.603" y="227.516" style="clip-path:url(#SVGID_2_);fill:none;" width="2.032" height="2.041"/>
		<rect x="181.866" y="227.516" style="clip-path:url(#SVGID_2_);fill:#733F1F;" width="4.066" height="2.041"/>
		<rect x="187.966" y="227.516" style="clip-path:url(#SVGID_2_);fill:#733F1F;" width="4.065" height="2.041"/>
		<rect x="192.032" y="227.516" style="clip-path:url(#SVGID_2_);fill:none;" width="2.033" height="2.041"/>
		<rect x="179.833" y="227.516" style="clip-path:url(#SVGID_2_);fill:none;" width="2.033" height="2.041"/>
		<rect x="196.098" y="227.516" style="clip-path:url(#SVGID_2_);fill:#733F1F;" width="4.066" height="2.041"/>
		<rect x="202.197" y="227.516" style="clip-path:url(#SVGID_2_);fill:#733F1F;" width="4.065" height="2.041"/>
		<rect x="206.263" y="227.516" style="clip-path:url(#SVGID_2_);fill:none;" width="2.033" height="2.041"/>
		<rect x="194.065" y="227.516" style="clip-path:url(#SVGID_2_);fill:none;" width="2.033" height="2.041"/>
		<rect x="210.329" y="227.516" style="clip-path:url(#SVGID_2_);fill:#733F1F;" width="4.066" height="2.041"/>
		<rect x="216.428" y="227.516" style="clip-path:url(#SVGID_2_);fill:#733F1F;" width="4.066" height="2.041"/>
		<rect x="220.494" y="227.516" style="clip-path:url(#SVGID_2_);fill:none;" width="2.033" height="2.041"/>
		<rect x="208.296" y="227.516" style="clip-path:url(#SVGID_2_);fill:none;" width="2.033" height="2.041"/>
		<rect x="224.561" y="227.516" style="clip-path:url(#SVGID_2_);fill:#733F1F;" width="4.065" height="2.041"/>
		<rect x="230.659" y="227.516" style="clip-path:url(#SVGID_2_);fill:#733F1F;" width="4.066" height="2.041"/>
		<rect x="234.726" y="227.516" style="clip-path:url(#SVGID_2_);fill:none;" width="2.033" height="2.041"/>
		<rect x="222.528" y="227.516" style="clip-path:url(#SVGID_2_);fill:none;" width="2.033" height="2.041"/>
		<rect x="238.792" y="227.516" style="clip-path:url(#SVGID_2_);fill:#733F1F;" width="4.065" height="2.041"/>
		<rect x="244.891" y="227.516" style="clip-path:url(#SVGID_2_);fill:#733F1F;" width="4.066" height="2.041"/>
		<rect x="248.957" y="227.516" style="clip-path:url(#SVGID_2_);fill:none;" width="2.033" height="2.041"/>
		<rect x="236.759" y="227.516" style="clip-path:url(#SVGID_2_);fill:none;" width="2.033" height="2.041"/>
		<rect x="253.023" y="227.516" style="clip-path:url(#SVGID_2_);fill:#733F1F;" width="4.066" height="2.041"/>
		<rect x="259.122" y="227.516" style="clip-path:url(#SVGID_2_);fill:#733F1F;" width="4.066" height="2.041"/>
		<rect x="263.189" y="227.516" style="clip-path:url(#SVGID_2_);fill:none;" width="2.032" height="2.041"/>
		<rect x="250.99" y="227.516" style="clip-path:url(#SVGID_2_);fill:none;" width="2.032" height="2.041"/>
		<rect x="267.254" y="227.516" style="clip-path:url(#SVGID_2_);fill:#733F1F;" width="4.066" height="2.041"/>
		<rect x="273.354" y="227.516" style="clip-path:url(#SVGID_2_);fill:#733F1F;" width="4.065" height="2.041"/>
		<rect x="277.419" y="227.516" style="clip-path:url(#SVGID_2_);fill:none;" width="2.033" height="2.041"/>
		<rect x="265.221" y="227.516" style="clip-path:url(#SVGID_2_);fill:none;" width="2.033" height="2.041"/>
		<rect x="281.486" y="227.516" style="clip-path:url(#SVGID_2_);fill:#733F1F;" width="4.066" height="2.041"/>
		<rect x="287.585" y="227.516" style="clip-path:url(#SVGID_2_);fill:#733F1F;" width="4.065" height="2.041"/>
		<rect x="291.651" y="227.516" style="clip-path:url(#SVGID_2_);fill:none;" width="2.033" height="2.041"/>
		<rect x="279.452" y="227.516" style="clip-path:url(#SVGID_2_);fill:none;" width="2.033" height="2.041"/>
		<rect x="295.716" y="227.516" style="clip-path:url(#SVGID_2_);fill:#733F1F;" width="4.066" height="2.041"/>
		<rect x="301.816" y="227.516" style="clip-path:url(#SVGID_2_);fill:#733F1F;" width="4.066" height="2.041"/>
		<rect x="305.882" y="227.516" style="clip-path:url(#SVGID_2_);fill:none;" width="2.032" height="2.041"/>
		<rect x="293.684" y="227.516" style="clip-path:url(#SVGID_2_);fill:none;" width="2.032" height="2.041"/>
		<rect x="309.947" y="227.516" style="clip-path:url(#SVGID_2_);fill:#733F1F;" width="4.066" height="2.041"/>
		<rect x="316.047" y="227.516" style="clip-path:url(#SVGID_2_);fill:#733F1F;" width="4.065" height="2.041"/>
		<rect x="320.112" y="227.516" style="clip-path:url(#SVGID_2_);fill:none;" width="2.033" height="2.041"/>
		<rect x="307.914" y="227.516" style="clip-path:url(#SVGID_2_);fill:none;" width="2.033" height="2.041"/>
		<rect x="324.179" y="227.516" style="clip-path:url(#SVGID_2_);fill:#733F1F;" width="4.066" height="2.041"/>
		<rect x="330.279" y="227.516" style="clip-path:url(#SVGID_2_);fill:#733F1F;" width="4.065" height="2.041"/>
		<rect x="334.344" y="227.516" style="clip-path:url(#SVGID_2_);fill:none;" width="2.033" height="2.041"/>
		<rect x="322.146" y="227.516" style="clip-path:url(#SVGID_2_);fill:none;" width="2.033" height="2.041"/>
		<rect x="338.41" y="227.516" style="clip-path:url(#SVGID_2_);fill:#733F1F;" width="4.066" height="2.041"/>
		<rect x="344.509" y="227.516" style="clip-path:url(#SVGID_2_);fill:#733F1F;" width="4.066" height="2.041"/>
		<rect x="348.575" y="227.516" style="clip-path:url(#SVGID_2_);fill:none;" width="2.033" height="2.041"/>
		<rect x="336.377" y="227.516" style="clip-path:url(#SVGID_2_);fill:none;" width="2.033" height="2.041"/>
		<rect x="352.642" y="227.516" style="clip-path:url(#SVGID_2_);fill:#733F1F;" width="4.065" height="2.041"/>
		<rect x="358.74" y="227.516" style="clip-path:url(#SVGID_2_);fill:#733F1F;" width="4.066" height="2.041"/>
		<rect x="362.807" y="227.516" style="clip-path:url(#SVGID_2_);fill:none;" width="2.033" height="2.041"/>
		<rect x="350.609" y="227.516" style="clip-path:url(#SVGID_2_);fill:none;" width="2.033" height="2.041"/>
		<rect x="366.873" y="227.516" style="clip-path:url(#SVGID_2_);fill:#733F1F;" width="4.065" height="2.041"/>
		<rect x="372.972" y="227.516" style="clip-path:url(#SVGID_2_);fill:#733F1F;" width="4.066" height="2.041"/>
		<rect x="377.038" y="227.516" style="clip-path:url(#SVGID_2_);fill:none;" width="2.033" height="2.041"/>
		<rect x="364.84" y="227.516" style="clip-path:url(#SVGID_2_);fill:none;" width="2.033" height="2.041"/>
		<path style="clip-path:url(#SVGID_2_);fill:#733F1F;" d="M384.986,229.815c0,0-0.237-0.036-0.593-0.091
			c-0.354-0.073-0.833-0.101-1.312-0.118c-0.935-0.069-1.977-0.049-1.977-0.049v-2.041c0,0,0.993-0.023,2.088,0.053
			c0.537,0.02,1.072,0.053,1.469,0.132c0.397,0.062,0.663,0.103,0.663,0.103L384.986,229.815z"/>
		<path style="clip-path:url(#SVGID_2_);fill:#733F1F;" d="M390.394,231.688c0,0-0.208-0.119-0.535-0.27
			c-0.326-0.15-0.75-0.378-1.192-0.562c-0.45-0.165-0.9-0.33-1.238-0.454c-0.167-0.066-0.312-0.104-0.414-0.129
			c-0.102-0.025-0.159-0.041-0.159-0.041l0.562-1.961c0,0,0.066,0.018,0.18,0.047c0.114,0.027,0.276,0.069,0.464,0.145
			c0.378,0.139,0.882,0.323,1.387,0.508c0.495,0.206,0.971,0.458,1.336,0.627c0.364,0.172,0.598,0.305,0.598,0.305L390.394,231.688z
			"/>
		<path style="clip-path:url(#SVGID_2_);fill:none;" d="M390.394,231.688c0,0,1.65,0.98,1.618,1.028l1.181-1.664
			c0.034-0.05-1.812-1.15-1.812-1.15L390.394,231.688z"/>
		<rect x="379.072" y="227.516" style="clip-path:url(#SVGID_2_);fill:none;" width="2.032" height="2.041"/>
		<path style="clip-path:url(#SVGID_2_);fill:#733F1F;" d="M396.069,236.763c0,0-0.144-0.192-0.359-0.48
			c-0.108-0.143-0.233-0.312-0.368-0.493c-0.151-0.166-0.314-0.344-0.475-0.52c-0.326-0.352-0.633-0.725-0.913-0.951
			c-0.267-0.242-0.444-0.404-0.444-0.404l1.358-1.522c0,0,0.198,0.181,0.496,0.452c0.311,0.256,0.657,0.668,1.021,1.062
			c0.181,0.198,0.36,0.397,0.529,0.584c0.151,0.201,0.292,0.389,0.413,0.549c0.241,0.322,0.402,0.537,0.402,0.537L396.069,236.763z"
			/>
		<path style="clip-path:url(#SVGID_2_);fill:#733F1F;" d="M398.57,241.912c0,0-0.015-0.059-0.041-0.16
			c-0.021-0.104-0.068-0.245-0.134-0.412c-0.124-0.338-0.289-0.789-0.454-1.238c-0.192-0.439-0.413-0.865-0.565-1.191
			c-0.078-0.162-0.143-0.297-0.188-0.392c-0.055-0.089-0.086-0.141-0.086-0.141l1.782-0.993c0,0,0.035,0.059,0.096,0.158
			c0.052,0.105,0.125,0.257,0.213,0.438c0.172,0.364,0.417,0.843,0.633,1.334c0.185,0.504,0.37,1.009,0.509,1.387
			c0.072,0.188,0.125,0.348,0.15,0.463c0.029,0.113,0.046,0.179,0.046,0.179L398.57,241.912z"/>
		<path style="clip-path:url(#SVGID_2_);fill:none;" d="M398.57,241.912c0,0,0.119,0.465,0.239,0.928
			c0.064,0.232,0.121,0.465,0.14,0.644c0.026,0.179,0.044,0.297,0.044,0.297l2.012-0.345c0,0-0.021-0.133-0.052-0.332
			c-0.022-0.201-0.085-0.461-0.155-0.721c-0.134-0.52-0.268-1.04-0.268-1.04L398.57,241.912z"/>
		<path style="clip-path:url(#SVGID_2_);fill:none;" d="M393.509,233.914c0,0-0.089-0.08-0.222-0.201
			c-0.132-0.123-0.309-0.285-0.507-0.422c-0.384-0.287-0.769-0.575-0.769-0.575l1.181-1.664c0,0,0.43,0.321,0.859,0.643
			c0.221,0.153,0.42,0.334,0.566,0.471c0.149,0.136,0.249,0.226,0.249,0.226L393.509,233.914z"/>
		<path style="clip-path:url(#SVGID_2_);fill:#733F1F;" d="M399.258,249.69c0,0,0-1.016,0-2.032
			c0.021-1.041-0.052-1.974-0.052-1.974l2.037-0.117c0,0,0.077,1.098,0.056,2.091c0,1.017,0,2.032,0,2.032H399.258z"/>
		<rect x="399.258" y="251.723" style="clip-path:url(#SVGID_2_);fill:#733F1F;" width="2.041" height="4.066"/>
		<rect x="399.258" y="255.789" style="clip-path:url(#SVGID_2_);fill:none;" width="2.041" height="2.033"/>
		<path style="clip-path:url(#SVGID_2_);fill:none;" d="M399.206,245.684c0,0-0.006-0.119-0.015-0.299
			c-0.015-0.18-0.004-0.422-0.053-0.657c-0.073-0.474-0.147-0.947-0.147-0.947l2.012-0.345c0,0,0.081,0.53,0.162,1.062
			c0.052,0.265,0.043,0.534,0.061,0.734c0.011,0.201,0.017,0.335,0.017,0.335L399.206,245.684z"/>
		<rect x="399.258" y="259.856" style="clip-path:url(#SVGID_2_);fill:#733F1F;" width="2.041" height="4.066"/>
		<rect x="399.258" y="265.955" style="clip-path:url(#SVGID_2_);fill:#733F1F;" width="2.041" height="4.065"/>
		<rect x="399.258" y="270.021" style="clip-path:url(#SVGID_2_);fill:none;" width="2.041" height="2.033"/>
		<rect x="399.258" y="257.823" style="clip-path:url(#SVGID_2_);fill:none;" width="2.041" height="2.033"/>
		<rect x="399.258" y="274.086" style="clip-path:url(#SVGID_2_);fill:#733F1F;" width="2.041" height="4.066"/>
		<rect x="399.258" y="280.186" style="clip-path:url(#SVGID_2_);fill:#733F1F;" width="2.041" height="4.067"/>
		<rect x="399.258" y="284.252" style="clip-path:url(#SVGID_2_);fill:none;" width="2.041" height="2.033"/>
		<rect x="399.258" y="272.054" style="clip-path:url(#SVGID_2_);fill:none;" width="2.041" height="2.032"/>
		<rect x="399.258" y="288.319" style="clip-path:url(#SVGID_2_);fill:#733F1F;" width="2.041" height="4.065"/>
		<rect x="399.258" y="294.418" style="clip-path:url(#SVGID_2_);fill:#733F1F;" width="2.041" height="4.064"/>
		<rect x="399.258" y="298.483" style="clip-path:url(#SVGID_2_);fill:none;" width="2.041" height="2.033"/>
		<rect x="399.258" y="286.285" style="clip-path:url(#SVGID_2_);fill:none;" width="2.041" height="2.033"/>
		<rect x="399.258" y="302.549" style="clip-path:url(#SVGID_2_);fill:#733F1F;" width="2.041" height="4.066"/>
		<rect x="399.258" y="308.649" style="clip-path:url(#SVGID_2_);fill:#733F1F;" width="2.041" height="4.066"/>
		<rect x="399.258" y="312.715" style="clip-path:url(#SVGID_2_);fill:none;" width="2.041" height="2.033"/>
		<rect x="399.258" y="300.516" style="clip-path:url(#SVGID_2_);fill:none;" width="2.041" height="2.033"/>
		<rect x="399.258" y="316.781" style="clip-path:url(#SVGID_2_);fill:#733F1F;" width="2.041" height="4.066"/>
		<rect x="399.258" y="322.879" style="clip-path:url(#SVGID_2_);fill:#733F1F;" width="2.041" height="4.066"/>
		<rect x="399.258" y="326.946" style="clip-path:url(#SVGID_2_);fill:none;" width="2.041" height="2.033"/>
		<rect x="399.258" y="314.748" style="clip-path:url(#SVGID_2_);fill:none;" width="2.041" height="2.032"/>
		<rect x="399.258" y="331.012" style="clip-path:url(#SVGID_2_);fill:#733F1F;" width="2.041" height="4.066"/>
		<rect x="399.258" y="337.112" style="clip-path:url(#SVGID_2_);fill:#733F1F;" width="2.041" height="4.065"/>
		<rect x="399.258" y="341.177" style="clip-path:url(#SVGID_2_);fill:none;" width="2.041" height="2.033"/>
		<rect x="399.258" y="328.979" style="clip-path:url(#SVGID_2_);fill:none;" width="2.041" height="2.033"/>
		<rect x="399.258" y="345.243" style="clip-path:url(#SVGID_2_);fill:#733F1F;" width="2.041" height="4.065"/>
		<rect x="399.258" y="351.342" style="clip-path:url(#SVGID_2_);fill:#733F1F;" width="2.041" height="4.066"/>
		<rect x="399.258" y="355.409" style="clip-path:url(#SVGID_2_);fill:none;" width="2.041" height="2.033"/>
		<rect x="399.258" y="343.21" style="clip-path:url(#SVGID_2_);fill:none;" width="2.041" height="2.033"/>
		<rect x="399.258" y="359.475" style="clip-path:url(#SVGID_2_);fill:#733F1F;" width="2.041" height="4.066"/>
		<rect x="399.258" y="365.574" style="clip-path:url(#SVGID_2_);fill:#733F1F;" width="2.041" height="4.066"/>
		<rect x="399.258" y="369.64" style="clip-path:url(#SVGID_2_);fill:none;" width="2.041" height="2.032"/>
		<rect x="399.258" y="357.442" style="clip-path:url(#SVGID_2_);fill:none;" width="2.041" height="2.033"/>
		<rect x="399.258" y="373.705" style="clip-path:url(#SVGID_2_);fill:#733F1F;" width="2.041" height="4.066"/>
		<path style="clip-path:url(#SVGID_2_);fill:#733F1F;" d="M398.414,383.461c0,0,0.09-0.223,0.169-0.574
			c0.09-0.348,0.209-0.812,0.328-1.276c0.072-0.474,0.145-0.948,0.199-1.304c0.065-0.354,0.069-0.595,0.069-0.595l2.032,0.182
			c0,0-0.006,0.268-0.077,0.665c-0.061,0.398-0.143,0.93-0.224,1.46c-0.134,0.521-0.267,1.04-0.366,1.431
			c-0.092,0.393-0.191,0.643-0.191,0.644L398.414,383.461z"/>
		<path style="clip-path:url(#SVGID_2_);fill:none;" d="M398.414,383.461c0,0-0.649,1.805-0.702,1.783l1.857,0.846
			c0.056,0.023,0.784-1.998,0.785-1.997L398.414,383.461z"/>
		<rect x="399.258" y="371.672" style="clip-path:url(#SVGID_2_);fill:none;" width="2.041" height="2.033"/>
		<path style="clip-path:url(#SVGID_2_);fill:#733F1F;" d="M394.501,389.987c0,0,0.161-0.178,0.403-0.443
			c0.121-0.133,0.263-0.289,0.414-0.455c0.135-0.18,0.28-0.371,0.425-0.562c0.606-0.746,1.074-1.586,1.074-1.586l1.751,1.048
			c0,0-0.526,0.939-1.203,1.776c-0.162,0.213-0.324,0.427-0.476,0.627c-0.17,0.188-0.327,0.361-0.462,0.51
			c-0.271,0.297-0.452,0.496-0.452,0.496L394.501,389.987z"/>
		<path style="clip-path:url(#SVGID_2_);fill:#733F1F;" d="M389.91,393.411c0,0,0.054-0.026,0.147-0.071
			c0.095-0.047,0.233-0.103,0.384-0.204c0.308-0.186,0.718-0.436,1.127-0.685c0.401-0.264,0.773-0.57,1.064-0.779
			c0.292-0.212,0.475-0.367,0.475-0.367l1.309,1.564c0,0-0.203,0.174-0.528,0.412c-0.326,0.236-0.743,0.576-1.191,0.87
			c-0.459,0.278-0.917,0.558-1.262,0.767c-0.169,0.111-0.323,0.176-0.429,0.228c-0.105,0.052-0.166,0.08-0.166,0.08L389.91,393.411z
			"/>
		<path style="clip-path:url(#SVGID_2_);fill:none;" d="M389.91,393.411c0,0-0.433,0.208-0.864,0.417
			c-0.212,0.113-0.439,0.191-0.608,0.252c-0.169,0.061-0.281,0.103-0.281,0.103l0.72,1.909c0,0,0.126-0.047,0.315-0.115
			c0.189-0.069,0.442-0.158,0.681-0.283c0.484-0.233,0.968-0.467,0.968-0.467L389.91,393.411z"/>
		<path style="clip-path:url(#SVGID_2_);fill:none;" d="M396.818,386.94c0,0,0.062-0.104,0.156-0.257
			c0.092-0.154,0.228-0.353,0.322-0.575c0.208-0.432,0.416-0.863,0.416-0.863l1.857,0.846c0,0-0.234,0.484-0.468,0.967
			c-0.107,0.248-0.257,0.471-0.359,0.645c-0.104,0.172-0.174,0.286-0.174,0.286L396.818,386.94z"/>
		<path style="clip-path:url(#SVGID_2_);fill:#733F1F;" d="M382.537,395.276c0,0,0.24-0.012,0.599-0.031
			c0.36-0.015,0.841-0.029,1.312-0.123c0.472-0.081,0.951-0.127,1.3-0.215c0.349-0.091,0.58-0.15,0.58-0.15l0.5,1.978
			c0,0-0.26,0.066-0.65,0.166c-0.391,0.098-0.926,0.154-1.455,0.242c-0.529,0.102-1.066,0.121-1.469,0.139
			c-0.401,0.021-0.67,0.034-0.67,0.034L382.537,395.276z"/>
		<rect x="376.462" y="395.297" style="clip-path:url(#SVGID_2_);fill:#733F1F;" width="4.066" height="2.04"/>
		<rect x="374.429" y="395.297" style="clip-path:url(#SVGID_2_);fill:none;" width="2.033" height="2.04"/>
		<path style="clip-path:url(#SVGID_2_);fill:none;" d="M386.328,394.756c0,0,0.464-0.121,0.928-0.242
			c0.45-0.166,0.9-0.331,0.9-0.331l0.72,1.909c0,0-0.504,0.185-1.009,0.369c-0.52,0.137-1.039,0.273-1.039,0.273L386.328,394.756z"
			/>
		<rect x="368.33" y="395.297" style="clip-path:url(#SVGID_2_);fill:#733F1F;" width="4.066" height="2.04"/>
		<rect x="362.231" y="395.297" style="clip-path:url(#SVGID_2_);fill:#733F1F;" width="4.066" height="2.04"/>
		<rect x="360.198" y="395.297" style="clip-path:url(#SVGID_2_);fill:none;" width="2.032" height="2.04"/>
		<rect x="372.397" y="395.297" style="clip-path:url(#SVGID_2_);fill:none;" width="2.032" height="2.04"/>
		<rect x="354.099" y="395.297" style="clip-path:url(#SVGID_2_);fill:#733F1F;" width="4.066" height="2.04"/>
		<rect x="348" y="395.297" style="clip-path:url(#SVGID_2_);fill:#733F1F;" width="4.065" height="2.04"/>
		<rect x="345.967" y="395.297" style="clip-path:url(#SVGID_2_);fill:none;" width="2.033" height="2.04"/>
		<rect x="358.165" y="395.297" style="clip-path:url(#SVGID_2_);fill:none;" width="2.033" height="2.04"/>
		<rect x="339.867" y="395.297" style="clip-path:url(#SVGID_2_);fill:#733F1F;" width="4.066" height="2.04"/>
		<rect x="333.769" y="395.297" style="clip-path:url(#SVGID_2_);fill:#733F1F;" width="4.065" height="2.04"/>
		<rect x="331.736" y="395.297" style="clip-path:url(#SVGID_2_);fill:none;" width="2.033" height="2.04"/>
		<rect x="343.934" y="395.297" style="clip-path:url(#SVGID_2_);fill:none;" width="2.033" height="2.04"/>
		<rect x="325.636" y="395.297" style="clip-path:url(#SVGID_2_);fill:#733F1F;" width="4.066" height="2.04"/>
		<rect x="319.537" y="395.297" style="clip-path:url(#SVGID_2_);fill:#733F1F;" width="4.066" height="2.04"/>
		<rect x="317.504" y="395.297" style="clip-path:url(#SVGID_2_);fill:none;" width="2.033" height="2.04"/>
		<rect x="329.702" y="395.297" style="clip-path:url(#SVGID_2_);fill:none;" width="2.033" height="2.04"/>
		<rect x="311.405" y="395.297" style="clip-path:url(#SVGID_2_);fill:#733F1F;" width="4.065" height="2.04"/>
		<rect x="305.307" y="395.297" style="clip-path:url(#SVGID_2_);fill:#733F1F;" width="4.065" height="2.04"/>
		<rect x="303.274" y="395.297" style="clip-path:url(#SVGID_2_);fill:none;" width="2.033" height="2.04"/>
		<rect x="315.471" y="395.297" style="clip-path:url(#SVGID_2_);fill:none;" width="2.033" height="2.04"/>
		<rect x="297.174" y="395.297" style="clip-path:url(#SVGID_2_);fill:#733F1F;" width="4.066" height="2.04"/>
		<rect x="291.075" y="395.297" style="clip-path:url(#SVGID_2_);fill:#733F1F;" width="4.065" height="2.04"/>
		<rect x="289.042" y="395.297" style="clip-path:url(#SVGID_2_);fill:none;" width="2.033" height="2.04"/>
		<rect x="301.24" y="395.297" style="clip-path:url(#SVGID_2_);fill:none;" width="2.033" height="2.04"/>
		<rect x="282.943" y="395.297" style="clip-path:url(#SVGID_2_);fill:#733F1F;" width="4.066" height="2.04"/>
		<rect x="276.844" y="395.297" style="clip-path:url(#SVGID_2_);fill:#733F1F;" width="4.066" height="2.04"/>
		<rect x="274.811" y="395.297" style="clip-path:url(#SVGID_2_);fill:none;" width="2.033" height="2.04"/>
		<rect x="287.009" y="395.297" style="clip-path:url(#SVGID_2_);fill:none;" width="2.033" height="2.04"/>
		<rect x="268.712" y="395.297" style="clip-path:url(#SVGID_2_);fill:#733F1F;" width="4.065" height="2.04"/>
		<rect x="262.612" y="395.297" style="clip-path:url(#SVGID_2_);fill:#733F1F;" width="4.066" height="2.04"/>
		<rect x="260.579" y="395.297" style="clip-path:url(#SVGID_2_);fill:none;" width="2.033" height="2.04"/>
		<rect x="272.778" y="395.297" style="clip-path:url(#SVGID_2_);fill:none;" width="2.033" height="2.04"/>
		<rect x="254.481" y="395.297" style="clip-path:url(#SVGID_2_);fill:#733F1F;" width="4.065" height="2.04"/>
		<rect x="248.381" y="395.297" style="clip-path:url(#SVGID_2_);fill:#733F1F;" width="4.066" height="2.04"/>
		<rect x="246.348" y="395.297" style="clip-path:url(#SVGID_2_);fill:none;" width="2.033" height="2.04"/>
		<rect x="258.546" y="395.297" style="clip-path:url(#SVGID_2_);fill:none;" width="2.033" height="2.04"/>
		<rect x="240.249" y="395.297" style="clip-path:url(#SVGID_2_);fill:#733F1F;" width="4.066" height="2.04"/>
		<rect x="234.15" y="395.297" style="clip-path:url(#SVGID_2_);fill:#733F1F;" width="4.067" height="2.04"/>
		<rect x="232.117" y="395.297" style="clip-path:url(#SVGID_2_);fill:none;" width="2.032" height="2.04"/>
		<rect x="244.316" y="395.297" style="clip-path:url(#SVGID_2_);fill:none;" width="2.032" height="2.04"/>
		<rect x="226.018" y="395.297" style="clip-path:url(#SVGID_2_);fill:#733F1F;" width="4.066" height="2.04"/>
		<rect x="219.919" y="395.297" style="clip-path:url(#SVGID_2_);fill:#733F1F;" width="4.065" height="2.04"/>
		<rect x="217.886" y="395.297" style="clip-path:url(#SVGID_2_);fill:none;" width="2.033" height="2.04"/>
		<rect x="230.084" y="395.297" style="clip-path:url(#SVGID_2_);fill:none;" width="2.033" height="2.04"/>
		<rect x="211.786" y="395.297" style="clip-path:url(#SVGID_2_);fill:#733F1F;" width="4.066" height="2.04"/>
		<rect x="205.688" y="395.297" style="clip-path:url(#SVGID_2_);fill:#733F1F;" width="4.065" height="2.04"/>
		<rect x="203.654" y="395.297" style="clip-path:url(#SVGID_2_);fill:none;" width="2.033" height="2.04"/>
		<rect x="215.853" y="395.297" style="clip-path:url(#SVGID_2_);fill:none;" width="2.033" height="2.04"/>
		<rect x="197.555" y="395.297" style="clip-path:url(#SVGID_2_);fill:#733F1F;" width="4.066" height="2.04"/>
		<rect x="191.456" y="395.297" style="clip-path:url(#SVGID_2_);fill:#733F1F;" width="4.066" height="2.04"/>
		<rect x="189.423" y="395.297" style="clip-path:url(#SVGID_2_);fill:none;" width="2.033" height="2.04"/>
		<rect x="201.621" y="395.297" style="clip-path:url(#SVGID_2_);fill:none;" width="2.033" height="2.04"/>
		<rect x="183.324" y="395.297" style="clip-path:url(#SVGID_2_);fill:#733F1F;" width="4.065" height="2.04"/>
		<rect x="177.225" y="395.297" style="clip-path:url(#SVGID_2_);fill:#733F1F;" width="4.066" height="2.04"/>
		<rect x="175.192" y="395.297" style="clip-path:url(#SVGID_2_);fill:none;" width="2.033" height="2.04"/>
		<rect x="187.39" y="395.297" style="clip-path:url(#SVGID_2_);fill:none;" width="2.033" height="2.04"/>
		<rect x="169.093" y="395.297" style="clip-path:url(#SVGID_2_);fill:#733F1F;" width="4.065" height="2.04"/>
		<rect x="162.993" y="395.297" style="clip-path:url(#SVGID_2_);fill:#733F1F;" width="4.066" height="2.04"/>
		<rect x="160.96" y="395.297" style="clip-path:url(#SVGID_2_);fill:none;" width="2.033" height="2.04"/>
		<rect x="173.158" y="395.297" style="clip-path:url(#SVGID_2_);fill:none;" width="2.033" height="2.04"/>
		<rect x="154.862" y="395.297" style="clip-path:url(#SVGID_2_);fill:#733F1F;" width="4.066" height="2.04"/>
		<rect x="148.762" y="395.297" style="clip-path:url(#SVGID_2_);fill:#733F1F;" width="4.067" height="2.04"/>
		<rect x="146.73" y="395.297" style="clip-path:url(#SVGID_2_);fill:none;" width="2.032" height="2.04"/>
		<rect x="158.928" y="395.297" style="clip-path:url(#SVGID_2_);fill:none;" width="2.032" height="2.04"/>
		<rect x="140.63" y="395.297" style="clip-path:url(#SVGID_2_);fill:#733F1F;" width="4.066" height="2.04"/>
		<rect x="134.531" y="395.297" style="clip-path:url(#SVGID_2_);fill:#733F1F;" width="4.065" height="2.04"/>
		<rect x="132.498" y="395.297" style="clip-path:url(#SVGID_2_);fill:none;" width="2.033" height="2.04"/>
		<rect x="144.696" y="395.297" style="clip-path:url(#SVGID_2_);fill:none;" width="2.033" height="2.04"/>
		<path style="clip-path:url(#SVGID_2_);fill:#733F1F;" d="M126.673,394.889c0,0,0.23,0.059,0.581,0.122
			c0.349,0.079,0.816,0.154,1.289,0.197c0.47,0.073,0.945,0.057,1.3,0.081c0.355,0.014,0.622,0.008,0.622,0.008v2.04
			c0,0-0.241,0.007-0.648-0.007c-0.405-0.025-0.951-0.012-1.488-0.094c-0.541-0.049-1.076-0.136-1.473-0.225
			c-0.399-0.072-0.661-0.14-0.661-0.14L126.673,394.889z"/>
		<path style="clip-path:url(#SVGID_2_);fill:#733F1F;" d="M121.4,392.606c-0.001,0,0.823,0.521,1.689,0.947
			c0.858,0.443,1.76,0.775,1.76,0.775l-0.714,1.91c0,0-1.012-0.371-1.959-0.861c-0.959-0.473-1.855-1.039-1.855-1.039L121.4,392.606
			z"/>
		<path style="clip-path:url(#SVGID_2_);fill:none;" d="M121.4,392.606c0,0-0.409-0.264-0.818-0.528
			c-0.397-0.284-0.795-0.569-0.795-0.569l-1.214,1.641c0,0,0.43,0.307,0.858,0.613c0.444,0.289,0.89,0.576,0.89,0.576L121.4,392.606
			z"/>
		<rect x="130.465" y="395.297" style="clip-path:url(#SVGID_2_);fill:none;" width="2.033" height="2.04"/>
		<path style="clip-path:url(#SVGID_2_);fill:#733F1F;" d="M115.398,387.551c0,0,0.171,0.181,0.426,0.451
			c0.263,0.262,0.614,0.611,0.965,0.96c0.715,0.685,1.465,1.321,1.465,1.321l-1.323,1.553c0,0-0.8-0.679-1.554-1.401
			c-0.37-0.368-0.74-0.736-1.017-1.012c-0.269-0.284-0.447-0.474-0.447-0.474L115.398,387.551z"/>
		<path style="clip-path:url(#SVGID_2_);fill:#733F1F;" d="M111.582,382.952c0,0,0.593,0.806,1.215,1.587
			c0.624,0.778,1.271,1.535,1.271,1.535l-1.546,1.332c0,0-0.675-0.789-1.321-1.598c-0.646-0.809-1.257-1.641-1.258-1.641
			L111.582,382.952z"/>
		<path style="clip-path:url(#SVGID_2_);fill:none;" d="M111.582,382.952c0,0-0.306-0.396-0.591-0.808
			c-0.289-0.408-0.578-0.816-0.578-0.816l-1.676,1.164c0,0,0.298,0.421,0.597,0.842c0.293,0.424,0.608,0.834,0.608,0.834
			L111.582,382.952z"/>
		<path style="clip-path:url(#SVGID_2_);fill:none;" d="M118.253,390.283c0,0,0.367,0.328,0.758,0.625
			c0.384,0.307,0.775,0.6,0.775,0.6l-1.214,1.641c0,0-0.422-0.316-0.833-0.645c-0.419-0.318-0.81-0.668-0.81-0.668L118.253,390.283z
			"/>
		<path style="clip-path:url(#SVGID_2_);fill:#733F1F;" d="M107.173,376.252c0,0,0.505,0.87,1.042,1.719
			c0.522,0.858,1.078,1.693,1.078,1.693l-1.707,1.119c0,0-0.57-0.858-1.105-1.736c-0.55-0.87-1.065-1.758-1.065-1.758
			L107.173,376.252z"/>
		<path style="clip-path:url(#SVGID_2_);fill:#733F1F;" d="M104.259,370.961c0,0,0.47,0.891,0.94,1.782
			c0.484,0.884,0.97,1.765,0.97,1.765l-1.778,1.002c0,0-0.494-0.9-0.988-1.799c-0.478-0.906-0.956-1.814-0.956-1.814
			L104.259,370.961z"/>
		<polygon style="clip-path:url(#SVGID_2_);fill:none;" points="104.259,370.961 103.347,369.162 101.519,370.069 102.445,371.897 
					"/>
		<path style="clip-path:url(#SVGID_2_);fill:none;" d="M109.293,379.664c0,0,0.278,0.418,0.556,0.835
			c0.282,0.415,0.564,0.829,0.564,0.829l-1.676,1.164c0,0-0.29-0.426-0.58-0.852c-0.285-0.43-0.571-0.857-0.571-0.857
			L109.293,379.664z"/>
		<path style="clip-path:url(#SVGID_2_);fill:#733F1F;" d="M100.773,363.68c0,0,0.417,0.92,0.834,1.84
			c0.429,0.914,0.856,1.828,0.856,1.828l-1.841,0.88c0,0-0.435-0.927-0.869-1.854c-0.422-0.932-0.844-1.863-0.844-1.863
			L100.773,363.68z"/>
		<path style="clip-path:url(#SVGID_2_);fill:#733F1F;" d="M98.407,358.098c0,0,0.383,0.935,0.767,1.871
			c0.394,0.93,0.788,1.86,0.788,1.86l-1.874,0.808c0,0-0.399-0.941-0.798-1.883c-0.388-0.947-0.775-1.893-0.775-1.893
			L98.407,358.098z"/>
		<polygon style="clip-path:url(#SVGID_2_);fill:none;" points="98.407,358.098 97.659,356.219 95.759,356.963 96.515,358.862 		"/>
		<polygon style="clip-path:url(#SVGID_2_);fill:none;" points="102.463,367.348 103.347,369.162 101.519,370.069 100.622,368.228 
					"/>
		<polygon style="clip-path:url(#SVGID_2_);fill:#733F1F;" points="95.529,350.535 96.932,354.332 95.024,355.057 93.609,351.224 		
			"/>
		<path style="clip-path:url(#SVGID_2_);fill:#733F1F;" d="M93.561,344.793c0,0,0.319,0.959,0.64,1.92
			c0.328,0.957,0.657,1.914,0.657,1.914l-1.928,0.671c0,0-0.331-0.966-0.663-1.932c-0.322-0.97-0.645-1.939-0.645-1.939
			L93.561,344.793z"/>
		<polygon style="clip-path:url(#SVGID_2_);fill:none;" points="93.561,344.793 92.939,342.866 90.994,343.486 91.622,345.428 		"/>
		<polygon style="clip-path:url(#SVGID_2_);fill:none;" points="96.932,354.332 97.659,356.219 95.759,356.963 95.024,355.057 		"/>
		<path style="clip-path:url(#SVGID_2_);fill:#733F1F;" d="M91.176,337.058c0,0,0.285,0.97,0.569,1.94
			c0.294,0.969,0.588,1.938,0.588,1.938l-1.95,0.602c0,0-0.297-0.978-0.593-1.955c-0.288-0.98-0.575-1.961-0.575-1.961
			L91.176,337.058z"/>
		<path style="clip-path:url(#SVGID_2_);fill:#733F1F;" d="M90.225,331.375c0,0,0,1.016,0,2.032v0.19c0,0.023,0,0.007,0,0.007
			c0.024,0.098,0.048,0.189,0.071,0.276c0.061,0.228,0.118,0.44,0.166,0.623c0.1,0.365,0.166,0.608,0.166,0.608l-1.968,0.541
			c0,0-0.067-0.247-0.168-0.618c-0.05-0.186-0.107-0.402-0.17-0.635c-0.037-0.143-0.075-0.29-0.114-0.44
			c-0.047-0.114-0.014-0.262-0.023-0.363v-0.19c0-1.017,0-2.032,0-2.032H90.225z"/>
		<rect x="88.185" y="329.342" style="clip-path:url(#SVGID_2_);fill:none;" width="2.04" height="2.033"/>
		<polygon style="clip-path:url(#SVGID_2_);fill:none;" points="92.333,340.936 92.939,342.866 90.994,343.486 90.383,341.537 		"/>
		<rect x="88.185" y="323.242" style="clip-path:url(#SVGID_2_);fill:#733F1F;" width="2.04" height="4.066"/>
		<rect x="88.185" y="317.143" style="clip-path:url(#SVGID_2_);fill:#733F1F;" width="2.04" height="4.066"/>
		<rect x="88.185" y="315.11" style="clip-path:url(#SVGID_2_);fill:none;" width="2.04" height="2.033"/>
		<rect x="88.185" y="327.309" style="clip-path:url(#SVGID_2_);fill:none;" width="2.04" height="2.033"/>
		<rect x="88.185" y="309.011" style="clip-path:url(#SVGID_2_);fill:#733F1F;" width="2.04" height="4.066"/>
		<rect x="88.185" y="302.912" style="clip-path:url(#SVGID_2_);fill:#733F1F;" width="2.04" height="4.066"/>
		<rect x="88.185" y="300.879" style="clip-path:url(#SVGID_2_);fill:none;" width="2.04" height="2.033"/>
		<rect x="88.185" y="313.077" style="clip-path:url(#SVGID_2_);fill:none;" width="2.04" height="2.032"/>
		<rect x="88.185" y="294.78" style="clip-path:url(#SVGID_2_);fill:#733F1F;" width="2.04" height="4.066"/>
		<rect x="88.185" y="288.681" style="clip-path:url(#SVGID_2_);fill:#733F1F;" width="2.04" height="4.065"/>
		<rect x="88.185" y="286.648" style="clip-path:url(#SVGID_2_);fill:none;" width="2.04" height="2.033"/>
		<rect x="88.185" y="298.846" style="clip-path:url(#SVGID_2_);fill:none;" width="2.04" height="2.033"/>
		<rect x="88.185" y="280.549" style="clip-path:url(#SVGID_2_);fill:#733F1F;" width="2.04" height="4.065"/>
		<rect x="88.185" y="274.45" style="clip-path:url(#SVGID_2_);fill:#733F1F;" width="2.04" height="4.066"/>
		<rect x="88.185" y="272.416" style="clip-path:url(#SVGID_2_);fill:none;" width="2.04" height="2.033"/>
		<rect x="88.185" y="284.615" style="clip-path:url(#SVGID_2_);fill:none;" width="2.04" height="2.033"/>
		<rect x="88.185" y="266.317" style="clip-path:url(#SVGID_2_);fill:#733F1F;" width="2.04" height="4.066"/>
		<rect x="88.185" y="260.218" style="clip-path:url(#SVGID_2_);fill:#733F1F;" width="2.04" height="4.066"/>
		<rect x="88.185" y="258.186" style="clip-path:url(#SVGID_2_);fill:none;" width="2.04" height="2.032"/>
		<rect x="88.185" y="270.383" style="clip-path:url(#SVGID_2_);fill:none;" width="2.04" height="2.033"/>
		<rect x="88.185" y="252.086" style="clip-path:url(#SVGID_2_);fill:#733F1F;" width="2.04" height="4.066"/>
		<rect x="88.185" y="245.987" style="clip-path:url(#SVGID_2_);fill:#733F1F;" width="2.04" height="4.066"/>
		<rect x="88.185" y="243.953" style="clip-path:url(#SVGID_2_);fill:none;" width="2.04" height="2.033"/>
		<rect x="88.185" y="256.153" style="clip-path:url(#SVGID_2_);fill:none;" width="2.04" height="2.033"/>
		<rect x="88.185" y="237.855" style="clip-path:url(#SVGID_2_);fill:#733F1F;" width="2.04" height="4.065"/>
		<rect x="88.185" y="231.756" style="clip-path:url(#SVGID_2_);fill:#733F1F;" width="2.04" height="4.065"/>
		<rect x="88.185" y="229.723" style="clip-path:url(#SVGID_2_);fill:none;" width="2.04" height="2.033"/>
		<rect x="88.185" y="241.92" style="clip-path:url(#SVGID_2_);fill:none;" width="2.04" height="2.033"/>
		<rect x="88.185" y="223.623" style="clip-path:url(#SVGID_2_);fill:#733F1F;" width="2.04" height="4.067"/>
		<rect x="88.185" y="217.525" style="clip-path:url(#SVGID_2_);fill:#733F1F;" width="2.04" height="4.065"/>
		<rect x="88.185" y="215.492" style="clip-path:url(#SVGID_2_);fill:none;" width="2.04" height="2.032"/>
		<rect x="88.185" y="227.69" style="clip-path:url(#SVGID_2_);fill:none;" width="2.04" height="2.033"/>
		<rect x="88.185" y="209.393" style="clip-path:url(#SVGID_2_);fill:#733F1F;" width="2.04" height="4.066"/>
		<rect x="88.185" y="203.293" style="clip-path:url(#SVGID_2_);fill:#733F1F;" width="2.04" height="4.066"/>
		<rect x="88.185" y="201.26" style="clip-path:url(#SVGID_2_);fill:none;" width="2.04" height="2.033"/>
		<rect x="88.185" y="213.459" style="clip-path:url(#SVGID_2_);fill:none;" width="2.04" height="2.033"/>
	</g>
	<path style="fill:#874B25;" d="M406.324,311.973c0,19.953,17.534,36.277-2.418,36.277h-60.764
		c-19.952,0-36.277-16.324-36.277-36.277l0,0c0-19.951,16.325-36.276,36.277-36.276h60.764
		C399.675,275.697,406.324,292.022,406.324,311.973L406.324,311.973z"/>
	<path style="fill:#9E572B;" d="M425.672,311.973c0-0.234,0.001-0.465,0.002-0.698c0.044-1.96,0.046-4,0.034-6.103
		c0.012-2.103,0.01-4.144-0.034-6.103c-0.001-0.233-0.002-0.465-0.002-0.699c0-12.11,0.659-22.877-3.277-29.475
		c-2.549,4.273-7.02,6.802-14.861,6.802h-59.856c-10.32,0-19.662,4.375-26.285,11.353c-6.18,6.513-9.991,15.292-9.991,24.923
		c0,19.953,16.324,36.277,36.276,36.277h59.856C427.486,348.25,425.672,331.926,425.672,311.973z"/>
	<g>
		<defs>
			<path id="SVGID_3_" d="M425.672,311.973c0-0.234,0.001-0.465,0.002-0.698c0.044-1.96,0.046-4,0.034-6.103
				c0.012-2.103,0.01-4.144-0.034-6.103c-0.001-0.233-0.002-0.465-0.002-0.699c0-12.11,0.659-22.877-3.277-29.475
				c-2.549,4.273-7.02,6.802-14.861,6.802h-59.856c-10.32,0-19.662,4.375-26.285,11.353c-6.18,6.513-9.991,15.292-9.991,24.923
				c0,19.953,16.324,36.277,36.276,36.277h59.856C427.486,348.25,425.672,331.926,425.672,311.973z"/>
		</defs>
		<clipPath id="SVGID_4_">
			<use xlink:href="#SVGID_3_"  style="overflow:visible;"/>
		</clipPath>
		<polygon style="clip-path:url(#SVGID_4_);fill:#733F1F;" points="426.807,281.026 426.752,276.888 428.793,276.84 
			428.848,281.009 		"/>
		<polygon style="clip-path:url(#SVGID_4_);fill:#733F1F;" points="426.817,287.248 426.82,283.098 428.862,283.092 428.858,287.25 
					"/>
		<polygon style="clip-path:url(#SVGID_4_);fill:none;" points="426.817,287.248 426.815,289.323 428.856,289.33 428.858,287.25 		
			"/>
		<path style="clip-path:url(#SVGID_4_);fill:none;" d="M426.752,276.888c0,0-0.006-0.518-0.013-1.034
			c-0.029-0.498-0.059-0.996-0.059-0.996l2.035-0.139c0,0,0.031,0.539,0.063,1.078c0.006,0.521,0.014,1.043,0.014,1.043
			L426.752,276.888z"/>
		
			<rect x="425.737" y="292.46" transform="matrix(-0.0068 1 -1 -0.0068 724.2029 -132.3234)" style="clip-path:url(#SVGID_4_);fill:#733F1F;" width="4.152" height="2.04"/>
		
			<rect x="425.694" y="298.692" transform="matrix(-0.0075 1 -1 -0.0075 730.6973 -125.7883)" style="clip-path:url(#SVGID_4_);fill:#733F1F;" width="4.154" height="2.041"/>
		
			<rect x="426.708" y="301.808" transform="matrix(0.008 -1 1 0.008 121.5075 728.1398)" style="clip-path:url(#SVGID_4_);fill:none;" width="2.076" height="2.04"/>
		
			<rect x="426.794" y="289.344" transform="matrix(-0.0033 1 -1 -0.0033 719.6153 -136.5007)" style="clip-path:url(#SVGID_4_);fill:none;" width="2.076" height="2.041"/>
		
			<rect x="425.627" y="307.001" transform="matrix(-0.008 1 -1 -0.008 739.1328 -117.2078)" style="clip-path:url(#SVGID_4_);fill:#733F1F;" width="4.154" height="2.04"/>
		
			<rect x="425.581" y="313.233" transform="matrix(-0.0068 1 -1 -0.0068 744.8168 -111.2561)" style="clip-path:url(#SVGID_4_);fill:#733F1F;" width="4.156" height="2.041"/>
		
			<rect x="426.601" y="316.347" transform="matrix(0.0047 -1 1 0.0047 108.2593 743.506)" style="clip-path:url(#SVGID_4_);fill:none;" width="2.078" height="2.041"/>
		
			<rect x="426.69" y="303.886" transform="matrix(-0.0085 1 -1 -0.0085 736.2462 -120.2261)" style="clip-path:url(#SVGID_4_);fill:none;" width="2.078" height="2.04"/>
		<polygon style="clip-path:url(#SVGID_4_);fill:#733F1F;" points="426.62,324.649 426.614,320.485 428.655,320.483 428.66,324.627 
					"/>
		<path style="clip-path:url(#SVGID_4_);fill:#733F1F;" d="M426.154,330.277c0,0,0.026-0.052,0.072-0.142
			c0.051-0.089,0.111-0.217,0.17-0.37c0.145-0.308,0.256-0.712,0.311-1.076c0.012-0.247-0.007-0.899-0.017-1.267
			c-0.011-0.396-0.018-0.66-0.018-0.66l2.039-0.094c0,0,0.006,0.254,0.015,0.637c0.002,0.412,0.041,0.797,0.011,1.588
			c-0.087,0.666-0.277,1.264-0.46,1.663c-0.083,0.21-0.161,0.376-0.222,0.484c-0.058,0.112-0.091,0.177-0.091,0.177L426.154,330.277
			z"/>
		<path style="clip-path:url(#SVGID_4_);fill:none;" d="M426.154,330.277c0,0-0.054,0.102-0.135,0.257
			c-0.092,0.151-0.215,0.355-0.338,0.558c-0.136,0.2-0.272,0.399-0.374,0.55c-0.11,0.147-0.185,0.245-0.185,0.245l1.639,1.218
			c0,0,0.082-0.109,0.205-0.275c0.117-0.172,0.272-0.4,0.429-0.63c0.146-0.241,0.292-0.482,0.402-0.663
			c0.101-0.191,0.167-0.318,0.167-0.318L426.154,330.277z"/>
		<polygon style="clip-path:url(#SVGID_4_);fill:none;" points="426.614,320.485 426.614,318.403 428.655,318.41 428.655,320.483 		
			"/>
		<path style="clip-path:url(#SVGID_4_);fill:#733F1F;" d="M420.988,336.246c0,0,0.764-0.669,1.483-1.378
			c0.722-0.708,1.393-1.45,1.393-1.45l1.52,1.362c0,0-0.722,0.798-1.483,1.545c-0.761,0.749-1.559,1.45-1.559,1.45L420.988,336.246z
			"/>
		<path style="clip-path:url(#SVGID_4_);fill:#733F1F;" d="M416.169,339.973c0,0,0.845-0.562,1.659-1.172
			c0.82-0.6,1.608-1.244,1.608-1.244l1.283,1.588c0,0-0.822,0.671-1.679,1.297c-0.849,0.635-1.734,1.225-1.734,1.225
			L416.169,339.973z"/>
		<path style="clip-path:url(#SVGID_4_);fill:none;" d="M416.169,339.973c0,0-0.421,0.283-0.847,0.555
			c-0.43,0.266-0.859,0.53-0.859,0.53l1.046,1.753c0,0,0.453-0.281,0.907-0.561c0.45-0.286,0.891-0.583,0.891-0.583L416.169,339.973
			z"/>
		<path style="clip-path:url(#SVGID_4_);fill:none;" d="M423.864,333.418c0,0,0.338-0.371,0.65-0.756
			c0.32-0.381,0.608-0.776,0.608-0.776l1.639,1.218c0,0-0.325,0.443-0.674,0.857c-0.343,0.422-0.704,0.819-0.704,0.819
			L423.864,333.418z"/>
		<path style="clip-path:url(#SVGID_4_);fill:#733F1F;" d="M409.237,343.149c0.026,0.002,0.221-0.002,0.501-0.035
			c0.304-0.051,0.739-0.148,1.187-0.315c0.895-0.312,1.785-0.775,1.785-0.775l0.914,1.824c0,0-0.954,0.503-2.023,0.876
			c-0.527,0.195-1.106,0.338-1.571,0.41c-0.491,0.061-0.818,0.057-0.792,0.057V343.149z"/>
		<rect x="403.005" y="343.149" style="clip-path:url(#SVGID_4_);fill:#733F1F;" width="4.154" height="2.041"/>
		<rect x="400.928" y="343.149" style="clip-path:url(#SVGID_4_);fill:none;" width="2.077" height="2.041"/>
		<path style="clip-path:url(#SVGID_4_);fill:none;" d="M412.709,342.023c0,0,0.443-0.222,0.883-0.464
			c0.436-0.25,0.871-0.501,0.871-0.501l1.046,1.753c0,0-0.465,0.267-0.931,0.533c-0.47,0.261-0.955,0.503-0.955,0.503
			L412.709,342.023z"/>
		<rect x="394.696" y="343.149" style="clip-path:url(#SVGID_4_);fill:#733F1F;" width="4.153" height="2.041"/>
		<rect x="388.464" y="343.149" style="clip-path:url(#SVGID_4_);fill:#733F1F;" width="4.154" height="2.041"/>
		<rect x="386.387" y="343.149" style="clip-path:url(#SVGID_4_);fill:none;" width="2.077" height="2.041"/>
		<rect x="398.85" y="343.149" style="clip-path:url(#SVGID_4_);fill:none;" width="2.078" height="2.041"/>
		<rect x="380.155" y="343.149" style="clip-path:url(#SVGID_4_);fill:#733F1F;" width="4.154" height="2.041"/>
		<rect x="373.924" y="343.149" style="clip-path:url(#SVGID_4_);fill:#733F1F;" width="4.154" height="2.041"/>
		<rect x="371.847" y="343.149" style="clip-path:url(#SVGID_4_);fill:none;" width="2.077" height="2.041"/>
		<rect x="384.31" y="343.149" style="clip-path:url(#SVGID_4_);fill:none;" width="2.077" height="2.041"/>
		<rect x="365.615" y="343.149" style="clip-path:url(#SVGID_4_);fill:#733F1F;" width="4.154" height="2.041"/>
		<rect x="359.384" y="343.149" style="clip-path:url(#SVGID_4_);fill:#733F1F;" width="4.154" height="2.041"/>
		<rect x="357.307" y="343.149" style="clip-path:url(#SVGID_4_);fill:none;" width="2.077" height="2.041"/>
		<rect x="369.77" y="343.149" style="clip-path:url(#SVGID_4_);fill:none;" width="2.077" height="2.041"/>
		<rect x="351.074" y="343.149" style="clip-path:url(#SVGID_4_);fill:#733F1F;" width="4.154" height="2.041"/>
		<path style="clip-path:url(#SVGID_4_);fill:#733F1F;" d="M344.939,343.008c0,0,1.004,0.051,2.007,0.102
			c0.496,0.035,1.008,0.047,1.403,0.039c0.39,0,0.648,0,0.648,0v2.041c0,0-0.259,0-0.648,0c-0.385,0.008-0.911-0.004-1.452-0.039
			c-1.07-0.056-2.142-0.111-2.142-0.111L344.939,343.008z"/>
		<path style="clip-path:url(#SVGID_4_);fill:none;" d="M344.939,343.008c-0.007,0.062-1.99-0.27-1.99-0.27l-0.317,2.016
			c0,0,2.117,0.351,2.124,0.285L344.939,343.008z"/>
		<rect x="355.229" y="343.149" style="clip-path:url(#SVGID_4_);fill:none;" width="2.078" height="2.041"/>
		<path style="clip-path:url(#SVGID_4_);fill:#733F1F;" d="M337.133,341.215c0,0,0.235,0.088,0.588,0.219
			c0.355,0.126,0.817,0.33,1.31,0.435c0.973,0.254,1.944,0.508,1.944,0.508l-0.452,1.99c0,0-1.037-0.272-2.075-0.543
			c-0.525-0.114-1.019-0.33-1.398-0.463c-0.377-0.141-0.628-0.234-0.628-0.234L337.133,341.215z"/>
		<path style="clip-path:url(#SVGID_4_);fill:#733F1F;" d="M331.73,338.571c0,0,0.214,0.133,0.535,0.33
			c0.325,0.189,0.735,0.486,1.198,0.685c0.903,0.441,1.807,0.883,1.807,0.883l-0.837,1.861c0,0-0.964-0.471-1.927-0.941
			c-0.493-0.217-0.932-0.529-1.279-0.73c-0.342-0.211-0.57-0.352-0.57-0.352L331.73,338.571z"/>
		<path style="clip-path:url(#SVGID_4_);fill:none;" d="M331.73,338.571c0,0-0.428-0.263-0.856-0.525
			c-0.217-0.129-0.429-0.264-0.574-0.385c-0.149-0.113-0.25-0.19-0.25-0.19l-1.184,1.662c0,0,0.106,0.08,0.268,0.201
			c0.155,0.129,0.381,0.272,0.611,0.41c0.456,0.281,0.912,0.562,0.912,0.562L331.73,338.571z"/>
		<path style="clip-path:url(#SVGID_4_);fill:none;" d="M340.975,342.377c0,0,0.48,0.153,0.982,0.209
			c0.496,0.076,0.992,0.152,0.992,0.152l-0.317,2.016c0,0-0.53-0.082-1.06-0.165c-0.535-0.062-1.049-0.222-1.049-0.222
			L340.975,342.377z"/>
		<path style="clip-path:url(#SVGID_4_);fill:#733F1F;" d="M325.506,333.517c0,0,0.168,0.187,0.42,0.468
			c0.277,0.256,0.646,0.598,1.016,0.939c0.37,0.341,0.74,0.681,1.019,0.936c0.135,0.131,0.256,0.231,0.347,0.293
			c0.088,0.066,0.139,0.105,0.139,0.105l-1.289,1.582c0,0-0.054-0.041-0.147-0.111c-0.097-0.068-0.226-0.174-0.37-0.314
			c-0.297-0.272-0.691-0.633-1.086-0.995c-0.393-0.364-0.793-0.722-1.08-1.001c-0.27-0.299-0.448-0.498-0.448-0.498L325.506,333.517
			z"/>
		<path style="clip-path:url(#SVGID_4_);fill:#733F1F;" d="M321.806,328.766c0,0,0.129,0.215,0.324,0.538
			c0.199,0.319,0.519,0.711,0.812,1.118c0.299,0.404,0.599,0.809,0.823,1.111c0.216,0.311,0.395,0.488,0.395,0.488l-1.569,1.307
			c0,0-0.189-0.191-0.419-0.522c-0.24-0.322-0.56-0.752-0.879-1.183c-0.314-0.434-0.65-0.853-0.863-1.192
			c-0.208-0.344-0.347-0.572-0.347-0.572L321.806,328.766z"/>
		<polygon style="clip-path:url(#SVGID_4_);fill:none;" points="321.806,328.766 320.765,327.043 318.976,328.024 320.083,329.86 		
			"/>
		<polygon style="clip-path:url(#SVGID_4_);fill:none;" points="328.445,336.258 330.049,337.471 328.865,339.133 327.156,337.84 		
			"/>
		<path style="clip-path:url(#SVGID_4_);fill:#733F1F;" d="M318.397,321.504c0,0,0.345,0.945,0.689,1.889
			c0.165,0.477,0.343,0.946,0.522,1.279c0.163,0.34,0.272,0.566,0.272,0.566l-1.85,0.862c0,0-0.115-0.241-0.289-0.604
			c-0.189-0.355-0.38-0.855-0.557-1.361c-0.367-1.008-0.734-2.015-0.734-2.015L318.397,321.504z"/>
		<path style="clip-path:url(#SVGID_4_);fill:#733F1F;" d="M317.156,315.612c0,0,0.151,0.994,0.304,1.987
			c0.064,0.499,0.153,0.993,0.265,1.355c0.095,0.364,0.156,0.608,0.156,0.608l-1.981,0.486c0,0-0.066-0.26-0.166-0.648
			c-0.117-0.387-0.212-0.912-0.283-1.445c-0.161-1.06-0.322-2.119-0.322-2.119L317.156,315.612z"/>
		<path style="clip-path:url(#SVGID_4_);fill:none;" d="M317.156,315.612c0,0-0.018-0.125-0.044-0.311
			c-0.01-0.189-0.021-0.439-0.034-0.69c-0.025-0.503-0.051-1.005-0.051-1.005l-2.039,0.093c0,0,0.028,0.536,0.056,1.07
			c0.014,0.267,0.027,0.535,0.038,0.735c0.027,0.199,0.046,0.332,0.046,0.332L317.156,315.612z"/>
		<path style="clip-path:url(#SVGID_4_);fill:none;" d="M319.881,325.239c0,0,0.217,0.453,0.435,0.906
			c0.108,0.227,0.217,0.454,0.298,0.624c0.075,0.173,0.151,0.274,0.151,0.274l-1.789,0.98c0,0.001-0.08-0.107-0.161-0.292
			c-0.087-0.181-0.203-0.423-0.319-0.665c-0.232-0.482-0.464-0.966-0.464-0.966L319.881,325.239z"/>
		<path style="clip-path:url(#SVGID_4_);fill:#733F1F;" d="M317.339,307.599c0,0-0.035,0.249-0.09,0.622
			c-0.04,0.373-0.157,0.866-0.169,1.369c-0.048,1.004-0.096,2.008-0.096,2.008l-2.04-0.041c0,0,0.052-1.07,0.103-2.142
			c0.015-0.536,0.136-1.063,0.18-1.462c0.058-0.398,0.096-0.664,0.096-0.664L317.339,307.599z"/>
		<path style="clip-path:url(#SVGID_4_);fill:#733F1F;" d="M318.841,301.778c0,0-0.329,0.949-0.659,1.897
			c-0.238,0.976-0.477,1.952-0.477,1.952l-1.992-0.445c0,0,0.256-1.042,0.512-2.084c0.352-1.014,0.702-2.027,0.702-2.027
			L318.841,301.778z"/>
		<path style="clip-path:url(#SVGID_4_);fill:none;" d="M318.841,301.778c0,0,0.156-0.478,0.34-0.944
			c0.211-0.456,0.421-0.912,0.421-0.912l-1.862-0.834c0,0-0.225,0.487-0.448,0.976c-0.195,0.498-0.364,1.008-0.364,1.008
			L318.841,301.778z"/>
		<path style="clip-path:url(#SVGID_4_);fill:none;" d="M316.985,311.598c0,0-0.006,0.125-0.016,0.314
			c-0.018,0.188-0.012,0.439,0.007,0.69c0.025,0.502,0.052,1.004,0.052,1.004l-2.039,0.093c0,0-0.026-0.534-0.053-1.07
			c-0.019-0.268-0.025-0.534-0.007-0.735c0.01-0.201,0.016-0.336,0.016-0.336L316.985,311.598z"/>
		<path style="clip-path:url(#SVGID_4_);fill:#733F1F;" d="M322.594,294.701c0,0-0.147,0.203-0.366,0.511
			c-0.225,0.304-0.518,0.712-0.754,1.157c-0.505,0.868-1.011,1.737-1.011,1.737l-1.803-0.956c0,0,0.538-0.927,1.077-1.854
			c0.254-0.473,0.564-0.91,0.804-1.233c0.233-0.327,0.389-0.545,0.389-0.545L322.594,294.701z"/>
		<path style="clip-path:url(#SVGID_4_);fill:#733F1F;" d="M326.54,290.151c0,0-0.183,0.174-0.456,0.434
			c-0.268,0.266-0.656,0.588-0.97,0.984c-0.658,0.762-1.317,1.522-1.317,1.522l-1.584-1.286c0,0,0.701-0.81,1.401-1.619
			c0.334-0.42,0.746-0.766,1.031-1.049c0.291-0.277,0.485-0.463,0.485-0.463L326.54,290.151z"/>
		<path style="clip-path:url(#SVGID_4_);fill:none;" d="M326.54,290.151c0,0,0.363-0.347,0.728-0.693
			c0.184-0.172,0.359-0.353,0.505-0.473c0.148-0.115,0.248-0.192,0.248-0.192l-1.311-1.564c-0.043-0.05-1.58,1.445-1.579,1.445
			L326.54,290.151z"/>
		<path style="clip-path:url(#SVGID_4_);fill:none;" d="M320.463,298.107c0,0-0.069,0.104-0.152,0.275
			c-0.079,0.172-0.184,0.399-0.288,0.627c-0.21,0.457-0.421,0.913-0.421,0.913l-1.862-0.834c0,0,0.225-0.486,0.449-0.974
			c0.112-0.244,0.226-0.486,0.31-0.67c0.088-0.18,0.161-0.293,0.162-0.293L320.463,298.107z"/>
		<path style="clip-path:url(#SVGID_4_);fill:#733F1F;" d="M332.988,285.395c0.001,0.001-0.228,0.108-0.542,0.315
			c-0.32,0.199-0.746,0.465-1.173,0.73c-0.424,0.27-0.86,0.52-1.167,0.737c-0.298,0.231-0.497,0.386-0.497,0.386l-1.204-1.648
			c0,0,0.212-0.163,0.53-0.409c0.328-0.233,0.792-0.502,1.245-0.79c0.455-0.282,0.911-0.565,1.253-0.778
			c0.337-0.221,0.58-0.334,0.58-0.334L332.988,285.395z"/>
		<path style="clip-path:url(#SVGID_4_);fill:#733F1F;" d="M338.535,283.061c0,0-3.788,1.344-3.74,1.455l-0.853-1.854
			c0,0,0.241-0.117,0.603-0.293c0.357-0.185,0.875-0.337,1.374-0.532c0.504-0.184,1.008-0.368,1.386-0.506
			c0.377-0.139,0.632-0.222,0.632-0.222L338.535,283.061z"/>
		<polygon style="clip-path:url(#SVGID_4_);fill:none;" points="338.535,283.061 340.484,282.567 340.016,280.58 337.938,281.11 		
			"/>
		<polygon style="clip-path:url(#SVGID_4_);fill:none;" points="329.61,287.563 328.021,288.792 326.71,287.229 328.405,285.915 		
			"/>
		<path style="clip-path:url(#SVGID_4_);fill:#733F1F;" d="M346.45,281.766c0,0-1.004,0.053-2.009,0.106
			c-0.995,0.149-1.989,0.298-1.989,0.298l-0.337-2.012c0,0,1.06-0.158,2.119-0.316c1.069-0.057,2.138-0.115,2.138-0.115
			L346.45,281.766z"/>
		<rect x="348.487" y="279.664" style="clip-path:url(#SVGID_4_);fill:#733F1F;" width="4.154" height="2.041"/>
		<rect x="352.642" y="279.664" style="clip-path:url(#SVGID_4_);fill:none;" width="2.077" height="2.041"/>
		<path style="clip-path:url(#SVGID_4_);fill:none;" d="M342.452,282.17c0,0-0.498,0.074-0.995,0.147
			c-0.487,0.124-0.974,0.249-0.974,0.249l-0.468-1.986c0,0,0.52-0.132,1.039-0.263c0.53-0.08,1.061-0.159,1.061-0.159
			L342.452,282.17z"/>
		<rect x="356.796" y="279.664" style="clip-path:url(#SVGID_4_);fill:#733F1F;" width="4.154" height="2.041"/>
		<rect x="363.028" y="279.664" style="clip-path:url(#SVGID_4_);fill:#733F1F;" width="4.154" height="2.041"/>
		<rect x="367.182" y="279.664" style="clip-path:url(#SVGID_4_);fill:none;" width="2.077" height="2.041"/>
		<rect x="354.719" y="279.664" style="clip-path:url(#SVGID_4_);fill:none;" width="2.077" height="2.041"/>
		<rect x="371.337" y="279.664" style="clip-path:url(#SVGID_4_);fill:#733F1F;" width="4.153" height="2.041"/>
		<rect x="377.569" y="279.664" style="clip-path:url(#SVGID_4_);fill:#733F1F;" width="4.154" height="2.041"/>
		<rect x="381.723" y="279.664" style="clip-path:url(#SVGID_4_);fill:none;" width="2.077" height="2.041"/>
		<rect x="369.259" y="279.664" style="clip-path:url(#SVGID_4_);fill:none;" width="2.078" height="2.041"/>
		<rect x="385.877" y="279.664" style="clip-path:url(#SVGID_4_);fill:#733F1F;" width="4.154" height="2.041"/>
		<rect x="392.109" y="279.664" style="clip-path:url(#SVGID_4_);fill:#733F1F;" width="4.154" height="2.041"/>
		<rect x="396.263" y="279.664" style="clip-path:url(#SVGID_4_);fill:none;" width="2.077" height="2.041"/>
		<rect x="383.8" y="279.664" style="clip-path:url(#SVGID_4_);fill:none;" width="2.077" height="2.041"/>
		<rect x="400.417" y="279.664" style="clip-path:url(#SVGID_4_);fill:#733F1F;" width="4.154" height="2.041"/>
		<path style="clip-path:url(#SVGID_4_);fill:#733F1F;" d="M410.958,281.345c0-0.001-1.053,0.195-2.146,0.296
			c-0.543,0.037-1.133,0.064-1.515,0.064c-0.39,0-0.649,0-0.649,0v-2.041c0,0,0.26,0,0.649,0c0.397,0,0.846-0.025,1.338-0.057
			c0.978-0.09,1.969-0.273,1.969-0.272L410.958,281.345z"/>
		<path style="clip-path:url(#SVGID_4_);fill:none;" d="M410.958,281.345c0-0.001,0.531-0.088,1.051-0.205
			c0.523-0.106,1.041-0.23,1.042-0.229l-0.472-1.986c0,0-0.493,0.118-0.987,0.219c-0.493,0.111-0.987,0.191-0.987,0.193
			L410.958,281.345z"/>
		<rect x="398.34" y="279.664" style="clip-path:url(#SVGID_4_);fill:none;" width="2.077" height="2.041"/>
		<path style="clip-path:url(#SVGID_4_);fill:#733F1F;" d="M419.128,279.02c0,0-0.993,0.376-1.998,0.717
			c-1.005,0.34-2.025,0.629-2.025,0.629l-0.564-1.961c0,0,0.978-0.276,1.94-0.603c0.962-0.327,1.912-0.687,1.912-0.687
			L419.128,279.02z"/>
		<path style="clip-path:url(#SVGID_4_);fill:#733F1F;" d="M424.898,276.184c0,0-0.227,0.156-0.581,0.355
			c-0.353,0.199-0.813,0.494-1.296,0.727c-0.949,0.508-1.928,0.932-1.928,0.932l-0.833-1.863c0,0,0.93-0.402,1.811-0.875
			c0.455-0.217,0.869-0.486,1.194-0.669c0.326-0.184,0.527-0.321,0.527-0.321L424.898,276.184z"/>
		<path style="clip-path:url(#SVGID_4_);fill:none;" d="M424.898,276.184c0,0,0.455-0.31,0.909-0.62
			c0.446-0.335,0.876-0.706,0.876-0.706l-1.343-1.536c0,0-0.357,0.308-0.74,0.597c-0.403,0.275-0.807,0.551-0.807,0.551
			L424.898,276.184z"/>
		<path style="clip-path:url(#SVGID_4_);fill:none;" d="M415.105,280.365c0,0-0.508,0.155-1.022,0.286
			c-0.517,0.129-1.031,0.259-1.031,0.259l-0.472-1.986c0,0,0.491-0.123,0.983-0.246c0.492-0.125,0.978-0.272,0.978-0.273
			L415.105,280.365z"/>
	</g>
	<circle style="fill:#733F1F;" cx="353.593" cy="312.2" r="22.9"/>
	<circle style="fill:#FFD54F;" cx="356.314" cy="312.2" r="22.9"/>
	<circle style="fill:#EFC84A;" cx="356.314" cy="312.2" r="20.059"/>
	<circle style="fill:#D6B342;" cx="356.314" cy="312.2" r="16.668"/>
	<circle style="fill:#EFC84A;" cx="356.314" cy="312.2" r="13.262"/>
</g>
<g>
</g>
<g>
</g>
<g>
</g>
<g>
</g>
<g>
</g>
<g>
</g>
<g>
</g>
<g>
</g>
<g>
</g>
<g>
</g>
<g>
</g>
<g>
</g>
<g>
</g>
<g>
</g>
<g>
</g>
</svg>
